<svg width="27" height="25" viewBox="0 0 27 25" fill="none" xmlns="http://www.w3.org/2000/svg">
<path d="M9.16006 11.87C9.06006 11.86 8.94006 11.86 8.83006 11.87C6.45006 11.79 4.56006 9.84 4.56006 7.44C4.56006 4.99 6.54006 3 9.00006 3C11.4501 3 13.4401 4.99 13.4401 7.44C13.4301 9.84 11.5401 11.79 9.16006 11.87Z" stroke="#465064" stroke-width="2" stroke-linecap="round" stroke-linejoin="round"/>
<path d="M16.41 5C18.35 5 19.91 6.57 19.91 8.5C19.91 10.39 18.41 11.93 16.54 12C16.46 11.99 16.37 11.99 16.28 12" stroke="#465064" stroke-width="2" stroke-linecap="round" stroke-linejoin="round"/>
<path d="M4.15997 15.56C1.73997 17.18 1.73997 19.82 4.15997 21.43C6.90997 23.27 11.42 23.27 14.17 21.43C16.59 19.81 16.59 17.17 14.17 15.56C11.43 13.73 6.91997 13.73 4.15997 15.56Z" stroke="#465064" stroke-width="2" stroke-linecap="round" stroke-linejoin="round"/>
<path d="M18.3401 21C19.0601 20.85 19.7401 20.56 20.3001 20.13C21.8601 18.96 21.8601 17.03 20.3001 15.86C19.7501 15.44 19.0801 15.16 18.3701 15" stroke="#465064" stroke-width="2" stroke-linecap="round" stroke-linejoin="round"/>
<path d="M26.5556 5H19.4444C19.2015 5 19 4.54667 19 4C19 3.45333 19.2015 3 19.4444 3H26.5556C26.7985 3 27 3.45333 27 4C27 4.54667 26.7985 5 26.5556 5Z" fill="#465064"/>
<path d="M23 8C22.4533 8 22 7.79852 22 7.55556V0.444444C22 0.201481 22.4533 0 23 0C23.5467 0 24 0.201481 24 0.444444V7.55556C24 7.79852 23.5467 8 23 8Z" fill="#465064"/>
</svg>
