<svg fill="none" height="134" viewBox="0 0 335 134" width="335" xmlns="http://www.w3.org/2000/svg">
    <g clip-path="url(#clip0_940_4795)">
        <rect fill="#FCFAFF" height="134" rx="8" width="335" />
        <path clip-rule="evenodd" d="M382.151 28.8725C396.628 33.1485 411.346 36.3921 423.55 45.1383C436.358 54.3181 454.168 64.7658 453.656 80.1213C453.084 97.2954 429.878 104.546 421.077 119.361C415.907 128.064 418.7 139.512 413.287 148.073C407.38 157.415 397.185 162.616 388.975 170.132C374.966 182.957 366.71 212.19 347.766 208.057C328.543 203.863 339.632 168.825 324.805 156.131C310.197 143.624 278.625 157.929 269.645 141.172C261.291 125.582 287.505 111.488 291.807 94.5545C295.756 79.015 285.676 61.3227 293.502 47.2754C301.592 32.7544 317.394 22.1678 334.064 18.7073C350.305 15.3357 366.171 24.1526 382.151 28.8725Z"
            fill="#FFF2EF"
            fill-rule="evenodd" />
        <circle cx="15" cy="115" fill="#5A36B8" r="3" />
        <circle cx="25" cy="115" fill="#D9D9D9" r="3" />
        <circle cx="35" cy="115" fill="#D9D9D9" r="3" />
        <g clip-path="url(#clip1_940_4795)">
            <path
                d="M280.532 92.2774C280.592 91.7016 280.479 91.1211 280.208 90.6096C279.937 90.0982 279.52 89.6788 279.01 89.4049C278.671 89.2232 278.3 89.1102 277.917 89.0725L273.012 88.5728L272.353 94.9961C272.801 95.6292 273.293 96.2302 273.825 96.7947C273.745 92.8389 274.697 92.73 275.358 95.9247C275.995 98.9997 278.142 100.509 279.572 101.554L280.532 92.2774Z"
                fill="#FD93A1" />
            <path
                d="M272.802 104.14C272.38 103.685 271.962 103.225 271.548 102.762L271.022 107.908C271.398 106.561 272 105.287 272.802 104.14Z"
                fill="#FD93A1" />
            <path
                d="M271.432 109.449C271.111 109.405 270.964 109.042 270.95 108.694L270.743 110.741L275.506 111.225C274.352 110.736 272.107 109.746 271.432 109.449Z"
                fill="#FD93A1" />
            <path
                d="M268.913 99.5708C268.347 98.8368 267.77 98.0839 267.266 97.3051C266.584 96.2569 266.935 95.801 267.742 96.5856C268.04 96.8683 268.413 97.1612 269.025 97.642C268.435 96.9086 267.893 96.1374 267.404 95.3333C266.759 94.203 267.329 93.6787 268.058 94.5691C268.251 94.8126 268.72 95.3368 269.288 95.9092L269.313 95.6325C268.963 95.0143 268.645 94.3775 268.364 93.7249C267.88 92.5022 268.497 92.0538 269.098 93.0421C269.186 93.1879 269.332 93.392 269.512 93.639L270.065 88.2522L265.167 87.7576C264.592 87.698 264.011 87.8109 263.5 88.082C262.988 88.3531 262.569 88.7702 262.295 89.2802C262.114 89.6191 262 89.99 261.962 90.3726L260.279 106.73C260.239 107.112 260.276 107.498 260.386 107.867C260.496 108.235 260.678 108.578 260.921 108.876C261.164 109.173 261.463 109.42 261.802 109.602C262.14 109.784 262.511 109.897 262.894 109.935L267.8 110.434L268.913 99.5708Z"
                fill="#FD93A1" />
            <path
                d="M330.849 56.5107L323.414 55.4594L330.905 54.9107L331.02 51.6077C331.024 51.5002 331.001 51.3933 330.955 51.2962C330.908 51.1991 330.839 51.1145 330.754 51.0496C330.668 50.9847 330.568 50.9413 330.462 50.9231C330.355 50.9049 330.247 50.9124 330.144 50.945L318.244 54.6393C318.112 54.6815 317.996 54.7635 317.912 54.8742C317.828 54.9849 317.78 55.1188 317.776 55.2577C317.771 55.3965 317.809 55.5335 317.885 55.6498C317.961 55.7662 318.071 55.8562 318.2 55.9076L329.821 60.4248C329.921 60.4641 330.028 60.479 330.135 60.4683C330.241 60.4575 330.344 60.4214 330.433 60.363C330.523 60.3045 330.597 60.2254 330.65 60.1323C330.703 60.0392 330.733 59.9348 330.737 59.8278L330.849 56.5107Z"
                fill="#FD93A1" />
            <path
                d="M307.785 102.607C306.929 102.517 306.046 103.646 305.317 105.51C306.743 106.212 308.235 106.77 309.772 107.176C309.507 104.591 308.784 102.712 307.785 102.607Z"
                fill="#5A3EA4" />
            <path
                d="M309.136 115.931C307.324 116.173 305.48 115.978 303.758 115.363C303.831 118.919 304.618 121.512 305.84 121.634C307.058 121.762 308.353 119.396 309.136 115.931Z"
                fill="#5A3EA4" />
            <path
                d="M272.802 104.14C271.198 106.555 270.498 108.845 271.228 109.361C271.916 109.854 273.632 108.637 275.259 106.574C274.371 105.836 273.548 105.022 272.802 104.14Z"
                fill="#5A3EA4" />
            <path
                d="M288.612 125.635C287.918 125.557 287.216 125.615 286.544 125.809C285.873 126.002 285.247 126.325 284.701 126.761C283.598 127.64 282.889 128.921 282.731 130.323C282.572 131.724 282.977 133.131 283.856 134.234C284.291 134.781 284.829 135.236 285.44 135.574C286.052 135.912 286.723 136.127 287.417 136.205L288.612 125.635Z"
                fill="#5A3EA4" />
            <path
                d="M333.679 85.3491C333.672 85.7977 334.946 86.1981 336.764 86.3962C336.808 85.7569 336.834 85.0868 336.864 84.3907C334.999 84.5256 333.686 84.8955 333.679 85.3491Z"
                fill="#5A3EA4" />
            <path
                d="M300.05 108.925C299.395 109.51 298.68 110.026 297.918 110.465L298.577 111.453L300.05 108.925Z"
                fill="#5A3EA4" />
            <path d="M299.259 98.7109L298.065 99.7725L298.355 98.6617L299.259 98.7109Z"
                fill="#5A3EA4" />
            <path
                d="M312.612 94.4955C312.94 94.4826 313.254 94.3617 313.505 94.1516C313.757 93.9416 313.932 93.6542 314.003 93.3342C314.053 93.1133 314.052 92.884 314.001 92.6636C313.949 92.4431 313.848 92.2373 313.705 92.0615C313.563 91.8855 313.382 91.744 313.177 91.6476C313.389 91.5574 313.575 91.4145 313.717 91.2325C313.962 90.923 314.076 90.5291 314.033 90.1363C313.99 89.7435 313.793 89.3836 313.486 89.135C313.254 88.9486 312.971 88.8367 312.674 88.814C312.921 88.5758 313.079 88.2599 313.12 87.9193C313.162 87.5788 313.085 87.2342 312.903 86.9435C312.721 86.6528 312.444 86.4337 312.119 86.3229C311.794 86.2121 311.441 86.2163 311.12 86.335C311.306 86.0263 311.374 85.6605 311.311 85.3055C311.248 84.9504 311.059 84.6302 310.778 84.4044L310.702 84.3359C310.428 84.1164 310.085 84.0007 309.735 84.0091C309.384 84.0175 309.047 84.1495 308.784 84.3818C308.842 84.0552 308.791 83.7184 308.636 83.4246C308.482 83.1308 308.235 82.8967 307.932 82.7593C307.63 82.622 307.291 82.5891 306.968 82.666C306.646 82.7429 306.358 82.9252 306.15 83.184C306.121 83.2165 306.096 83.2524 306.075 83.2907C305.992 82.9851 305.816 82.7129 305.571 82.5119C305.418 82.3886 305.243 82.2968 305.055 82.2417C304.866 82.1866 304.669 82.1692 304.474 82.1906C304.279 82.2121 304.09 82.2718 303.919 82.3665C303.747 82.4612 303.596 82.5889 303.473 82.7424C303.344 82.9082 303.251 83.099 303.199 83.3028C303.122 83.1857 303.027 83.0815 302.917 82.9942C302.684 82.8079 302.401 82.6954 302.104 82.6715C301.807 82.6476 301.51 82.7132 301.25 82.8599C300.991 83.0067 300.781 83.2278 300.649 83.4947C300.516 83.7617 300.467 84.0622 300.507 84.3575C300.227 84.1419 299.88 84.0326 299.527 84.0491C299.174 84.0655 298.838 84.2067 298.58 84.4474C298.321 84.6881 298.157 85.0128 298.115 85.3636C298.073 85.7144 298.158 86.0686 298.353 86.3631C298.027 86.2236 297.663 86.2042 297.325 86.3083C296.986 86.4125 296.696 86.6334 296.506 86.9317C296.315 87.23 296.237 87.5863 296.284 87.9371C296.332 88.2879 296.503 88.6102 296.766 88.8468C296.464 88.861 296.173 88.9671 295.933 89.1508C295.692 89.3346 295.514 89.5873 295.42 89.8752C295.327 90.1631 295.324 90.4725 295.411 90.7623C295.499 91.0521 295.672 91.3083 295.909 91.497C296.009 91.5685 296.115 91.6317 296.226 91.6861C296.02 91.7858 295.839 91.9292 295.695 92.1064C295.449 92.4158 295.336 92.8098 295.379 93.2026C295.422 93.5953 295.618 93.9552 295.925 94.2039C296.158 94.3965 296.445 94.5106 296.746 94.53C296.541 94.7291 296.398 94.9828 296.334 95.2609C296.269 95.5389 296.286 95.8297 296.382 96.0985C296.71 95.1813 297.207 94.334 297.848 93.601C301.009 89.6526 301.925 93.221 301.435 95.0403C301.374 95.3773 301.55 95.4937 302.15 95.2103C303.398 94.6248 303.832 96.6565 301.601 97.1692C301.367 97.2282 300.702 98.1851 300.634 99.614C300.72 99.895 300.889 100.142 301.12 100.324C301.282 100.453 301.468 100.547 301.668 100.599C301.868 100.652 302.076 100.664 302.281 100.632C302.485 100.6 302.68 100.527 302.854 100.416C303.029 100.305 303.178 100.159 303.293 99.9869C303.36 100.256 303.502 100.501 303.701 100.693C303.9 100.886 304.149 101.019 304.42 101.078C304.692 101.136 304.974 101.118 305.235 101.024C305.496 100.931 305.725 100.766 305.898 100.549C306.026 100.388 306.121 100.202 306.176 100.004C306.308 100.194 306.483 100.352 306.687 100.463C306.891 100.575 307.118 100.637 307.35 100.645C307.582 100.653 307.813 100.607 308.024 100.51C308.235 100.413 308.42 100.268 308.565 100.087C308.691 99.9319 308.784 99.7528 308.839 99.5606C308.893 99.3684 308.908 99.1671 308.882 98.969C309.161 99.1872 309.509 99.299 309.863 99.2843C310.217 99.2696 310.554 99.1294 310.814 98.8887C311.074 98.6477 311.239 98.3224 311.281 97.9707C311.323 97.619 311.239 97.2638 311.043 96.9685C311.344 97.0991 311.679 97.1277 311.997 97.0499C312.315 96.9721 312.599 96.7922 312.805 96.5378C313.044 96.2387 313.157 95.8585 313.121 95.4776C313.085 95.0966 312.903 94.7445 312.612 94.4955Z"
                fill="#5A3EA4" />
            <path
                d="M353.91 113.809C353.471 117.477 352.31 121.022 350.492 124.238C348.674 127.454 346.237 130.278 343.32 132.545C340.404 134.813 337.067 136.48 333.502 137.449C329.938 138.418 326.216 138.671 322.553 138.192"
                stroke="#120071" stroke-linecap="round" stroke-linejoin="round"
                stroke-width="0.769171" />
            <path d="M328.292 82.6841C330.996 82.8848 333.655 83.4808 336.185 84.4531"
                stroke="#120071" stroke-linecap="round" stroke-linejoin="round"
                stroke-width="0.769171" />
            <path d="M289.857 114.687L286.83 141.513" stroke="#120071" stroke-linecap="round"
                stroke-linejoin="round" stroke-width="0.769171" />
            <path
                d="M291.484 100.303L295.743 62.4745C295.957 60.4531 297.825 59.6682 299.422 60.9232L321.035 77.9693C322.292 78.9603 323.277 80.2525 323.901 81.7261C324.525 83.1996 324.767 84.8068 324.604 86.3986L316.975 159.47"
                stroke="#120071" stroke-linecap="round" stroke-linejoin="round"
                stroke-width="0.769171" />
            <path
                d="M297.877 100.397C293.69 100.631 289.49 100.288 285.396 99.3788C283.576 98.6192 281.799 97.7581 280.075 96.7995"
                stroke="#120071" stroke-linecap="round" stroke-linejoin="round"
                stroke-width="0.769171" />
            <path
                d="M279.569 101.539L280.527 92.2626C280.605 91.4909 280.373 90.72 279.882 90.1191C279.392 89.5182 278.683 89.1364 277.912 89.0577L265.163 87.7648C264.391 87.6869 263.62 87.9186 263.019 88.4088C262.418 88.8991 262.037 89.6079 261.958 90.3795L260.274 106.737C260.197 107.509 260.429 108.28 260.919 108.88C261.409 109.481 262.118 109.863 262.889 109.942L275.506 111.225"
                stroke="#120071" stroke-linecap="round" stroke-linejoin="round"
                stroke-width="0.769171" />
            <path
                d="M271.483 88.3963C271.483 88.3963 265.146 83.7795 263.561 80.182C261.976 76.5845 267.092 73.2009 269.127 77.832C271.196 82.5353 271.483 88.3963 271.483 88.3963Z"
                stroke="#120071" stroke-linecap="round" stroke-linejoin="round"
                stroke-width="0.769171" />
            <path
                d="M271.476 88.392C271.476 88.392 278.797 85.596 281.271 82.5325C283.746 79.469 279.685 74.8788 276.517 78.8082C273.285 82.8105 271.476 88.392 271.476 88.392Z"
                stroke="#120071" stroke-linecap="round" stroke-linejoin="round"
                stroke-width="0.769171" />
            <path
                d="M298.026 99.8089L299.263 98.7047C299.263 98.7047 293.618 99.036 297.858 93.6078C300.901 89.7122 301.89 93.0654 301.476 94.9192C301.379 95.3528 301.457 95.5544 302.153 95.2249C303.401 94.6385 303.837 96.6829 301.603 97.1836C301.174 97.2801 300.127 99.2741 300.929 101.659C301.438 103.173 304.294 105.719 309.762 107.173"
                stroke="#120071" stroke-linecap="round" stroke-linejoin="round"
                stroke-width="0.769171" />
            <path d="M298.355 98.6616C297.932 99.9815 297.641 101.34 297.487 102.717"
                stroke="#120071" stroke-linecap="round" stroke-linejoin="round"
                stroke-width="0.769171" />
            <path
                d="M300.681 100.551C297.653 103.26 292.383 105.133 288.185 106.713C284.505 104.925 281.031 102.742 277.822 100.204"
                stroke="#120071" stroke-linecap="round" stroke-linejoin="round"
                stroke-width="0.769171" />
            <path
                d="M309.136 115.932C306.937 116.227 304.699 115.866 302.704 114.894C300.709 113.922 299.045 112.383 297.921 110.47C295.361 112.015 292.71 113.405 289.983 114.633C289.059 115.076 288.012 115.188 287.016 114.951C281.645 113.637 276.417 111.793 271.411 109.446"
                stroke="#120071" stroke-linecap="round" stroke-linejoin="round"
                stroke-width="0.769171" />
            <path
                d="M303.759 115.361C303.832 118.917 304.619 121.505 305.841 121.632C309.621 122.024 311.621 103.013 307.786 102.607C306.929 102.517 306.046 103.646 305.317 105.51"
                stroke="#120071" stroke-linecap="round" stroke-linejoin="round"
                stroke-width="0.769171" />
            <path
                d="M349.166 100.794C347.671 103.496 342.285 113.269 341.695 114.259C340.042 113.588 326.374 109.332 325.623 109.047"
                stroke="#120071" stroke-linecap="round" stroke-linejoin="round"
                stroke-width="0.769171" />
            <path
                d="M324.247 122.425C346.205 126.865 345.627 126.929 348.964 122.164C351.089 119.127 356.142 109.797 358.054 106.084"
                stroke="#120071" stroke-linecap="round" stroke-linejoin="round"
                stroke-width="0.769171" />
            <path
                d="M333.679 85.3491C333.612 88.4355 333.682 100.168 333.629 101.315C332.91 101.388 329.156 102.497 326.213 103.145"
                stroke="#120071" stroke-linecap="round" stroke-linejoin="round"
                stroke-width="0.769171" />
            <path
                d="M336.139 112.403C342.973 109.024 343.099 107.245 343.367 104.3C343.71 100.493 344.023 89.3139 343.968 85.4546"
                stroke="#120071" stroke-linecap="round" stroke-linejoin="round"
                stroke-width="0.769171" />
            <path
                d="M296.774 60.6218C297.892 59.8088 299.244 59.3818 300.626 59.4052C302.007 59.4287 303.344 59.9013 304.434 60.7517L325.653 77.4225C326.572 78.144 327.294 79.087 327.75 80.1633C328.207 81.2396 328.383 82.414 328.262 83.5767L320.142 161.362"
                stroke="#120071" stroke-linecap="round" stroke-linejoin="round"
                stroke-width="0.769171" />
            <path
                d="M299.91 66.1506C299.816 67.0281 299.269 67.6936 298.685 67.6366C298.101 67.5797 297.695 66.8127 297.787 65.9343C297.879 65.056 298.428 64.3866 299.012 64.4482C299.596 64.5099 300.003 65.273 299.91 66.1506Z"
                stroke="#120071" stroke-linecap="round" stroke-linejoin="round"
                stroke-width="0.769171" />
            <path d="M283.386 61.2642L282.716 67.6084" stroke="#120071" stroke-linecap="round"
                stroke-linejoin="round" stroke-width="0.769171" />
            <path d="M286.221 64.7644L279.881 64.1089" stroke="#120071" stroke-linecap="round"
                stroke-linejoin="round" stroke-width="0.769171" />
            <path d="M333.65 89.4018C336.975 90.6135 340.622 90.6098 343.946 89.3912"
                stroke="#120071" stroke-linecap="round" stroke-linejoin="round"
                stroke-width="0.769171" />
            <path
                d="M330.849 56.5107L323.414 55.4594L330.905 54.9107L331.02 51.6077C331.024 51.5002 331.001 51.3933 330.955 51.2962C330.908 51.1991 330.839 51.1145 330.754 51.0496C330.668 50.9847 330.568 50.9413 330.462 50.9231C330.355 50.9049 330.247 50.9124 330.144 50.945L318.244 54.6393C318.112 54.6815 317.996 54.7635 317.912 54.8742C317.828 54.9849 317.78 55.1188 317.776 55.2577C317.771 55.3965 317.809 55.5335 317.885 55.6498C317.961 55.7662 318.071 55.8562 318.2 55.9076L329.821 60.4248C329.921 60.4641 330.028 60.479 330.135 60.4683C330.241 60.4575 330.344 60.4214 330.433 60.363C330.523 60.3045 330.597 60.2254 330.65 60.1323C330.703 60.0392 330.733 59.9348 330.737 59.8278L330.849 56.5107Z"
                stroke="#120071" stroke-linecap="round" stroke-linejoin="round"
                stroke-width="0.769171" />
            <path
                d="M274.561 97.5359C273.14 96.1644 271.939 94.5822 271 92.8451C270.409 91.8397 269.791 92.1279 270.195 93.3919C270.586 94.5346 271.096 95.633 271.717 96.6688"
                stroke="#120071" stroke-linecap="round" stroke-linejoin="round"
                stroke-width="0.769171" />
            <path
                d="M271.199 95.7522C270.446 94.8993 269.747 93.9994 269.108 93.058C268.502 92.0632 267.884 92.5117 268.374 93.7404C269.024 95.1402 269.78 96.4884 270.636 97.7732"
                stroke="#120071" stroke-linecap="round" stroke-linejoin="round"
                stroke-width="0.769171" />
            <path
                d="M269.72 96.3398C269.138 95.7804 268.586 95.1904 268.067 94.5724C267.349 93.6736 266.771 94.2046 267.413 95.3371C268.122 96.4839 268.927 97.5689 269.818 98.5803"
                stroke="#120071" stroke-linecap="round" stroke-linejoin="round"
                stroke-width="0.769171" />
            <path
                d="M275.259 106.574C274.972 106.508 271.439 102.826 269.527 100.379C268.762 99.3969 267.952 98.3865 267.265 97.3256C266.573 96.2573 266.92 95.8082 267.737 96.5924C268.034 96.8767 268.409 97.168 269.02 97.6493"
                stroke="#120071" stroke-linecap="round" stroke-linejoin="round"
                stroke-width="0.769171" />
            <path
                d="M272.802 104.14C271.198 106.555 270.499 108.843 271.228 109.362C273.051 110.66 279.472 101.614 277.763 100.146C276.56 99.0082 275.718 97.5404 275.345 95.9266C274.688 92.738 273.831 92.8303 273.902 96.781"
                stroke="#120071" stroke-linecap="round" stroke-linejoin="round"
                stroke-width="0.769171" />
            <path
                d="M288.607 125.644C287.58 125.526 286.54 125.711 285.616 126.176C284.692 126.64 283.923 127.364 283.404 128.259C283.016 128.929 282.778 129.675 282.708 130.445C282.638 131.216 282.738 131.992 282.999 132.721C283.26 133.449 283.677 134.111 284.221 134.662C284.765 135.212 285.423 135.637 286.148 135.907C286.873 136.177 287.648 136.285 288.42 136.224C289.191 136.163 289.94 135.934 290.613 135.554C291.287 135.174 291.87 134.651 292.321 134.022C292.772 133.393 293.08 132.674 293.223 131.913C293.426 130.832 293.289 129.714 292.831 128.714C292.373 127.714 291.616 126.88 290.664 126.327C290.033 125.961 289.333 125.728 288.607 125.644Z"
                stroke="#120071" stroke-linecap="round" stroke-linejoin="round"
                stroke-width="0.769171" />
            <path
                d="M342.498 84.7063C343.413 84.9136 343.978 85.1938 343.976 85.4947C343.97 86.3285 340.304 86.497 339.461 86.5073C338.349 86.5192 333.664 86.3748 333.679 85.349C333.686 84.8955 334.998 84.526 336.864 84.3906"
                stroke="#120071" stroke-linecap="round" stroke-linejoin="round"
                stroke-width="0.769171" />
            <path
                d="M342.545 79.798C340.671 79.5559 338.771 79.6119 336.915 79.9639C336.905 82.1514 336.896 84.4352 336.771 86.3869C338.674 86.5935 340.596 86.5421 342.485 86.2342L342.545 79.798Z"
                stroke="#120071" stroke-linecap="round" stroke-linejoin="round"
                stroke-width="0.769171" />
            <path
                d="M312.806 96.5364C312.6 96.7913 312.317 96.9715 311.998 97.0493C311.68 97.1271 311.345 97.0982 311.045 96.9671C311.241 97.2622 311.325 97.6175 311.283 97.9694C311.241 98.3213 311.075 98.6468 310.815 98.8873C310.555 99.1278 310.218 99.2679 309.864 99.2826C309.51 99.2973 309.162 99.1857 308.883 98.9677C308.908 99.1657 308.893 99.3669 308.839 99.559C308.784 99.7511 308.692 99.9302 308.566 100.085C308.381 100.316 308.133 100.486 307.851 100.575C307.57 100.663 307.268 100.667 306.985 100.585C306.797 100.529 306.621 100.438 306.469 100.316C306.357 100.226 306.259 100.12 306.177 100.002C306.121 100.201 306.027 100.386 305.899 100.548C305.726 100.765 305.496 100.929 305.235 101.022C304.975 101.116 304.693 101.134 304.422 101.076C304.151 101.017 303.902 100.884 303.702 100.692C303.503 100.499 303.362 100.254 303.294 99.9856C303.273 100.024 303.248 100.06 303.219 100.092C302.97 100.4 302.61 100.597 302.217 100.64C301.824 100.683 301.43 100.569 301.121 100.323C300.891 100.141 300.721 99.8931 300.635 99.6126C300.705 98.1845 301.368 97.2254 301.602 97.1678C303.826 96.6303 303.399 94.6225 302.151 95.2089C301.634 95.4528 301.338 95.4687 301.462 94.9342C301.891 93.0881 300.955 89.7297 297.849 93.5996C297.209 94.3333 296.711 95.1803 296.383 96.0971C296.297 95.8577 296.273 95.6002 296.315 95.3492C296.356 95.0981 296.461 94.8619 296.62 94.663C296.658 94.6145 296.7 94.5696 296.747 94.5286C296.446 94.5071 296.16 94.3932 295.926 94.2025C295.621 93.9528 295.426 93.5931 295.382 93.2009C295.339 92.8086 295.452 92.4151 295.696 92.105C295.84 91.9282 296.022 91.7846 296.227 91.6847C296.116 91.6304 296.01 91.5671 295.91 91.4956C295.672 91.3072 295.498 91.051 295.411 90.761C295.323 90.4711 295.326 90.1613 295.42 89.8732C295.513 89.585 295.692 89.3322 295.933 89.1485C296.173 88.9649 296.465 88.8591 296.767 88.8454C296.504 88.6089 296.333 88.2865 296.285 87.9357C296.238 87.585 296.316 87.2286 296.507 86.9303C296.697 86.632 296.987 86.4111 297.326 86.3069C297.664 86.2028 298.028 86.2222 298.354 86.3617C298.159 86.0673 298.075 85.7135 298.117 85.3631C298.159 85.0127 298.324 84.6885 298.582 84.448C298.84 84.2075 299.175 84.0662 299.527 84.0494C299.88 84.0326 300.227 84.1412 300.507 84.356C300.467 84.0606 300.516 83.7599 300.648 83.4928C300.781 83.2257 300.99 83.0045 301.25 82.8577C301.509 82.7109 301.807 82.6453 302.104 82.6694C302.401 82.6935 302.684 82.8061 302.917 82.9928C303.027 83.0799 303.122 83.1841 303.199 83.3013C303.26 83.0599 303.381 82.8377 303.551 82.6552C303.72 82.4727 303.933 82.3359 304.169 82.2572C304.406 82.1786 304.658 82.1606 304.903 82.2051C305.148 82.2496 305.378 82.355 305.572 82.5117C305.817 82.7115 305.994 82.9843 306.076 83.2905C306.266 83.0055 306.549 82.7948 306.876 82.6936C307.203 82.5925 307.556 82.6072 307.874 82.7352C308.191 82.8632 308.456 83.0968 308.622 83.3966C308.787 83.6964 308.845 84.0442 308.785 84.3816C310.087 83.2398 311.999 84.9062 311.12 86.3345C311.442 86.2165 311.794 86.2127 312.119 86.3237C312.443 86.4347 312.72 86.6537 312.902 86.9441C313.084 87.2346 313.161 87.5787 313.119 87.919C313.078 88.2594 312.921 88.5751 312.675 88.8135C312.972 88.8356 313.255 88.9475 313.486 89.1345C313.794 89.3833 313.991 89.7436 314.034 90.137C314.078 90.5304 313.964 90.9249 313.717 91.2346C313.575 91.4162 313.39 91.559 313.178 91.6498C313.382 91.7473 313.561 91.8894 313.702 92.0654C313.844 92.2414 313.944 92.447 313.995 92.6669C314.046 92.8868 314.048 93.1154 313.999 93.3358C313.95 93.5563 313.852 93.763 313.713 93.9407C313.58 94.1069 313.413 94.2425 313.223 94.3385C313.033 94.4344 312.824 94.4884 312.611 94.4968C312.902 94.7448 313.086 95.0964 313.122 95.4771C313.158 95.8578 313.045 96.2377 312.806 96.5364Z"
                stroke="#120071" stroke-linecap="round" stroke-linejoin="round"
                stroke-width="0.769171" />
            <path d="M270.083 88.2607L269.529 93.6475" stroke="#120071" stroke-linecap="round"
                stroke-linejoin="round" stroke-width="0.769171" />
            <path d="M268.922 99.5742L267.81 110.438" stroke="#120071" stroke-linecap="round"
                stroke-linejoin="round" stroke-width="0.769171" />
            <path d="M273.008 88.5591L272.351 94.9806" stroke="#120071" stroke-linecap="round"
                stroke-linejoin="round" stroke-width="0.769171" />
            <path d="M271.548 102.762L271.022 107.908" stroke="#120071" stroke-linecap="round"
                stroke-linejoin="round" stroke-width="0.769171" />
            <path d="M270.95 108.694L270.735 110.736" stroke="#120071" stroke-linecap="round"
                stroke-linejoin="round" stroke-width="0.769171" />
            <path
                d="M297.926 110.467C298.669 109.996 299.386 109.486 300.076 108.94L298.572 111.461"
                stroke="#120071" stroke-linecap="round" stroke-linejoin="round"
                stroke-width="0.769171" />
        </g>
    </g>
    <defs>
        <clipPath id="clip0_940_4795">
            <rect fill="white" height="134" rx="8" width="335" />
        </clipPath>
        <clipPath id="clip1_940_4795">
            <rect fill="white" height="106" transform="translate(257 44)" width="106" />
        </clipPath>
    </defs>
</svg>
