<svg width="335" height="106" viewBox="0 0 335 106" fill="none" xmlns="http://www.w3.org/2000/svg">
<g clip-path="url(#clip0_940_4333)">
<rect y="0.5" width="335" height="105" rx="8" fill="#1A202C"/>
<path d="M16.128 37.236V34.572H20.04C20.552 34.572 21.016 34.468 21.432 34.26C21.848 34.052 22.176 33.756 22.416 33.372C22.656 32.972 22.776 32.492 22.776 31.932C22.776 31.388 22.656 30.916 22.416 30.516C22.176 30.116 21.848 29.812 21.432 29.604C21.016 29.396 20.552 29.292 20.04 29.292H16.128V26.628H20.376C21.448 26.628 22.408 26.844 23.256 27.276C24.12 27.708 24.8 28.324 25.296 29.124C25.792 29.908 26.04 30.844 26.04 31.932C26.04 33.02 25.792 33.964 25.296 34.764C24.8 35.548 24.12 36.156 23.256 36.588C22.408 37.02 21.448 37.236 20.376 37.236H16.128ZM13.728 43.5V26.628H16.992V43.5H13.728ZM32.49 43.74C31.434 43.74 30.482 43.476 29.634 42.948C28.786 42.42 28.122 41.7 27.642 40.788C27.162 39.876 26.922 38.852 26.922 37.716C26.922 36.564 27.162 35.532 27.642 34.62C28.122 33.708 28.786 32.988 29.634 32.46C30.482 31.932 31.434 31.668 32.49 31.668C33.322 31.668 34.066 31.836 34.722 32.172C35.378 32.508 35.898 32.98 36.282 33.588C36.682 34.18 36.898 34.852 36.93 35.604V39.78C36.898 40.548 36.682 41.228 36.282 41.82C35.898 42.412 35.378 42.884 34.722 43.236C34.066 43.572 33.322 43.74 32.49 43.74ZM33.066 40.836C33.946 40.836 34.658 40.548 35.202 39.972C35.746 39.38 36.018 38.62 36.018 37.692C36.018 37.084 35.89 36.548 35.634 36.084C35.394 35.604 35.05 35.236 34.602 34.98C34.17 34.708 33.658 34.572 33.066 34.572C32.49 34.572 31.978 34.708 31.53 34.98C31.098 35.236 30.754 35.604 30.498 36.084C30.258 36.548 30.138 37.084 30.138 37.692C30.138 38.316 30.258 38.868 30.498 39.348C30.754 39.812 31.098 40.18 31.53 40.452C31.978 40.708 32.49 40.836 33.066 40.836ZM35.85 43.5V40.38L36.354 37.548L35.85 34.764V31.908H38.97V43.5H35.85ZM45.3994 43.596L40.5514 31.908H43.9594L47.1754 40.836H46.0234L49.3594 31.908H52.7914L47.6314 43.572L45.3994 43.596ZM42.1834 48.348L45.7114 40.884L47.6314 43.572L45.5194 48.348H42.1834ZM62.7197 43.596L57.8717 31.908H61.2797L64.4957 40.836H63.3437L66.6797 31.908H70.1117L64.9517 43.572L62.7197 43.596ZM59.5037 48.348L63.0317 40.884L64.9517 43.572L62.8397 48.348H59.5037ZM76.6369 43.74C75.4689 43.74 74.4129 43.476 73.4689 42.948C72.5409 42.404 71.7969 41.676 71.2369 40.764C70.6929 39.836 70.4209 38.804 70.4209 37.668C70.4209 36.532 70.6929 35.516 71.2369 34.62C71.7809 33.708 72.5249 32.988 73.4689 32.46C74.4129 31.916 75.4609 31.644 76.6129 31.644C77.7969 31.644 78.8529 31.916 79.7809 32.46C80.7249 32.988 81.4689 33.708 82.0129 34.62C82.5569 35.516 82.8289 36.532 82.8289 37.668C82.8289 38.804 82.5569 39.836 82.0129 40.764C81.4689 41.676 80.7249 42.404 79.7809 42.948C78.8529 43.476 77.8049 43.74 76.6369 43.74ZM76.6129 40.812C77.2049 40.812 77.7249 40.684 78.1729 40.428C78.6369 40.156 78.9889 39.788 79.2289 39.324C79.4849 38.844 79.6129 38.3 79.6129 37.692C79.6129 37.084 79.4849 36.548 79.2289 36.084C78.9729 35.62 78.6209 35.26 78.1729 35.004C77.7249 34.732 77.2049 34.596 76.6129 34.596C76.0369 34.596 75.5249 34.732 75.0769 35.004C74.6289 35.26 74.2769 35.62 74.0209 36.084C73.7649 36.548 73.6369 37.084 73.6369 37.692C73.6369 38.3 73.7649 38.844 74.0209 39.324C74.2769 39.788 74.6289 40.156 75.0769 40.428C75.5249 40.684 76.0369 40.812 76.6129 40.812ZM89.7969 43.74C88.7729 43.74 87.8609 43.524 87.0609 43.092C86.2769 42.66 85.6609 42.06 85.2129 41.292C84.7649 40.524 84.5409 39.636 84.5409 38.628V31.908H87.7089V38.556C87.7089 39.036 87.7889 39.452 87.9489 39.804C88.1089 40.14 88.3489 40.396 88.6689 40.572C88.9889 40.748 89.3649 40.836 89.7969 40.836C90.4529 40.836 90.9649 40.636 91.3329 40.236C91.7009 39.836 91.8849 39.276 91.8849 38.556V31.908H95.0289V38.628C95.0289 39.652 94.8049 40.548 94.3569 41.316C93.9249 42.084 93.3089 42.684 92.5089 43.116C91.7249 43.532 90.8209 43.74 89.7969 43.74ZM97.5326 43.5V31.908H100.677V43.5H97.5326ZM100.677 37.092L99.4526 36.276C99.5966 34.852 100.013 33.732 100.701 32.916C101.389 32.084 102.381 31.668 103.677 31.668C104.237 31.668 104.741 31.764 105.189 31.956C105.637 32.132 106.045 32.428 106.413 32.844L104.445 35.1C104.269 34.908 104.053 34.764 103.797 34.668C103.557 34.572 103.277 34.524 102.957 34.524C102.285 34.524 101.733 34.74 101.301 35.172C100.885 35.588 100.677 36.228 100.677 37.092ZM119.058 43.74C118.226 43.74 117.474 43.564 116.802 43.212C116.13 42.86 115.594 42.38 115.194 41.772C114.794 41.164 114.578 40.484 114.546 39.732V35.604C114.578 34.852 114.794 34.18 115.194 33.588C115.61 32.98 116.154 32.508 116.826 32.172C117.498 31.836 118.242 31.668 119.058 31.668C120.13 31.668 121.09 31.932 121.938 32.46C122.786 32.988 123.45 33.708 123.93 34.62C124.426 35.532 124.674 36.564 124.674 37.716C124.674 38.852 124.426 39.876 123.93 40.788C123.45 41.7 122.786 42.42 121.938 42.948C121.09 43.476 120.13 43.74 119.058 43.74ZM118.53 40.836C119.106 40.836 119.61 40.708 120.042 40.452C120.49 40.18 120.834 39.812 121.074 39.348C121.33 38.868 121.458 38.316 121.458 37.692C121.458 37.084 121.33 36.548 121.074 36.084C120.834 35.604 120.49 35.236 120.042 34.98C119.594 34.708 119.082 34.572 118.506 34.572C117.93 34.572 117.418 34.708 116.97 34.98C116.538 35.236 116.194 35.604 115.938 36.084C115.698 36.548 115.578 37.084 115.578 37.692C115.578 38.316 115.698 38.868 115.938 39.348C116.194 39.812 116.546 40.18 116.994 40.452C117.442 40.708 117.954 40.836 118.53 40.836ZM112.626 43.5V26.148H115.77V34.764L115.242 37.548L115.746 40.38V43.5H112.626ZM126.736 43.5V31.908H129.904V43.5H126.736ZM128.32 30.036C127.808 30.036 127.384 29.868 127.048 29.532C126.712 29.18 126.544 28.748 126.544 28.236C126.544 27.74 126.712 27.316 127.048 26.964C127.384 26.612 127.808 26.436 128.32 26.436C128.848 26.436 129.272 26.612 129.592 26.964C129.928 27.316 130.096 27.74 130.096 28.236C130.096 28.748 129.928 29.18 129.592 29.532C129.272 29.868 128.848 30.036 128.32 30.036ZM132.689 43.5V26.148H135.833V43.5H132.689ZM138.619 43.5V26.148H141.763V43.5H138.619ZM148.532 43.764C147.876 43.764 147.228 43.676 146.588 43.5C145.964 43.324 145.388 43.084 144.86 42.78C144.332 42.46 143.876 42.076 143.492 41.628L145.364 39.732C145.764 40.18 146.228 40.516 146.756 40.74C147.284 40.964 147.868 41.076 148.508 41.076C149.02 41.076 149.404 41.004 149.66 40.86C149.932 40.716 150.068 40.5 150.068 40.212C150.068 39.892 149.924 39.644 149.636 39.468C149.364 39.292 149.004 39.148 148.556 39.036C148.108 38.908 147.636 38.772 147.14 38.628C146.66 38.468 146.196 38.268 145.748 38.028C145.3 37.772 144.932 37.428 144.644 36.996C144.372 36.548 144.236 35.972 144.236 35.268C144.236 34.532 144.412 33.892 144.764 33.348C145.132 32.804 145.652 32.38 146.324 32.076C146.996 31.772 147.788 31.62 148.7 31.62C149.66 31.62 150.524 31.788 151.292 32.124C152.076 32.46 152.724 32.964 153.236 33.636L151.34 35.532C150.988 35.1 150.588 34.788 150.14 34.596C149.708 34.404 149.236 34.308 148.724 34.308C148.26 34.308 147.9 34.38 147.644 34.524C147.404 34.668 147.284 34.868 147.284 35.124C147.284 35.412 147.42 35.636 147.692 35.796C147.98 35.956 148.348 36.1 148.796 36.228C149.244 36.34 149.708 36.476 150.188 36.636C150.684 36.78 151.148 36.988 151.58 37.26C152.028 37.532 152.388 37.892 152.66 38.34C152.948 38.788 153.092 39.364 153.092 40.068C153.092 41.204 152.684 42.108 151.868 42.78C151.052 43.436 149.94 43.764 148.532 43.764Z" fill="white"/>
<path d="M12.434 66.5L16.41 56.784H17.362L21.324 66.5H19.896L16.634 58.282H17.124L13.834 66.5H12.434ZM14.324 64.302V63.154H19.434V64.302H14.324ZM22.672 66.5V56.504H23.932V66.5H22.672ZM25.7756 66.5V56.504H27.0356V66.5H25.7756ZM33.9752 66.556L31.0912 59.85H32.4912L34.6332 65.1H34.1852L36.4392 59.85H37.8392L34.7312 66.556H33.9752ZM32.0712 69.286L34.0312 65.268L34.7312 66.556L33.4712 69.286H32.0712ZM41.6515 66.64C40.9981 66.64 40.4101 66.486 39.8875 66.178C39.3648 65.87 38.9495 65.4547 38.6415 64.932C38.3335 64.4 38.1795 63.8073 38.1795 63.154C38.1795 62.51 38.3335 61.9313 38.6415 61.418C38.9495 60.8953 39.3648 60.48 39.8875 60.172C40.4101 59.864 40.9981 59.71 41.6515 59.71C42.2955 59.71 42.8788 59.864 43.4015 60.172C43.9335 60.4707 44.3535 60.8813 44.6615 61.404C44.9695 61.9267 45.1235 62.51 45.1235 63.154C45.1235 63.8073 44.9695 64.4 44.6615 64.932C44.3535 65.4547 43.9335 65.87 43.4015 66.178C42.8788 66.486 42.2955 66.64 41.6515 66.64ZM41.6515 65.422C42.0715 65.422 42.4448 65.324 42.7715 65.128C43.0981 64.932 43.3548 64.666 43.5415 64.33C43.7281 63.9847 43.8215 63.5927 43.8215 63.154C43.8215 62.7247 43.7235 62.342 43.5275 62.006C43.3408 61.67 43.0841 61.4087 42.7575 61.222C42.4401 61.026 42.0715 60.928 41.6515 60.928C41.2315 60.928 40.8581 61.026 40.5315 61.222C40.2048 61.4087 39.9481 61.67 39.7615 62.006C39.5748 62.342 39.4815 62.7247 39.4815 63.154C39.4815 63.5927 39.5748 63.9847 39.7615 64.33C39.9481 64.666 40.2048 64.932 40.5315 65.128C40.8581 65.324 41.2315 65.422 41.6515 65.422ZM49.2171 66.64C48.6758 66.64 48.1858 66.5187 47.7471 66.276C47.3178 66.024 46.9818 65.6787 46.7391 65.24C46.4965 64.8013 46.3751 64.2927 46.3751 63.714V59.85H47.6351V63.658C47.6351 64.022 47.6958 64.3393 47.8171 64.61C47.9478 64.8713 48.1345 65.072 48.3771 65.212C48.6198 65.352 48.9045 65.422 49.2311 65.422C49.7258 65.422 50.1131 65.268 50.3931 64.96C50.6731 64.6427 50.8131 64.2087 50.8131 63.658V59.85H52.0731V63.714C52.0731 64.2927 51.9518 64.8013 51.7091 65.24C51.4665 65.6787 51.1305 66.024 50.7011 66.276C50.2811 66.5187 49.7865 66.64 49.2171 66.64ZM53.7619 66.5V59.85H55.0219V66.5H53.7619ZM55.0219 62.706L54.5459 62.496C54.5459 61.6467 54.7419 60.97 55.1339 60.466C55.5259 59.962 56.0906 59.71 56.8279 59.71C57.1639 59.71 57.4672 59.7707 57.7379 59.892C58.0086 60.004 58.2606 60.1953 58.4939 60.466L57.6679 61.32C57.5279 61.1707 57.3739 61.0633 57.2059 60.998C57.0379 60.9327 56.8419 60.9 56.6179 60.9C56.1512 60.9 55.7686 61.0493 55.4699 61.348C55.1712 61.6467 55.0219 62.0993 55.0219 62.706ZM65.6192 66.64C64.9566 66.64 64.3592 66.4907 63.8272 66.192C63.2952 65.884 62.8752 65.4687 62.5672 64.946C62.2592 64.4233 62.1052 63.8307 62.1052 63.168C62.1052 62.5147 62.2546 61.9267 62.5532 61.404C62.8612 60.8813 63.2719 60.4707 63.7852 60.172C64.3079 59.864 64.8912 59.71 65.5352 59.71C66.1512 59.71 66.6926 59.85 67.1592 60.13C67.6352 60.41 68.0039 60.7973 68.2652 61.292C68.5359 61.7867 68.6712 62.3467 68.6712 62.972C68.6712 63.0653 68.6666 63.168 68.6572 63.28C68.6479 63.3827 68.6292 63.504 68.6012 63.644H62.9872V62.594H67.9292L67.4672 63C67.4672 62.552 67.3879 62.174 67.2292 61.866C67.0706 61.5487 66.8466 61.306 66.5572 61.138C66.2679 60.9607 65.9179 60.872 65.5072 60.872C65.0779 60.872 64.6999 60.9653 64.3732 61.152C64.0466 61.3387 63.7946 61.6 63.6172 61.936C63.4399 62.272 63.3512 62.6687 63.3512 63.126C63.3512 63.5927 63.4446 64.0033 63.6312 64.358C63.8179 64.7033 64.0839 64.974 64.4292 65.17C64.7746 65.3567 65.1712 65.45 65.6192 65.45C65.9926 65.45 66.3332 65.3847 66.6412 65.254C66.9586 65.1233 67.2292 64.9273 67.4532 64.666L68.2652 65.492C67.9479 65.8653 67.5559 66.15 67.0892 66.346C66.6319 66.542 66.1419 66.64 65.6192 66.64ZM72.1591 66.64C71.7858 66.64 71.4311 66.5933 71.0951 66.5C70.7684 66.3973 70.4651 66.2573 70.1851 66.08C69.9051 65.8933 69.6624 65.674 69.4571 65.422L70.2691 64.61C70.5118 64.9087 70.7918 65.1327 71.1091 65.282C71.4264 65.422 71.7811 65.492 72.1731 65.492C72.5651 65.492 72.8684 65.4267 73.0831 65.296C73.2978 65.156 73.4051 64.9647 73.4051 64.722C73.4051 64.4793 73.3164 64.2927 73.1391 64.162C72.9711 64.022 72.7518 63.91 72.4811 63.826C72.2104 63.7327 71.9211 63.644 71.6131 63.56C71.3144 63.4667 71.0298 63.35 70.7591 63.21C70.4884 63.07 70.2644 62.8787 70.0871 62.636C69.9191 62.3933 69.8351 62.0713 69.8351 61.67C69.8351 61.2687 69.9331 60.9233 70.1291 60.634C70.3251 60.3353 70.5958 60.1067 70.9411 59.948C71.2958 59.7893 71.7204 59.71 72.2151 59.71C72.7378 59.71 73.1998 59.8033 73.6011 59.99C74.0118 60.1673 74.3478 60.438 74.6091 60.802L73.7971 61.614C73.6104 61.3713 73.3771 61.1847 73.0971 61.054C72.8264 60.9233 72.5184 60.858 72.1731 60.858C71.8091 60.858 71.5291 60.9233 71.3331 61.054C71.1464 61.1753 71.0531 61.348 71.0531 61.572C71.0531 61.796 71.1371 61.9687 71.3051 62.09C71.4731 62.2113 71.6924 62.314 71.9631 62.398C72.2431 62.482 72.5324 62.5707 72.8311 62.664C73.1298 62.748 73.4144 62.8647 73.6851 63.014C73.9558 63.1633 74.1751 63.364 74.3431 63.616C74.5204 63.868 74.6091 64.1993 74.6091 64.61C74.6091 65.2353 74.3851 65.73 73.9371 66.094C73.4984 66.458 72.9058 66.64 72.1591 66.64ZM77.0417 66.5V57.064H78.3017V66.5H77.0417ZM75.4037 60.998V59.85H79.9397V60.998H75.4037ZM83.7969 66.64C83.1903 66.64 82.6396 66.4907 82.1449 66.192C81.6503 65.884 81.2583 65.4687 80.9689 64.946C80.6889 64.4233 80.5489 63.8353 80.5489 63.182C80.5489 62.5287 80.6889 61.9407 80.9689 61.418C81.2583 60.8953 81.6456 60.48 82.1309 60.172C82.6256 59.864 83.1809 59.71 83.7969 59.71C84.3009 59.71 84.7489 59.8173 85.1409 60.032C85.5423 60.2373 85.8643 60.5267 86.1069 60.9C86.3496 61.264 86.4849 61.6887 86.5129 62.174V64.176C86.4849 64.652 86.3496 65.0767 86.1069 65.45C85.8736 65.8233 85.5563 66.1173 85.1549 66.332C84.7629 66.5373 84.3103 66.64 83.7969 66.64ZM84.0069 65.45C84.6323 65.45 85.1363 65.24 85.5189 64.82C85.9016 64.3907 86.0929 63.8447 86.0929 63.182C86.0929 62.7247 86.0043 62.328 85.8269 61.992C85.6589 61.6467 85.4163 61.3807 85.0989 61.194C84.7816 60.998 84.4129 60.9 83.9929 60.9C83.5729 60.9 83.1996 60.998 82.8729 61.194C82.5556 61.39 82.3036 61.6607 82.1169 62.006C81.9396 62.342 81.8509 62.7293 81.8509 63.168C81.8509 63.616 81.9396 64.0127 82.1169 64.358C82.3036 64.694 82.5603 64.96 82.8869 65.156C83.2136 65.352 83.5869 65.45 84.0069 65.45ZM86.0089 66.5V64.708L86.2469 63.084L86.0089 61.474V59.85H87.2829V66.5H86.0089ZM90.112 66.5V57.064H91.372V66.5H90.112ZM88.474 60.998V59.85H93.01V60.998H88.474ZM97.1192 66.64C96.4566 66.64 95.8592 66.4907 95.3272 66.192C94.7952 65.884 94.3752 65.4687 94.0672 64.946C93.7592 64.4233 93.6052 63.8307 93.6052 63.168C93.6052 62.5147 93.7546 61.9267 94.0532 61.404C94.3612 60.8813 94.7719 60.4707 95.2852 60.172C95.8079 59.864 96.3912 59.71 97.0352 59.71C97.6512 59.71 98.1926 59.85 98.6592 60.13C99.1352 60.41 99.5039 60.7973 99.7652 61.292C100.036 61.7867 100.171 62.3467 100.171 62.972C100.171 63.0653 100.167 63.168 100.157 63.28C100.148 63.3827 100.129 63.504 100.101 63.644H94.4872V62.594H99.4292L98.9672 63C98.9672 62.552 98.8879 62.174 98.7292 61.866C98.5706 61.5487 98.3466 61.306 98.0572 61.138C97.7679 60.9607 97.4179 60.872 97.0072 60.872C96.5779 60.872 96.1999 60.9653 95.8732 61.152C95.5466 61.3387 95.2946 61.6 95.1172 61.936C94.9399 62.272 94.8512 62.6687 94.8512 63.126C94.8512 63.5927 94.9446 64.0033 95.1312 64.358C95.3179 64.7033 95.5839 64.974 95.9292 65.17C96.2746 65.3567 96.6712 65.45 97.1192 65.45C97.4926 65.45 97.8332 65.3847 98.1412 65.254C98.4586 65.1233 98.7292 64.9273 98.9532 64.666L99.7652 65.492C99.4479 65.8653 99.0559 66.15 98.5892 66.346C98.1319 66.542 97.6419 66.64 97.1192 66.64ZM107.271 66.64C106.655 66.64 106.105 66.4907 105.619 66.192C105.134 65.884 104.747 65.4687 104.457 64.946C104.177 64.4233 104.037 63.8353 104.037 63.182C104.037 62.5287 104.177 61.9407 104.457 61.418C104.747 60.8953 105.134 60.48 105.619 60.172C106.105 59.864 106.655 59.71 107.271 59.71C107.766 59.71 108.214 59.8173 108.615 60.032C109.017 60.2373 109.339 60.5267 109.581 60.9C109.833 61.264 109.973 61.6887 110.001 62.174V64.176C109.973 64.652 109.838 65.0767 109.595 65.45C109.353 65.8233 109.031 66.1173 108.629 66.332C108.228 66.5373 107.775 66.64 107.271 66.64ZM107.481 65.45C107.901 65.45 108.265 65.352 108.573 65.156C108.891 64.96 109.138 64.694 109.315 64.358C109.493 64.0127 109.581 63.6207 109.581 63.182C109.581 62.7247 109.488 62.328 109.301 61.992C109.124 61.656 108.877 61.39 108.559 61.194C108.251 60.998 107.887 60.9 107.467 60.9C107.047 60.9 106.679 60.998 106.361 61.194C106.044 61.39 105.792 61.6607 105.605 62.006C105.428 62.342 105.339 62.7293 105.339 63.168C105.339 63.616 105.428 64.0127 105.605 64.358C105.792 64.694 106.044 64.96 106.361 65.156C106.688 65.352 107.061 65.45 107.481 65.45ZM110.771 66.5H109.497V64.708L109.735 63.084L109.497 61.474V56.504H110.771V66.5ZM115.28 66.64C114.738 66.64 114.248 66.5187 113.81 66.276C113.38 66.024 113.044 65.6787 112.802 65.24C112.559 64.8013 112.438 64.2927 112.438 63.714V59.85H113.698V63.658C113.698 64.022 113.758 64.3393 113.88 64.61C114.01 64.8713 114.197 65.072 114.44 65.212C114.682 65.352 114.967 65.422 115.294 65.422C115.788 65.422 116.176 65.268 116.456 64.96C116.736 64.6427 116.876 64.2087 116.876 63.658V59.85H118.136V63.714C118.136 64.2927 118.014 64.8013 117.772 65.24C117.529 65.6787 117.193 66.024 116.764 66.276C116.344 66.5187 115.849 66.64 115.28 66.64ZM122.904 66.64C122.242 66.64 121.644 66.4907 121.112 66.192C120.58 65.884 120.16 65.4687 119.852 64.946C119.544 64.4233 119.39 63.8307 119.39 63.168C119.39 62.5147 119.54 61.9267 119.838 61.404C120.146 60.8813 120.557 60.4707 121.07 60.172C121.593 59.864 122.176 59.71 122.82 59.71C123.436 59.71 123.978 59.85 124.444 60.13C124.92 60.41 125.289 60.7973 125.55 61.292C125.821 61.7867 125.956 62.3467 125.956 62.972C125.956 63.0653 125.952 63.168 125.942 63.28C125.933 63.3827 125.914 63.504 125.886 63.644H120.272V62.594H125.214L124.752 63C124.752 62.552 124.673 62.174 124.514 61.866C124.356 61.5487 124.132 61.306 123.842 61.138C123.553 60.9607 123.203 60.872 122.792 60.872C122.363 60.872 121.985 60.9653 121.658 61.152C121.332 61.3387 121.08 61.6 120.902 61.936C120.725 62.272 120.636 62.6687 120.636 63.126C120.636 63.5927 120.73 64.0033 120.916 64.358C121.103 64.7033 121.369 64.974 121.714 65.17C122.06 65.3567 122.456 65.45 122.904 65.45C123.278 65.45 123.618 65.3847 123.926 65.254C124.244 65.1233 124.514 64.9273 124.738 64.666L125.55 65.492C125.233 65.8653 124.841 66.15 124.374 66.346C123.917 66.542 123.427 66.64 122.904 66.64ZM129.444 66.64C129.071 66.64 128.716 66.5933 128.38 66.5C128.054 66.3973 127.75 66.2573 127.47 66.08C127.19 65.8933 126.948 65.674 126.742 65.422L127.554 64.61C127.797 64.9087 128.077 65.1327 128.394 65.282C128.712 65.422 129.066 65.492 129.458 65.492C129.85 65.492 130.154 65.4267 130.368 65.296C130.583 65.156 130.69 64.9647 130.69 64.722C130.69 64.4793 130.602 64.2927 130.424 64.162C130.256 64.022 130.037 63.91 129.766 63.826C129.496 63.7327 129.206 63.644 128.898 63.56C128.6 63.4667 128.315 63.35 128.044 63.21C127.774 63.07 127.55 62.8787 127.372 62.636C127.204 62.3933 127.12 62.0713 127.12 61.67C127.12 61.2687 127.218 60.9233 127.414 60.634C127.61 60.3353 127.881 60.1067 128.226 59.948C128.581 59.7893 129.006 59.71 129.5 59.71C130.023 59.71 130.485 59.8033 130.886 59.99C131.297 60.1673 131.633 60.438 131.894 60.802L131.082 61.614C130.896 61.3713 130.662 61.1847 130.382 61.054C130.112 60.9233 129.804 60.858 129.458 60.858C129.094 60.858 128.814 60.9233 128.618 61.054C128.432 61.1753 128.338 61.348 128.338 61.572C128.338 61.796 128.422 61.9687 128.59 62.09C128.758 62.2113 128.978 62.314 129.248 62.398C129.528 62.482 129.818 62.5707 130.116 62.664C130.415 62.748 130.7 62.8647 130.97 63.014C131.241 63.1633 131.46 63.364 131.628 63.616C131.806 63.868 131.894 64.1993 131.894 64.61C131.894 65.2353 131.67 65.73 131.222 66.094C130.784 66.458 130.191 66.64 129.444 66.64ZM136.231 66.5V59.85H137.491V66.5H136.231ZM136.861 58.52C136.628 58.52 136.436 58.4453 136.287 58.296C136.138 58.1373 136.063 57.9413 136.063 57.708C136.063 57.484 136.138 57.2973 136.287 57.148C136.436 56.9893 136.628 56.91 136.861 56.91C137.094 56.91 137.286 56.9893 137.435 57.148C137.584 57.2973 137.659 57.484 137.659 57.708C137.659 57.9413 137.584 58.1373 137.435 58.296C137.286 58.4453 137.094 58.52 136.861 58.52ZM144.052 66.5V62.622C144.052 62.118 143.893 61.7027 143.576 61.376C143.258 61.0493 142.848 60.886 142.344 60.886C142.008 60.886 141.709 60.9607 141.448 61.11C141.186 61.2593 140.981 61.4647 140.832 61.726C140.682 61.9873 140.608 62.286 140.608 62.622L140.09 62.328C140.09 61.824 140.202 61.376 140.426 60.984C140.65 60.592 140.962 60.284 141.364 60.06C141.765 59.8267 142.218 59.71 142.722 59.71C143.226 59.71 143.669 59.836 144.052 60.088C144.444 60.34 144.752 60.6713 144.976 61.082C145.2 61.4833 145.312 61.9127 145.312 62.37V66.5H144.052ZM139.348 66.5V59.85H140.608V66.5H139.348ZM152.968 66.64C152.315 66.64 151.727 66.486 151.204 66.178C150.681 65.87 150.266 65.4547 149.958 64.932C149.65 64.4 149.496 63.8073 149.496 63.154C149.496 62.51 149.65 61.9313 149.958 61.418C150.266 60.8953 150.681 60.48 151.204 60.172C151.727 59.864 152.315 59.71 152.968 59.71C153.612 59.71 154.195 59.864 154.718 60.172C155.25 60.4707 155.67 60.8813 155.978 61.404C156.286 61.9267 156.44 62.51 156.44 63.154C156.44 63.8073 156.286 64.4 155.978 64.932C155.67 65.4547 155.25 65.87 154.718 66.178C154.195 66.486 153.612 66.64 152.968 66.64ZM152.968 65.422C153.388 65.422 153.761 65.324 154.088 65.128C154.415 64.932 154.671 64.666 154.858 64.33C155.045 63.9847 155.138 63.5927 155.138 63.154C155.138 62.7247 155.04 62.342 154.844 62.006C154.657 61.67 154.401 61.4087 154.074 61.222C153.757 61.026 153.388 60.928 152.968 60.928C152.548 60.928 152.175 61.026 151.848 61.222C151.521 61.4087 151.265 61.67 151.078 62.006C150.891 62.342 150.798 62.7247 150.798 63.154C150.798 63.5927 150.891 63.9847 151.078 64.33C151.265 64.666 151.521 64.932 151.848 65.128C152.175 65.324 152.548 65.422 152.968 65.422ZM162.564 66.5V62.622C162.564 62.118 162.405 61.7027 162.088 61.376C161.77 61.0493 161.36 60.886 160.856 60.886C160.52 60.886 160.221 60.9607 159.96 61.11C159.698 61.2593 159.493 61.4647 159.344 61.726C159.194 61.9873 159.12 62.286 159.12 62.622L158.602 62.328C158.602 61.824 158.714 61.376 158.938 60.984C159.162 60.592 159.474 60.284 159.876 60.06C160.277 59.8267 160.73 59.71 161.234 59.71C161.738 59.71 162.181 59.836 162.564 60.088C162.956 60.34 163.264 60.6713 163.488 61.082C163.712 61.4833 163.824 61.9127 163.824 62.37V66.5H162.564ZM157.86 66.5V59.85H159.12V66.5H157.86ZM168.609 66.64C167.947 66.64 167.349 66.4907 166.817 66.192C166.285 65.884 165.865 65.4687 165.557 64.946C165.249 64.4233 165.095 63.8307 165.095 63.168C165.095 62.5147 165.245 61.9267 165.543 61.404C165.851 60.8813 166.262 60.4707 166.775 60.172C167.298 59.864 167.881 59.71 168.525 59.71C169.141 59.71 169.683 59.85 170.149 60.13C170.625 60.41 170.994 60.7973 171.255 61.292C171.526 61.7867 171.661 62.3467 171.661 62.972C171.661 63.0653 171.657 63.168 171.647 63.28C171.638 63.3827 171.619 63.504 171.591 63.644H165.977V62.594H170.919L170.457 63C170.457 62.552 170.378 62.174 170.219 61.866C170.061 61.5487 169.837 61.306 169.547 61.138C169.258 60.9607 168.908 60.872 168.497 60.872C168.068 60.872 167.69 60.9653 167.363 61.152C167.037 61.3387 166.785 61.6 166.607 61.936C166.43 62.272 166.341 62.6687 166.341 63.126C166.341 63.5927 166.435 64.0033 166.621 64.358C166.808 64.7033 167.074 64.974 167.419 65.17C167.765 65.3567 168.161 65.45 168.609 65.45C168.983 65.45 169.323 65.3847 169.631 65.254C169.949 65.1233 170.219 64.9273 170.443 64.666L171.255 65.492C170.938 65.8653 170.546 66.15 170.079 66.346C169.622 66.542 169.132 66.64 168.609 66.64ZM179.447 66.64C178.943 66.64 178.486 66.5373 178.075 66.332C177.674 66.1173 177.352 65.8233 177.109 65.45C176.867 65.0767 176.731 64.652 176.703 64.176V62.174C176.731 61.6887 176.867 61.264 177.109 60.9C177.361 60.5267 177.688 60.2373 178.089 60.032C178.5 59.8173 178.953 59.71 179.447 59.71C180.054 59.71 180.6 59.864 181.085 60.172C181.58 60.48 181.967 60.8953 182.247 61.418C182.527 61.9407 182.667 62.5287 182.667 63.182C182.667 63.8353 182.527 64.4233 182.247 64.946C181.967 65.4687 181.58 65.884 181.085 66.192C180.6 66.4907 180.054 66.64 179.447 66.64ZM179.237 65.45C179.657 65.45 180.026 65.352 180.343 65.156C180.661 64.96 180.913 64.694 181.099 64.358C181.286 64.0127 181.379 63.616 181.379 63.168C181.379 62.7293 181.286 62.3373 181.099 61.992C180.913 61.6467 180.661 61.3807 180.343 61.194C180.026 60.998 179.662 60.9 179.251 60.9C178.831 60.9 178.463 60.998 178.145 61.194C177.828 61.3807 177.581 61.6467 177.403 61.992C177.226 62.3373 177.137 62.734 177.137 63.182C177.137 63.6207 177.221 64.0127 177.389 64.358C177.567 64.694 177.814 64.96 178.131 65.156C178.458 65.352 178.827 65.45 179.237 65.45ZM175.947 69.286V59.85H177.207V61.6L176.969 63.21L177.207 64.834V69.286H175.947ZM184.096 66.5V56.504H185.356V66.5H184.096ZM190.027 66.64C189.421 66.64 188.87 66.4907 188.375 66.192C187.881 65.884 187.489 65.4687 187.199 64.946C186.919 64.4233 186.779 63.8353 186.779 63.182C186.779 62.5287 186.919 61.9407 187.199 61.418C187.489 60.8953 187.876 60.48 188.361 60.172C188.856 59.864 189.411 59.71 190.027 59.71C190.531 59.71 190.979 59.8173 191.371 60.032C191.773 60.2373 192.095 60.5267 192.337 60.9C192.58 61.264 192.715 61.6887 192.743 62.174V64.176C192.715 64.652 192.58 65.0767 192.337 65.45C192.104 65.8233 191.787 66.1173 191.385 66.332C190.993 66.5373 190.541 66.64 190.027 66.64ZM190.237 65.45C190.863 65.45 191.367 65.24 191.749 64.82C192.132 64.3907 192.323 63.8447 192.323 63.182C192.323 62.7247 192.235 62.328 192.057 61.992C191.889 61.6467 191.647 61.3807 191.329 61.194C191.012 60.998 190.643 60.9 190.223 60.9C189.803 60.9 189.43 60.998 189.103 61.194C188.786 61.39 188.534 61.6607 188.347 62.006C188.17 62.342 188.081 62.7293 188.081 63.168C188.081 63.616 188.17 64.0127 188.347 64.358C188.534 64.694 188.791 64.96 189.117 65.156C189.444 65.352 189.817 65.45 190.237 65.45ZM192.239 66.5V64.708L192.477 63.084L192.239 61.474V59.85H193.513V66.5H192.239ZM198.386 66.64C197.732 66.64 197.14 66.486 196.608 66.178C196.085 65.87 195.67 65.4547 195.362 64.932C195.063 64.4 194.914 63.812 194.914 63.168C194.914 62.5147 195.063 61.9267 195.362 61.404C195.67 60.8813 196.085 60.4707 196.608 60.172C197.14 59.864 197.732 59.71 198.386 59.71C198.899 59.71 199.375 59.808 199.814 60.004C200.252 60.1907 200.63 60.466 200.948 60.83L200.108 61.67C199.902 61.4273 199.65 61.2453 199.352 61.124C199.062 60.9933 198.74 60.928 198.386 60.928C197.966 60.928 197.592 61.026 197.266 61.222C196.939 61.4087 196.682 61.67 196.496 62.006C196.309 62.342 196.216 62.7293 196.216 63.168C196.216 63.6067 196.309 63.994 196.496 64.33C196.682 64.666 196.939 64.932 197.266 65.128C197.592 65.324 197.966 65.422 198.386 65.422C198.74 65.422 199.062 65.3613 199.352 65.24C199.65 65.1093 199.907 64.9227 200.122 64.68L200.948 65.52C200.64 65.8747 200.262 66.15 199.814 66.346C199.375 66.542 198.899 66.64 198.386 66.64ZM205.141 66.64C204.478 66.64 203.881 66.4907 203.349 66.192C202.817 65.884 202.397 65.4687 202.089 64.946C201.781 64.4233 201.627 63.8307 201.627 63.168C201.627 62.5147 201.776 61.9267 202.075 61.404C202.383 60.8813 202.793 60.4707 203.307 60.172C203.829 59.864 204.413 59.71 205.057 59.71C205.673 59.71 206.214 59.85 206.681 60.13C207.157 60.41 207.525 60.7973 207.787 61.292C208.057 61.7867 208.193 62.3467 208.193 62.972C208.193 63.0653 208.188 63.168 208.179 63.28C208.169 63.3827 208.151 63.504 208.123 63.644H202.509V62.594H207.451L206.989 63C206.989 62.552 206.909 62.174 206.751 61.866C206.592 61.5487 206.368 61.306 206.079 61.138C205.789 60.9607 205.439 60.872 205.029 60.872C204.599 60.872 204.221 60.9653 203.895 61.152C203.568 61.3387 203.316 61.6 203.139 61.936C202.961 62.272 202.873 62.6687 202.873 63.126C202.873 63.5927 202.966 64.0033 203.153 64.358C203.339 64.7033 203.605 64.974 203.951 65.17C204.296 65.3567 204.693 65.45 205.141 65.45C205.514 65.45 205.855 65.3847 206.163 65.254C206.48 65.1233 206.751 64.9273 206.975 64.666L207.787 65.492C207.469 65.8653 207.077 66.15 206.611 66.346C206.153 66.542 205.663 66.64 205.141 66.64ZM213.431 66.5V58.856C213.431 58.3613 213.538 57.932 213.753 57.568C213.967 57.1947 214.261 56.9007 214.635 56.686C215.017 56.4713 215.461 56.364 215.965 56.364C216.347 56.364 216.679 56.4293 216.959 56.56C217.239 56.6907 217.495 56.882 217.729 57.134L216.903 57.946C216.781 57.8153 216.646 57.7173 216.497 57.652C216.347 57.5773 216.165 57.54 215.951 57.54C215.549 57.54 215.237 57.6567 215.013 57.89C214.798 58.1233 214.691 58.4453 214.691 58.856V66.5H213.431ZM211.793 60.998V59.85H216.805V60.998H211.793ZM220.726 66.64C220.072 66.64 219.484 66.486 218.962 66.178C218.439 65.87 218.024 65.4547 217.716 64.932C217.408 64.4 217.254 63.8073 217.254 63.154C217.254 62.51 217.408 61.9313 217.716 61.418C218.024 60.8953 218.439 60.48 218.962 60.172C219.484 59.864 220.072 59.71 220.726 59.71C221.37 59.71 221.953 59.864 222.476 60.172C223.008 60.4707 223.428 60.8813 223.736 61.404C224.044 61.9267 224.198 62.51 224.198 63.154C224.198 63.8073 224.044 64.4 223.736 64.932C223.428 65.4547 223.008 65.87 222.476 66.178C221.953 66.486 221.37 66.64 220.726 66.64ZM220.726 65.422C221.146 65.422 221.519 65.324 221.846 65.128C222.172 64.932 222.429 64.666 222.616 64.33C222.802 63.9847 222.896 63.5927 222.896 63.154C222.896 62.7247 222.798 62.342 222.602 62.006C222.415 61.67 222.158 61.4087 221.832 61.222C221.514 61.026 221.146 60.928 220.726 60.928C220.306 60.928 219.932 61.026 219.606 61.222C219.279 61.4087 219.022 61.67 218.836 62.006C218.649 62.342 218.556 62.7247 218.556 63.154C218.556 63.5927 218.649 63.9847 218.836 64.33C219.022 64.666 219.279 64.932 219.606 65.128C219.932 65.324 220.306 65.422 220.726 65.422ZM225.617 66.5V59.85H226.877V66.5H225.617ZM226.877 62.706L226.401 62.496C226.401 61.6467 226.597 60.97 226.989 60.466C227.381 59.962 227.946 59.71 228.683 59.71C229.019 59.71 229.323 59.7707 229.593 59.892C229.864 60.004 230.116 60.1953 230.349 60.466L229.523 61.32C229.383 61.1707 229.229 61.0633 229.061 60.998C228.893 60.9327 228.697 60.9 228.473 60.9C228.007 60.9 227.624 61.0493 227.325 61.348C227.027 61.6467 226.877 62.0993 226.877 62.706ZM16.004 84.64C15.3413 84.64 14.744 84.4907 14.212 84.192C13.68 83.884 13.26 83.4687 12.952 82.946C12.644 82.4233 12.49 81.8307 12.49 81.168C12.49 80.5147 12.6393 79.9267 12.938 79.404C13.246 78.8813 13.6567 78.4707 14.17 78.172C14.6927 77.864 15.276 77.71 15.92 77.71C16.536 77.71 17.0773 77.85 17.544 78.13C18.02 78.41 18.3887 78.7973 18.65 79.292C18.9207 79.7867 19.056 80.3467 19.056 80.972C19.056 81.0653 19.0513 81.168 19.042 81.28C19.0327 81.3827 19.014 81.504 18.986 81.644H13.372V80.594H18.314L17.852 81C17.852 80.552 17.7727 80.174 17.614 79.866C17.4553 79.5487 17.2313 79.306 16.942 79.138C16.6527 78.9607 16.3027 78.872 15.892 78.872C15.4627 78.872 15.0847 78.9653 14.758 79.152C14.4313 79.3387 14.1793 79.6 14.002 79.936C13.8247 80.272 13.736 80.6687 13.736 81.126C13.736 81.5927 13.8293 82.0033 14.016 82.358C14.2027 82.7033 14.4687 82.974 14.814 83.17C15.1593 83.3567 15.556 83.45 16.004 83.45C16.3773 83.45 16.718 83.3847 17.026 83.254C17.3433 83.1233 17.614 82.9273 17.838 82.666L18.65 83.492C18.3327 83.8653 17.9407 84.15 17.474 84.346C17.0167 84.542 16.5267 84.64 16.004 84.64ZM21.1768 84.5V77.122C21.1768 76.6087 21.2841 76.1607 21.4988 75.778C21.7228 75.386 22.0308 75.078 22.4228 74.854C22.8148 74.6207 23.2674 74.504 23.7808 74.504C24.3034 74.504 24.7328 74.616 25.0688 74.84C25.4048 75.064 25.6521 75.372 25.8108 75.764C25.9788 76.1467 26.0628 76.5853 26.0628 77.08L25.1388 77.066C25.1294 76.6367 25.0128 76.296 24.7888 76.044C24.5648 75.7827 24.2288 75.652 23.7808 75.652C23.3421 75.652 23.0061 75.7827 22.7728 76.044C22.5488 76.296 22.4368 76.646 22.4368 77.094V84.5H21.1768ZM19.5388 78.998V77.85H28.5128V78.998H19.5388ZM25.1388 84.5V76.856C25.1388 76.3613 25.2461 75.932 25.4608 75.568C25.6754 75.1947 25.9694 74.9007 26.3428 74.686C26.7254 74.4713 27.1688 74.364 27.6728 74.364C28.0554 74.364 28.3868 74.4293 28.6668 74.56C28.9468 74.6907 29.2034 74.882 29.4368 75.134L28.6108 75.946C28.4894 75.8153 28.3541 75.7173 28.2048 75.652C28.0554 75.5773 27.8734 75.54 27.6588 75.54C27.2574 75.54 26.9448 75.6567 26.7208 75.89C26.5061 76.1233 26.3988 76.4453 26.3988 76.856V84.5H25.1388ZM29.7818 84.5V77.85H31.0418V84.5H29.7818ZM30.4118 76.52C30.1784 76.52 29.9871 76.4453 29.8378 76.296C29.6884 76.1373 29.6138 75.9413 29.6138 75.708C29.6138 75.484 29.6884 75.2973 29.8378 75.148C29.9871 74.9893 30.1784 74.91 30.4118 74.91C30.6451 74.91 30.8364 74.9893 30.9858 75.148C31.1351 75.2973 31.2098 75.484 31.2098 75.708C31.2098 75.9413 31.1351 76.1373 30.9858 76.296C30.8364 76.4453 30.6451 76.52 30.4118 76.52ZM35.9366 84.64C35.2833 84.64 34.6906 84.486 34.1586 84.178C33.6359 83.87 33.2206 83.4547 32.9126 82.932C32.6139 82.4 32.4646 81.812 32.4646 81.168C32.4646 80.5147 32.6139 79.9267 32.9126 79.404C33.2206 78.8813 33.6359 78.4707 34.1586 78.172C34.6906 77.864 35.2833 77.71 35.9366 77.71C36.4499 77.71 36.9259 77.808 37.3646 78.004C37.8033 78.1907 38.1813 78.466 38.4986 78.83L37.6586 79.67C37.4533 79.4273 37.2013 79.2453 36.9026 79.124C36.6133 78.9933 36.2913 78.928 35.9366 78.928C35.5166 78.928 35.1433 79.026 34.8166 79.222C34.4899 79.4087 34.2333 79.67 34.0466 80.006C33.8599 80.342 33.7666 80.7293 33.7666 81.168C33.7666 81.6067 33.8599 81.994 34.0466 82.33C34.2333 82.666 34.4899 82.932 34.8166 83.128C35.1433 83.324 35.5166 83.422 35.9366 83.422C36.2913 83.422 36.6133 83.3613 36.9026 83.24C37.2013 83.1093 37.4579 82.9227 37.6726 82.68L38.4986 83.52C38.1906 83.8747 37.8126 84.15 37.3646 84.346C36.9259 84.542 36.4499 84.64 35.9366 84.64ZM39.7622 84.5V77.85H41.0222V84.5H39.7622ZM40.3922 76.52C40.1589 76.52 39.9676 76.4453 39.8182 76.296C39.6689 76.1373 39.5942 75.9413 39.5942 75.708C39.5942 75.484 39.6689 75.2973 39.8182 75.148C39.9676 74.9893 40.1589 74.91 40.3922 74.91C40.6256 74.91 40.8169 74.9893 40.9662 75.148C41.1156 75.2973 41.1902 75.484 41.1902 75.708C41.1902 75.9413 41.1156 76.1373 40.9662 76.296C40.8169 76.4453 40.6256 76.52 40.3922 76.52ZM45.9591 84.64C45.2964 84.64 44.6991 84.4907 44.1671 84.192C43.6351 83.884 43.2151 83.4687 42.9071 82.946C42.5991 82.4233 42.4451 81.8307 42.4451 81.168C42.4451 80.5147 42.5944 79.9267 42.8931 79.404C43.2011 78.8813 43.6117 78.4707 44.1251 78.172C44.6477 77.864 45.2311 77.71 45.8751 77.71C46.4911 77.71 47.0324 77.85 47.4991 78.13C47.9751 78.41 48.3437 78.7973 48.6051 79.292C48.8757 79.7867 49.0111 80.3467 49.0111 80.972C49.0111 81.0653 49.0064 81.168 48.9971 81.28C48.9877 81.3827 48.9691 81.504 48.9411 81.644H43.3271V80.594H48.2691L47.8071 81C47.8071 80.552 47.7277 80.174 47.5691 79.866C47.4104 79.5487 47.1864 79.306 46.8971 79.138C46.6077 78.9607 46.2577 78.872 45.8471 78.872C45.4177 78.872 45.0397 78.9653 44.7131 79.152C44.3864 79.3387 44.1344 79.6 43.9571 79.936C43.7797 80.272 43.6911 80.6687 43.6911 81.126C43.6911 81.5927 43.7844 82.0033 43.9711 82.358C44.1577 82.7033 44.4237 82.974 44.7691 83.17C45.1144 83.3567 45.5111 83.45 45.9591 83.45C46.3324 83.45 46.6731 83.3847 46.9811 83.254C47.2984 83.1233 47.5691 82.9273 47.7931 82.666L48.6051 83.492C48.2877 83.8653 47.8957 84.15 47.4291 84.346C46.9717 84.542 46.4817 84.64 45.9591 84.64ZM55.0889 84.5V80.622C55.0889 80.118 54.9303 79.7027 54.6129 79.376C54.2956 79.0493 53.8849 78.886 53.3809 78.886C53.0449 78.886 52.7463 78.9607 52.4849 79.11C52.2236 79.2593 52.0183 79.4647 51.8689 79.726C51.7196 79.9873 51.6449 80.286 51.6449 80.622L51.1269 80.328C51.1269 79.824 51.2389 79.376 51.4629 78.984C51.6869 78.592 51.9996 78.284 52.4009 78.06C52.8023 77.8267 53.2549 77.71 53.7589 77.71C54.2629 77.71 54.7063 77.836 55.0889 78.088C55.4809 78.34 55.7889 78.6713 56.0129 79.082C56.2369 79.4833 56.3489 79.9127 56.3489 80.37V84.5H55.0889ZM50.3849 84.5V77.85H51.6449V84.5H50.3849ZM61.0929 84.64C60.4395 84.64 59.8469 84.486 59.3149 84.178C58.7922 83.87 58.3769 83.4547 58.0689 82.932C57.7702 82.4 57.6209 81.812 57.6209 81.168C57.6209 80.5147 57.7702 79.9267 58.0689 79.404C58.3769 78.8813 58.7922 78.4707 59.3149 78.172C59.8469 77.864 60.4395 77.71 61.0929 77.71C61.6062 77.71 62.0822 77.808 62.5209 78.004C62.9595 78.1907 63.3375 78.466 63.6549 78.83L62.8149 79.67C62.6095 79.4273 62.3575 79.2453 62.0589 79.124C61.7695 78.9933 61.4475 78.928 61.0929 78.928C60.6729 78.928 60.2995 79.026 59.9729 79.222C59.6462 79.4087 59.3895 79.67 59.2029 80.006C59.0162 80.342 58.9229 80.7293 58.9229 81.168C58.9229 81.6067 59.0162 81.994 59.2029 82.33C59.3895 82.666 59.6462 82.932 59.9729 83.128C60.2995 83.324 60.6729 83.422 61.0929 83.422C61.4475 83.422 61.7695 83.3613 62.0589 83.24C62.3575 83.1093 62.6142 82.9227 62.8289 82.68L63.6549 83.52C63.3469 83.8747 62.9689 84.15 62.5209 84.346C62.0822 84.542 61.6062 84.64 61.0929 84.64ZM67.0885 84.556L64.2045 77.85H65.6045L67.7465 83.1H67.2985L69.5525 77.85H70.9525L67.8445 84.556H67.0885ZM65.1845 87.286L67.1445 83.268L67.8445 84.556L66.5845 87.286H65.1845Z" fill="white"/>
<path fill-rule="evenodd" clip-rule="evenodd" d="M396.258 63.3328C408.975 78.6015 422.607 93.0404 430.044 110.961C437.85 129.77 450.183 153.648 439.835 168.338C428.262 184.768 398.875 174.147 380.028 181.968C368.957 186.562 364.63 199.941 353.39 204.211C341.124 208.87 326.928 206.182 313.371 207.287C290.238 209.172 262.769 231.571 245.196 213.027C227.364 194.21 261.56 168.277 253.844 144.473C246.242 121.02 203.425 110.93 204.541 87.6061C205.579 65.9068 242.543 72.1081 257.943 58.7665C272.075 46.5233 272.614 21.4404 289.93 13.6276C307.831 5.55134 331.447 7.23531 351.441 16.5821C370.921 25.6885 382.222 46.4792 396.258 63.3328Z" fill="#F5F4FF"/>
<path d="M317.233 70.1089C315.407 70.9904 309.617 71.5739 307.156 71.6813H318.253C317.961 71.1389 317.62 70.6135 317.233 70.1089Z" fill="#FECFC4"/>
<path d="M319.052 73.665H282.669L269.291 95.4286C269.926 95.8681 270.6 96.2712 271.309 96.6346L269.306 99.9401C272.184 100.56 275.217 100.595 278.118 100.043L278.855 98.6939C279.591 98.7505 280.33 98.7747 281.069 98.7665L286.309 91.2529L284.734 97.4897C285.442 97.7633 286.17 98.0036 286.914 98.2094L286.333 100.041C288.956 100.629 291.736 100.629 294.36 100.041L294.606 99.1785C295.315 99.1758 296.024 99.152 296.73 99.1071L302.503 80.808L304.248 81.0131L316.39 80.2497C318.886 78.6503 319.974 76.6623 319.052 73.665Z" fill="#FECFC4"/>
<path d="M303.826 49.8996C303.802 50.1989 303.725 50.4942 303.597 50.7769L304.993 49.7515C304.613 49.8388 304.221 49.8885 303.826 49.8996Z" fill="#6153BD"/>
<path d="M309.381 59.5591V64.8688C309.759 64.8232 310.137 64.7776 310.516 64.7207C310.313 62.9792 309.934 61.2532 309.381 59.5591Z" fill="#6153BD"/>
<path d="M300.904 67.4328L299.13 66.92C298.924 66.7817 298.725 66.6372 298.534 66.487C299.001 64.9032 300.25 65.4957 300.904 67.4328Z" fill="#6153BD"/>
<path d="M287.351 47.8346V62.2369C287.351 62.7626 287.084 63.2667 286.61 63.6385C286.135 64.0102 285.492 64.2192 284.821 64.2195H283.861C284.532 64.2192 285.176 64.0102 285.65 63.6385C286.124 63.2667 286.391 62.7626 286.391 62.2369V47.8346C286.391 47.3089 286.124 46.8048 285.65 46.4331C285.176 46.0613 284.532 45.8524 283.861 45.8521H284.821C285.492 45.8524 286.135 46.0613 286.61 46.4331C287.084 46.8048 287.351 47.3089 287.351 47.8346Z" fill="#6153BD"/>
<path d="M278.176 71.1812H276.286C275.983 71.1833 275.689 71.097 275.463 70.939C275.237 70.7811 275.093 70.5628 275.061 70.3266L274.264 64.2319H273.305L274.366 71.8205H278.976C278.978 71.7371 278.959 71.6542 278.92 71.5767C278.881 71.4992 278.822 71.4285 278.747 71.369C278.673 71.3094 278.584 71.2622 278.486 71.2299C278.388 71.1977 278.282 71.1811 278.176 71.1812Z" fill="#6153BD"/>
<path d="M310.472 45.7837C310.643 45.622 310.736 45.4176 310.732 45.2074C310.729 44.9971 310.629 44.7947 310.452 44.6367C310.275 44.4787 310.032 44.3755 309.766 44.3455C309.501 44.3156 309.23 44.3609 309.003 44.4733C309.127 44.3001 309.172 44.0992 309.131 43.9033C309.091 43.7073 308.967 43.5279 308.78 43.3939C308.594 43.2598 308.355 43.1787 308.103 43.1637C307.851 43.1487 307.599 43.2006 307.389 43.3111C308.067 42.3546 306.123 41.5372 305.399 42.4566C304.952 43.4946 304.392 44.5009 303.727 45.4646C305.588 43.4257 306.839 45.59 306.723 46.8661C306.737 47.1168 306.897 47.1852 307.421 46.8889C308.497 46.2736 309.267 47.7093 307.261 48.4157C306.642 49.3479 306.462 50.4208 306.752 51.4466C306.737 51.2871 306.504 48.1081 311.085 47.4472C311.322 47.4079 311.535 47.3063 311.688 47.1591C311.841 47.0119 311.925 46.8281 311.927 46.6382C311.929 46.4996 311.889 46.3625 311.81 46.2382C311.732 46.1139 311.617 46.0058 311.475 45.9228C311.334 45.8395 311.169 45.7835 310.995 45.7594C310.82 45.7352 310.641 45.7435 310.472 45.7837Z" fill="#6153BD"/>
<path d="M305.877 55.1496C305.877 55.2585 305.821 55.363 305.723 55.44C305.625 55.5171 305.491 55.5604 305.352 55.5604C305.213 55.5604 305.08 55.5171 304.982 55.44C304.883 55.363 304.828 55.2585 304.828 55.1496C304.828 55.0406 304.883 54.9361 304.982 54.8591C305.08 54.7821 305.213 54.7388 305.352 54.7388C305.491 54.7388 305.625 54.7821 305.723 54.8591C305.821 54.9361 305.877 55.0406 305.877 55.1496Z" fill="#6153BD"/>
<path d="M300.845 58.944C300.845 59.0529 300.79 59.1574 300.692 59.2345C300.594 59.3115 300.46 59.3548 300.321 59.3548C300.182 59.3548 300.049 59.3115 299.95 59.2345C299.852 59.1574 299.797 59.0529 299.797 58.944C299.797 58.835 299.852 58.7306 299.95 58.6535C300.049 58.5765 300.182 58.5332 300.321 58.5332C300.46 58.5332 300.594 58.5765 300.692 58.6535C300.79 58.7306 300.845 58.835 300.845 58.944Z" fill="#6153BD"/>
<path d="M304.757 63.2394C304.757 63.3484 304.702 63.4528 304.603 63.5299C304.505 63.6069 304.372 63.6502 304.233 63.6502C304.094 63.6502 303.96 63.6069 303.862 63.5299C303.764 63.4528 303.708 63.3484 303.708 63.2394C303.708 63.1305 303.764 63.026 303.862 62.9489C303.96 62.8719 304.094 62.8286 304.233 62.8286C304.372 62.8286 304.505 62.8719 304.603 62.9489C304.702 63.026 304.757 63.1305 304.757 63.2394Z" fill="#6153BD"/>
<path d="M333.517 64.5273H328.282C328.097 64.5273 327.919 64.585 327.788 64.6875C327.658 64.7901 327.584 64.9292 327.584 65.0743V71.136C327.584 71.281 327.658 71.4201 327.788 71.5227C327.919 71.6253 328.097 71.6829 328.282 71.6829H333.517C333.701 71.681 333.877 71.6228 334.008 71.5207C334.138 71.4185 334.212 71.2805 334.215 71.136V65.0719C334.213 64.9274 334.139 64.7892 334.009 64.6872C333.878 64.5853 333.701 64.5278 333.517 64.5273Z" fill="#6153BD"/>
<path d="M332.751 35.6865L325.67 37.202C325.543 37.229 325.428 37.2815 325.336 37.3543C325.243 37.427 325.177 37.5175 325.143 37.6166C325.109 37.7158 325.109 37.8201 325.143 37.9193C325.177 38.0185 325.243 38.109 325.335 38.1819L331.704 43.1269C331.773 43.1814 331.856 43.2247 331.946 43.2542C332.037 43.2837 332.134 43.2988 332.233 43.2988C332.331 43.2988 332.428 43.2837 332.519 43.2542C332.609 43.2247 332.692 43.1814 332.761 43.1269C332.854 43.0543 332.92 42.9639 332.955 42.8649L334.845 37.2133L332.751 35.6865Z" fill="#6153BD"/>
<path d="M337.657 33.3681C337.401 33.1705 337.054 33.0608 336.695 33.063C336.335 33.0653 335.991 33.1793 335.738 33.3801L332.786 35.7153L334.776 37.1624L337.67 34.8722C337.919 34.6701 338.058 34.3994 338.055 34.1182C338.053 33.837 337.91 33.5677 337.657 33.3681Z" fill="#6153BD"/>
<path d="M275.209 25.7316C275.209 25.8275 275.185 25.9223 275.138 26.0108C275.091 26.0992 275.022 26.1796 274.935 26.2472C274.848 26.3148 274.746 26.3683 274.632 26.4048C274.519 26.4413 274.398 26.4599 274.276 26.4597C274.153 26.4594 274.032 26.4403 273.92 26.4034C273.807 26.3665 273.704 26.3126 273.618 26.2446C273.532 26.1767 273.463 26.0961 273.417 26.0075C273.37 25.9188 273.346 25.8239 273.347 25.728C273.347 25.5345 273.446 25.349 273.621 25.2125C273.796 25.076 274.033 24.9995 274.28 25C274.527 25.0005 274.764 25.0778 274.938 25.215C275.113 25.3522 275.21 25.5381 275.209 25.7316Z" fill="#6153BD"/>
<path d="M294.36 100.043C291.737 100.63 288.957 100.63 286.333 100.043C283.876 100.601 279.048 103.29 279.048 103.29H295.291C295.137 102.184 294.825 101.095 294.36 100.043Z" fill="#6153BD"/>
<path d="M278.118 100.043C275.217 100.595 272.184 100.56 269.306 99.9404C266.67 100.617 264.271 101.764 262.297 103.29H279.034C278.83 102.192 278.524 101.106 278.118 100.043Z" fill="#6153BD"/>
<path d="M307.128 80.8323L304.248 81.0146L302.503 80.8095L302.867 79.6587L307.128 80.8323Z" fill="#6153BD"/>
<path d="M357.483 71.6826H244.44C244.105 71.6826 243.783 71.7871 243.546 71.973C243.309 72.1589 243.175 72.411 243.175 72.6739C243.175 72.9368 243.309 73.189 243.546 73.3749C243.783 73.5608 244.105 73.6652 244.44 73.6652H259.933L252.802 104.6C252.789 104.657 252.785 104.714 252.787 104.771H255.346L262.513 73.6652H339.438L346.607 104.783H349.166C349.151 104.726 349.151 104.669 349.137 104.603L342.006 73.6676H357.483C357.811 73.6587 358.122 73.5503 358.35 73.3654C358.578 73.1805 358.705 72.9334 358.705 72.6763C358.705 72.4192 358.578 72.1722 358.35 71.9872C358.122 71.8023 357.811 71.694 357.483 71.685V71.6826Z" fill="#6153BD"/>
<path d="M275.209 25.7316C275.209 25.8275 275.185 25.9223 275.138 26.0108C275.091 26.0992 275.022 26.1796 274.935 26.2472C274.848 26.3148 274.746 26.3683 274.632 26.4048C274.519 26.4413 274.398 26.4599 274.276 26.4597C274.153 26.4594 274.032 26.4403 273.92 26.4034C273.807 26.3665 273.704 26.3126 273.618 26.2446C273.532 26.1767 273.463 26.0961 273.417 26.0075C273.37 25.9188 273.346 25.8239 273.347 25.728C273.347 25.5345 273.446 25.349 273.621 25.2125C273.796 25.076 274.033 24.9995 274.28 25C274.527 25.0005 274.764 25.0778 274.938 25.215C275.113 25.3522 275.21 25.5381 275.209 25.7316Z" stroke="#120071" stroke-width="0.769171"/>
<path d="M337.657 33.3681C337.401 33.1705 337.054 33.0608 336.695 33.063C336.335 33.0653 335.991 33.1793 335.738 33.3801L332.786 35.7153L334.776 37.1624L337.67 34.8722C337.919 34.6701 338.058 34.3994 338.055 34.1182C338.053 33.837 337.91 33.5677 337.657 33.3681Z" stroke="#120071" stroke-width="0.769171" stroke-linejoin="round"/>
<path d="M357.483 71.6826H244.44C244.105 71.6826 243.783 71.7871 243.546 71.973C243.309 72.1589 243.175 72.411 243.175 72.6739C243.175 72.9368 243.309 73.189 243.546 73.3749C243.783 73.5608 244.105 73.6652 244.44 73.6652H259.933L252.802 104.6C252.789 104.657 252.785 104.714 252.787 104.771H255.346L262.513 73.6652H339.438L346.607 104.783H349.166C349.151 104.726 349.151 104.669 349.137 104.603L342.006 73.6676H357.483C357.811 73.6587 358.122 73.5503 358.35 73.3654C358.578 73.1805 358.705 72.9334 358.705 72.6763C358.705 72.4192 358.578 72.1722 358.35 71.9872C358.122 71.8023 357.811 71.694 357.483 71.685V71.6826Z" stroke="#120071" stroke-width="0.769171" stroke-linejoin="round"/>
<path d="M297.603 70.1333C296.999 70.7739 296.17 71.262 295.216 71.5373C294.263 71.8127 293.227 71.8633 292.237 71.6829" stroke="#120071" stroke-width="0.769171" stroke-linecap="round" stroke-linejoin="round"/>
<path d="M264.714 68.2188C264.714 68.2188 257.643 67.7066 256.668 71.6826" stroke="#120071" stroke-width="0.769171" stroke-linecap="round" stroke-linejoin="round"/>
<path d="M267.226 69.1074C267.008 69.0162 266.832 68.9275 266.659 68.8453C265.837 68.4561 265.539 68.1958 264.812 67.8198C264.113 67.4566 263.465 67.0365 262.878 66.5665C261.264 65.2681 261.802 65.0397 263.62 65.8942C263.631 65.8955 263.641 65.8995 263.649 65.9056C264.856 66.4784 266.115 66.9813 267.415 67.4102" stroke="#120071" stroke-width="0.769171" stroke-linecap="round" stroke-linejoin="round"/>
<path d="M266.659 68.8456C265.07 68.295 263.434 67.8341 261.761 67.4663C260.351 67.1557 260.598 66.9068 260.83 66.8738C261.689 66.8227 262.553 66.8494 263.404 66.9536" stroke="#120071" stroke-width="0.769171" stroke-linecap="round" stroke-linejoin="round"/>
<path d="M266.964 71.1814C266.67 71.1509 266.374 71.1318 266.077 71.1244C263.563 71.0525 264.45 70.6141 265.321 70.418C265.773 70.3167 266.514 70.2015 267.11 70.042" stroke="#120071" stroke-width="0.769171" stroke-linecap="round" stroke-linejoin="round"/>
<path d="M321.349 81.9941L325.493 104.783" stroke="#120071" stroke-width="0.769171" stroke-linecap="round" stroke-linejoin="round"/>
<path d="M325.842 65.4499L319.037 65.0625" stroke="#120071" stroke-width="0.769171" stroke-linecap="round" stroke-linejoin="round"/>
<path d="M294.607 99.1797L294.36 100.043" stroke="#120071" stroke-width="0.769171" stroke-linecap="round" stroke-linejoin="round"/>
<path d="M286.319 100.043L286.914 98.2109" stroke="#120071" stroke-width="0.769171" stroke-linecap="round" stroke-linejoin="round"/>
<path d="M278.859 98.687L278.118 100.043" stroke="#120071" stroke-width="0.769171" stroke-linecap="round" stroke-linejoin="round"/>
<path d="M269.291 99.9517L271.309 96.6348" stroke="#120071" stroke-width="0.769171" stroke-linecap="round" stroke-linejoin="round"/>
<path d="M286.319 91.224L281.069 98.767C276.741 98.8835 272.523 97.6879 269.291 95.4291L282.669 73.6655" stroke="#120071" stroke-width="0.769171" stroke-linecap="round" stroke-linejoin="round"/>
<path d="M292.557 99.1341L297.923 79.2026C298.001 78.9115 298.152 78.6353 298.367 78.3903C298.583 78.1452 298.858 77.9361 299.177 77.775C299.496 77.6139 299.853 77.5041 300.227 77.4518C300.601 77.3996 300.984 77.406 301.355 77.4707C305.869 78.2617 314.357 78.9885 315.211 73.6914" stroke="#120071" stroke-width="0.769171" stroke-linecap="round" stroke-linejoin="round"/>
<path d="M273.646 66.6046L290.129 64.5056C292.848 61.2673 296.077 53.7663 300.758 52.724C301.526 52.5707 302.225 52.2554 302.779 51.8125" stroke="#120071" stroke-width="0.769171" stroke-linecap="round" stroke-linejoin="round"/>
<path d="M303.826 49.8995C304.212 49.8887 304.594 49.8445 304.967 49.7676L303.59 50.7769" stroke="#120071" stroke-width="0.769171" stroke-linecap="round" stroke-linejoin="round"/>
<path d="M306.982 51.9023C307.207 52.2262 307.581 52.4709 308.029 52.586C310.355 53.2663 312.51 54.2608 314.398 55.5245C316.552 57.0729 318.454 62.7466 319.284 66.4857C319.484 67.3647 319.254 68.2706 318.64 69.0226C318.025 69.7745 317.071 70.3171 315.968 70.5421C313.092 71.1681 310.137 71.5501 307.156 71.6815" stroke="#120071" stroke-width="0.769171" stroke-linecap="round" stroke-linejoin="round"/>
<path d="M312.173 64.4585C307.952 65.0964 303.673 65.4698 299.377 65.5751" stroke="#120071" stroke-width="0.769171" stroke-linecap="round" stroke-linejoin="round"/>
<path d="M310.501 64.7119C310.312 62.9691 309.932 61.2423 309.367 59.5503V64.8714" stroke="#120071" stroke-width="0.769171" stroke-linecap="round" stroke-linejoin="round"/>
<path d="M276.155 66.2817C277.48 67.8731 277.95 69.8098 277.463 71.6712" stroke="#120071" stroke-width="0.769171" stroke-linecap="round" stroke-linejoin="round"/>
<path d="M294.128 67.125C293.008 67.5124 290.143 68.1511 288.602 68.5379C287.875 68.7178 289.169 69.3697 293.56 68.3784" stroke="#120071" stroke-width="0.769171" stroke-linecap="round" stroke-linejoin="round"/>
<path d="M294.346 68.0137C293.284 68.5378 291.744 69.1411 290.347 69.7228C289.693 69.9957 290.289 70.5888 294.157 69.3354" stroke="#120071" stroke-width="0.769171" stroke-linecap="round" stroke-linejoin="round"/>
<path d="M294.651 68.8452C294.039 69.4377 293.508 70.0122 292.484 70.8734C292.008 71.2746 292.883 71.5181 296.12 69.734C296.717 69.4047 297.038 69.7657 297.821 70.2809C298.856 70.9615 299.551 71.7507 300.307 71.671" stroke="#120071" stroke-width="0.769171" stroke-linecap="round" stroke-linejoin="round"/>
<path d="M296.541 66.1908C295.378 64.0919 296.134 63.9719 296.541 64.5044C297.231 65.3773 298.067 66.1742 299.026 66.8738" stroke="#120071" stroke-width="0.769171" stroke-linecap="round" stroke-linejoin="round"/>
<path d="M298.533 66.487C298.896 65.2516 299.737 65.3404 300.4 66.3587C301.165 67.5365 301.863 71.6827 300.264 71.6827" stroke="#120071" stroke-width="0.769171" stroke-linecap="round" stroke-linejoin="round"/>
<path d="M300.85 67.417C299.14 66.9168 296.395 66.0425 295.654 66.0425C295.378 66.0425 292.223 66.7621 290.696 67.0907C289.692 67.3078 289.213 67.6707 290.841 67.6263C291.525 67.6077 292.281 67.5351 292.964 67.4668" stroke="#120071" stroke-width="0.769171" stroke-linecap="round" stroke-linejoin="round"/>
<path d="M297.661 58.5352C297.03 60.948 297.07 63.439 297.777 65.8388" stroke="#120071" stroke-width="0.769171" stroke-linecap="round" stroke-linejoin="round"/>
<path d="M274.366 71.6714H266.892L267.823 64.231H273.319L274.366 71.6714Z" stroke="#120071" stroke-width="0.769171" stroke-linecap="round" stroke-linejoin="round"/>
<path d="M303.725 45.4759C304.388 44.5115 304.948 43.5053 305.397 42.4678C305.5 42.3489 305.639 42.251 305.8 42.1824C305.962 42.1137 306.142 42.0762 306.325 42.073C306.509 42.0698 306.691 42.1009 306.856 42.1638C307.022 42.2268 307.165 42.3197 307.276 42.4348C307.423 42.5889 307.503 42.7766 307.505 42.9691C307.504 43.0926 307.464 43.2138 307.389 43.3224C307.599 43.2124 307.85 43.1609 308.102 43.1762C308.354 43.1915 308.593 43.2727 308.779 43.4067C308.965 43.5407 309.088 43.7198 309.129 43.9152C309.169 44.1107 309.125 44.3112 309.003 44.4846C309.23 44.3721 309.5 44.3268 309.766 44.3567C310.032 44.3867 310.275 44.49 310.452 44.648C310.629 44.806 310.728 45.0083 310.732 45.2186C310.736 45.4289 310.643 45.6332 310.472 45.7949C310.612 45.7599 310.759 45.7471 310.905 45.7574C311.051 45.7677 311.194 45.8008 311.323 45.8548C311.453 45.9088 311.567 45.9825 311.66 46.0717C311.753 46.161 311.822 46.2638 311.863 46.3742C311.924 46.5408 311.92 46.718 311.851 46.8826C311.782 47.0473 311.651 47.1919 311.476 47.2977C311.359 47.3676 311.226 47.4184 311.084 47.4471C309.846 47.5522 308.706 48.0255 307.9 48.7696C307.093 49.5137 306.682 50.4718 306.751 51.4464" stroke="#120071" stroke-width="0.769171" stroke-linecap="round" stroke-linejoin="round"/>
<path d="M306.982 51.9022L306.706 53.6113L304.481 52.2326L301.965 53.2239L302.78 51.811" stroke="#120071" stroke-width="0.769171" stroke-linecap="round" stroke-linejoin="round"/>
<path d="M304.481 52.2329C302.649 55.8563 301.994 60.4026 301.965 65.4616" stroke="#120071" stroke-width="0.769171" stroke-linecap="round" stroke-linejoin="round"/>
<path d="M334.217 66.4756C334.769 66.4756 335.298 66.6471 335.687 66.9529C335.881 67.1041 336.034 67.2836 336.139 67.4813C336.244 67.679 336.298 67.8909 336.298 68.105C336.298 68.319 336.244 68.5309 336.139 68.7286C336.034 68.9263 335.881 69.1058 335.687 69.257C335.298 69.5628 334.769 69.7343 334.217 69.7343" stroke="#120071" stroke-width="0.769171" stroke-linecap="round" stroke-linejoin="round"/>
<path d="M337.315 38.0356L335.09 36.9189" stroke="#120071" stroke-width="0.769171" stroke-linecap="round" stroke-linejoin="round"/>
<path d="M329.855 41.6932C329.619 41.8378 329.34 41.9328 329.044 41.9691C328.748 42.0055 328.445 41.9821 328.164 41.901C327.883 41.82 327.633 41.6841 327.438 41.5061C327.243 41.3282 327.108 41.1141 327.048 40.8842C326.998 40.6902 327.001 40.4899 327.059 40.2971C327.117 40.1042 327.227 39.9236 327.383 39.7676" stroke="#120071" stroke-width="0.769171" stroke-linecap="round" stroke-linejoin="round"/>
<path d="M304.248 83.5552L302.503 104.783" stroke="#120071" stroke-width="0.769171" stroke-linecap="round" stroke-linejoin="round"/>
<path d="M275.762 35.8027H267.095V29.0117H275.762V35.8027Z" stroke="#120071" stroke-width="0.769171" stroke-linecap="round" stroke-linejoin="round"/>
<path d="M271.429 30.5611L273.959 26.3794" stroke="#120071" stroke-width="0.769171" stroke-linecap="round" stroke-linejoin="round"/>
<path d="M246.491 84.7344H239.875" stroke="#120071" stroke-width="0.769171" stroke-linecap="round" stroke-linejoin="round"/>
<path d="M243.175 87.3269V82.1426" stroke="#120071" stroke-width="0.769171" stroke-linecap="round" stroke-linejoin="round"/>
<path d="M227.136 104.783H372.548" stroke="#120071" stroke-width="0.769171" stroke-linecap="round" stroke-linejoin="round"/>
<path d="M279.048 103.29H295.291" stroke="#120071" stroke-width="0.769171" stroke-linecap="round" stroke-linejoin="round"/>
<path d="M262.282 103.29H279.019" stroke="#120071" stroke-width="0.769171" stroke-linecap="round" stroke-linejoin="round"/>
<path d="M279.047 103.272C278.893 102.171 278.581 101.088 278.117 100.042C275.217 100.594 272.184 100.559 269.306 99.9395C265.856 100.857 262.817 102.535 260.552 104.771C267.27 104.771 271.734 104.783 276.794 104.771" stroke="#120071" stroke-width="0.769171" stroke-linecap="round" stroke-linejoin="round"/>
<path d="M294.36 100.043C291.737 100.63 288.957 100.63 286.333 100.043C282.712 100.866 278.078 103.766 276.794 104.772C284.472 104.772 289.3 104.715 295.334 104.715C295.388 103.123 295.057 101.538 294.36 100.043Z" stroke="#120071" stroke-width="0.769171" stroke-linecap="round" stroke-linejoin="round"/>
<path d="M302.503 80.8095L302.867 79.6587L307.128 80.8323" stroke="#120071" stroke-width="0.769171" stroke-linecap="round" stroke-linejoin="round"/>
<path d="M302.503 80.8093L304.248 81.0144L319.951 80.0093" stroke="#120071" stroke-width="0.769171" stroke-linecap="round" stroke-linejoin="round"/>
<path d="M321.974 80.1257L317.03 79.8408" stroke="#120071" stroke-width="0.769171" stroke-linecap="round" stroke-linejoin="round"/>
<path d="M276.3 98.3451L288.602 82.1768" stroke="#120071" stroke-width="0.769171" stroke-linecap="round" stroke-linejoin="round"/>
<path d="M303.143 65.3931C304.452 66.9085 304.786 69.005 304.117 71.6827" stroke="#120071" stroke-width="0.769171" stroke-linecap="round" stroke-linejoin="round"/>
<path d="M301.704 83.3274L304.248 83.5552L320.167 82.5184C320.501 82.498 320.819 82.3957 321.075 82.2259C321.33 82.0562 321.511 81.8276 321.592 81.5727L328.47 55.4457C328.584 55.023 328.518 54.5826 328.281 54.1922C328.045 53.8019 327.651 53.4831 327.161 53.285C326.837 53.153 326.48 53.0777 326.114 53.0644L307.476 52.3579" stroke="#120071" stroke-width="0.769171" stroke-linecap="round" stroke-linejoin="round"/>
<path d="M295.669 73.3237C294.18 73.5486 292.81 74.1165 291.735 74.9548C290.66 75.7931 289.929 76.8637 289.634 78.0295L284.736 97.4908C288.472 98.8763 292.62 99.4361 296.733 99.11C296.733 99.0536 301.186 84.9806 302.506 80.8109" stroke="#120071" stroke-width="0.769171" stroke-linecap="round" stroke-linejoin="round"/>
<path d="M283.861 45.8521C284.532 45.8524 285.176 46.0613 285.65 46.4331C286.124 46.8048 286.391 47.3089 286.392 47.8346V62.2483C286.392 62.7742 286.125 63.2786 285.651 63.6506C285.176 64.0226 284.533 64.2318 283.861 64.2321H258.72C258.048 64.2318 257.404 64.023 256.929 63.6514C256.453 63.2798 256.185 62.7757 256.183 62.2495V47.8346C256.182 47.5745 256.247 47.3167 256.374 47.0762C256.5 46.8357 256.686 46.6171 256.921 46.433C257.155 46.2488 257.434 46.1027 257.741 46.003C258.047 45.9034 258.376 45.8521 258.708 45.8521H283.861Z" stroke="#120071" stroke-width="0.769171" stroke-linecap="round" stroke-linejoin="round"/>
<path d="M287.351 47.8346V62.2369C287.351 62.7626 287.084 63.2667 286.61 63.6385C286.135 64.0102 285.492 64.2192 284.821 64.2195H283.861C284.532 64.2192 285.176 64.0102 285.65 63.6385C286.124 63.2667 286.391 62.7626 286.391 62.2369V47.8346C286.391 47.3089 286.124 46.8048 285.65 46.4331C285.176 46.0613 284.532 45.8524 283.861 45.8521H284.821C285.492 45.8524 286.135 46.0613 286.61 46.4331C287.084 46.8048 287.351 47.3089 287.351 47.8346Z" stroke="#120071" stroke-width="0.769171" stroke-linecap="round" stroke-linejoin="round"/>
<path d="M307.419 46.9008C308.49 46.282 309.256 47.7122 307.259 48.4277C306.981 48.5272 306.125 50.7179 306.983 51.9059C305.613 52.2591 303.958 52.4696 302.78 51.8147C303.402 51.2909 303.772 50.6136 303.826 49.8993C300.046 49.9449 303.652 45.467 303.725 45.467C305.573 43.4418 306.819 45.5725 306.722 46.8415C306.694 47.2163 307.029 47.1245 307.419 46.9008Z" stroke="#120071" stroke-width="0.769171" stroke-linecap="round" stroke-linejoin="round"/>
<path d="M316.468 80.214C317.434 79.6467 318.205 78.9005 318.713 78.0423C319.22 77.1841 319.448 76.2407 319.376 75.2965C319.323 74.7571 319.223 74.2213 319.075 73.6929" stroke="#120071" stroke-width="0.769171" stroke-linecap="round" stroke-linejoin="round"/>
<path d="M317.233 70.1089C317.627 70.6119 317.971 71.1378 318.263 71.6819" stroke="#120071" stroke-width="0.769171" stroke-linecap="round" stroke-linejoin="round"/>
<path d="M334.217 71.1355C334.217 71.2805 334.144 71.4196 334.013 71.5222C333.882 71.6247 333.704 71.6824 333.519 71.6824H328.284C328.099 71.6824 327.922 71.6247 327.791 71.5222C327.66 71.4196 327.586 71.2805 327.586 71.1355V65.0713C327.586 64.9263 327.66 64.7872 327.791 64.6846C327.922 64.582 328.099 64.5244 328.284 64.5244H333.516C333.701 64.5246 333.879 64.5822 334.009 64.6848C334.14 64.7873 334.214 64.9263 334.214 65.0713L334.217 71.1355Z" stroke="#120071" stroke-width="0.769171" stroke-linecap="round" stroke-linejoin="round"/>
<path d="M304.248 83.5556V81.0146" stroke="#120071" stroke-width="0.769171" stroke-linecap="round" stroke-linejoin="round"/>
<path d="M332.751 35.6865L325.67 37.202C325.543 37.229 325.428 37.2815 325.336 37.3543C325.243 37.427 325.177 37.5175 325.143 37.6166C325.109 37.7158 325.109 37.8201 325.143 37.9193C325.177 38.0185 325.243 38.109 325.335 38.1819L331.704 43.1269C331.773 43.1814 331.856 43.2247 331.946 43.2542C332.037 43.2837 332.134 43.2988 332.233 43.2988C332.331 43.2988 332.428 43.2837 332.519 43.2542C332.609 43.2247 332.692 43.1814 332.761 43.1269C332.854 43.0543 332.92 42.9639 332.955 42.8649L334.845 37.2133L332.751 35.6865Z" stroke="#120071" stroke-width="0.769171" stroke-linejoin="round"/>
</g>
<defs>
<clipPath id="clip0_940_4333">
<rect y="0.5" width="335" height="105" rx="8" fill="white"/>
</clipPath>
</defs>
</svg>
