<svg width="335" height="134" viewBox="0 0 335 134" fill="none" xmlns="http://www.w3.org/2000/svg">
<g clip-path="url(#clip0_940_4444)">
<rect width="335" height="134" rx="8" fill="#F9FFFC"/>
<path fill-rule="evenodd" clip-rule="evenodd" d="M404.834 71.4871C415.942 85.1328 427.962 97.9441 433.94 114.392C440.213 131.655 450.463 153.431 439.86 167.863C428 184.004 400.907 175.696 382.686 184.15C371.983 189.115 367.131 201.965 356.288 206.635C344.454 211.73 331.225 210.019 318.379 211.841C296.46 214.952 269.271 237.632 253.772 221.182C238.045 204.489 271.783 178.093 265.881 156.12C260.068 134.472 220.282 127.441 222.68 105.41C224.91 84.9149 259.403 88.622 274.692 75.1687C288.722 62.8229 290.678 39.1696 307.455 30.8125C324.798 22.1735 346.967 22.3966 365.278 30.0452C383.119 37.4971 392.573 56.425 404.834 71.4871Z" fill="#F5F4FF"/>
<circle cx="15" cy="115" r="3" fill="#D9D9D9"/>
<circle cx="25" cy="115" r="3" fill="#D9D9D9"/>
<circle cx="35" cy="115" r="3" fill="#5A36B8"/>
<path d="M286.569 77.4932C285.113 78.3719 283.465 78.8844 281.767 78.9866C282.163 80.1102 282.458 81.2673 282.647 82.4438L285.563 83.7261L287.336 81.1489C287.177 79.9121 286.92 78.6897 286.569 77.4932Z" fill="#FECFC4"/>
<path d="M305.288 55.3545C297.972 64.4816 291.95 67.9263 287.927 69.2966C289.008 72.163 289.85 74.3002 290.243 76.8775C290.255 76.9026 304.27 71.4339 310.761 60.0709C309.418 58.014 307.521 56.3789 305.288 55.3545Z" fill="#FECFC4"/>
<path d="M284.683 70.1012C284.004 70.212 283.307 70.1292 282.672 69.8623C281.754 70.9309 280.183 71.2955 278.334 71.3584C278.058 71.7467 277.702 72.0722 277.291 72.3138C278.19 73.7375 279.007 75.2107 279.739 76.7265C282.643 76.5505 284.843 76.0225 286.365 74.6647C285.967 73.0885 285.403 71.5587 284.683 70.1012Z" fill="#FECFC4"/>
<path d="M253.505 85.8534C260.822 85.5768 270.213 84.3977 277.303 81.9059C276.323 79.1613 275.081 76.5174 273.595 74.0107C268.158 76.0586 263.849 76.052 252.763 76.8143C255.373 76.6707 255.937 85.5146 253.505 85.8534Z" fill="#FECFC4"/>
<path d="M311.927 53.1151L313.875 54.8752C314.061 55.04 314.304 55.1247 314.551 55.1106C314.799 55.0964 315.03 54.9846 315.196 54.7997L321.18 48.1525C321.345 47.9667 321.43 47.7232 321.417 47.475C321.402 47.2269 321.29 46.9948 321.104 46.8292L316.629 42.793C316.443 42.6277 316.199 42.5425 315.951 42.5561C315.828 42.5631 315.708 42.5943 315.597 42.6479C315.486 42.7014 315.387 42.7764 315.305 42.8684L309.321 49.5196C309.238 49.6113 309.175 49.7183 309.134 49.8346C309.094 49.9509 309.076 50.0741 309.084 50.1971C309.09 50.3201 309.121 50.4405 309.175 50.5514C309.229 50.6623 309.304 50.7614 309.396 50.8429L309.859 51.2578C310.557 50.2243 312.111 48.052 312.614 47.9243C312.967 48.4192 312.586 49.765 312.244 50.9693C311.958 51.9783 311.701 52.8882 311.927 53.1151Z" fill="#FECFC4"/>
<path d="M311.224 127.706C308.939 128.336 306.605 128.769 304.247 129C306.812 132.583 306.346 133.388 307.251 135.098C311.413 136.808 320.603 138.354 325.066 138.442C321.745 134.318 315.26 132.156 311.224 127.706Z" fill="#6153BD"/>
<path d="M249.469 109.438C246.678 109.539 243.885 109.315 241.146 108.772C238.532 114.429 236.671 121.482 235.728 126.046C242.24 122.988 242.404 116.305 249.042 115.636C248.864 113.561 249.008 111.47 249.469 109.438Z" fill="#6153BD"/>
<path d="M254.07 77.7446C253.243 77.8517 252.413 77.9314 251.581 77.9834C252.185 76.5383 253.241 76.412 254.07 77.7446Z" fill="#6153BD"/>
<path d="M254.636 84.6717C253.97 86.3187 252.788 86.2307 251.946 84.6089C253.04 84.6109 254.008 84.634 254.636 84.6717Z" fill="#6153BD"/>
<path d="M320.589 94.8666C320.397 94.4492 320.086 94.098 319.695 93.8573C319.303 93.6166 318.85 93.4972 318.391 93.5143C317.932 93.5314 317.488 93.6841 317.116 93.9532C316.743 94.2222 316.459 94.5956 316.299 95.0261C316.18 95.3482 316.133 95.6927 316.163 96.0348C316.193 96.377 316.298 96.7083 316.471 97.0049C316.644 97.3015 316.881 97.556 317.165 97.7502C317.448 97.9443 317.771 98.0733 318.11 98.1277C318.449 98.1821 318.796 98.1607 319.126 98.065C319.456 97.9693 319.76 97.8016 320.017 97.5741C320.275 97.3466 320.478 97.0649 320.614 96.7492C320.749 96.4336 320.813 96.0919 320.8 95.7486C320.789 95.4435 320.717 95.1437 320.589 94.8666Z" fill="#6153BD"/>
<path d="M285.865 95.1816C285.211 96.9166 284.541 98.576 283.813 100.185C284.251 101.547 284.736 102.894 285.269 104.221C284.809 100.286 285.877 95.1975 285.865 95.1816Z" fill="#6153BD"/>
<path d="M280.848 49.9351C278.842 49.9372 276.918 50.7352 275.499 52.1541C274.08 53.5729 273.282 55.4967 273.28 57.5033C273.265 58.6393 273.464 59.768 273.865 60.8309C272.88 59.0828 271.318 57.7314 269.446 57.008C267.574 56.2845 265.51 56.2338 263.605 56.8647C261.7 57.4956 260.073 58.7687 259.004 60.4664C257.934 62.164 257.487 64.1807 257.74 66.1713C257.993 68.1619 258.93 70.0028 260.39 71.379C261.85 72.7553 263.743 73.5813 265.745 73.7158C267.748 73.8503 269.734 73.2849 271.365 72.1164C272.997 70.9479 274.171 69.2489 274.688 67.31C275.782 67.9134 277.253 67.9889 278.195 68.6552C278.041 68.3468 277.426 67.2293 277.064 67.1843C274.615 67.0334 274.7 64.8082 276.121 65.2105C276.8 65.3991 276.963 65.2482 276.849 64.9088C276.006 63.0852 276.685 58.6116 280.293 62.3686C281.076 63.1201 281.741 63.9848 282.267 64.9339C284.118 64.5817 285.771 63.5515 286.902 62.0449C288.033 60.5383 288.562 58.6637 288.384 56.788C288.206 54.9124 287.335 53.1705 285.941 51.9031C284.547 50.6357 282.73 49.9339 280.846 49.9351H280.848Z" fill="#6153BD"/>
<path d="M281.163 68.1274C280.723 68.2532 280.273 68.3418 279.817 68.3921L281.942 69.423C281.526 69.1064 281.248 68.6429 281.163 68.1274Z" fill="#6153BD"/>
<path d="M333.362 79.027C333.499 79.3419 333.727 79.6089 334.017 79.7939C334.307 79.9789 334.645 80.0735 334.988 80.0658C335.245 80.0607 335.498 79.9987 335.728 79.8842C335.958 79.7696 336.159 79.6055 336.318 79.4035C336.477 79.2016 336.589 78.9669 336.646 78.7164C336.703 78.4659 336.704 78.2059 336.648 77.9551C336.593 77.7042 336.483 77.4688 336.326 77.2657C336.169 77.0626 335.968 76.8969 335.739 76.7806C335.51 76.6642 335.258 76.6002 335.002 76.593C334.745 76.5858 334.49 76.6356 334.254 76.7389C334.045 76.8302 333.856 76.9618 333.698 77.1263C333.54 77.2908 333.416 77.4849 333.333 77.6975C333.25 77.9101 333.21 78.137 333.215 78.3652C333.22 78.5933 333.27 78.8182 333.362 79.027Z" fill="#6153BD"/>
<path d="M253.895 121.483L256.824 127.869C257.406 129.138 258.468 130.123 259.776 130.608C261.085 131.094 262.532 131.04 263.801 130.459L291.786 117.635" stroke="#120071" stroke-width="0.769171" stroke-linecap="round" stroke-linejoin="round"/>
<path d="M304.546 111.789L328.622 100.764C329.89 100.181 330.875 99.119 331.361 97.8108C331.846 96.5025 331.793 95.0551 331.212 93.7862L314.278 56.8125" stroke="#120071" stroke-width="0.769171" stroke-linecap="round" stroke-linejoin="round"/>
<path d="M309.097 50.1619C307.927 49.8589 306.688 49.9699 305.59 50.4762L288.394 58.3495" stroke="#120071" stroke-width="0.769171" stroke-linecap="round" stroke-linejoin="round"/>
<path d="M247.433 77.1034L260.266 71.2271" stroke="#120071" stroke-width="0.769171" stroke-linecap="round" stroke-linejoin="round"/>
<path d="M242.102 79.5425L240.757 80.1585C239.489 80.7411 238.504 81.8031 238.018 83.1113C237.533 84.4195 237.586 85.8669 238.167 87.1359L248.401 109.463" stroke="#120071" stroke-width="0.769171" stroke-linecap="round" stroke-linejoin="round"/>
<path d="M296.236 97.8443L303.377 94.5756C303.655 94.4464 303.87 94.2126 303.976 93.9253C304.082 93.638 304.07 93.3204 303.943 93.0418L303.252 91.5081C303.122 91.2304 302.889 91.0151 302.601 90.9091C302.314 90.8031 301.996 90.815 301.718 90.9423L294.414 94.2864" stroke="#120071" stroke-width="0.769171" stroke-linecap="round" stroke-linejoin="round"/>
<path d="M284.821 103.077L281.666 104.522" stroke="#120071" stroke-width="0.769171" stroke-linecap="round" stroke-linejoin="round"/>
<path d="M281.15 68.1396C281.236 68.534 281.423 68.8996 281.692 69.201C281.96 69.5024 282.302 69.7293 282.684 69.8599C283.319 70.1279 284.016 70.2106 284.696 70.0988C292.918 68.8244 300.08 61.8391 305.288 55.3521C307.52 56.3763 309.416 58.0107 310.758 60.0665C304.27 71.4314 290.252 76.9002 290.24 76.873" stroke="#120071" stroke-width="0.769171" stroke-linecap="round" stroke-linejoin="round"/>
<path d="M279.805 68.3911C279.805 68.3911 285.863 68.1158 280.409 62.4823C276.664 58.6142 275.997 62.9673 276.812 64.8372C277.04 65.3606 276.617 65.3388 276.109 65.1978C274.686 64.8008 274.6 67.0207 277.052 67.1716C277.248 67.2755 277.42 67.4217 277.555 67.599C279.225 70.0347 279.177 71.4718 276.423 72.7786C269.321 76.1492 265.36 75.9216 252.763 76.8148" stroke="#120071" stroke-width="0.769171" stroke-linecap="round" stroke-linejoin="round"/>
<path d="M279.817 68.3911L281.929 69.422" stroke="#120071" stroke-width="0.769171" stroke-linecap="round" stroke-linejoin="round"/>
<path d="M253.492 85.8533C260.809 85.5767 270.2 84.3976 277.291 81.9058" stroke="#120071" stroke-width="0.769171" stroke-linecap="round" stroke-linejoin="round"/>
<path d="M254.071 77.7447C251.126 78.1258 248.148 78.1635 245.195 77.8578C244.289 77.7313 243.394 77.538 242.517 77.2795C241.508 77.0032 240.517 76.663 239.55 76.2612C236.885 75.1655 236.231 75.6578 238.732 77.5687C241.525 79.4197 244.558 80.8791 247.747 81.906" stroke="#120071" stroke-width="0.769171" stroke-linecap="round" stroke-linejoin="round"/>
<path d="M254.636 84.6716C252.69 84.5551 246.146 84.5392 244.214 84.7219C240.819 85.0487 241.964 84.2944 243.023 83.6533C243.789 83.1901 247.398 82.2829 246.078 81.3374" stroke="#120071" stroke-width="0.769171" stroke-linecap="round" stroke-linejoin="round"/>
<path d="M242.079 77.1411C241.501 76.7137 240.37 75.7198 240.042 75.4313C238.537 74.108 239.011 73.7831 239.301 73.9095C240.459 74.4196 242.242 75.4558 243.337 75.9084C245.097 76.6362 248.441 78.0959 250.1 78.0582" stroke="#120071" stroke-width="0.769171" stroke-linecap="round" stroke-linejoin="round"/>
<path d="M243.221 75.8715C243.007 75.6068 242.819 75.3931 242.718 75.268C241.458 73.7137 241.964 73.4703 242.228 73.6463C243.287 74.3503 244.883 75.6538 245.886 76.2738C247.094 76.9848 248.365 77.5828 249.683 78.0603" stroke="#120071" stroke-width="0.769171" stroke-linecap="round" stroke-linejoin="round"/>
<path d="M251.581 77.9837C252.555 75.6493 254.527 76.9839 254.995 80.645C255.544 84.9459 253.483 87.5707 251.946 84.6091" stroke="#120071" stroke-width="0.769171" stroke-linecap="round" stroke-linejoin="round"/>
<path d="M311.927 53.1152C311.464 52.4992 312.555 50.1106 312.668 49.3814C312.857 48.1619 313.012 46.7942 311.084 49.6203C309.541 51.7727 307.875 53.8337 306.093 55.793" stroke="#120071" stroke-width="0.769171" stroke-linecap="round" stroke-linejoin="round"/>
<path d="M311.927 53.1151L313.875 54.8751C314.061 55.04 314.304 55.1247 314.551 55.1105C314.799 55.0964 315.03 54.9846 315.195 54.7997L321.18 48.1525C321.345 47.9667 321.43 47.7232 321.417 47.475C321.402 47.2269 321.29 46.9948 321.104 46.8292L316.629 42.793C316.443 42.6277 316.199 42.5426 315.951 42.5561C315.828 42.563 315.708 42.5941 315.597 42.6477C315.486 42.7013 315.387 42.7763 315.305 42.8684L309.32 49.5196C309.196 49.6576 309.116 49.8295 309.091 50.0132C309.065 50.197 309.094 50.3842 309.176 50.5511C309.229 50.6616 309.304 50.7609 309.396 50.8429L309.859 51.2578" stroke="#120071" stroke-width="0.769171" stroke-linecap="round" stroke-linejoin="round"/>
<path d="M310.468 59.6411C312.43 57.5416 321.849 52.4467 320.601 52.2614C319.14 52.0438 316.511 53.4955 316.226 53.6549" stroke="#120071" stroke-width="0.769171" stroke-linecap="round" stroke-linejoin="round"/>
<path d="M318.355 52.6698C318.652 52.4766 319.869 51.6899 320.878 51.1427C321.886 50.5955 319.696 50.5769 318.389 51.2558" stroke="#120071" stroke-width="0.769171" stroke-linecap="round" stroke-linejoin="round"/>
<path d="M313.494 54.5323C313.318 54.4343 312.318 53.9593 310.354 54.5495" stroke="#120071" stroke-width="0.769171" stroke-linecap="round" stroke-linejoin="round"/>
<path d="M323.618 93.4845C323.809 93.9023 323.872 94.3673 323.8 94.8209C323.727 95.2745 323.521 95.6963 323.209 96.0332C322.816 96.4544 322.281 96.7147 321.707 96.7636C321.133 96.8125 320.561 96.6466 320.103 96.298C319.644 95.9494 319.332 95.4429 319.225 94.8769C319.119 94.3108 319.227 93.7255 319.528 93.2344C319.769 92.843 320.12 92.5319 320.538 92.3404C320.955 92.1466 321.421 92.0818 321.876 92.1544C322.33 92.2271 322.752 92.4338 323.088 92.748C323.312 92.9565 323.492 93.2066 323.618 93.4845Z" stroke="#120071" stroke-width="0.769171" stroke-linecap="round" stroke-linejoin="round"/>
<path d="M320.589 94.8668C320.78 95.2846 320.843 95.7496 320.77 96.2032C320.697 96.6568 320.491 97.0787 320.179 97.4156C319.866 97.7523 319.461 97.9886 319.014 98.0945C318.567 98.2014 318.098 98.173 317.667 98.013C317.236 97.8531 316.863 97.5686 316.594 97.1959C316.392 96.9177 316.255 96.5982 316.192 96.2604C316.129 95.9226 316.141 95.5751 316.229 95.2428C316.316 94.9105 316.476 94.6018 316.698 94.3389C316.919 94.0761 317.196 93.8656 317.508 93.7228C318.069 93.4712 318.707 93.4501 319.283 93.6642C319.859 93.8782 320.328 94.3101 320.589 94.8668Z" stroke="#120071" stroke-width="0.769171" stroke-linecap="round" stroke-linejoin="round"/>
<path d="M317.559 96.2628C317.75 96.6806 317.813 97.1456 317.74 97.5992C317.667 98.0528 317.462 98.4747 317.149 98.8116C316.837 99.1483 316.431 99.3846 315.984 99.4904C315.537 99.5973 315.068 99.569 314.637 99.409C314.207 99.249 313.833 98.9646 313.564 98.5919C313.363 98.3137 313.225 97.9941 313.162 97.6564C313.099 97.3186 313.112 96.9711 313.199 96.6388C313.287 96.3065 313.447 95.9978 313.668 95.7349C313.889 95.4721 314.166 95.2616 314.479 95.1187C314.896 94.9249 315.362 94.8601 315.816 94.9328C316.27 95.0054 316.693 95.2121 317.029 95.5263C317.252 95.7348 317.432 95.9849 317.559 96.2628Z" stroke="#120071" stroke-width="0.769171" stroke-linecap="round" stroke-linejoin="round"/>
<path d="M258.182 90.169C258.987 89.8022 259.905 89.7695 260.734 90.0782C261.564 90.3869 262.237 91.0117 262.607 91.8159L264.581 96.1406C264.947 96.946 264.98 97.864 264.671 98.6934C264.363 99.5229 263.738 100.196 262.934 100.566L256.748 103.395C255.943 103.762 255.025 103.794 254.195 103.486C253.366 103.177 252.693 102.552 252.323 101.748L250.338 97.4229C249.971 96.6175 249.938 95.6994 250.247 94.8699C250.556 94.0404 251.181 93.3671 251.985 92.9976L258.182 90.169Z" stroke="#120071" stroke-width="0.769171" stroke-linecap="round" stroke-linejoin="round"/>
<path d="M319.47 87.211C319.747 87.0815 319.962 86.8478 320.068 86.5605C320.174 86.2733 320.163 85.9558 320.036 85.6772L319.344 84.1435C319.215 83.8654 318.982 83.6498 318.694 83.5437C318.407 83.4377 318.089 83.4499 317.81 83.5777L306.118 88.9208C305.841 89.0502 305.625 89.284 305.52 89.5712C305.414 89.8585 305.425 90.1759 305.552 90.4545L306.244 91.9883C306.373 92.266 306.607 92.4813 306.894 92.5873C307.181 92.6933 307.499 92.6813 307.777 92.554L319.47 87.211Z" stroke="#120071" stroke-width="0.769171" stroke-linecap="round" stroke-linejoin="round"/>
<path d="M333.362 79.027C333.499 79.3419 333.727 79.6089 334.017 79.7939C334.307 79.9789 334.645 80.0735 334.988 80.0658C335.245 80.0607 335.498 79.9987 335.728 79.8842C335.958 79.7696 336.159 79.6055 336.318 79.4035C336.477 79.2016 336.589 78.9669 336.646 78.7164C336.703 78.4659 336.704 78.2059 336.648 77.9551C336.593 77.7042 336.483 77.4688 336.326 77.2657C336.169 77.0626 335.968 76.8969 335.739 76.7806C335.51 76.6642 335.258 76.6002 335.002 76.593C334.745 76.5858 334.49 76.6356 334.254 76.7389C334.045 76.8302 333.856 76.9618 333.698 77.1263C333.54 77.2908 333.416 77.4849 333.333 77.6975C333.25 77.9101 333.21 78.137 333.215 78.3652C333.22 78.5933 333.27 78.8182 333.362 79.027Z" stroke="#120071" stroke-width="0.769171" stroke-linecap="round" stroke-linejoin="round"/>
<path d="M344.01 69.5605L331.111 73.7217L325.957 68.6679L342.879 61.2002" stroke="#120071" stroke-width="0.769171" stroke-linecap="round" stroke-linejoin="round"/>
<path d="M283.823 100.209C284.551 98.6002 285.213 96.9169 285.865 95.1807C285.877 95.1932 284.806 100.285 285.274 104.22" stroke="#120071" stroke-width="0.769171" stroke-linecap="round" stroke-linejoin="round"/>
<path d="M273.582 74.0108C276.788 79.203 278.435 85.5518 278.988 86.5575C282.181 88.3553 288.178 86.8467 290.127 84.722C291.003 77.7857 290.193 75.2978 287.926 69.2964" stroke="#120071" stroke-width="0.769171" stroke-linecap="round" stroke-linejoin="round"/>
<path d="M278.988 86.5575C276.335 89.2982 273.368 86.3312 269.584 106.408C260.997 106.357 257.88 107.074 249.834 108.017C248.413 112.583 248.815 117.484 250.5 122.601L272.124 115.497C273.642 114.996 274.989 114.077 276.008 112.845C279.177 109.008 281.806 104.756 283.823 100.207C286.53 108.779 293.833 121.767 298.587 129.275C305.866 129.275 311.914 128.031 316.717 125.504C303.881 115.573 292.632 91.2706 290.127 84.7207" stroke="#120071" stroke-width="0.769171" stroke-linecap="round" stroke-linejoin="round"/>
<path d="M277.291 72.3137C278.192 73.7387 279.014 75.2118 279.755 76.7265C282.659 76.5505 284.859 76.0224 286.38 74.6647C285.981 73.0876 285.416 71.5573 284.695 70.0991" stroke="#120071" stroke-width="0.769171" stroke-linecap="round" stroke-linejoin="round"/>
<path d="M287.337 81.1518L285.565 83.729L282.646 82.4467C282.458 81.2689 282.163 80.111 281.766 78.9868C283.464 78.8837 285.112 78.3704 286.569 77.4907C286.921 78.6884 287.178 79.9131 287.337 81.1518Z" stroke="#120071" stroke-width="0.769171" stroke-linecap="round" stroke-linejoin="round"/>
<path d="M311.224 127.706C315.26 132.156 321.745 134.318 325.066 138.442C320.603 138.354 311.413 136.808 307.251 135.098C306.346 133.388 306.811 132.583 304.247 129C306.605 128.77 308.94 128.336 311.224 127.706Z" stroke="#120071" stroke-width="0.769171" stroke-linecap="round" stroke-linejoin="round"/>
<path d="M249.469 109.438C246.678 109.539 243.885 109.315 241.146 108.772C238.532 114.429 236.671 121.482 235.728 126.046C242.24 122.988 242.404 116.305 249.042 115.636C248.864 113.561 249.008 111.47 249.469 109.438Z" stroke="#120071" stroke-width="0.769171" stroke-linecap="round" stroke-linejoin="round"/>
<path d="M278.347 71.371C280.195 71.3082 281.766 70.9436 282.684 69.875" stroke="#120071" stroke-width="0.769171" stroke-linecap="round" stroke-linejoin="round"/>
<path d="M282.256 64.9212C283.31 64.7195 284.31 64.2956 285.188 63.6778C286.066 63.06 286.803 62.2625 287.349 61.3381C287.895 60.4137 288.238 59.3837 288.356 58.3165C288.473 57.2493 288.362 56.1693 288.03 55.1483C287.472 53.4359 286.322 51.9787 284.785 51.0386C283.249 50.0985 281.428 49.7371 279.649 50.0193C277.87 50.3015 276.251 51.2089 275.081 52.5784C273.911 53.9478 273.268 55.6896 273.268 57.4906C273.251 58.6267 273.45 59.7557 273.856 60.8169C272.868 59.0717 271.304 57.724 269.432 57.0043C267.56 56.2845 265.497 56.2373 263.594 56.8707C261.691 57.5042 260.067 58.779 259 60.4771C257.933 62.1752 257.489 64.1913 257.743 66.1806C257.998 68.17 258.936 70.009 260.397 71.3834C261.858 72.7577 263.75 73.582 265.751 73.7154C267.752 73.8488 269.738 73.2829 271.368 72.1145C272.998 70.9461 274.172 69.2478 274.688 67.3099C275.782 67.9133 277.253 67.9888 278.195 68.6551" stroke="#120071" stroke-width="0.769171" stroke-linecap="round" stroke-linejoin="round"/>
<path d="M241.172 53.9463C241.319 54.2696 241.366 54.6292 241.309 54.9795C241.251 55.3298 241.091 55.6552 240.848 55.9145C240.606 56.1738 240.292 56.3554 239.946 56.4362C239.6 56.5171 239.239 56.4936 238.906 56.3688C238.574 56.244 238.286 56.0234 238.079 55.735C237.872 55.4465 237.755 55.1032 237.743 54.7484C237.731 54.3935 237.825 54.0431 238.012 53.7415C238.199 53.4399 238.472 53.2005 238.795 53.0537C239.01 52.955 239.242 52.8998 239.478 52.8913C239.713 52.8828 239.949 52.9211 240.17 53.0041C240.391 53.0872 240.593 53.2132 240.765 53.3749C240.937 53.5366 241.075 53.7309 241.172 53.9463Z" stroke="#120071" stroke-width="0.769171" stroke-linecap="round" stroke-linejoin="round"/>
<path d="M247.269 56.1964C247.416 56.5197 247.463 56.8792 247.406 57.2296C247.348 57.58 247.188 57.9054 246.946 58.1648C246.703 58.4241 246.389 58.6057 246.043 58.6865C245.698 58.7674 245.336 58.7439 245.003 58.619C244.671 58.4942 244.383 58.2735 244.176 57.985C243.969 57.6965 243.852 57.3531 243.84 56.9982C243.829 56.6434 243.922 56.293 244.11 55.9913C244.297 55.6897 244.57 55.4504 244.893 55.3038C245.107 55.2052 245.339 55.1502 245.575 55.1418C245.811 55.1333 246.046 55.1717 246.267 55.2547C246.488 55.3377 246.69 55.4637 246.862 55.6253C247.034 55.7869 247.172 55.981 247.269 56.1964Z" stroke="#120071" stroke-width="0.769171" stroke-linecap="round" stroke-linejoin="round"/>
<path d="M240.518 61.2125L244.629 50.3379" stroke="#120071" stroke-width="0.769171" stroke-linecap="round" stroke-linejoin="round"/>
<path d="M283.124 127.19L285.953 133.338" stroke="#120071" stroke-width="0.769171" stroke-linecap="round" stroke-linejoin="round"/>
<path d="M287.612 128.85L281.464 131.691" stroke="#120071" stroke-width="0.769171" stroke-linecap="round" stroke-linejoin="round"/>
<path d="M308.683 72.54C309.065 72.8023 309.37 73.1621 309.567 73.5821C309.764 74.002 309.845 74.4669 309.802 74.9287" stroke="#120071" stroke-width="0.769171" stroke-linecap="round" stroke-linejoin="round"/>
<path d="M310.028 70.5171C310.721 71.0853 311.278 71.8013 311.659 72.6126C312.04 73.424 312.234 74.3102 312.229 75.2064" stroke="#120071" stroke-width="0.769171" stroke-linecap="round" stroke-linejoin="round"/>
<path d="M311.489 68.2529C313.474 70.193 314.685 72.7894 314.896 75.5572" stroke="#120071" stroke-width="0.769171" stroke-linecap="round" stroke-linejoin="round"/>
<path d="M297.167 42.6309L295.013 43.6075C294.81 43.6856 294.637 43.8243 294.516 44.0046C294.395 44.1849 294.332 44.3981 294.337 44.6152C294.34 44.7592 294.372 44.901 294.432 45.0321C294.492 45.1632 294.577 45.2809 294.683 45.3781C294.844 45.5244 295.045 45.6176 295.261 45.6452C295.476 45.6728 295.695 45.6334 295.887 45.5323L297.094 44.9838C297.346 44.8763 297.63 44.8716 297.886 44.9707C298.142 45.0699 298.348 45.265 298.462 45.5145C298.576 45.764 298.587 46.048 298.495 46.306C298.402 46.564 298.212 46.7755 297.965 46.8954L295.797 47.8879" stroke="#120071" stroke-width="0.769171" stroke-linecap="round" stroke-linejoin="round"/>
<path d="M295.281 42.6309L297.682 47.8865" stroke="#120071" stroke-width="0.769171" stroke-linecap="round" stroke-linejoin="round"/>
<path d="M227.858 91.6247C227.711 91.345 227.463 91.1318 227.165 91.0288C226.866 90.9257 226.54 90.9405 226.252 91.0702C225.964 91.2006 225.737 91.4362 225.617 91.7286C225.497 92.0211 225.494 92.3482 225.608 92.643L226.161 93.8751" stroke="#120071" stroke-width="0.769171" stroke-linecap="round" stroke-linejoin="round"/>
<path d="M234.822 96.9667C235.166 96.8372 235.451 96.5878 235.625 96.2645C235.799 95.9412 235.85 95.5659 235.769 95.2079C235.688 94.8498 235.48 94.5332 235.184 94.3165C234.887 94.0998 234.523 93.9976 234.157 94.0289C233.95 94.0449 233.748 94.1035 233.565 94.2009C228.511 95.4078 226.776 95.2318 226.16 93.874C226.776 95.2318 225.758 96.6531 221.534 99.6696C221.191 99.8511 220.931 100.157 220.806 100.523C220.681 100.89 220.701 101.291 220.861 101.644C221.021 101.997 221.31 102.275 221.669 102.423C222.028 102.57 222.429 102.574 222.791 102.435L234.822 96.9667Z" stroke="#120071" stroke-width="0.769171" stroke-linecap="round" stroke-linejoin="round"/>
</g>
<defs>
<clipPath id="clip0_940_4444">
<rect width="335" height="134" rx="8" fill="white"/>
</clipPath>
</defs>
</svg>
