<svg width="335" height="134" viewBox="0 0 335 134" fill="none" xmlns="http://www.w3.org/2000/svg">
<g clip-path="url(#clip0_940_4333)">
<rect width="335" height="134" rx="8" fill="#FFFBFA"/>
<path fill-rule="evenodd" clip-rule="evenodd" d="M404.834 71.4871C415.942 85.1328 427.962 97.9441 433.94 114.392C440.213 131.655 450.463 153.431 439.86 167.863C428 184.004 400.907 175.696 382.686 184.15C371.983 189.115 367.131 201.965 356.288 206.635C344.454 211.73 331.225 210.019 318.379 211.841C296.46 214.952 269.271 237.632 253.772 221.182C238.045 204.489 271.783 178.093 265.881 156.12C260.068 134.472 220.282 127.441 222.68 105.41C224.91 84.9149 259.403 88.622 274.692 75.1687C288.722 62.8229 290.678 39.1696 307.455 30.8125C324.798 22.1735 346.967 22.3966 365.278 30.0452C383.119 37.4971 392.573 56.425 404.834 71.4871Z" fill="#F5F4FF"/>
<circle cx="15" cy="115" r="3" fill="#D9D9D9"/>
<circle cx="25" cy="115" r="3" fill="#5A36B8"/>
<circle cx="35" cy="115" r="3" fill="#D9D9D9"/>
<path d="M317.097 90.5679C315.271 91.6929 309.481 92.4376 307.02 92.5746H318.117C317.825 91.8824 317.484 91.2118 317.097 90.5679Z" fill="#FECFC4"/>
<path d="M318.915 95.1064H282.533L269.155 122.881C269.79 123.442 270.464 123.956 271.173 124.42L269.169 128.638C272.048 129.429 275.08 129.474 277.981 128.769L278.719 127.048C279.455 127.12 280.194 127.151 280.933 127.141L286.173 117.552L284.598 125.511C285.305 125.86 286.034 126.167 286.778 126.43L286.197 128.768C288.82 129.517 291.6 129.517 294.224 128.768L294.47 127.666C295.179 127.663 295.887 127.633 296.594 127.575L302.367 104.222L304.112 104.484L316.254 103.51C318.75 101.469 319.838 98.9315 318.915 95.1064Z" fill="#FECFC4"/>
<path d="M303.69 64.7764C303.666 65.1585 303.588 65.5353 303.46 65.8961L304.856 64.5874C304.477 64.6988 304.085 64.7623 303.69 64.7764Z" fill="#6153BD"/>
<path d="M309.245 77.104V83.8802C309.623 83.822 310.001 83.7639 310.379 83.6912C310.177 81.4688 309.798 79.266 309.245 77.104Z" fill="#6153BD"/>
<path d="M300.768 87.1522L298.994 86.4978C298.788 86.3212 298.589 86.1369 298.397 85.9452C298.864 83.924 300.113 84.6802 300.768 87.1522Z" fill="#6153BD"/>
<path d="M287.215 62.1415V80.5215C287.215 81.1925 286.948 81.8358 286.473 82.3102C285.999 82.7846 285.356 83.0513 284.685 83.0517H283.725C284.396 83.0513 285.039 82.7846 285.514 82.3102C285.988 81.8358 286.255 81.1925 286.255 80.5215V62.1415C286.255 61.4706 285.988 60.8273 285.514 60.3528C285.039 59.8784 284.396 59.6117 283.725 59.6113H284.685C285.356 59.6117 285.999 59.8784 286.473 60.3528C286.948 60.8273 287.215 61.4706 287.215 62.1415Z" fill="#6153BD"/>
<path d="M278.04 91.936H276.149C275.846 91.9386 275.553 91.8285 275.327 91.6269C275.1 91.4253 274.957 91.1467 274.925 90.8454L274.128 83.0674H273.168L274.23 92.7518H278.84C278.842 92.6454 278.823 92.5396 278.784 92.4407C278.744 92.3418 278.686 92.2516 278.611 92.1756C278.537 92.0996 278.448 92.0393 278.35 91.9981C278.252 91.957 278.146 91.9358 278.04 91.936Z" fill="#6153BD"/>
<path d="M310.336 59.524C310.507 59.3177 310.6 59.0569 310.596 58.7885C310.592 58.5202 310.493 58.262 310.316 58.0603C310.139 57.8587 309.896 57.7269 309.63 57.6887C309.364 57.6504 309.094 57.7083 308.867 57.8518C308.99 57.6307 309.036 57.3743 308.995 57.1243C308.955 56.8742 308.831 56.6452 308.644 56.4742C308.458 56.3031 308.219 56.1996 307.967 56.1805C307.715 56.1613 307.463 56.2276 307.253 56.3686C307.931 55.1479 305.987 54.1048 305.263 55.278C304.815 56.6027 304.256 57.8869 303.591 59.1169C305.452 56.5148 306.703 59.2768 306.586 60.9055C306.601 61.2254 306.761 61.3126 307.284 60.9345C308.36 60.1493 309.131 61.9815 307.124 62.8831C306.506 64.0726 306.326 65.4419 306.615 66.751C306.601 66.5474 306.368 62.4904 310.949 61.6471C311.186 61.5969 311.399 61.4672 311.552 61.2793C311.705 61.0915 311.789 60.857 311.791 60.6146C311.792 60.4377 311.752 60.2627 311.674 60.1041C311.596 59.9454 311.481 59.8075 311.339 59.7016C311.197 59.5953 311.033 59.5238 310.859 59.493C310.684 59.4621 310.505 59.4728 310.336 59.524Z" fill="#6153BD"/>
<path d="M305.74 71.4769C305.74 71.6159 305.685 71.7493 305.587 71.8476C305.489 71.9459 305.355 72.0011 305.216 72.0011C305.077 72.0011 304.944 71.9459 304.845 71.8476C304.747 71.7493 304.692 71.6159 304.692 71.4769C304.692 71.3378 304.747 71.2045 304.845 71.1062C304.944 71.0079 305.077 70.9526 305.216 70.9526C305.355 70.9526 305.489 71.0079 305.587 71.1062C305.685 71.2045 305.74 71.3378 305.74 71.4769Z" fill="#6153BD"/>
<path d="M300.709 76.3192C300.709 76.4582 300.654 76.5916 300.556 76.6899C300.457 76.7882 300.324 76.8434 300.185 76.8434C300.046 76.8434 299.913 76.7882 299.814 76.6899C299.716 76.5916 299.661 76.4582 299.661 76.3192C299.661 76.1801 299.716 76.0468 299.814 75.9485C299.913 75.8502 300.046 75.7949 300.185 75.7949C300.324 75.7949 300.457 75.8502 300.556 75.9485C300.654 76.0468 300.709 76.1801 300.709 76.3192Z" fill="#6153BD"/>
<path d="M304.621 81.8011C304.621 81.9401 304.566 82.0735 304.467 82.1718C304.369 82.2701 304.236 82.3254 304.097 82.3254C303.957 82.3254 303.824 82.2701 303.726 82.1718C303.628 82.0735 303.572 81.9401 303.572 81.8011C303.572 81.6621 303.628 81.5287 303.726 81.4304C303.824 81.3321 303.957 81.2769 304.097 81.2769C304.236 81.2769 304.369 81.3321 304.467 81.4304C304.566 81.5287 304.621 81.6621 304.621 81.8011Z" fill="#6153BD"/>
<path d="M333.381 83.4443H328.146C327.961 83.4443 327.783 83.5179 327.652 83.6488C327.521 83.7797 327.448 83.9572 327.448 84.1423V91.8782C327.448 92.0633 327.521 92.2409 327.652 92.3718C327.783 92.5027 327.961 92.5762 328.146 92.5762H333.381C333.565 92.5738 333.741 92.4995 333.871 92.3691C334.002 92.2387 334.076 92.0626 334.079 91.8782V84.1392C334.077 83.9549 334.003 83.7785 333.872 83.6483C333.742 83.5182 333.565 83.4449 333.381 83.4443Z" fill="#6153BD"/>
<path d="M332.615 46.6382L325.533 48.5722C325.407 48.6067 325.292 48.6737 325.2 48.7665C325.107 48.8594 325.041 48.9748 325.007 49.1014C324.973 49.2279 324.973 49.3611 325.007 49.4876C325.04 49.6142 325.107 49.7297 325.199 49.8227L331.568 56.1336C331.637 56.2031 331.72 56.2583 331.81 56.2959C331.901 56.3336 331.998 56.3529 332.096 56.3529C332.195 56.3529 332.292 56.3336 332.382 56.2959C332.473 56.2583 332.555 56.2031 332.625 56.1336C332.717 56.0409 332.784 55.9256 332.818 55.7991L334.709 48.5867L332.615 46.6382Z" fill="#6153BD"/>
<path d="M337.522 43.6795C337.265 43.4273 336.919 43.2872 336.559 43.2901C336.199 43.293 335.855 43.4385 335.602 43.6948L332.65 46.675L334.64 48.5217L337.534 45.5989C337.783 45.341 337.922 44.9955 337.92 44.6367C337.917 44.2779 337.774 43.9342 337.522 43.6795Z" fill="#6153BD"/>
<path d="M275.073 33.9337C275.073 34.056 275.049 34.1771 275.001 34.29C274.954 34.4028 274.886 34.5054 274.799 34.5916C274.712 34.6779 274.609 34.7463 274.496 34.7928C274.383 34.8393 274.262 34.8631 274.14 34.8628C274.017 34.8625 273.896 34.8381 273.783 34.791C273.67 34.7439 273.568 34.6751 273.482 34.5884C273.395 34.5017 273.327 34.3988 273.28 34.2857C273.234 34.1726 273.21 34.0514 273.21 33.9291C273.211 33.6821 273.31 33.4454 273.485 33.2712C273.66 33.0969 273.897 32.9994 274.144 33C274.391 33.0006 274.628 33.0993 274.802 33.2744C274.976 33.4495 275.074 33.6867 275.073 33.9337Z" fill="#6153BD"/>
<path d="M294.224 128.769C291.6 129.518 288.821 129.518 286.197 128.769C283.74 129.482 278.912 132.913 278.912 132.913H295.155C295.001 131.501 294.689 130.111 294.224 128.769Z" fill="#6153BD"/>
<path d="M277.981 128.769C275.081 129.474 272.048 129.429 269.169 128.638C266.534 129.502 264.135 130.966 262.161 132.913H278.898C278.694 131.511 278.387 130.126 277.981 128.769Z" fill="#6153BD"/>
<path d="M306.991 104.253L304.112 104.485L302.367 104.224L302.731 102.755L306.991 104.253Z" fill="#6153BD"/>
<path d="M357.347 92.5762H244.304C243.969 92.5762 243.647 92.7095 243.41 92.9467C243.172 93.184 243.039 93.5057 243.039 93.8413C243.039 94.1768 243.172 94.4986 243.41 94.7358C243.647 94.9731 243.969 95.1063 244.304 95.1063H259.797L252.665 134.586C252.653 134.658 252.648 134.731 252.651 134.804H255.21L262.377 95.1063H339.302L346.47 134.818H349.03C349.015 134.746 349.015 134.673 349.001 134.589L341.87 95.1094H357.347C357.675 95.098 357.986 94.9597 358.214 94.7237C358.442 94.4877 358.569 94.1724 358.569 93.8443C358.569 93.5162 358.442 93.2009 358.214 92.9649C357.986 92.7289 357.675 92.5906 357.347 92.5792V92.5762Z" fill="#6153BD"/>
<path d="M275.073 33.9337C275.073 34.056 275.049 34.1771 275.001 34.29C274.954 34.4028 274.886 34.5054 274.799 34.5916C274.712 34.6779 274.609 34.7463 274.496 34.7928C274.383 34.8393 274.262 34.8631 274.14 34.8628C274.017 34.8625 273.896 34.8381 273.783 34.791C273.67 34.7439 273.568 34.6751 273.482 34.5884C273.395 34.5017 273.327 34.3988 273.28 34.2857C273.234 34.1726 273.21 34.0514 273.21 33.9291C273.211 33.6821 273.31 33.4454 273.485 33.2712C273.66 33.0969 273.897 32.9994 274.144 33C274.391 33.0006 274.628 33.0993 274.802 33.2744C274.976 33.4495 275.074 33.6867 275.073 33.9337Z" stroke="#120071" stroke-width="0.769171"/>
<path d="M337.521 43.6795C337.264 43.4273 336.918 43.2872 336.558 43.2901C336.198 43.293 335.854 43.4385 335.602 43.6948L332.65 46.675L334.64 48.5217L337.533 45.5989C337.783 45.341 337.921 44.9955 337.919 44.6367C337.917 44.2779 337.774 43.9342 337.521 43.6795Z" stroke="#120071" stroke-width="0.769171" stroke-linejoin="round"/>
<path d="M357.347 92.5762H244.304C243.969 92.5762 243.647 92.7095 243.41 92.9467C243.172 93.184 243.039 93.5057 243.039 93.8413C243.039 94.1768 243.172 94.4986 243.41 94.7358C243.647 94.9731 243.969 95.1063 244.304 95.1063H259.797L252.665 134.586C252.653 134.658 252.648 134.731 252.651 134.804H255.21L262.377 95.1063H339.302L346.47 134.818H349.03C349.015 134.746 349.015 134.673 349.001 134.589L341.87 95.1094H357.347C357.675 95.098 357.986 94.9597 358.214 94.7237C358.442 94.4877 358.569 94.1724 358.569 93.8443C358.569 93.5162 358.442 93.2009 358.214 92.9649C357.986 92.7289 357.675 92.5906 357.347 92.5792V92.5762Z" stroke="#120071" stroke-width="0.769171" stroke-linejoin="round"/>
<path d="M297.467 90.5986C296.863 91.4161 296.033 92.039 295.08 92.3905C294.126 92.7419 293.091 92.8065 292.101 92.5762" stroke="#120071" stroke-width="0.769171" stroke-linecap="round" stroke-linejoin="round"/>
<path d="M264.577 88.1554C264.577 88.1554 257.506 87.5018 256.532 92.5759" stroke="#120071" stroke-width="0.769171" stroke-linecap="round" stroke-linejoin="round"/>
<path d="M267.09 89.2895C266.872 89.1732 266.696 89.0599 266.523 88.9551C265.701 88.4584 265.403 88.1262 264.676 87.6464C263.977 87.1828 263.329 86.6467 262.742 86.0468C261.127 84.3899 261.666 84.0983 263.484 85.1889C263.495 85.1905 263.505 85.1956 263.513 85.2034C264.72 85.9345 265.979 86.5763 267.279 87.1236" stroke="#120071" stroke-width="0.769171" stroke-linecap="round" stroke-linejoin="round"/>
<path d="M266.523 88.9553C264.934 88.2526 263.297 87.6644 261.625 87.1951C260.215 86.7986 260.462 86.481 260.694 86.4389C261.553 86.3736 262.417 86.4078 263.268 86.5407" stroke="#120071" stroke-width="0.769171" stroke-linecap="round" stroke-linejoin="round"/>
<path d="M266.828 91.9361C266.534 91.8971 266.238 91.8728 265.941 91.8633C263.427 91.7715 264.313 91.2121 265.185 90.9618C265.637 90.8325 266.377 90.6855 266.974 90.4819" stroke="#120071" stroke-width="0.769171" stroke-linecap="round" stroke-linejoin="round"/>
<path d="M321.212 105.736L325.357 134.818" stroke="#120071" stroke-width="0.769171" stroke-linecap="round" stroke-linejoin="round"/>
<path d="M325.706 84.6218L318.9 84.1274" stroke="#120071" stroke-width="0.769171" stroke-linecap="round" stroke-linejoin="round"/>
<path d="M294.471 127.667L294.224 128.769" stroke="#120071" stroke-width="0.769171" stroke-linecap="round" stroke-linejoin="round"/>
<path d="M286.183 128.769L286.778 126.431" stroke="#120071" stroke-width="0.769171" stroke-linecap="round" stroke-linejoin="round"/>
<path d="M278.723 127.039L277.981 128.769" stroke="#120071" stroke-width="0.769171" stroke-linecap="round" stroke-linejoin="round"/>
<path d="M269.155 128.652L271.173 124.419" stroke="#120071" stroke-width="0.769171" stroke-linecap="round" stroke-linejoin="round"/>
<path d="M286.183 117.514L280.933 127.14C276.605 127.289 272.386 125.763 269.155 122.88L282.533 95.106" stroke="#120071" stroke-width="0.769171" stroke-linecap="round" stroke-linejoin="round"/>
<path d="M292.421 127.609L297.787 102.173C297.865 101.801 298.016 101.449 298.231 101.136C298.446 100.824 298.722 100.557 299.041 100.351C299.36 100.146 299.717 100.005 300.091 99.9386C300.464 99.872 300.848 99.8802 301.218 99.9627C305.733 100.972 314.22 101.9 315.075 95.1396" stroke="#120071" stroke-width="0.769171" stroke-linecap="round" stroke-linejoin="round"/>
<path d="M273.51 86.0953L289.992 83.4166C292.711 79.2839 295.941 69.7112 300.622 68.3811C301.389 68.1854 302.088 67.783 302.643 67.2178" stroke="#120071" stroke-width="0.769171" stroke-linecap="round" stroke-linejoin="round"/>
<path d="M303.69 64.7763C304.076 64.7625 304.458 64.7061 304.831 64.6079L303.454 65.896" stroke="#120071" stroke-width="0.769171" stroke-linecap="round" stroke-linejoin="round"/>
<path d="M306.846 67.3325C307.071 67.7458 307.445 68.058 307.893 68.205C310.219 69.0731 312.374 70.3424 314.262 71.9551C316.415 73.9311 318.318 81.1719 319.148 85.9437C319.348 87.0655 319.118 88.2216 318.503 89.1812C317.889 90.1408 316.935 90.8333 315.832 91.1204C312.955 91.9193 310.001 92.4068 307.02 92.5745" stroke="#120071" stroke-width="0.769171" stroke-linecap="round" stroke-linejoin="round"/>
<path d="M312.037 83.3569C307.816 84.171 303.537 84.6475 299.241 84.782" stroke="#120071" stroke-width="0.769171" stroke-linecap="round" stroke-linejoin="round"/>
<path d="M310.365 83.6799C310.176 81.4558 309.796 79.252 309.23 77.0928V83.8835" stroke="#120071" stroke-width="0.769171" stroke-linecap="round" stroke-linejoin="round"/>
<path d="M276.019 85.6836C277.343 87.7145 277.814 90.186 277.327 92.5616" stroke="#120071" stroke-width="0.769171" stroke-linecap="round" stroke-linejoin="round"/>
<path d="M293.991 86.7598C292.872 87.2542 290.007 88.0692 288.466 88.5629C287.739 88.7925 289.033 89.6244 293.424 88.3593" stroke="#120071" stroke-width="0.769171" stroke-linecap="round" stroke-linejoin="round"/>
<path d="M294.21 87.8936C293.148 88.5624 291.607 89.3324 290.211 90.0747C289.556 90.423 290.153 91.1799 294.021 89.5803" stroke="#120071" stroke-width="0.769171" stroke-linecap="round" stroke-linejoin="round"/>
<path d="M294.515 88.9551C293.902 89.7112 293.372 90.4444 292.348 91.5434C291.871 92.0554 292.747 92.3661 295.983 90.0893C296.58 89.6691 296.902 90.1298 297.685 90.7873C298.72 91.6559 299.415 92.6631 300.171 92.5613" stroke="#120071" stroke-width="0.769171" stroke-linecap="round" stroke-linejoin="round"/>
<path d="M296.405 85.5669C295.242 82.8882 295.998 82.7352 296.405 83.4148C297.095 84.5288 297.931 85.5457 298.89 86.4386" stroke="#120071" stroke-width="0.769171" stroke-linecap="round" stroke-linejoin="round"/>
<path d="M298.397 85.9452C298.76 84.3686 299.601 84.4819 300.264 85.7814C301.029 87.2845 301.727 92.576 300.127 92.576" stroke="#120071" stroke-width="0.769171" stroke-linecap="round" stroke-linejoin="round"/>
<path d="M300.714 87.132C299.003 86.4938 296.259 85.3779 295.518 85.3779C295.242 85.3779 292.086 86.2963 290.56 86.7157C289.556 86.9928 289.077 87.4558 290.705 87.3992C291.388 87.3754 292.144 87.2828 292.828 87.1956" stroke="#120071" stroke-width="0.769171" stroke-linecap="round" stroke-linejoin="round"/>
<path d="M297.525 75.7969C296.894 78.8762 296.934 82.0552 297.641 85.1178" stroke="#120071" stroke-width="0.769171" stroke-linecap="round" stroke-linejoin="round"/>
<path d="M274.23 92.5613H266.756L267.686 83.0659H273.183L274.23 92.5613Z" stroke="#120071" stroke-width="0.769171" stroke-linecap="round" stroke-linejoin="round"/>
<path d="M303.588 59.1311C304.252 57.9004 304.811 56.6163 305.261 55.2922C305.364 55.1405 305.502 55.0156 305.664 54.928C305.825 54.8403 306.006 54.7925 306.189 54.7884C306.373 54.7843 306.555 54.824 306.72 54.9043C306.885 54.9846 307.029 55.1032 307.139 55.2502C307.286 55.4468 307.367 55.6864 307.369 55.9321C307.368 56.0895 307.328 56.2443 307.253 56.3828C307.463 56.2425 307.714 56.1768 307.966 56.1963C308.218 56.2158 308.456 56.3194 308.642 56.4904C308.829 56.6614 308.952 56.89 308.992 57.1394C309.033 57.3889 308.989 57.6447 308.867 57.866C309.094 57.7225 309.364 57.6647 309.63 57.7029C309.895 57.7411 310.139 57.8729 310.316 58.0746C310.493 58.2762 310.592 58.5344 310.596 58.8028C310.599 59.0711 310.507 59.3319 310.335 59.5383C310.475 59.4936 310.623 59.4773 310.769 59.4904C310.915 59.5035 311.057 59.5458 311.187 59.6147C311.317 59.6836 311.431 59.7777 311.524 59.8916C311.617 60.0054 311.686 60.1367 311.727 60.2776C311.788 60.4902 311.783 60.7162 311.714 60.9264C311.645 61.1365 311.515 61.3211 311.34 61.4562C311.223 61.5453 311.09 61.6101 310.948 61.6467C309.709 61.7809 308.57 62.385 307.763 63.3346C306.957 64.2842 306.546 65.5069 306.614 66.7507" stroke="#120071" stroke-width="0.769171" stroke-linecap="round" stroke-linejoin="round"/>
<path d="M306.846 67.3326L306.57 69.5138L304.345 67.7543L301.829 69.0194L302.643 67.2163" stroke="#120071" stroke-width="0.769171" stroke-linecap="round" stroke-linejoin="round"/>
<path d="M304.345 67.7544C302.513 72.3785 301.858 78.1804 301.829 84.6367" stroke="#120071" stroke-width="0.769171" stroke-linecap="round" stroke-linejoin="round"/>
<path d="M334.081 85.9307C334.633 85.9307 335.162 86.1495 335.551 86.5399C335.745 86.7327 335.898 86.9619 336.003 87.2142C336.107 87.4664 336.161 87.7369 336.161 88.0101C336.161 88.2832 336.107 88.5537 336.003 88.8059C335.898 89.0582 335.745 89.2874 335.551 89.4802C335.162 89.8706 334.633 90.0894 334.081 90.0894" stroke="#120071" stroke-width="0.769171" stroke-linecap="round" stroke-linejoin="round"/>
<path d="M337.178 49.636L334.954 48.2109" stroke="#120071" stroke-width="0.769171" stroke-linecap="round" stroke-linejoin="round"/>
<path d="M329.719 54.3036C329.483 54.4882 329.204 54.6094 328.908 54.6558C328.612 54.7022 328.309 54.6723 328.028 54.5689C327.747 54.4655 327.497 54.292 327.302 54.0649C327.106 53.8378 326.972 53.5646 326.912 53.2712C326.861 53.0236 326.865 52.768 326.923 52.5219C326.98 52.2758 327.091 52.0453 327.247 51.8462" stroke="#120071" stroke-width="0.769171" stroke-linecap="round" stroke-linejoin="round"/>
<path d="M304.112 107.728L302.367 134.818" stroke="#120071" stroke-width="0.769171" stroke-linecap="round" stroke-linejoin="round"/>
<path d="M275.626 46.7862H266.959V38.1196H275.626V46.7862Z" stroke="#120071" stroke-width="0.769171" stroke-linecap="round" stroke-linejoin="round"/>
<path d="M271.292 40.0969L273.823 34.7603" stroke="#120071" stroke-width="0.769171" stroke-linecap="round" stroke-linejoin="round"/>
<path d="M246.355 109.232H239.738" stroke="#120071" stroke-width="0.769171" stroke-linecap="round" stroke-linejoin="round"/>
<path d="M243.039 112.541V105.925" stroke="#120071" stroke-width="0.769171" stroke-linecap="round" stroke-linejoin="round"/>
<path d="M278.912 132.913H295.155" stroke="#120071" stroke-width="0.769171" stroke-linecap="round" stroke-linejoin="round"/>
<path d="M262.146 132.913H278.883" stroke="#120071" stroke-width="0.769171" stroke-linecap="round" stroke-linejoin="round"/>
<path d="M278.911 132.89C278.757 131.486 278.445 130.103 277.981 128.768C275.081 129.473 272.048 129.428 269.169 128.637C265.719 129.809 262.68 131.95 260.416 134.803C267.134 134.803 271.598 134.818 276.658 134.803" stroke="#120071" stroke-width="0.769171" stroke-linecap="round" stroke-linejoin="round"/>
<path d="M294.224 128.769C291.6 129.518 288.821 129.518 286.197 128.769C282.576 129.819 277.942 133.52 276.658 134.804C284.336 134.804 289.164 134.731 295.198 134.731C295.251 132.7 294.921 130.677 294.224 128.769Z" stroke="#120071" stroke-width="0.769171" stroke-linecap="round" stroke-linejoin="round"/>
<path d="M302.367 104.224L302.731 102.755L306.991 104.253" stroke="#120071" stroke-width="0.769171" stroke-linecap="round" stroke-linejoin="round"/>
<path d="M302.367 104.224L304.112 104.485L319.814 103.203" stroke="#120071" stroke-width="0.769171" stroke-linecap="round" stroke-linejoin="round"/>
<path d="M321.838 103.351L316.894 102.987" stroke="#120071" stroke-width="0.769171" stroke-linecap="round" stroke-linejoin="round"/>
<path d="M276.164 126.602L288.465 105.968" stroke="#120071" stroke-width="0.769171" stroke-linecap="round" stroke-linejoin="round"/>
<path d="M303.007 84.5493C304.316 86.4833 304.65 89.1589 303.981 92.576" stroke="#120071" stroke-width="0.769171" stroke-linecap="round" stroke-linejoin="round"/>
<path d="M301.567 107.437L304.112 107.728L320.031 106.405C320.365 106.379 320.683 106.248 320.938 106.031C321.194 105.815 321.375 105.523 321.456 105.198L328.334 71.8547C328.448 71.3152 328.382 70.7532 328.145 70.255C327.909 69.7568 327.515 69.3501 327.025 69.0973C326.701 68.9287 326.343 68.8326 325.978 68.8156L307.34 67.9141" stroke="#120071" stroke-width="0.769171" stroke-linecap="round" stroke-linejoin="round"/>
<path d="M295.533 94.6699C294.044 94.9569 292.674 95.6816 291.599 96.7515C290.524 97.8213 289.792 99.1876 289.498 100.675L284.6 125.512C288.336 127.28 292.484 127.994 296.597 127.578C296.597 127.506 301.05 109.546 302.369 104.225" stroke="#120071" stroke-width="0.769171" stroke-linecap="round" stroke-linejoin="round"/>
<path d="M283.725 59.6113C284.396 59.6117 285.039 59.8784 285.514 60.3528C285.988 60.8273 286.255 61.4706 286.255 62.1415V80.5361C286.255 81.2073 285.989 81.851 285.514 82.3257C285.04 82.8005 284.396 83.0674 283.725 83.0678H258.583C257.912 83.0674 257.268 82.8009 256.792 82.3267C256.317 81.8525 256.049 81.2092 256.046 80.5376V62.1415C256.046 61.8094 256.111 61.4805 256.237 61.1736C256.364 60.8666 256.55 60.5877 256.784 60.3527C257.019 60.1177 257.298 59.9312 257.604 59.804C257.911 59.6768 258.24 59.6113 258.572 59.6113H283.725Z" stroke="#120071" stroke-width="0.769171" stroke-linecap="round" stroke-linejoin="round"/>
<path d="M287.215 62.1415V80.5215C287.215 81.1925 286.948 81.8358 286.473 82.3102C285.999 82.7846 285.356 83.0513 284.685 83.0517H283.725C284.396 83.0513 285.039 82.7846 285.514 82.3102C285.988 81.8358 286.255 81.1925 286.255 80.5215V62.1415C286.255 61.4706 285.988 60.8273 285.514 60.3528C285.039 59.8784 284.396 59.6117 283.725 59.6113H284.685C285.356 59.6117 285.999 59.8784 286.473 60.3528C286.948 60.8273 287.215 61.4706 287.215 62.1415Z" stroke="#120071" stroke-width="0.769171" stroke-linecap="round" stroke-linejoin="round"/>
<path d="M307.283 60.9497C308.354 60.1599 309.119 61.9852 307.123 62.8982C306.845 63.0252 305.988 65.821 306.846 67.3371C305.476 67.7878 303.822 68.0565 302.644 67.2207C303.266 66.5522 303.636 65.6879 303.69 64.7763C299.909 64.8345 303.516 59.1198 303.588 59.1198C305.437 56.5353 306.683 59.2545 306.586 60.8739C306.558 61.3522 306.893 61.2351 307.283 60.9497Z" stroke="#120071" stroke-width="0.769171" stroke-linecap="round" stroke-linejoin="round"/>
<path d="M316.332 103.463C317.297 102.739 318.069 101.787 318.576 100.692C319.084 99.5966 319.312 98.3926 319.24 97.1876C319.187 96.4993 319.087 95.8155 318.939 95.1411" stroke="#120071" stroke-width="0.769171" stroke-linecap="round" stroke-linejoin="round"/>
<path d="M317.097 90.5679C317.491 91.2098 317.835 91.8809 318.127 92.5753" stroke="#120071" stroke-width="0.769171" stroke-linecap="round" stroke-linejoin="round"/>
<path d="M334.081 91.8779C334.081 92.063 334.007 92.2405 333.877 92.3714C333.746 92.5023 333.568 92.5758 333.383 92.5758H328.148C327.963 92.5758 327.786 92.5023 327.655 92.3714C327.524 92.2405 327.45 92.063 327.45 91.8779V84.1389C327.45 83.9538 327.524 83.7762 327.655 83.6454C327.786 83.5145 327.963 83.4409 328.148 83.4409H333.38C333.565 83.4411 333.742 83.5147 333.873 83.6456C334.004 83.7764 334.078 83.9538 334.078 84.1389L334.081 91.8779Z" stroke="#120071" stroke-width="0.769171" stroke-linecap="round" stroke-linejoin="round"/>
<path d="M304.112 107.728V104.485" stroke="#120071" stroke-width="0.769171" stroke-linecap="round" stroke-linejoin="round"/>
<path d="M332.615 46.6382L325.533 48.5722C325.407 48.6067 325.292 48.6737 325.2 48.7665C325.107 48.8594 325.041 48.9748 325.007 49.1014C324.973 49.2279 324.973 49.3611 325.007 49.4876C325.04 49.6142 325.107 49.7297 325.199 49.8227L331.568 56.1336C331.637 56.2031 331.72 56.2583 331.81 56.2959C331.901 56.3336 331.998 56.3529 332.096 56.3529C332.195 56.3529 332.292 56.3336 332.382 56.2959C332.473 56.2583 332.555 56.2031 332.625 56.1336C332.717 56.0409 332.784 55.9256 332.818 55.7991L334.709 48.5867L332.615 46.6382Z" stroke="#120071" stroke-width="0.769171" stroke-linejoin="round"/>
</g>
<defs>
<clipPath id="clip0_940_4333">
<rect width="335" height="134" rx="8" fill="white"/>
</clipPath>
</defs>
</svg>
