<svg width="333" height="105" viewBox="0 0 333 105" fill="none" xmlns="http://www.w3.org/2000/svg">
<g clip-path="url(#clip0_935_4201)">
<rect y="0.5" width="333" height="104" rx="8" fill="#C85060"/>
<path d="M13.728 43.5V26.628H16.992V43.5H13.728ZM27.9186 43.5V36.852C27.9186 36.164 27.7026 35.604 27.2706 35.172C26.8386 34.74 26.2786 34.524 25.5906 34.524C25.1426 34.524 24.7426 34.62 24.3906 34.812C24.0386 35.004 23.7586 35.276 23.5506 35.628C23.3586 35.98 23.2626 36.388 23.2626 36.852L22.0386 36.228C22.0386 35.316 22.2306 34.524 22.6146 33.852C23.0146 33.164 23.5586 32.628 24.2466 32.244C24.9506 31.86 25.7426 31.668 26.6226 31.668C27.4706 31.668 28.2306 31.884 28.9026 32.316C29.5746 32.732 30.1026 33.284 30.4866 33.972C30.8706 34.644 31.0626 35.372 31.0626 36.156V43.5H27.9186ZM20.1186 43.5V31.908H23.2626V43.5H20.1186ZM37.3631 43.5L32.2511 31.908H35.7071L39.3791 41.46H37.6751L41.3711 31.908H44.7071L39.6191 43.5H37.3631ZM46.1576 43.5V31.908H49.3256V43.5H46.1576ZM47.7416 30.036C47.2296 30.036 46.8056 29.868 46.4696 29.532C46.1336 29.18 45.9656 28.748 45.9656 28.236C45.9656 27.74 46.1336 27.316 46.4696 26.964C46.8056 26.612 47.2296 26.436 47.7416 26.436C48.2696 26.436 48.6936 26.612 49.0136 26.964C49.3496 27.316 49.5176 27.74 49.5176 28.236C49.5176 28.748 49.3496 29.18 49.0136 29.532C48.6936 29.868 48.2696 30.036 47.7416 30.036ZM53.8148 43.5V27.084H56.9588V43.5H53.8148ZM51.1028 34.668V31.908H59.6708V34.668H51.1028ZM66.7016 43.74C65.4856 43.74 64.4056 43.484 63.4616 42.972C62.5176 42.444 61.7656 41.724 61.2056 40.812C60.6616 39.9 60.3896 38.86 60.3896 37.692C60.3896 36.54 60.6536 35.516 61.1816 34.62C61.7256 33.708 62.4616 32.988 63.3896 32.46C64.3176 31.916 65.3496 31.644 66.4856 31.644C67.6056 31.644 68.5896 31.9 69.4376 32.412C70.3016 32.908 70.9736 33.596 71.4536 34.476C71.9496 35.34 72.1976 36.324 72.1976 37.428C72.1976 37.636 72.1816 37.852 72.1496 38.076C72.1336 38.284 72.0936 38.524 72.0296 38.796L62.2856 38.82V36.468L70.5656 36.444L69.2936 37.428C69.2616 36.74 69.1336 36.164 68.9096 35.7C68.7016 35.236 68.3896 34.884 67.9736 34.644C67.5736 34.388 67.0776 34.26 66.4856 34.26C65.8616 34.26 65.3176 34.404 64.8536 34.692C64.3896 34.964 64.0296 35.356 63.7736 35.868C63.5336 36.364 63.4136 36.956 63.4136 37.644C63.4136 38.348 63.5416 38.964 63.7976 39.492C64.0696 40.004 64.4536 40.404 64.9496 40.692C65.4456 40.964 66.0216 41.1 66.6776 41.1C67.2696 41.1 67.8056 41.004 68.2856 40.812C68.7656 40.604 69.1816 40.3 69.5336 39.9L71.3816 41.748C70.8216 42.404 70.1336 42.9 69.3176 43.236C68.5176 43.572 67.6456 43.74 66.7016 43.74ZM82.4775 43.596L77.6295 31.908H81.0375L84.2535 40.836H83.1015L86.4375 31.908H89.8695L84.7095 43.572L82.4775 43.596ZM79.2615 48.348L82.7895 40.884L84.7095 43.572L82.5975 48.348H79.2615ZM96.3947 43.74C95.2267 43.74 94.1707 43.476 93.2267 42.948C92.2987 42.404 91.5547 41.676 90.9947 40.764C90.4507 39.836 90.1787 38.804 90.1787 37.668C90.1787 36.532 90.4507 35.516 90.9947 34.62C91.5387 33.708 92.2827 32.988 93.2267 32.46C94.1707 31.916 95.2187 31.644 96.3707 31.644C97.5547 31.644 98.6107 31.916 99.5387 32.46C100.483 32.988 101.227 33.708 101.771 34.62C102.315 35.516 102.587 36.532 102.587 37.668C102.587 38.804 102.315 39.836 101.771 40.764C101.227 41.676 100.483 42.404 99.5387 42.948C98.6107 43.476 97.5627 43.74 96.3947 43.74ZM96.3707 40.812C96.9627 40.812 97.4827 40.684 97.9307 40.428C98.3947 40.156 98.7467 39.788 98.9867 39.324C99.2427 38.844 99.3707 38.3 99.3707 37.692C99.3707 37.084 99.2427 36.548 98.9867 36.084C98.7307 35.62 98.3787 35.26 97.9307 35.004C97.4827 34.732 96.9627 34.596 96.3707 34.596C95.7947 34.596 95.2827 34.732 94.8347 35.004C94.3867 35.26 94.0347 35.62 93.7787 36.084C93.5227 36.548 93.3947 37.084 93.3947 37.692C93.3947 38.3 93.5227 38.844 93.7787 39.324C94.0347 39.788 94.3867 40.156 94.8347 40.428C95.2827 40.684 95.7947 40.812 96.3707 40.812ZM109.555 43.74C108.531 43.74 107.619 43.524 106.819 43.092C106.035 42.66 105.419 42.06 104.971 41.292C104.523 40.524 104.299 39.636 104.299 38.628V31.908H107.467V38.556C107.467 39.036 107.547 39.452 107.707 39.804C107.867 40.14 108.107 40.396 108.427 40.572C108.747 40.748 109.123 40.836 109.555 40.836C110.211 40.836 110.723 40.636 111.091 40.236C111.459 39.836 111.643 39.276 111.643 38.556V31.908H114.787V38.628C114.787 39.652 114.563 40.548 114.115 41.316C113.683 42.084 113.067 42.684 112.267 43.116C111.483 43.532 110.579 43.74 109.555 43.74ZM117.29 43.5V31.908H120.434V43.5H117.29ZM120.434 37.092L119.21 36.276C119.354 34.852 119.77 33.732 120.458 32.916C121.146 32.084 122.138 31.668 123.434 31.668C123.994 31.668 124.498 31.764 124.946 31.956C125.394 32.132 125.802 32.428 126.17 32.844L124.202 35.1C124.026 34.908 123.81 34.764 123.554 34.668C123.314 34.572 123.034 34.524 122.714 34.524C122.042 34.524 121.49 34.74 121.058 35.172C120.642 35.588 120.434 36.228 120.434 37.092ZM133.92 43.5V30.66C133.92 29.732 134.12 28.916 134.52 28.212C134.92 27.492 135.488 26.924 136.224 26.508C136.96 26.092 137.824 25.884 138.816 25.884C139.568 25.884 140.216 26.012 140.76 26.268C141.304 26.524 141.792 26.876 142.224 27.324L140.232 29.34C140.056 29.164 139.864 29.028 139.656 28.932C139.448 28.836 139.184 28.788 138.864 28.788C138.288 28.788 137.84 28.948 137.52 29.268C137.216 29.572 137.064 30.012 137.064 30.588V43.5H133.92ZM131.232 34.668V31.908H140.496V34.668H131.232ZM142.017 43.5V31.908H145.161V43.5H142.017ZM145.161 37.092L143.937 36.276C144.081 34.852 144.497 33.732 145.185 32.916C145.873 32.084 146.865 31.668 148.161 31.668C148.721 31.668 149.225 31.764 149.673 31.956C150.121 32.132 150.529 32.428 150.897 32.844L148.929 35.1C148.753 34.908 148.537 34.764 148.281 34.668C148.041 34.572 147.761 34.524 147.441 34.524C146.769 34.524 146.217 34.74 145.785 35.172C145.369 35.588 145.161 36.228 145.161 37.092ZM152.001 43.5V31.908H155.169V43.5H152.001ZM153.585 30.036C153.073 30.036 152.649 29.868 152.313 29.532C151.977 29.18 151.809 28.748 151.809 28.236C151.809 27.74 151.977 27.316 152.313 26.964C152.649 26.612 153.073 26.436 153.585 26.436C154.113 26.436 154.537 26.612 154.857 26.964C155.193 27.316 155.361 27.74 155.361 28.236C155.361 28.748 155.193 29.18 154.857 29.532C154.537 29.868 154.113 30.036 153.585 30.036ZM163.499 43.74C162.283 43.74 161.203 43.484 160.259 42.972C159.315 42.444 158.563 41.724 158.003 40.812C157.459 39.9 157.187 38.86 157.187 37.692C157.187 36.54 157.451 35.516 157.979 34.62C158.523 33.708 159.259 32.988 160.187 32.46C161.115 31.916 162.147 31.644 163.283 31.644C164.403 31.644 165.387 31.9 166.235 32.412C167.099 32.908 167.771 33.596 168.251 34.476C168.747 35.34 168.995 36.324 168.995 37.428C168.995 37.636 168.979 37.852 168.947 38.076C168.931 38.284 168.891 38.524 168.827 38.796L159.083 38.82V36.468L167.363 36.444L166.091 37.428C166.059 36.74 165.931 36.164 165.707 35.7C165.499 35.236 165.187 34.884 164.771 34.644C164.371 34.388 163.875 34.26 163.283 34.26C162.659 34.26 162.115 34.404 161.651 34.692C161.187 34.964 160.827 35.356 160.571 35.868C160.331 36.364 160.211 36.956 160.211 37.644C160.211 38.348 160.339 38.964 160.595 39.492C160.867 40.004 161.251 40.404 161.747 40.692C162.243 40.964 162.819 41.1 163.475 41.1C164.067 41.1 164.603 41.004 165.083 40.812C165.563 40.604 165.979 40.3 166.331 39.9L168.179 41.748C167.619 42.404 166.931 42.9 166.115 43.236C165.315 43.572 164.443 43.74 163.499 43.74ZM178.739 43.5V36.852C178.739 36.164 178.523 35.604 178.091 35.172C177.659 34.74 177.099 34.524 176.411 34.524C175.963 34.524 175.563 34.62 175.211 34.812C174.859 35.004 174.579 35.276 174.371 35.628C174.179 35.98 174.083 36.388 174.083 36.852L172.859 36.228C172.859 35.316 173.051 34.524 173.435 33.852C173.835 33.164 174.379 32.628 175.067 32.244C175.771 31.86 176.563 31.668 177.443 31.668C178.291 31.668 179.051 31.884 179.723 32.316C180.395 32.732 180.923 33.284 181.307 33.972C181.691 34.644 181.883 35.372 181.883 36.156V43.5H178.739ZM170.939 43.5V31.908H174.083V43.5H170.939ZM189.311 43.74C188.239 43.74 187.279 43.476 186.431 42.948C185.583 42.42 184.911 41.7 184.415 40.788C183.935 39.876 183.695 38.852 183.695 37.716C183.695 36.564 183.935 35.532 184.415 34.62C184.911 33.708 185.575 32.988 186.407 32.46C187.255 31.932 188.223 31.668 189.311 31.668C190.143 31.668 190.887 31.836 191.543 32.172C192.215 32.508 192.751 32.98 193.151 33.588C193.567 34.18 193.791 34.852 193.823 35.604V39.732C193.791 40.484 193.575 41.164 193.175 41.772C192.775 42.38 192.239 42.86 191.567 43.212C190.895 43.564 190.143 43.74 189.311 43.74ZM189.839 40.836C190.431 40.836 190.943 40.708 191.375 40.452C191.823 40.18 192.167 39.812 192.407 39.348C192.663 38.868 192.791 38.316 192.791 37.692C192.791 37.084 192.663 36.548 192.407 36.084C192.167 35.604 191.823 35.236 191.375 34.98C190.943 34.708 190.439 34.572 189.863 34.572C189.271 34.572 188.751 34.708 188.303 34.98C187.871 35.252 187.527 35.62 187.271 36.084C187.031 36.548 186.911 37.084 186.911 37.692C186.911 38.316 187.031 38.868 187.271 39.348C187.527 39.812 187.879 40.18 188.327 40.452C188.775 40.708 189.279 40.836 189.839 40.836ZM195.743 43.5H192.623V40.38L193.127 37.548L192.599 34.764V26.148H195.743V43.5ZM202.509 43.764C201.853 43.764 201.205 43.676 200.565 43.5C199.941 43.324 199.365 43.084 198.837 42.78C198.309 42.46 197.853 42.076 197.469 41.628L199.341 39.732C199.741 40.18 200.205 40.516 200.733 40.74C201.261 40.964 201.845 41.076 202.485 41.076C202.997 41.076 203.381 41.004 203.637 40.86C203.909 40.716 204.045 40.5 204.045 40.212C204.045 39.892 203.901 39.644 203.613 39.468C203.341 39.292 202.981 39.148 202.533 39.036C202.085 38.908 201.613 38.772 201.117 38.628C200.637 38.468 200.173 38.268 199.725 38.028C199.277 37.772 198.909 37.428 198.621 36.996C198.349 36.548 198.213 35.972 198.213 35.268C198.213 34.532 198.389 33.892 198.741 33.348C199.109 32.804 199.629 32.38 200.301 32.076C200.973 31.772 201.765 31.62 202.677 31.62C203.637 31.62 204.501 31.788 205.269 32.124C206.053 32.46 206.701 32.964 207.213 33.636L205.317 35.532C204.965 35.1 204.565 34.788 204.117 34.596C203.685 34.404 203.213 34.308 202.701 34.308C202.237 34.308 201.877 34.38 201.621 34.524C201.381 34.668 201.261 34.868 201.261 35.124C201.261 35.412 201.397 35.636 201.669 35.796C201.957 35.956 202.325 36.1 202.773 36.228C203.221 36.34 203.685 36.476 204.165 36.636C204.661 36.78 205.125 36.988 205.557 37.26C206.005 37.532 206.365 37.892 206.637 38.34C206.925 38.788 207.069 39.364 207.069 40.068C207.069 41.204 206.661 42.108 205.845 42.78C205.029 43.436 203.917 43.764 202.509 43.764Z" fill="white"/>
<path d="M16.788 66.64C16.0693 66.64 15.4253 66.4813 14.856 66.164C14.296 65.8373 13.8527 65.394 13.526 64.834C13.1993 64.2647 13.036 63.6207 13.036 62.902V56.784H14.352V62.874C14.352 63.3873 14.4593 63.8307 14.674 64.204C14.8887 64.5773 15.178 64.8667 15.542 65.072C15.9153 65.2773 16.3307 65.38 16.788 65.38C17.264 65.38 17.6793 65.2773 18.034 65.072C18.398 64.8667 18.6827 64.5773 18.888 64.204C19.1027 63.8307 19.21 63.392 19.21 62.888V56.784H20.54V62.916C20.54 63.6347 20.3767 64.274 20.05 64.834C19.7233 65.394 19.28 65.8373 18.72 66.164C18.16 66.4813 17.516 66.64 16.788 66.64ZM24.5946 66.64C24.2213 66.64 23.8666 66.5933 23.5306 66.5C23.204 66.3973 22.9006 66.2573 22.6206 66.08C22.3406 65.8933 22.098 65.674 21.8926 65.422L22.7046 64.61C22.9473 64.9087 23.2273 65.1327 23.5446 65.282C23.862 65.422 24.2166 65.492 24.6086 65.492C25.0006 65.492 25.304 65.4267 25.5186 65.296C25.7333 65.156 25.8406 64.9647 25.8406 64.722C25.8406 64.4793 25.752 64.2927 25.5746 64.162C25.4066 64.022 25.1873 63.91 24.9166 63.826C24.646 63.7327 24.3566 63.644 24.0486 63.56C23.75 63.4667 23.4653 63.35 23.1946 63.21C22.924 63.07 22.7 62.8787 22.5226 62.636C22.3546 62.3933 22.2706 62.0713 22.2706 61.67C22.2706 61.2687 22.3686 60.9233 22.5646 60.634C22.7606 60.3353 23.0313 60.1067 23.3766 59.948C23.7313 59.7893 24.156 59.71 24.6506 59.71C25.1733 59.71 25.6353 59.8033 26.0366 59.99C26.4473 60.1673 26.7833 60.438 27.0446 60.802L26.2326 61.614C26.046 61.3713 25.8126 61.1847 25.5326 61.054C25.262 60.9233 24.954 60.858 24.6086 60.858C24.2446 60.858 23.9646 60.9233 23.7686 61.054C23.582 61.1753 23.4886 61.348 23.4886 61.572C23.4886 61.796 23.5726 61.9687 23.7406 62.09C23.9086 62.2113 24.128 62.314 24.3986 62.398C24.6786 62.482 24.968 62.5707 25.2666 62.664C25.5653 62.748 25.85 62.8647 26.1206 63.014C26.3913 63.1633 26.6106 63.364 26.7786 63.616C26.956 63.868 27.0446 64.1993 27.0446 64.61C27.0446 65.2353 26.8206 65.73 26.3726 66.094C25.934 66.458 25.3413 66.64 24.5946 66.64ZM31.5353 66.64C30.8726 66.64 30.2753 66.4907 29.7433 66.192C29.2113 65.884 28.7913 65.4687 28.4833 64.946C28.1753 64.4233 28.0213 63.8307 28.0213 63.168C28.0213 62.5147 28.1706 61.9267 28.4693 61.404C28.7773 60.8813 29.1879 60.4707 29.7013 60.172C30.2239 59.864 30.8073 59.71 31.4513 59.71C32.0673 59.71 32.6086 59.85 33.0753 60.13C33.5513 60.41 33.9199 60.7973 34.1813 61.292C34.4519 61.7867 34.5873 62.3467 34.5873 62.972C34.5873 63.0653 34.5826 63.168 34.5733 63.28C34.5639 63.3827 34.5453 63.504 34.5173 63.644H28.9033V62.594H33.8453L33.3833 63C33.3833 62.552 33.3039 62.174 33.1453 61.866C32.9866 61.5487 32.7626 61.306 32.4733 61.138C32.1839 60.9607 31.8339 60.872 31.4233 60.872C30.9939 60.872 30.6159 60.9653 30.2893 61.152C29.9626 61.3387 29.7106 61.6 29.5333 61.936C29.3559 62.272 29.2673 62.6687 29.2673 63.126C29.2673 63.5927 29.3606 64.0033 29.5473 64.358C29.7339 64.7033 29.9999 64.974 30.3453 65.17C30.6906 65.3567 31.0873 65.45 31.5353 65.45C31.9086 65.45 32.2493 65.3847 32.5573 65.254C32.8746 65.1233 33.1453 64.9273 33.3693 64.666L34.1813 65.492C33.8639 65.8653 33.4719 66.15 33.0053 66.346C32.5479 66.542 32.0579 66.64 31.5353 66.64ZM41.0572 66.556L38.1732 59.85H39.5732L41.7152 65.1H41.2672L43.5212 59.85H44.9212L41.8132 66.556H41.0572ZM39.1532 69.286L41.1132 65.268L41.8132 66.556L40.5532 69.286H39.1532ZM48.7335 66.64C48.0802 66.64 47.4922 66.486 46.9695 66.178C46.4468 65.87 46.0315 65.4547 45.7235 64.932C45.4155 64.4 45.2615 63.8073 45.2615 63.154C45.2615 62.51 45.4155 61.9313 45.7235 61.418C46.0315 60.8953 46.4468 60.48 46.9695 60.172C47.4922 59.864 48.0802 59.71 48.7335 59.71C49.3775 59.71 49.9608 59.864 50.4835 60.172C51.0155 60.4707 51.4355 60.8813 51.7435 61.404C52.0515 61.9267 52.2055 62.51 52.2055 63.154C52.2055 63.8073 52.0515 64.4 51.7435 64.932C51.4355 65.4547 51.0155 65.87 50.4835 66.178C49.9608 66.486 49.3775 66.64 48.7335 66.64ZM48.7335 65.422C49.1535 65.422 49.5268 65.324 49.8535 65.128C50.1802 64.932 50.4368 64.666 50.6235 64.33C50.8102 63.9847 50.9035 63.5927 50.9035 63.154C50.9035 62.7247 50.8055 62.342 50.6095 62.006C50.4228 61.67 50.1662 61.4087 49.8395 61.222C49.5222 61.026 49.1535 60.928 48.7335 60.928C48.3135 60.928 47.9402 61.026 47.6135 61.222C47.2868 61.4087 47.0302 61.67 46.8435 62.006C46.6568 62.342 46.5635 62.7247 46.5635 63.154C46.5635 63.5927 46.6568 63.9847 46.8435 64.33C47.0302 64.666 47.2868 64.932 47.6135 65.128C47.9402 65.324 48.3135 65.422 48.7335 65.422ZM56.2992 66.64C55.7578 66.64 55.2678 66.5187 54.8292 66.276C54.3998 66.024 54.0638 65.6787 53.8212 65.24C53.5785 64.8013 53.4572 64.2927 53.4572 63.714V59.85H54.7172V63.658C54.7172 64.022 54.7778 64.3393 54.8992 64.61C55.0298 64.8713 55.2165 65.072 55.4592 65.212C55.7018 65.352 55.9865 65.422 56.3132 65.422C56.8078 65.422 57.1952 65.268 57.4752 64.96C57.7552 64.6427 57.8952 64.2087 57.8952 63.658V59.85H59.1552V63.714C59.1552 64.2927 59.0338 64.8013 58.7912 65.24C58.5485 65.6787 58.2125 66.024 57.7832 66.276C57.3632 66.5187 56.8685 66.64 56.2992 66.64ZM60.8439 66.5V59.85H62.1039V66.5H60.8439ZM62.1039 62.706L61.6279 62.496C61.6279 61.6467 61.8239 60.97 62.2159 60.466C62.6079 59.962 63.1726 59.71 63.9099 59.71C64.2459 59.71 64.5493 59.7707 64.8199 59.892C65.0906 60.004 65.3426 60.1953 65.5759 60.466L64.7499 61.32C64.6099 61.1707 64.4559 61.0633 64.2879 60.998C64.1199 60.9327 63.9239 60.9 63.6999 60.9C63.2333 60.9 62.8506 61.0493 62.5519 61.348C62.2533 61.6467 62.1039 62.0993 62.1039 62.706ZM69.6353 66.5V59.85H70.8953V66.5H69.6353ZM70.2653 58.52C70.0319 58.52 69.8406 58.4453 69.6913 58.296C69.5419 58.1373 69.4673 57.9413 69.4673 57.708C69.4673 57.484 69.5419 57.2973 69.6913 57.148C69.8406 56.9893 70.0319 56.91 70.2653 56.91C70.4986 56.91 70.6899 56.9893 70.8393 57.148C70.9886 57.2973 71.0633 57.484 71.0633 57.708C71.0633 57.9413 70.9886 58.1373 70.8393 58.296C70.6899 58.4453 70.4986 58.52 70.2653 58.52ZM77.4561 66.5V62.622C77.4561 62.118 77.2975 61.7027 76.9801 61.376C76.6628 61.0493 76.2521 60.886 75.7481 60.886C75.4121 60.886 75.1135 60.9607 74.8521 61.11C74.5908 61.2593 74.3855 61.4647 74.2361 61.726C74.0868 61.9873 74.0121 62.286 74.0121 62.622L73.4941 62.328C73.4941 61.824 73.6061 61.376 73.8301 60.984C74.0541 60.592 74.3668 60.284 74.7681 60.06C75.1695 59.8267 75.6221 59.71 76.1261 59.71C76.6301 59.71 77.0735 59.836 77.4561 60.088C77.8481 60.34 78.1561 60.6713 78.3801 61.082C78.6041 61.4833 78.7161 61.9127 78.7161 62.37V66.5H77.4561ZM72.7521 66.5V59.85H74.0121V66.5H72.7521ZM82.704 66.5L79.652 59.85H81.052L83.502 65.464H82.69L85.154 59.85H86.498L83.446 66.5H82.704ZM87.5864 66.5V59.85H88.8464V66.5H87.5864ZM88.2164 58.52C87.9831 58.52 87.7918 58.4453 87.6424 58.296C87.4931 58.1373 87.4184 57.9413 87.4184 57.708C87.4184 57.484 87.4931 57.2973 87.6424 57.148C87.7918 56.9893 87.9831 56.91 88.2164 56.91C88.4498 56.91 88.6411 56.9893 88.7904 57.148C88.9398 57.2973 89.0144 57.484 89.0144 57.708C89.0144 57.9413 88.9398 58.1373 88.7904 58.296C88.6411 58.4453 88.4498 58.52 88.2164 58.52ZM91.7253 66.5V57.064H92.9853V66.5H91.7253ZM90.0873 60.998V59.85H94.6233V60.998H90.0873ZM98.7325 66.64C98.0698 66.64 97.4725 66.4907 96.9405 66.192C96.4085 65.884 95.9885 65.4687 95.6805 64.946C95.3725 64.4233 95.2185 63.8307 95.2185 63.168C95.2185 62.5147 95.3678 61.9267 95.6665 61.404C95.9745 60.8813 96.3852 60.4707 96.8985 60.172C97.4212 59.864 98.0045 59.71 98.6485 59.71C99.2645 59.71 99.8058 59.85 100.273 60.13C100.749 60.41 101.117 60.7973 101.379 61.292C101.649 61.7867 101.785 62.3467 101.785 62.972C101.785 63.0653 101.78 63.168 101.771 63.28C101.761 63.3827 101.743 63.504 101.715 63.644H96.1005V62.594H101.043L100.581 63C100.581 62.552 100.501 62.174 100.343 61.866C100.184 61.5487 99.9598 61.306 99.6705 61.138C99.3812 60.9607 99.0312 60.872 98.6205 60.872C98.1912 60.872 97.8132 60.9653 97.4865 61.152C97.1598 61.3387 96.9078 61.6 96.7305 61.936C96.5532 62.272 96.4645 62.6687 96.4645 63.126C96.4645 63.5927 96.5578 64.0033 96.7445 64.358C96.9312 64.7033 97.1972 64.974 97.5425 65.17C97.8878 65.3567 98.2845 65.45 98.7325 65.45C99.1058 65.45 99.4465 65.3847 99.7545 65.254C100.072 65.1233 100.343 64.9273 100.567 64.666L101.379 65.492C101.061 65.8653 100.669 66.15 100.203 66.346C99.7452 66.542 99.2552 66.64 98.7325 66.64ZM109.108 66.64C108.455 66.64 107.862 66.486 107.33 66.178C106.808 65.87 106.392 65.4547 106.084 64.932C105.786 64.4 105.636 63.812 105.636 63.168C105.636 62.5147 105.786 61.9267 106.084 61.404C106.392 60.8813 106.808 60.4707 107.33 60.172C107.862 59.864 108.455 59.71 109.108 59.71C109.622 59.71 110.098 59.808 110.536 60.004C110.975 60.1907 111.353 60.466 111.67 60.83L110.83 61.67C110.625 61.4273 110.373 61.2453 110.074 61.124C109.785 60.9933 109.463 60.928 109.108 60.928C108.688 60.928 108.315 61.026 107.988 61.222C107.662 61.4087 107.405 61.67 107.218 62.006C107.032 62.342 106.938 62.7293 106.938 63.168C106.938 63.6067 107.032 63.994 107.218 64.33C107.405 64.666 107.662 64.932 107.988 65.128C108.315 65.324 108.688 65.422 109.108 65.422C109.463 65.422 109.785 65.3613 110.074 65.24C110.373 65.1093 110.63 64.9227 110.844 64.68L111.67 65.52C111.362 65.8747 110.984 66.15 110.536 66.346C110.098 66.542 109.622 66.64 109.108 66.64ZM115.821 66.64C115.168 66.64 114.58 66.486 114.057 66.178C113.535 65.87 113.119 65.4547 112.811 64.932C112.503 64.4 112.349 63.8073 112.349 63.154C112.349 62.51 112.503 61.9313 112.811 61.418C113.119 60.8953 113.535 60.48 114.057 60.172C114.58 59.864 115.168 59.71 115.821 59.71C116.465 59.71 117.049 59.864 117.571 60.172C118.103 60.4707 118.523 60.8813 118.831 61.404C119.139 61.9267 119.293 62.51 119.293 63.154C119.293 63.8073 119.139 64.4 118.831 64.932C118.523 65.4547 118.103 65.87 117.571 66.178C117.049 66.486 116.465 66.64 115.821 66.64ZM115.821 65.422C116.241 65.422 116.615 65.324 116.941 65.128C117.268 64.932 117.525 64.666 117.711 64.33C117.898 63.9847 117.991 63.5927 117.991 63.154C117.991 62.7247 117.893 62.342 117.697 62.006C117.511 61.67 117.254 61.4087 116.927 61.222C116.61 61.026 116.241 60.928 115.821 60.928C115.401 60.928 115.028 61.026 114.701 61.222C114.375 61.4087 114.118 61.67 113.931 62.006C113.745 62.342 113.651 62.7247 113.651 63.154C113.651 63.5927 113.745 63.9847 113.931 64.33C114.118 64.666 114.375 64.932 114.701 65.128C115.028 65.324 115.401 65.422 115.821 65.422ZM123.527 66.64C122.911 66.64 122.36 66.4907 121.875 66.192C121.39 65.884 121.002 65.4687 120.713 64.946C120.433 64.4233 120.293 63.8353 120.293 63.182C120.293 62.5287 120.433 61.9407 120.713 61.418C121.002 60.8953 121.39 60.48 121.875 60.172C122.36 59.864 122.911 59.71 123.527 59.71C124.022 59.71 124.47 59.8173 124.871 60.032C125.272 60.2373 125.594 60.5267 125.837 60.9C126.089 61.264 126.229 61.6887 126.257 62.174V64.176C126.229 64.652 126.094 65.0767 125.851 65.45C125.608 65.8233 125.286 66.1173 124.885 66.332C124.484 66.5373 124.031 66.64 123.527 66.64ZM123.737 65.45C124.157 65.45 124.521 65.352 124.829 65.156C125.146 64.96 125.394 64.694 125.571 64.358C125.748 64.0127 125.837 63.6207 125.837 63.182C125.837 62.7247 125.744 62.328 125.557 61.992C125.38 61.656 125.132 61.39 124.815 61.194C124.507 60.998 124.143 60.9 123.723 60.9C123.303 60.9 122.934 60.998 122.617 61.194C122.3 61.39 122.048 61.6607 121.861 62.006C121.684 62.342 121.595 62.7293 121.595 63.168C121.595 63.616 121.684 64.0127 121.861 64.358C122.048 64.694 122.3 64.96 122.617 65.156C122.944 65.352 123.317 65.45 123.737 65.45ZM127.027 66.5H125.753V64.708L125.991 63.084L125.753 61.474V56.504H127.027V66.5ZM131.942 66.64C131.279 66.64 130.682 66.4907 130.15 66.192C129.618 65.884 129.198 65.4687 128.89 64.946C128.582 64.4233 128.428 63.8307 128.428 63.168C128.428 62.5147 128.577 61.9267 128.876 61.404C129.184 60.8813 129.594 60.4707 130.108 60.172C130.63 59.864 131.214 59.71 131.858 59.71C132.474 59.71 133.015 59.85 133.482 60.13C133.958 60.41 134.326 60.7973 134.588 61.292C134.858 61.7867 134.994 62.3467 134.994 62.972C134.994 63.0653 134.989 63.168 134.98 63.28C134.97 63.3827 134.952 63.504 134.924 63.644H129.31V62.594H134.252L133.79 63C133.79 62.552 133.71 62.174 133.552 61.866C133.393 61.5487 133.169 61.306 132.88 61.138C132.59 60.9607 132.24 60.872 131.83 60.872C131.4 60.872 131.022 60.9653 130.696 61.152C130.369 61.3387 130.117 61.6 129.94 61.936C129.762 62.272 129.674 62.6687 129.674 63.126C129.674 63.5927 129.767 64.0033 129.954 64.358C130.14 64.7033 130.406 64.974 130.752 65.17C131.097 65.3567 131.494 65.45 131.942 65.45C132.315 65.45 132.656 65.3847 132.964 65.254C133.281 65.1233 133.552 64.9273 133.776 64.666L134.588 65.492C134.27 65.8653 133.878 66.15 133.412 66.346C132.954 66.542 132.464 66.64 131.942 66.64ZM140.301 66.5V57.064H141.561V66.5H140.301ZM138.663 60.998V59.85H143.199V60.998H138.663ZM147.267 66.64C146.613 66.64 146.025 66.486 145.503 66.178C144.98 65.87 144.565 65.4547 144.257 64.932C143.949 64.4 143.795 63.8073 143.795 63.154C143.795 62.51 143.949 61.9313 144.257 61.418C144.565 60.8953 144.98 60.48 145.503 60.172C146.025 59.864 146.613 59.71 147.267 59.71C147.911 59.71 148.494 59.864 149.017 60.172C149.549 60.4707 149.969 60.8813 150.277 61.404C150.585 61.9267 150.739 62.51 150.739 63.154C150.739 63.8073 150.585 64.4 150.277 64.932C149.969 65.4547 149.549 65.87 149.017 66.178C148.494 66.486 147.911 66.64 147.267 66.64ZM147.267 65.422C147.687 65.422 148.06 65.324 148.387 65.128C148.713 64.932 148.97 64.666 149.157 64.33C149.343 63.9847 149.437 63.5927 149.437 63.154C149.437 62.7247 149.339 62.342 149.143 62.006C148.956 61.67 148.699 61.4087 148.373 61.222C148.055 61.026 147.687 60.928 147.267 60.928C146.847 60.928 146.473 61.026 146.147 61.222C145.82 61.4087 145.563 61.67 145.377 62.006C145.19 62.342 145.097 62.7247 145.097 63.154C145.097 63.5927 145.19 63.9847 145.377 64.33C145.563 64.666 145.82 64.932 146.147 65.128C146.473 65.324 146.847 65.422 147.267 65.422ZM155.084 66.5V59.85H156.344V66.5H155.084ZM155.714 58.52C155.481 58.52 155.29 58.4453 155.14 58.296C154.991 58.1373 154.916 57.9413 154.916 57.708C154.916 57.484 154.991 57.2973 155.14 57.148C155.29 56.9893 155.481 56.91 155.714 56.91C155.948 56.91 156.139 56.9893 156.288 57.148C156.438 57.2973 156.512 57.484 156.512 57.708C156.512 57.9413 156.438 58.1373 156.288 58.296C156.139 58.4453 155.948 58.52 155.714 58.52ZM162.905 66.5V62.622C162.905 62.118 162.747 61.7027 162.429 61.376C162.112 61.0493 161.701 60.886 161.197 60.886C160.861 60.886 160.563 60.9607 160.301 61.11C160.04 61.2593 159.835 61.4647 159.685 61.726C159.536 61.9873 159.461 62.286 159.461 62.622L158.943 62.328C158.943 61.824 159.055 61.376 159.279 60.984C159.503 60.592 159.816 60.284 160.217 60.06C160.619 59.8267 161.071 59.71 161.575 59.71C162.079 59.71 162.523 59.836 162.905 60.088C163.297 60.34 163.605 60.6713 163.829 61.082C164.053 61.4833 164.165 61.9127 164.165 62.37V66.5H162.905ZM158.201 66.5V59.85H159.461V66.5H158.201ZM168.153 66.5L165.101 59.85H166.501L168.951 65.464H168.139L170.603 59.85H171.947L168.895 66.5H168.153ZM173.036 66.5V59.85H174.296V66.5H173.036ZM173.666 58.52C173.432 58.52 173.241 58.4453 173.092 58.296C172.942 58.1373 172.868 57.9413 172.868 57.708C172.868 57.484 172.942 57.2973 173.092 57.148C173.241 56.9893 173.432 56.91 173.666 56.91C173.899 56.91 174.09 56.9893 174.24 57.148C174.389 57.2973 174.464 57.484 174.464 57.708C174.464 57.9413 174.389 58.1373 174.24 58.296C174.09 58.4453 173.899 58.52 173.666 58.52ZM177.175 66.5V57.064H178.435V66.5H177.175ZM175.537 60.998V59.85H180.073V60.998H175.537ZM184.182 66.64C183.519 66.64 182.922 66.4907 182.39 66.192C181.858 65.884 181.438 65.4687 181.13 64.946C180.822 64.4233 180.668 63.8307 180.668 63.168C180.668 62.5147 180.817 61.9267 181.116 61.404C181.424 60.8813 181.834 60.4707 182.348 60.172C182.87 59.864 183.454 59.71 184.098 59.71C184.714 59.71 185.255 59.85 185.722 60.13C186.198 60.41 186.566 60.7973 186.828 61.292C187.098 61.7867 187.234 62.3467 187.234 62.972C187.234 63.0653 187.229 63.168 187.22 63.28C187.21 63.3827 187.192 63.504 187.164 63.644H181.55V62.594H186.492L186.03 63C186.03 62.552 185.95 62.174 185.792 61.866C185.633 61.5487 185.409 61.306 185.12 61.138C184.83 60.9607 184.48 60.872 184.07 60.872C183.64 60.872 183.262 60.9653 182.936 61.152C182.609 61.3387 182.357 61.6 182.18 61.936C182.002 62.272 181.914 62.6687 181.914 63.126C181.914 63.5927 182.007 64.0033 182.194 64.358C182.38 64.7033 182.646 64.974 182.992 65.17C183.337 65.3567 183.734 65.45 184.182 65.45C184.555 65.45 184.896 65.3847 185.204 65.254C185.521 65.1233 185.792 64.9273 186.016 64.666L186.828 65.492C186.51 65.8653 186.118 66.15 185.652 66.346C185.194 66.542 184.704 66.64 184.182 66.64ZM193.704 66.556L190.82 59.85H192.22L194.362 65.1H193.914L196.168 59.85H197.568L194.46 66.556H193.704ZM191.8 69.286L193.76 65.268L194.46 66.556L193.2 69.286H191.8ZM201.38 66.64C200.727 66.64 200.139 66.486 199.616 66.178C199.093 65.87 198.678 65.4547 198.37 64.932C198.062 64.4 197.908 63.8073 197.908 63.154C197.908 62.51 198.062 61.9313 198.37 61.418C198.678 60.8953 199.093 60.48 199.616 60.172C200.139 59.864 200.727 59.71 201.38 59.71C202.024 59.71 202.607 59.864 203.13 60.172C203.662 60.4707 204.082 60.8813 204.39 61.404C204.698 61.9267 204.852 62.51 204.852 63.154C204.852 63.8073 204.698 64.4 204.39 64.932C204.082 65.4547 203.662 65.87 203.13 66.178C202.607 66.486 202.024 66.64 201.38 66.64ZM201.38 65.422C201.8 65.422 202.173 65.324 202.5 65.128C202.827 64.932 203.083 64.666 203.27 64.33C203.457 63.9847 203.55 63.5927 203.55 63.154C203.55 62.7247 203.452 62.342 203.256 62.006C203.069 61.67 202.813 61.4087 202.486 61.222C202.169 61.026 201.8 60.928 201.38 60.928C200.96 60.928 200.587 61.026 200.26 61.222C199.933 61.4087 199.677 61.67 199.49 62.006C199.303 62.342 199.21 62.7247 199.21 63.154C199.21 63.5927 199.303 63.9847 199.49 64.33C199.677 64.666 199.933 64.932 200.26 65.128C200.587 65.324 200.96 65.422 201.38 65.422ZM208.946 66.64C208.404 66.64 207.914 66.5187 207.476 66.276C207.046 66.024 206.71 65.6787 206.468 65.24C206.225 64.8013 206.104 64.2927 206.104 63.714V59.85H207.364V63.658C207.364 64.022 207.424 64.3393 207.546 64.61C207.676 64.8713 207.863 65.072 208.106 65.212C208.348 65.352 208.633 65.422 208.96 65.422C209.454 65.422 209.842 65.268 210.122 64.96C210.402 64.6427 210.542 64.2087 210.542 63.658V59.85H211.802V63.714C211.802 64.2927 211.68 64.8013 211.438 65.24C211.195 65.6787 210.859 66.024 210.43 66.276C210.01 66.5187 209.515 66.64 208.946 66.64ZM213.49 66.5V59.85H214.75V66.5H213.49ZM214.75 62.706L214.274 62.496C214.274 61.6467 214.47 60.97 214.862 60.466C215.254 59.962 215.819 59.71 216.556 59.71C216.892 59.71 217.196 59.7707 217.466 59.892C217.737 60.004 217.989 60.1953 218.222 60.466L217.396 61.32C217.256 61.1707 217.102 61.0633 216.934 60.998C216.766 60.9327 216.57 60.9 216.346 60.9C215.88 60.9 215.497 61.0493 215.198 61.348C214.9 61.6467 214.75 62.0993 214.75 62.706ZM223.22 66.5V58.856C223.22 58.3613 223.327 57.932 223.542 57.568C223.756 57.1947 224.05 56.9007 224.424 56.686C224.806 56.4713 225.25 56.364 225.754 56.364C226.136 56.364 226.468 56.4293 226.748 56.56C227.028 56.6907 227.284 56.882 227.518 57.134L226.692 57.946C226.57 57.8153 226.435 57.7173 226.286 57.652C226.136 57.5773 225.954 57.54 225.74 57.54C225.338 57.54 225.026 57.6567 224.802 57.89C224.587 58.1233 224.48 58.4453 224.48 58.856V66.5H223.22ZM221.582 60.998V59.85H226.594V60.998H221.582ZM227.613 66.5V59.85H228.873V66.5H227.613ZM228.873 62.706L228.397 62.496C228.397 61.6467 228.593 60.97 228.985 60.466C229.377 59.962 229.942 59.71 230.679 59.71C231.015 59.71 231.319 59.7707 231.589 59.892C231.86 60.004 232.112 60.1953 232.345 60.466L231.519 61.32C231.379 61.1707 231.225 61.0633 231.057 60.998C230.889 60.9327 230.693 60.9 230.469 60.9C230.003 60.9 229.62 61.0493 229.321 61.348C229.023 61.6467 228.873 62.0993 228.873 62.706ZM233.247 66.5V59.85H234.507V66.5H233.247ZM233.877 58.52C233.643 58.52 233.452 58.4453 233.303 58.296C233.153 58.1373 233.079 57.9413 233.079 57.708C233.079 57.484 233.153 57.2973 233.303 57.148C233.452 56.9893 233.643 56.91 233.877 56.91C234.11 56.91 234.301 56.9893 234.451 57.148C234.6 57.2973 234.675 57.484 234.675 57.708C234.675 57.9413 234.6 58.1373 234.451 58.296C234.301 58.4453 234.11 58.52 233.877 58.52ZM239.443 66.64C238.781 66.64 238.183 66.4907 237.651 66.192C237.119 65.884 236.699 65.4687 236.391 64.946C236.083 64.4233 235.929 63.8307 235.929 63.168C235.929 62.5147 236.079 61.9267 236.377 61.404C236.685 60.8813 237.096 60.4707 237.609 60.172C238.132 59.864 238.715 59.71 239.359 59.71C239.975 59.71 240.517 59.85 240.983 60.13C241.459 60.41 241.828 60.7973 242.089 61.292C242.36 61.7867 242.495 62.3467 242.495 62.972C242.495 63.0653 242.491 63.168 242.481 63.28C242.472 63.3827 242.453 63.504 242.425 63.644H236.811V62.594H241.753L241.291 63C241.291 62.552 241.212 62.174 241.053 61.866C240.895 61.5487 240.671 61.306 240.381 61.138C240.092 60.9607 239.742 60.872 239.331 60.872C238.902 60.872 238.524 60.9653 238.197 61.152C237.871 61.3387 237.619 61.6 237.441 61.936C237.264 62.272 237.175 62.6687 237.175 63.126C237.175 63.5927 237.269 64.0033 237.455 64.358C237.642 64.7033 237.908 64.974 238.253 65.17C238.599 65.3567 238.995 65.45 239.443 65.45C239.817 65.45 240.157 65.3847 240.465 65.254C240.783 65.1233 241.053 64.9273 241.277 64.666L242.089 65.492C241.772 65.8653 241.38 66.15 240.913 66.346C240.456 66.542 239.966 66.64 239.443 66.64ZM248.573 66.5V62.622C248.573 62.118 248.415 61.7027 248.097 61.376C247.78 61.0493 247.369 60.886 246.865 60.886C246.529 60.886 246.231 60.9607 245.969 61.11C245.708 61.2593 245.503 61.4647 245.353 61.726C245.204 61.9873 245.129 62.286 245.129 62.622L244.611 62.328C244.611 61.824 244.723 61.376 244.947 60.984C245.171 60.592 245.484 60.284 245.885 60.06C246.287 59.8267 246.739 59.71 247.243 59.71C247.747 59.71 248.191 59.836 248.573 60.088C248.965 60.34 249.273 60.6713 249.497 61.082C249.721 61.4833 249.833 61.9127 249.833 62.37V66.5H248.573ZM243.869 66.5V59.85H245.129V66.5H243.869ZM254.353 66.64C253.737 66.64 253.187 66.4907 252.701 66.192C252.216 65.884 251.829 65.4687 251.539 64.946C251.259 64.4233 251.119 63.8353 251.119 63.182C251.119 62.5287 251.259 61.9407 251.539 61.418C251.829 60.8953 252.216 60.48 252.701 60.172C253.187 59.864 253.737 59.71 254.353 59.71C254.848 59.71 255.296 59.8173 255.697 60.032C256.099 60.2373 256.421 60.5267 256.663 60.9C256.915 61.264 257.055 61.6887 257.083 62.174V64.176C257.055 64.652 256.92 65.0767 256.677 65.45C256.435 65.8233 256.113 66.1173 255.711 66.332C255.31 66.5373 254.857 66.64 254.353 66.64ZM254.563 65.45C254.983 65.45 255.347 65.352 255.655 65.156C255.973 64.96 256.22 64.694 256.397 64.358C256.575 64.0127 256.663 63.6207 256.663 63.182C256.663 62.7247 256.57 62.328 256.383 61.992C256.206 61.656 255.959 61.39 255.641 61.194C255.333 60.998 254.969 60.9 254.549 60.9C254.129 60.9 253.761 60.998 253.443 61.194C253.126 61.39 252.874 61.6607 252.687 62.006C252.51 62.342 252.421 62.7293 252.421 63.168C252.421 63.616 252.51 64.0127 252.687 64.358C252.874 64.694 253.126 64.96 253.443 65.156C253.77 65.352 254.143 65.45 254.563 65.45ZM257.853 66.5H256.579V64.708L256.817 63.084L256.579 61.474V56.504H257.853V66.5ZM261.802 66.64C261.428 66.64 261.074 66.5933 260.738 66.5C260.411 66.3973 260.108 66.2573 259.828 66.08C259.548 65.8933 259.305 65.674 259.1 65.422L259.912 64.61C260.154 64.9087 260.434 65.1327 260.752 65.282C261.069 65.422 261.424 65.492 261.816 65.492C262.208 65.492 262.511 65.4267 262.726 65.296C262.94 65.156 263.048 64.9647 263.048 64.722C263.048 64.4793 262.959 64.2927 262.782 64.162C262.614 64.022 262.394 63.91 262.124 63.826C261.853 63.7327 261.564 63.644 261.256 63.56C260.957 63.4667 260.672 63.35 260.402 63.21C260.131 63.07 259.907 62.8787 259.73 62.636C259.562 62.3933 259.478 62.0713 259.478 61.67C259.478 61.2687 259.576 60.9233 259.772 60.634C259.968 60.3353 260.238 60.1067 260.584 59.948C260.938 59.7893 261.363 59.71 261.858 59.71C262.38 59.71 262.842 59.8033 263.244 59.99C263.654 60.1673 263.99 60.438 264.252 60.802L263.44 61.614C263.253 61.3713 263.02 61.1847 262.74 61.054C262.469 60.9233 262.161 60.858 261.816 60.858C261.452 60.858 261.172 60.9233 260.976 61.054C260.789 61.1753 260.696 61.348 260.696 61.572C260.696 61.796 260.78 61.9687 260.948 62.09C261.116 62.2113 261.335 62.314 261.606 62.398C261.886 62.482 262.175 62.5707 262.474 62.664C262.772 62.748 263.057 62.8647 263.328 63.014C263.598 63.1633 263.818 63.364 263.986 63.616C264.163 63.868 264.252 64.1993 264.252 64.61C264.252 65.2353 264.028 65.73 263.58 66.094C263.141 66.458 262.548 66.64 261.802 66.64ZM266.768 66.64C266.507 66.64 266.288 66.5513 266.11 66.374C265.942 66.1873 265.858 65.968 265.858 65.716C265.858 65.4547 265.942 65.24 266.11 65.072C266.288 64.8947 266.507 64.806 266.768 64.806C267.03 64.806 267.244 64.8947 267.412 65.072C267.59 65.24 267.678 65.4547 267.678 65.716C267.678 65.968 267.59 66.1873 267.412 66.374C267.244 66.5513 267.03 66.64 266.768 66.64ZM12.434 84.5L16.41 74.784H17.362L21.324 84.5H19.896L16.634 76.282H17.124L13.834 84.5H12.434ZM14.324 82.302V81.154H19.434V82.302H14.324ZM25.2862 84.64C24.6329 84.64 24.0402 84.486 23.5082 84.178C22.9856 83.87 22.5702 83.4547 22.2622 82.932C21.9636 82.4 21.8142 81.812 21.8142 81.168C21.8142 80.5147 21.9636 79.9267 22.2622 79.404C22.5702 78.8813 22.9856 78.4707 23.5082 78.172C24.0402 77.864 24.6329 77.71 25.2862 77.71C25.7996 77.71 26.2756 77.808 26.7142 78.004C27.1529 78.1907 27.5309 78.466 27.8482 78.83L27.0082 79.67C26.8029 79.4273 26.5509 79.2453 26.2522 79.124C25.9629 78.9933 25.6409 78.928 25.2862 78.928C24.8662 78.928 24.4929 79.026 24.1662 79.222C23.8396 79.4087 23.5829 79.67 23.3962 80.006C23.2096 80.342 23.1162 80.7293 23.1162 81.168C23.1162 81.6067 23.2096 81.994 23.3962 82.33C23.5829 82.666 23.8396 82.932 24.1662 83.128C24.4929 83.324 24.8662 83.422 25.2862 83.422C25.6409 83.422 25.9629 83.3613 26.2522 83.24C26.5509 83.1093 26.8076 82.9227 27.0222 82.68L27.8482 83.52C27.5402 83.8747 27.1622 84.15 26.7142 84.346C26.2756 84.542 25.7996 84.64 25.2862 84.64ZM31.9991 84.64C31.3458 84.64 30.7531 84.486 30.2211 84.178C29.6984 83.87 29.2831 83.4547 28.9751 82.932C28.6764 82.4 28.5271 81.812 28.5271 81.168C28.5271 80.5147 28.6764 79.9267 28.9751 79.404C29.2831 78.8813 29.6984 78.4707 30.2211 78.172C30.7531 77.864 31.3458 77.71 31.9991 77.71C32.5124 77.71 32.9884 77.808 33.4271 78.004C33.8658 78.1907 34.2438 78.466 34.5611 78.83L33.7211 79.67C33.5158 79.4273 33.2638 79.2453 32.9651 79.124C32.6758 78.9933 32.3538 78.928 31.9991 78.928C31.5791 78.928 31.2058 79.026 30.8791 79.222C30.5524 79.4087 30.2958 79.67 30.1091 80.006C29.9224 80.342 29.8291 80.7293 29.8291 81.168C29.8291 81.6067 29.9224 81.994 30.1091 82.33C30.2958 82.666 30.5524 82.932 30.8791 83.128C31.2058 83.324 31.5791 83.422 31.9991 83.422C32.3538 83.422 32.6758 83.3613 32.9651 83.24C33.2638 83.1093 33.5204 82.9227 33.7351 82.68L34.5611 83.52C34.2531 83.8747 33.8751 84.15 33.4271 84.346C32.9884 84.542 32.5124 84.64 31.9991 84.64ZM38.754 84.64C38.0913 84.64 37.494 84.4907 36.962 84.192C36.43 83.884 36.01 83.4687 35.702 82.946C35.394 82.4233 35.24 81.8307 35.24 81.168C35.24 80.5147 35.3893 79.9267 35.688 79.404C35.996 78.8813 36.4067 78.4707 36.92 78.172C37.4427 77.864 38.026 77.71 38.67 77.71C39.286 77.71 39.8273 77.85 40.294 78.13C40.77 78.41 41.1387 78.7973 41.4 79.292C41.6707 79.7867 41.806 80.3467 41.806 80.972C41.806 81.0653 41.8013 81.168 41.792 81.28C41.7827 81.3827 41.764 81.504 41.736 81.644H36.122V80.594H41.064L40.602 81C40.602 80.552 40.5227 80.174 40.364 79.866C40.2053 79.5487 39.9813 79.306 39.692 79.138C39.4027 78.9607 39.0527 78.872 38.642 78.872C38.2127 78.872 37.8347 78.9653 37.508 79.152C37.1813 79.3387 36.9293 79.6 36.752 79.936C36.5747 80.272 36.486 80.6687 36.486 81.126C36.486 81.5927 36.5793 82.0033 36.766 82.358C36.9527 82.7033 37.2187 82.974 37.564 83.17C37.9093 83.3567 38.306 83.45 38.754 83.45C39.1273 83.45 39.468 83.3847 39.776 83.254C40.0933 83.1233 40.364 82.9273 40.588 82.666L41.4 83.492C41.0827 83.8653 40.6907 84.15 40.224 84.346C39.7667 84.542 39.2767 84.64 38.754 84.64ZM45.2939 84.64C44.9205 84.64 44.5659 84.5933 44.2299 84.5C43.9032 84.3973 43.5999 84.2573 43.3199 84.08C43.0399 83.8933 42.7972 83.674 42.5919 83.422L43.4039 82.61C43.6465 82.9087 43.9265 83.1327 44.2439 83.282C44.5612 83.422 44.9159 83.492 45.3079 83.492C45.6999 83.492 46.0032 83.4267 46.2179 83.296C46.4325 83.156 46.5399 82.9647 46.5399 82.722C46.5399 82.4793 46.4512 82.2927 46.2739 82.162C46.1059 82.022 45.8865 81.91 45.6159 81.826C45.3452 81.7327 45.0559 81.644 44.7479 81.56C44.4492 81.4667 44.1645 81.35 43.8939 81.21C43.6232 81.07 43.3992 80.8787 43.2219 80.636C43.0539 80.3933 42.9699 80.0713 42.9699 79.67C42.9699 79.2687 43.0679 78.9233 43.2639 78.634C43.4599 78.3353 43.7305 78.1067 44.0759 77.948C44.4305 77.7893 44.8552 77.71 45.3499 77.71C45.8725 77.71 46.3345 77.8033 46.7359 77.99C47.1465 78.1673 47.4825 78.438 47.7439 78.802L46.9319 79.614C46.7452 79.3713 46.5119 79.1847 46.2319 79.054C45.9612 78.9233 45.6532 78.858 45.3079 78.858C44.9439 78.858 44.6639 78.9233 44.4679 79.054C44.2812 79.1753 44.1879 79.348 44.1879 79.572C44.1879 79.796 44.2719 79.9687 44.4399 80.09C44.6079 80.2113 44.8272 80.314 45.0979 80.398C45.3779 80.482 45.6672 80.5707 45.9659 80.664C46.2645 80.748 46.5492 80.8647 46.8199 81.014C47.0905 81.1633 47.3099 81.364 47.4779 81.616C47.6552 81.868 47.7439 82.1993 47.7439 82.61C47.7439 83.2353 47.5199 83.73 47.0719 84.094C46.6332 84.458 46.0405 84.64 45.2939 84.64ZM51.2685 84.64C50.8951 84.64 50.5405 84.5933 50.2045 84.5C49.8778 84.3973 49.5745 84.2573 49.2945 84.08C49.0145 83.8933 48.7718 83.674 48.5665 83.422L49.3785 82.61C49.6211 82.9087 49.9011 83.1327 50.2185 83.282C50.5358 83.422 50.8905 83.492 51.2825 83.492C51.6745 83.492 51.9778 83.4267 52.1925 83.296C52.4071 83.156 52.5145 82.9647 52.5145 82.722C52.5145 82.4793 52.4258 82.2927 52.2485 82.162C52.0805 82.022 51.8611 81.91 51.5905 81.826C51.3198 81.7327 51.0305 81.644 50.7225 81.56C50.4238 81.4667 50.1391 81.35 49.8685 81.21C49.5978 81.07 49.3738 80.8787 49.1965 80.636C49.0285 80.3933 48.9445 80.0713 48.9445 79.67C48.9445 79.2687 49.0425 78.9233 49.2385 78.634C49.4345 78.3353 49.7051 78.1067 50.0505 77.948C50.4051 77.7893 50.8298 77.71 51.3245 77.71C51.8471 77.71 52.3091 77.8033 52.7105 77.99C53.1211 78.1673 53.4571 78.438 53.7185 78.802L52.9065 79.614C52.7198 79.3713 52.4865 79.1847 52.2065 79.054C51.9358 78.9233 51.6278 78.858 51.2825 78.858C50.9185 78.858 50.6385 78.9233 50.4425 79.054C50.2558 79.1753 50.1625 79.348 50.1625 79.572C50.1625 79.796 50.2465 79.9687 50.4145 80.09C50.5825 80.2113 50.8018 80.314 51.0725 80.398C51.3525 80.482 51.6418 80.5707 51.9405 80.664C52.2391 80.748 52.5238 80.8647 52.7945 81.014C53.0651 81.1633 53.2845 81.364 53.4525 81.616C53.6298 81.868 53.7185 82.1993 53.7185 82.61C53.7185 83.2353 53.4945 83.73 53.0465 84.094C52.6078 84.458 52.0151 84.64 51.2685 84.64ZM55.1431 84.5V77.85H56.4031V84.5H55.1431ZM55.7731 76.52C55.5397 76.52 55.3484 76.4453 55.1991 76.296C55.0497 76.1373 54.9751 75.9413 54.9751 75.708C54.9751 75.484 55.0497 75.2973 55.1991 75.148C55.3484 74.9893 55.5397 74.91 55.7731 74.91C56.0064 74.91 56.1977 74.9893 56.3471 75.148C56.4964 75.2973 56.5711 75.484 56.5711 75.708C56.5711 75.9413 56.4964 76.1373 56.3471 76.296C56.1977 76.4453 56.0064 76.52 55.7731 76.52ZM61.7599 84.64C61.2559 84.64 60.7986 84.5373 60.3879 84.332C59.9866 84.1173 59.6646 83.8233 59.4219 83.45C59.1793 83.0767 59.0439 82.652 59.0159 82.176V80.174C59.0439 79.6887 59.1793 79.264 59.4219 78.9C59.6739 78.5267 60.0006 78.2373 60.4019 78.032C60.8126 77.8173 61.2653 77.71 61.7599 77.71C62.3666 77.71 62.9126 77.864 63.3979 78.172C63.8926 78.48 64.2799 78.8953 64.5599 79.418C64.8399 79.9407 64.9799 80.5287 64.9799 81.182C64.9799 81.8353 64.8399 82.4233 64.5599 82.946C64.2799 83.4687 63.8926 83.884 63.3979 84.192C62.9126 84.4907 62.3666 84.64 61.7599 84.64ZM61.5499 83.45C61.9699 83.45 62.3386 83.352 62.6559 83.156C62.9733 82.96 63.2253 82.694 63.4119 82.358C63.5986 82.0127 63.6919 81.616 63.6919 81.168C63.6919 80.7293 63.5986 80.3373 63.4119 79.992C63.2253 79.6467 62.9733 79.3807 62.6559 79.194C62.3386 78.998 61.9746 78.9 61.5639 78.9C61.1439 78.9 60.7753 78.998 60.4579 79.194C60.1406 79.3807 59.8933 79.6467 59.7159 79.992C59.5386 80.3373 59.4499 80.734 59.4499 81.182C59.4499 81.6207 59.5339 82.0127 59.7019 82.358C59.8793 82.694 60.1266 82.96 60.4439 83.156C60.7706 83.352 61.1393 83.45 61.5499 83.45ZM58.2599 84.5V74.504H59.5199V79.474L59.2819 81.084L59.5199 82.708V84.5H58.2599ZM66.4084 84.5V74.504H67.6684V84.5H66.4084ZM72.5919 84.64C71.9292 84.64 71.3319 84.4907 70.7999 84.192C70.2679 83.884 69.8479 83.4687 69.5399 82.946C69.2319 82.4233 69.0779 81.8307 69.0779 81.168C69.0779 80.5147 69.2272 79.9267 69.5259 79.404C69.8339 78.8813 70.2446 78.4707 70.7579 78.172C71.2806 77.864 71.8639 77.71 72.5079 77.71C73.1239 77.71 73.6652 77.85 74.1319 78.13C74.6079 78.41 74.9766 78.7973 75.2379 79.292C75.5086 79.7867 75.6439 80.3467 75.6439 80.972C75.6439 81.0653 75.6392 81.168 75.6299 81.28C75.6206 81.3827 75.6019 81.504 75.5739 81.644H69.9599V80.594H74.9019L74.4399 81C74.4399 80.552 74.3606 80.174 74.2019 79.866C74.0432 79.5487 73.8192 79.306 73.5299 79.138C73.2406 78.9607 72.8906 78.872 72.4799 78.872C72.0506 78.872 71.6726 78.9653 71.3459 79.152C71.0192 79.3387 70.7672 79.6 70.5899 79.936C70.4126 80.272 70.3239 80.6687 70.3239 81.126C70.3239 81.5927 70.4172 82.0033 70.6039 82.358C70.7906 82.7033 71.0566 82.974 71.4019 83.17C71.7472 83.3567 72.1439 83.45 72.5919 83.45C72.9652 83.45 73.3059 83.3847 73.6139 83.254C73.9312 83.1233 74.2019 82.9273 74.4259 82.666L75.2379 83.492C74.9206 83.8653 74.5286 84.15 74.0619 84.346C73.6046 84.542 73.1146 84.64 72.5919 84.64ZM82.9679 84.64C82.3145 84.64 81.7265 84.486 81.2039 84.178C80.6812 83.87 80.2659 83.4547 79.9579 82.932C79.6499 82.4 79.4959 81.8073 79.4959 81.154C79.4959 80.51 79.6499 79.9313 79.9579 79.418C80.2659 78.8953 80.6812 78.48 81.2039 78.172C81.7265 77.864 82.3145 77.71 82.9679 77.71C83.6119 77.71 84.1952 77.864 84.7179 78.172C85.2499 78.4707 85.6699 78.8813 85.9779 79.404C86.2859 79.9267 86.4399 80.51 86.4399 81.154C86.4399 81.8073 86.2859 82.4 85.9779 82.932C85.6699 83.4547 85.2499 83.87 84.7179 84.178C84.1952 84.486 83.6119 84.64 82.9679 84.64ZM82.9679 83.422C83.3879 83.422 83.7612 83.324 84.0879 83.128C84.4145 82.932 84.6712 82.666 84.8579 82.33C85.0445 81.9847 85.1379 81.5927 85.1379 81.154C85.1379 80.7247 85.0399 80.342 84.8439 80.006C84.6572 79.67 84.4005 79.4087 84.0739 79.222C83.7565 79.026 83.3879 78.928 82.9679 78.928C82.5479 78.928 82.1745 79.026 81.8479 79.222C81.5212 79.4087 81.2645 79.67 81.0779 80.006C80.8912 80.342 80.7979 80.7247 80.7979 81.154C80.7979 81.5927 80.8912 81.9847 81.0779 82.33C81.2645 82.666 81.5212 82.932 81.8479 83.128C82.1745 83.324 82.5479 83.422 82.9679 83.422ZM92.5635 84.5V80.622C92.5635 80.118 92.4049 79.7027 92.0875 79.376C91.7702 79.0493 91.3595 78.886 90.8555 78.886C90.5195 78.886 90.2209 78.9607 89.9595 79.11C89.6982 79.2593 89.4929 79.4647 89.3435 79.726C89.1942 79.9873 89.1195 80.286 89.1195 80.622L88.6015 80.328C88.6015 79.824 88.7135 79.376 88.9375 78.984C89.1615 78.592 89.4742 78.284 89.8755 78.06C90.2769 77.8267 90.7295 77.71 91.2335 77.71C91.7375 77.71 92.1809 77.836 92.5635 78.088C92.9555 78.34 93.2635 78.6713 93.4875 79.082C93.7115 79.4833 93.8235 79.9127 93.8235 80.37V84.5H92.5635ZM87.8595 84.5V77.85H89.1195V84.5H87.8595ZM95.5295 84.5V74.504H96.7895V84.5H95.5295ZM98.647 84.5V77.85H99.907V84.5H98.647ZM99.277 76.52C99.0437 76.52 98.8523 76.4453 98.703 76.296C98.5537 76.1373 98.479 75.9413 98.479 75.708C98.479 75.484 98.5537 75.2973 98.703 75.148C98.8523 74.9893 99.0437 74.91 99.277 74.91C99.5103 74.91 99.7017 74.9893 99.851 75.148C100 75.2973 100.075 75.484 100.075 75.708C100.075 75.9413 100 76.1373 99.851 76.296C99.7017 76.4453 99.5103 76.52 99.277 76.52ZM106.468 84.5V80.622C106.468 80.118 106.309 79.7027 105.992 79.376C105.675 79.0493 105.264 78.886 104.76 78.886C104.424 78.886 104.125 78.9607 103.864 79.11C103.603 79.2593 103.397 79.4647 103.248 79.726C103.099 79.9873 103.024 80.286 103.024 80.622L102.506 80.328C102.506 79.824 102.618 79.376 102.842 78.984C103.066 78.592 103.379 78.284 103.78 78.06C104.181 77.8267 104.634 77.71 105.138 77.71C105.642 77.71 106.085 77.836 106.468 78.088C106.86 78.34 107.168 78.6713 107.392 79.082C107.616 79.4833 107.728 79.9127 107.728 80.37V84.5H106.468ZM101.764 84.5V77.85H103.024V84.5H101.764ZM112.514 84.64C111.851 84.64 111.254 84.4907 110.722 84.192C110.19 83.884 109.77 83.4687 109.462 82.946C109.154 82.4233 109 81.8307 109 81.168C109 80.5147 109.149 79.9267 109.448 79.404C109.756 78.8813 110.166 78.4707 110.68 78.172C111.202 77.864 111.786 77.71 112.43 77.71C113.046 77.71 113.587 77.85 114.054 78.13C114.53 78.41 114.898 78.7973 115.16 79.292C115.43 79.7867 115.566 80.3467 115.566 80.972C115.566 81.0653 115.561 81.168 115.552 81.28C115.542 81.3827 115.524 81.504 115.496 81.644H109.882V80.594H114.824L114.362 81C114.362 80.552 114.282 80.174 114.124 79.866C113.965 79.5487 113.741 79.306 113.452 79.138C113.162 78.9607 112.812 78.872 112.402 78.872C111.972 78.872 111.594 78.9653 111.268 79.152C110.941 79.3387 110.689 79.6 110.512 79.936C110.334 80.272 110.246 80.6687 110.246 81.126C110.246 81.5927 110.339 82.0033 110.526 82.358C110.712 82.7033 110.978 82.974 111.324 83.17C111.669 83.3567 112.066 83.45 112.514 83.45C112.887 83.45 113.228 83.3847 113.536 83.254C113.853 83.1233 114.124 82.9273 114.348 82.666L115.16 83.492C114.842 83.8653 114.45 84.15 113.984 84.346C113.526 84.542 113.036 84.64 112.514 84.64ZM122.89 84.64C122.236 84.64 121.648 84.486 121.126 84.178C120.603 83.87 120.188 83.4547 119.88 82.932C119.572 82.4 119.418 81.8073 119.418 81.154C119.418 80.51 119.572 79.9313 119.88 79.418C120.188 78.8953 120.603 78.48 121.126 78.172C121.648 77.864 122.236 77.71 122.89 77.71C123.534 77.71 124.117 77.864 124.64 78.172C125.172 78.4707 125.592 78.8813 125.9 79.404C126.208 79.9267 126.362 80.51 126.362 81.154C126.362 81.8073 126.208 82.4 125.9 82.932C125.592 83.4547 125.172 83.87 124.64 84.178C124.117 84.486 123.534 84.64 122.89 84.64ZM122.89 83.422C123.31 83.422 123.683 83.324 124.01 83.128C124.336 82.932 124.593 82.666 124.78 82.33C124.966 81.9847 125.06 81.5927 125.06 81.154C125.06 80.7247 124.962 80.342 124.766 80.006C124.579 79.67 124.322 79.4087 123.996 79.222C123.678 79.026 123.31 78.928 122.89 78.928C122.47 78.928 122.096 79.026 121.77 79.222C121.443 79.4087 121.186 79.67 121 80.006C120.813 80.342 120.72 80.7247 120.72 81.154C120.72 81.5927 120.813 81.9847 121 82.33C121.186 82.666 121.443 82.932 121.77 83.128C122.096 83.324 122.47 83.422 122.89 83.422ZM127.781 84.5V77.85H129.041V84.5H127.781ZM129.041 80.706L128.565 80.496C128.565 79.6467 128.761 78.97 129.153 78.466C129.545 77.962 130.11 77.71 130.847 77.71C131.183 77.71 131.487 77.7707 131.757 77.892C132.028 78.004 132.28 78.1953 132.513 78.466L131.687 79.32C131.547 79.1707 131.393 79.0633 131.225 78.998C131.057 78.9327 130.861 78.9 130.637 78.9C130.171 78.9 129.788 79.0493 129.489 79.348C129.191 79.6467 129.041 80.0993 129.041 80.706ZM139.597 84.64C138.943 84.64 138.355 84.486 137.833 84.178C137.31 83.87 136.895 83.4547 136.587 82.932C136.279 82.4 136.125 81.8073 136.125 81.154C136.125 80.51 136.279 79.9313 136.587 79.418C136.895 78.8953 137.31 78.48 137.833 78.172C138.355 77.864 138.943 77.71 139.597 77.71C140.241 77.71 140.824 77.864 141.347 78.172C141.879 78.4707 142.299 78.8813 142.607 79.404C142.915 79.9267 143.069 80.51 143.069 81.154C143.069 81.8073 142.915 82.4 142.607 82.932C142.299 83.4547 141.879 83.87 141.347 84.178C140.824 84.486 140.241 84.64 139.597 84.64ZM139.597 83.422C140.017 83.422 140.39 83.324 140.717 83.128C141.043 82.932 141.3 82.666 141.487 82.33C141.673 81.9847 141.767 81.5927 141.767 81.154C141.767 80.7247 141.669 80.342 141.473 80.006C141.286 79.67 141.029 79.4087 140.703 79.222C140.385 79.026 140.017 78.928 139.597 78.928C139.177 78.928 138.803 79.026 138.477 79.222C138.15 79.4087 137.893 79.67 137.707 80.006C137.52 80.342 137.427 80.7247 137.427 81.154C137.427 81.5927 137.52 81.9847 137.707 82.33C137.893 82.666 138.15 82.932 138.477 83.128C138.803 83.324 139.177 83.422 139.597 83.422ZM145.235 84.5V77.122C145.235 76.6087 145.343 76.1607 145.557 75.778C145.781 75.386 146.089 75.078 146.481 74.854C146.873 74.6207 147.326 74.504 147.839 74.504C148.362 74.504 148.791 74.616 149.127 74.84C149.463 75.064 149.711 75.372 149.869 75.764C150.037 76.1467 150.121 76.5853 150.121 77.08L149.197 77.066C149.188 76.6367 149.071 76.296 148.847 76.044C148.623 75.7827 148.287 75.652 147.839 75.652C147.401 75.652 147.065 75.7827 146.831 76.044C146.607 76.296 146.495 76.646 146.495 77.094V84.5H145.235ZM143.597 78.998V77.85H152.571V78.998H143.597ZM149.197 84.5V76.856C149.197 76.3613 149.305 75.932 149.519 75.568C149.734 75.1947 150.028 74.9007 150.401 74.686C150.784 74.4713 151.227 74.364 151.731 74.364C152.114 74.364 152.445 74.4293 152.725 74.56C153.005 74.6907 153.262 74.882 153.495 75.134L152.669 75.946C152.548 75.8153 152.413 75.7173 152.263 75.652C152.114 75.5773 151.932 75.54 151.717 75.54C151.316 75.54 151.003 75.6567 150.779 75.89C150.565 76.1233 150.457 76.4453 150.457 76.856V84.5H149.197ZM154.168 84.5V74.504H155.428V84.5H154.168ZM157.286 84.5V77.85H158.546V84.5H157.286ZM157.916 76.52C157.682 76.52 157.491 76.4453 157.342 76.296C157.192 76.1373 157.118 75.9413 157.118 75.708C157.118 75.484 157.192 75.2973 157.342 75.148C157.491 74.9893 157.682 74.91 157.916 74.91C158.149 74.91 158.34 74.9893 158.49 75.148C158.639 75.2973 158.714 75.484 158.714 75.708C158.714 75.9413 158.639 76.1373 158.49 76.296C158.34 76.4453 158.149 76.52 157.916 76.52ZM165.107 84.5V80.622C165.107 80.118 164.948 79.7027 164.631 79.376C164.313 79.0493 163.903 78.886 163.399 78.886C163.063 78.886 162.764 78.9607 162.503 79.11C162.241 79.2593 162.036 79.4647 161.887 79.726C161.737 79.9873 161.663 80.286 161.663 80.622L161.145 80.328C161.145 79.824 161.257 79.376 161.481 78.984C161.705 78.592 162.017 78.284 162.419 78.06C162.82 77.8267 163.273 77.71 163.777 77.71C164.281 77.71 164.724 77.836 165.107 78.088C165.499 78.34 165.807 78.6713 166.031 79.082C166.255 79.4833 166.367 79.9127 166.367 80.37V84.5H165.107ZM160.403 84.5V77.85H161.663V84.5H160.403ZM171.152 84.64C170.49 84.64 169.892 84.4907 169.36 84.192C168.828 83.884 168.408 83.4687 168.1 82.946C167.792 82.4233 167.638 81.8307 167.638 81.168C167.638 80.5147 167.788 79.9267 168.086 79.404C168.394 78.8813 168.805 78.4707 169.318 78.172C169.841 77.864 170.424 77.71 171.068 77.71C171.684 77.71 172.226 77.85 172.692 78.13C173.168 78.41 173.537 78.7973 173.798 79.292C174.069 79.7867 174.204 80.3467 174.204 80.972C174.204 81.0653 174.2 81.168 174.19 81.28C174.181 81.3827 174.162 81.504 174.134 81.644H168.52V80.594H173.462L173 81C173 80.552 172.921 80.174 172.762 79.866C172.604 79.5487 172.38 79.306 172.09 79.138C171.801 78.9607 171.451 78.872 171.04 78.872C170.611 78.872 170.233 78.9653 169.906 79.152C169.58 79.3387 169.328 79.6 169.15 79.936C168.973 80.272 168.884 80.6687 168.884 81.126C168.884 81.5927 168.978 82.0033 169.164 82.358C169.351 82.7033 169.617 82.974 169.962 83.17C170.308 83.3567 170.704 83.45 171.152 83.45C171.526 83.45 171.866 83.3847 172.174 83.254C172.492 83.1233 172.762 82.9273 172.986 82.666L173.798 83.492C173.481 83.8653 173.089 84.15 172.622 84.346C172.165 84.542 171.675 84.64 171.152 84.64Z" fill="white"/>
<path fill-rule="evenodd" clip-rule="evenodd" d="M368.554 11.0261C382.627 15.3298 396.954 18.5276 408.725 27.6406C421.079 37.2052 438.299 48.0332 437.526 64.4234C436.66 82.7547 413.851 90.9032 404.985 106.864C399.777 116.241 402.303 128.404 396.86 137.633C390.92 147.705 380.864 153.434 372.706 161.598C358.786 175.53 350.196 206.863 331.755 202.791C313.042 198.659 324.505 161.084 310.24 147.806C296.186 134.724 265.074 150.547 256.597 132.831C248.709 116.348 274.581 100.846 279.088 82.705C283.223 66.0572 273.688 47.363 281.587 32.238C289.752 16.6029 305.384 5.02775 321.738 1.03898C337.671 -2.84719 353.021 6.27578 368.554 11.0261Z" fill="#FFF2EF"/>
<g clip-path="url(#clip1_935_4201)">
<path d="M293.515 72.5326C293.566 71.9229 293.444 71.3056 293.165 70.759C292.886 70.2123 292.462 69.761 291.947 69.4625C291.605 69.2644 291.231 69.1388 290.847 69.0927L285.922 68.4852L285.357 75.286C285.816 75.9644 286.317 76.6095 286.858 77.2165C286.721 73.0206 287.673 72.9201 288.383 76.3183C289.066 79.5891 291.241 81.2233 292.689 82.3542L293.515 72.5326Z" fill="#FD93A1"/>
<path d="M285.8 85.1334C285.367 84.6403 284.938 84.1432 284.513 83.6421L284.057 89.1281C284.418 87.6954 285.007 86.3448 285.8 85.1334Z" fill="#FD93A1"/>
<path d="M284.417 90.7661C284.095 90.7147 283.944 90.3295 283.924 89.9626L283.749 92.117L288.507 92.7019C287.348 92.1681 285.094 91.0895 284.417 90.7661Z" fill="#FD93A1"/>
<path d="M281.947 80.2901C281.367 79.4994 280.774 78.6884 280.255 77.8509C279.554 76.7238 279.9 76.2439 280.724 77.0922C281.028 77.3981 281.409 77.716 282.031 78.2378C281.426 77.4473 280.87 76.6174 280.365 75.7532C279.7 74.5392 280.265 73.9899 281.012 74.9498C281.21 75.2122 281.69 75.7779 282.271 76.3966L282.292 76.1023C281.93 75.4383 281.601 74.755 281.308 74.0555C280.802 72.7457 281.417 72.278 282.037 73.34C282.127 73.4967 282.278 73.7164 282.462 73.9823L282.94 68.2543L278.002 67.6497C277.421 67.5771 276.838 67.6881 276.327 67.9687C275.817 68.2493 275.4 68.6867 275.132 69.2255C274.955 69.5836 274.846 69.9768 274.814 70.3837L273.361 87.7771C273.327 88.1837 273.369 88.5957 273.485 88.9896C273.602 89.3835 273.79 89.7515 274.039 90.0726C274.288 90.3936 274.593 90.6613 274.936 90.8602C275.28 91.0592 275.655 91.1855 276.041 91.2319L280.987 91.8415L281.947 80.2901Z" fill="#FD93A1"/>
<path d="M343.888 34.3991L336.424 33.1673L343.921 32.7043L343.988 29.2053C343.99 29.0914 343.965 28.9778 343.918 28.8741C343.87 28.7704 343.799 28.6797 343.712 28.6095C343.625 28.5394 343.524 28.4918 343.418 28.4708C343.311 28.4499 343.202 28.4561 343.1 28.489L331.233 32.2164C331.101 32.259 330.986 32.3441 330.904 32.4601C330.821 32.576 330.775 32.7172 330.772 32.8643C330.769 33.0114 330.81 33.1571 330.887 33.2816C330.965 33.4062 331.077 33.5033 331.207 33.5599L342.916 38.5313C343.016 38.5746 343.124 38.5921 343.231 38.5824C343.337 38.5727 343.439 38.536 343.528 38.4755C343.617 38.415 343.691 38.3323 343.742 38.2345C343.794 38.1366 343.822 38.0264 343.825 37.9131L343.888 34.3991Z" fill="#FD93A1"/>
<path d="M320.749 83.4842C319.89 83.375 319.022 84.5577 318.319 86.5221C319.758 87.289 321.262 87.9044 322.808 88.3591C322.504 85.6149 321.752 83.6122 320.749 83.4842Z" fill="#5A3EA4"/>
<path d="M322.127 97.7424C320.309 97.9701 318.453 97.7335 316.713 97.0524C316.84 100.834 317.669 103.603 318.899 103.752C320.125 103.909 321.391 101.414 322.127 97.7424Z" fill="#5A3EA4"/>
<path d="M285.755 85.1119C284.175 87.6595 283.504 90.088 284.248 90.6502C284.949 91.1865 286.659 89.9168 288.267 87.7449C287.361 86.9441 286.521 86.0631 285.755 85.1119Z" fill="#5A3EA4"/>
<path d="M313.05 90.2287C312.395 90.844 311.68 91.3842 310.915 91.8407L311.597 92.9081L313.05 90.2287Z" fill="#5A3EA4"/>
<path d="M312.259 79.3354L311.071 80.4488L311.346 79.2684L312.259 79.3354Z" fill="#5A3EA4"/>
<path d="M325.684 74.9448C326.013 74.9363 326.326 74.813 326.576 74.5939C326.825 74.3749 326.997 74.0725 327.064 73.7339C327.11 73.5001 327.106 73.2566 327.051 73.0217C326.996 72.7868 326.891 72.5666 326.746 72.3776C326.6 72.1884 326.417 72.0353 326.209 71.9297C326.421 71.8373 326.605 71.6885 326.744 71.4975C326.987 71.1729 327.095 70.7564 327.046 70.3386C326.996 69.9208 326.794 69.5355 326.482 69.2665C326.246 69.0649 325.961 68.9416 325.662 68.9127C325.907 68.6638 326.06 68.3308 326.097 67.9699C326.134 67.6089 326.051 67.2418 325.864 66.9302C325.677 66.6186 325.396 66.3815 325.068 66.2586C324.741 66.1357 324.387 66.1346 324.065 66.2554C324.248 65.9307 324.311 65.5434 324.242 65.1653C324.174 64.7873 323.979 64.4443 323.693 64.2L323.616 64.126C323.338 63.8886 322.993 63.7602 322.641 63.7635C322.289 63.7668 321.953 63.9016 321.692 64.144C321.746 63.7981 321.689 63.4397 321.53 63.1252C321.37 62.8108 321.118 62.5583 320.813 62.4076C320.508 62.2569 320.167 62.2166 319.844 62.2931C319.522 62.3696 319.235 62.5585 319.031 62.83C319.002 62.8641 318.977 62.9017 318.957 62.9421C318.869 62.6163 318.688 62.3244 318.439 62.107C318.284 61.9737 318.107 61.8734 317.917 61.8119C317.728 61.7503 317.529 61.7287 317.334 61.7484C317.139 61.768 316.95 61.8285 316.779 61.9263C316.608 62.0241 316.458 62.1573 316.338 62.3182C316.21 62.4923 316.12 62.6934 316.071 62.909C315.992 62.7834 315.894 62.6713 315.783 62.5768C315.547 62.3751 315.261 62.2513 314.962 62.2211C314.664 62.1909 314.366 62.2559 314.108 62.4075C313.85 62.5592 313.643 62.7906 313.514 63.072C313.385 63.3533 313.34 63.6716 313.384 63.9858C313.1 63.7524 312.75 63.6308 312.396 63.6426C312.042 63.6545 311.708 63.799 311.452 64.0505C311.196 64.302 311.035 64.6441 310.999 65.0159C310.962 65.3878 311.052 65.7652 311.252 66.0811C310.924 65.9277 310.558 65.9013 310.22 66.0065C309.882 66.1116 309.593 66.3416 309.407 66.6553C309.22 66.969 309.146 67.3462 309.2 67.7194C309.253 68.0926 309.429 68.4377 309.697 68.6931C309.394 68.7034 309.103 68.8113 308.865 69.0026C308.626 69.1939 308.451 69.4593 308.361 69.7635C308.272 70.0678 308.274 70.3963 308.365 70.7054C308.457 71.0145 308.635 71.2894 308.876 71.4935C308.977 71.5711 309.085 71.6399 309.197 71.6994C308.992 71.8019 308.812 71.9514 308.67 72.1372C308.428 72.4618 308.32 72.8784 308.369 73.2961C308.418 73.7139 308.621 74.0992 308.933 74.3682C309.169 74.5764 309.459 74.7022 309.761 74.7276C309.559 74.9358 309.419 75.2029 309.358 75.4971C309.298 75.7913 309.319 76.1003 309.419 76.3873C309.734 75.4186 310.221 74.5268 310.854 73.7587C313.967 69.6166 314.94 73.4205 314.475 75.3445C314.419 75.7013 314.597 75.8277 315.195 75.5364C316.439 74.9347 316.904 77.0991 314.673 77.6078C314.439 77.6667 313.786 78.6721 313.739 80.1884C313.829 80.4881 314.003 80.7536 314.237 80.9503C314.402 81.0894 314.59 81.1919 314.791 81.2514C314.993 81.3108 315.202 81.3259 315.407 81.2957C315.611 81.2653 315.806 81.1901 315.979 81.075C316.152 80.9599 316.3 80.8073 316.413 80.6269C316.485 80.9136 316.63 81.1757 316.833 81.3836C317.036 81.5915 317.288 81.7369 317.561 81.8034C317.834 81.8698 318.117 81.8546 318.377 81.7596C318.638 81.6645 318.866 81.4933 319.036 81.2654C319.162 81.096 319.254 80.9006 319.307 80.6907C319.443 80.8955 319.621 81.0654 319.827 81.1869C320.033 81.3084 320.262 81.378 320.495 81.3903C320.728 81.4026 320.958 81.3572 321.169 81.2577C321.379 81.1582 321.563 81.0074 321.706 80.8173C321.83 80.6548 321.921 80.4662 321.973 80.2629C322.025 80.0597 322.036 79.8462 322.007 79.6354C322.291 79.8716 322.641 79.9958 322.996 79.9859C323.352 79.9759 323.688 79.8324 323.945 79.5811C324.202 79.3293 324.364 78.9865 324.401 78.6137C324.438 78.2409 324.348 77.8624 324.147 77.5457C324.45 77.6892 324.787 77.7249 325.105 77.6474C325.423 77.5699 325.706 77.3834 325.909 77.1165C326.144 76.8027 326.252 76.4009 326.21 75.9957C326.168 75.5906 325.98 75.2138 325.684 74.9448Z" fill="#5A3EA4"/>
<path d="M302.672 96.355L300.015 124.952" stroke="#120071" stroke-width="0.769171" stroke-linecap="round" stroke-linejoin="round"/>
<path d="M304.275 80.8009L307.99 40.6626C308.175 38.5176 310.04 37.7133 311.663 39.0728L333.63 57.5367C334.907 58.6102 335.916 59.9994 336.565 61.5756C337.213 63.1517 337.48 64.8638 337.34 66.5531L330.765 144.096" stroke="#120071" stroke-width="0.769171" stroke-linecap="round" stroke-linejoin="round"/>
<path d="M310.877 81.2385C306.706 81.4181 302.514 80.9907 298.419 79.9685C296.593 79.1399 294.808 78.2051 293.075 77.1685" stroke="#120071" stroke-width="0.769171" stroke-linecap="round" stroke-linejoin="round"/>
<path d="M292.657 82.4907L293.481 72.6433C293.547 71.8241 293.303 71.0007 292.801 70.3539C292.299 69.7072 291.581 69.2899 290.805 69.1939L277.974 67.6148C277.197 67.5197 276.425 67.7536 275.829 68.2653C275.232 68.7769 274.859 69.5243 274.791 70.3435L273.344 87.708C273.277 88.5272 273.521 89.3506 274.023 89.9974C274.525 90.6441 275.243 91.0614 276.019 91.1574L288.718 92.7245" stroke="#120071" stroke-width="0.769171" stroke-linecap="round" stroke-linejoin="round"/>
<path d="M284.59 68.3276C284.59 68.3276 278.177 63.3379 276.536 59.5033C274.896 55.6687 279.968 52.1676 282.074 57.1038C284.215 62.1171 284.59 68.3276 284.59 68.3276Z" stroke="#120071" stroke-width="0.769171" stroke-linecap="round" stroke-linejoin="round"/>
<path d="M284.49 68.2425C284.49 68.2425 291.845 65.3746 294.3 62.143C296.754 58.9114 292.582 53.9443 289.44 58.0894C286.234 62.3114 284.49 68.2425 284.49 68.2425Z" stroke="#120071" stroke-width="0.769171" stroke-linecap="round" stroke-linejoin="round"/>
<path d="M311.034 80.3917L312.254 79.2447C312.254 79.2447 306.618 79.5048 310.775 73.8371C313.758 69.7696 314.796 73.3282 314.41 75.2803C314.32 75.7369 314.4 75.9511 315.091 75.6141C316.329 75.0144 316.795 77.1814 314.571 77.6748C314.143 77.7699 313.126 79.8601 313.963 82.3926C314.495 84.0008 317.386 86.7363 322.872 88.3595" stroke="#120071" stroke-width="0.769171" stroke-linecap="round" stroke-linejoin="round"/>
<path d="M311.33 79.2715C310.922 80.6762 310.648 82.1246 310.512 83.5952" stroke="#120071" stroke-width="0.769171" stroke-linecap="round" stroke-linejoin="round"/>
<path d="M313.682 81.4704C310.694 84.2866 305.451 86.1831 301.277 87.7871C297.57 85.8376 294.063 83.4741 290.816 80.7387" stroke="#120071" stroke-width="0.769171" stroke-linecap="round" stroke-linejoin="round"/>
<path d="M322.137 97.9408C319.947 98.2166 317.71 97.8008 315.705 96.7454C313.701 95.69 312.019 94.0421 310.869 92.0083C308.338 93.5955 305.714 95.0181 303.012 96.2685C302.098 96.7203 301.055 96.8221 300.058 96.5566C294.681 95.087 289.44 93.0611 284.411 90.5086" stroke="#120071" stroke-width="0.769171" stroke-linecap="round" stroke-linejoin="round"/>
<path d="M316.781 97.0259C316.908 100.819 317.741 103.592 318.975 103.747C322.794 104.226 324.527 83.9823 320.652 83.4872C319.787 83.3773 318.913 84.5673 318.205 86.5438" stroke="#120071" stroke-width="0.769171" stroke-linecap="round" stroke-linejoin="round"/>
<path d="M308.991 38.6766C310.102 37.8305 311.454 37.3984 312.842 37.4454C314.23 37.4925 315.58 38.0162 316.687 38.9374L338.25 56.9942C339.184 57.7757 339.924 58.7894 340.398 59.9405C340.872 61.0917 341.066 62.3426 340.962 63.5763L333.966 146.112" stroke="#120071" stroke-width="0.769171" stroke-linecap="round" stroke-linejoin="round"/>
<path d="M312.918 44.6297C312.837 45.562 312.297 46.2614 311.708 46.1914C311.12 46.1215 310.7 45.2987 310.78 44.3656C310.86 43.4325 311.401 42.729 311.99 42.8039C312.578 42.8789 312.999 43.6975 312.918 44.6297Z" stroke="#120071" stroke-width="0.769171" stroke-linecap="round" stroke-linejoin="round"/>
<path d="M296.342 39.4043L295.761 46.1674" stroke="#120071" stroke-width="0.769171" stroke-linecap="round" stroke-linejoin="round"/>
<path d="M299.222 43.1822L292.881 42.3896" stroke="#120071" stroke-width="0.769171" stroke-linecap="round" stroke-linejoin="round"/>
<path d="M343.888 34.3997L336.424 33.1668L343.921 32.705L343.987 29.2063C343.989 29.0923 343.965 28.9788 343.917 28.8751C343.869 28.7714 343.799 28.6807 343.712 28.6105C343.625 28.5403 343.524 28.4927 343.417 28.4717C343.311 28.4508 343.202 28.457 343.099 28.4899L331.233 32.2151C331.101 32.2576 330.986 32.3427 330.903 32.4587C330.821 32.5747 330.775 32.7158 330.772 32.8629C330.769 33.01 330.809 33.1557 330.887 33.2802C330.965 33.4048 331.077 33.5019 331.207 33.5585L342.917 38.5315C343.017 38.5748 343.125 38.5923 343.231 38.5826C343.338 38.573 343.44 38.5363 343.529 38.4758C343.618 38.4153 343.691 38.3327 343.743 38.2349C343.795 38.137 343.823 38.0268 343.825 37.9135L343.888 34.3997Z" stroke="#120071" stroke-width="0.769171" stroke-linecap="round" stroke-linejoin="round"/>
<path d="M287.593 78.0833C286.154 76.6128 284.931 74.9236 283.967 73.0749C283.363 72.0042 282.749 72.2986 283.172 73.6393C283.579 74.8519 284.105 76.0194 284.74 77.1227" stroke="#120071" stroke-width="0.769171" stroke-linecap="round" stroke-linejoin="round"/>
<path d="M284.212 76.1919C283.445 75.2763 282.732 74.3119 282.078 73.3043C281.456 72.2407 280.843 72.7061 281.353 74.0155C282.025 75.5089 282.802 76.9492 283.678 78.3239" stroke="#120071" stroke-width="0.769171" stroke-linecap="round" stroke-linejoin="round"/>
<path d="M282.721 76.8142C282.131 76.2133 281.57 75.5807 281.042 74.919C280.31 73.9571 279.74 74.5094 280.399 75.7171C281.125 76.9411 281.946 78.1011 282.852 79.1848" stroke="#120071" stroke-width="0.769171" stroke-linecap="round" stroke-linejoin="round"/>
<path d="M288.326 87.7065C288.039 87.6321 284.461 83.6969 282.518 81.0878C281.74 80.0415 280.917 78.9641 280.216 77.8355C279.51 76.6989 279.849 76.2313 280.676 77.0704C280.976 77.3747 281.355 77.6876 281.972 78.2044" stroke="#120071" stroke-width="0.769171" stroke-linecap="round" stroke-linejoin="round"/>
<path d="M285.825 85.0992C284.242 87.6507 283.57 90.0806 284.314 90.6461C286.174 92.0611 292.521 82.5109 290.774 80.9166C289.542 79.6826 288.671 78.1026 288.269 76.3743C287.559 72.9607 286.695 73.0455 286.825 77.2628" stroke="#120071" stroke-width="0.769171" stroke-linecap="round" stroke-linejoin="round"/>
<path d="M325.91 77.1148C325.707 77.3822 325.424 77.569 325.106 77.6466C324.788 77.7241 324.451 77.6881 324.148 77.544C324.349 77.8605 324.439 78.2392 324.402 78.6122C324.366 78.9852 324.204 79.3281 323.946 79.5794C323.689 79.8305 323.352 79.9739 322.997 79.9838C322.642 79.9938 322.291 79.8697 322.008 79.6337C322.036 79.8444 322.024 80.0578 321.973 80.2609C321.921 80.464 321.83 80.6527 321.707 80.8155C321.525 81.0569 321.277 81.2337 320.996 81.3236C320.715 81.4134 320.413 81.4123 320.127 81.3203C319.937 81.2588 319.76 81.1593 319.605 81.0267C319.491 80.9296 319.391 80.8158 319.308 80.6889C319.254 80.8988 319.162 81.0937 319.036 81.2637C318.866 81.4912 318.638 81.6621 318.378 81.757C318.117 81.8519 317.835 81.8672 317.562 81.801C317.289 81.7344 317.037 81.5891 316.834 81.3813C316.631 81.1735 316.486 80.9116 316.414 80.6251C316.393 80.6656 316.368 80.7033 316.34 80.7372C316.095 81.0599 315.737 81.2631 315.343 81.3027C314.949 81.3423 314.552 81.2149 314.238 80.9484C314.004 80.7514 313.83 80.4858 313.739 80.1866C313.788 78.6712 314.44 77.6634 314.673 77.606C316.898 77.0708 316.439 74.9319 315.196 75.5347C314.68 75.7854 314.384 75.7975 314.5 75.2319C314.903 73.2785 313.914 69.6973 310.854 73.7569C310.223 74.5258 309.736 75.4172 309.42 76.3855C309.33 76.1299 309.302 75.8561 309.34 75.5902C309.378 75.3242 309.48 75.0751 309.636 74.8664C309.674 74.8155 309.716 74.7685 309.762 74.7257C309.46 74.6981 309.17 74.5726 308.933 74.3663C308.623 74.0963 308.422 73.7112 308.372 73.294C308.323 72.8768 308.43 72.4608 308.671 72.1354C308.813 71.9499 308.993 71.8004 309.197 71.6976C309.085 71.6381 308.978 71.5692 308.876 71.4917C308.635 71.2879 308.457 71.013 308.365 70.7037C308.272 70.3944 308.271 70.0655 308.36 69.761C308.449 69.4565 308.625 69.191 308.864 68.9998C309.103 68.8086 309.394 68.701 309.697 68.6912C309.43 68.4359 309.253 68.0908 309.2 67.7176C309.147 67.3443 309.22 66.9672 309.407 66.6535C309.594 66.3398 309.882 66.1098 310.22 66.0047C310.558 65.8995 310.924 65.926 311.253 66.0793C311.053 65.7635 310.964 65.3865 311 65.0151C311.037 64.6437 311.197 64.3021 311.453 64.0508C311.709 63.7996 312.043 63.655 312.396 63.6427C312.75 63.6305 313.1 63.7514 313.384 63.984C313.339 63.6697 313.384 63.3512 313.513 63.0697C313.642 62.7882 313.849 62.5566 314.107 62.4049C314.365 62.2531 314.663 62.1883 314.961 62.2186C315.26 62.2489 315.546 62.373 315.782 62.575C315.894 62.6693 315.991 62.7814 316.07 62.9072C316.128 62.6517 316.246 62.4177 316.414 62.2267C316.581 62.0357 316.792 61.8937 317.028 61.814C317.265 61.7342 317.518 61.7193 317.764 61.7704C318.011 61.8215 318.243 61.9372 318.44 62.1066C318.689 62.3228 318.87 62.6152 318.957 62.9417C319.144 62.6421 319.424 62.4229 319.751 62.3207C320.079 62.2186 320.432 62.2398 320.753 62.3808C321.074 62.5219 321.343 62.7741 321.514 63.0951C321.685 63.4161 321.748 63.7864 321.692 64.1436C322.982 62.9521 324.926 64.7522 324.065 66.2548C324.386 66.1346 324.74 66.1362 325.067 66.2593C325.395 66.3823 325.675 66.6193 325.862 66.9307C326.05 67.242 326.132 67.6087 326.095 67.9694C326.059 68.3301 325.906 68.6629 325.662 68.9121C325.961 68.9402 326.247 69.0636 326.482 69.2659C326.795 69.535 326.998 69.9208 327.047 70.3392C327.096 70.7576 326.988 71.1747 326.745 71.4997C326.605 71.6902 326.421 71.8389 326.21 71.9319C326.416 72.0387 326.597 72.1924 326.742 72.3816C326.887 72.5708 326.99 72.7907 327.045 73.025C327.1 73.2593 327.104 73.502 327.059 73.7354C327.013 73.9687 326.918 74.1866 326.781 74.3731C326.65 74.5474 326.484 74.6887 326.295 74.7876C326.105 74.8864 325.897 74.9404 325.683 74.946C325.979 75.214 326.168 75.5902 326.211 75.9951C326.253 76.3999 326.145 76.8015 325.91 77.1148Z" stroke="#120071" stroke-width="0.769171" stroke-linecap="round" stroke-linejoin="round"/>
<path d="M283.045 68.1831L282.567 73.9256" stroke="#120071" stroke-width="0.769171" stroke-linecap="round" stroke-linejoin="round"/>
<path d="M281.847 80.2441L280.885 91.8252" stroke="#120071" stroke-width="0.769171" stroke-linecap="round" stroke-linejoin="round"/>
<path d="M285.963 68.5015L285.396 75.347" stroke="#120071" stroke-width="0.769171" stroke-linecap="round" stroke-linejoin="round"/>
<path d="M284.512 83.6426L284.058 89.1285" stroke="#120071" stroke-width="0.769171" stroke-linecap="round" stroke-linejoin="round"/>
<path d="M283.936 89.9658L283.749 92.1431" stroke="#120071" stroke-width="0.769171" stroke-linecap="round" stroke-linejoin="round"/>
<path d="M310.923 91.8428C311.668 91.3508 312.386 90.8175 313.076 90.2451L311.592 92.9164" stroke="#120071" stroke-width="0.769171" stroke-linecap="round" stroke-linejoin="round"/>
</g>
</g>
<defs>
<clipPath id="clip0_935_4201">
<rect y="0.5" width="333" height="104" rx="8" fill="white"/>
</clipPath>
<clipPath id="clip1_935_4201">
<rect width="106" height="113" fill="white" transform="translate(257 25)"/>
</clipPath>
</defs>
</svg>
