<svg width="335" height="105" viewBox="0 0 335 105" fill="none" xmlns="http://www.w3.org/2000/svg">
<g clip-path="url(#clip0_940_4794)">
<rect width="335" height="105" rx="8" fill="#5F636B"/>
<path d="M20.376 43.24C19.048 43.24 17.864 42.952 16.824 42.376C15.8 41.784 14.992 40.976 14.4 39.952C13.808 38.928 13.512 37.768 13.512 36.472V26.128H16.776V36.568C16.776 37.32 16.928 37.968 17.232 38.512C17.552 39.056 17.984 39.48 18.528 39.784C19.088 40.072 19.704 40.216 20.376 40.216C21.064 40.216 21.672 40.072 22.2 39.784C22.728 39.48 23.144 39.056 23.448 38.512C23.768 37.968 23.928 37.328 23.928 36.592V26.128H27.216V36.496C27.216 37.792 26.92 38.952 26.328 39.976C25.736 40.984 24.928 41.784 23.904 42.376C22.896 42.952 21.72 43.24 20.376 43.24ZM31.8069 43V26.584H34.9509V43H31.8069ZM29.0949 34.168V31.408H37.6629V34.168H29.0949ZM39.4311 43V31.408H42.5991V43H39.4311ZM41.0151 29.536C40.5031 29.536 40.0791 29.368 39.7431 29.032C39.4071 28.68 39.2391 28.248 39.2391 27.736C39.2391 27.24 39.4071 26.816 39.7431 26.464C40.0791 26.112 40.5031 25.936 41.0151 25.936C41.5431 25.936 41.9671 26.112 42.2871 26.464C42.6231 26.816 42.7911 27.24 42.7911 27.736C42.7911 28.248 42.6231 28.68 42.2871 29.032C41.9671 29.368 41.5431 29.536 41.0151 29.536ZM45.3842 43V25.648H48.5282V43H45.3842ZM51.3139 43V31.408H54.4819V43H51.3139ZM52.8979 29.536C52.3859 29.536 51.9619 29.368 51.6259 29.032C51.2899 28.68 51.1219 28.248 51.1219 27.736C51.1219 27.24 51.2899 26.816 51.6259 26.464C51.9619 26.112 52.3859 25.936 52.8979 25.936C53.4259 25.936 53.8499 26.112 54.1699 26.464C54.5059 26.816 54.6739 27.24 54.6739 27.736C54.6739 28.248 54.5059 28.68 54.1699 29.032C53.8499 29.368 53.4259 29.536 52.8979 29.536ZM58.971 43V26.584H62.115V43H58.971ZM56.259 34.168V31.408H64.827V34.168H56.259ZM66.5951 43V31.408H69.7631V43H66.5951ZM68.1791 29.536C67.6671 29.536 67.2431 29.368 66.9071 29.032C66.5711 28.68 66.4031 28.248 66.4031 27.736C66.4031 27.24 66.5711 26.816 66.9071 26.464C67.2431 26.112 67.6671 25.936 68.1791 25.936C68.7071 25.936 69.1311 26.112 69.4511 26.464C69.7871 26.816 69.9551 27.24 69.9551 27.736C69.9551 28.248 69.7871 28.68 69.4511 29.032C69.1311 29.368 68.7071 29.536 68.1791 29.536ZM78.0923 43.24C76.8763 43.24 75.7963 42.984 74.8523 42.472C73.9083 41.944 73.1563 41.224 72.5963 40.312C72.0523 39.4 71.7803 38.36 71.7803 37.192C71.7803 36.04 72.0443 35.016 72.5723 34.12C73.1163 33.208 73.8523 32.488 74.7803 31.96C75.7083 31.416 76.7403 31.144 77.8763 31.144C78.9963 31.144 79.9803 31.4 80.8283 31.912C81.6923 32.408 82.3643 33.096 82.8443 33.976C83.3403 34.84 83.5883 35.824 83.5883 36.928C83.5883 37.136 83.5723 37.352 83.5403 37.576C83.5243 37.784 83.4843 38.024 83.4203 38.296L73.6763 38.32V35.968L81.9563 35.944L80.6843 36.928C80.6523 36.24 80.5243 35.664 80.3003 35.2C80.0923 34.736 79.7803 34.384 79.3643 34.144C78.9643 33.888 78.4683 33.76 77.8763 33.76C77.2523 33.76 76.7083 33.904 76.2443 34.192C75.7803 34.464 75.4203 34.856 75.1643 35.368C74.9243 35.864 74.8043 36.456 74.8043 37.144C74.8043 37.848 74.9323 38.464 75.1883 38.992C75.4603 39.504 75.8443 39.904 76.3403 40.192C76.8363 40.464 77.4123 40.6 78.0683 40.6C78.6603 40.6 79.1963 40.504 79.6763 40.312C80.1563 40.104 80.5723 39.8 80.9243 39.4L82.7723 41.248C82.2123 41.904 81.5243 42.4 80.7083 42.736C79.9083 43.072 79.0363 43.24 78.0923 43.24ZM89.5166 43.264C88.8606 43.264 88.2126 43.176 87.5726 43C86.9486 42.824 86.3726 42.584 85.8446 42.28C85.3166 41.96 84.8606 41.576 84.4766 41.128L86.3486 39.232C86.7486 39.68 87.2126 40.016 87.7406 40.24C88.2686 40.464 88.8526 40.576 89.4926 40.576C90.0046 40.576 90.3886 40.504 90.6446 40.36C90.9166 40.216 91.0526 40 91.0526 39.712C91.0526 39.392 90.9086 39.144 90.6206 38.968C90.3486 38.792 89.9886 38.648 89.5406 38.536C89.0926 38.408 88.6206 38.272 88.1246 38.128C87.6446 37.968 87.1806 37.768 86.7326 37.528C86.2846 37.272 85.9166 36.928 85.6286 36.496C85.3566 36.048 85.2206 35.472 85.2206 34.768C85.2206 34.032 85.3966 33.392 85.7486 32.848C86.1166 32.304 86.6366 31.88 87.3086 31.576C87.9806 31.272 88.7726 31.12 89.6846 31.12C90.6446 31.12 91.5086 31.288 92.2766 31.624C93.0606 31.96 93.7086 32.464 94.2206 33.136L92.3246 35.032C91.9726 34.6 91.5726 34.288 91.1246 34.096C90.6926 33.904 90.2206 33.808 89.7086 33.808C89.2446 33.808 88.8846 33.88 88.6286 34.024C88.3886 34.168 88.2686 34.368 88.2686 34.624C88.2686 34.912 88.4046 35.136 88.6766 35.296C88.9646 35.456 89.3326 35.6 89.7806 35.728C90.2286 35.84 90.6926 35.976 91.1726 36.136C91.6686 36.28 92.1326 36.488 92.5646 36.76C93.0126 37.032 93.3726 37.392 93.6446 37.84C93.9326 38.288 94.0766 38.864 94.0766 39.568C94.0766 40.704 93.6686 41.608 92.8526 42.28C92.0366 42.936 90.9246 43.264 89.5166 43.264Z" fill="white"/>
<path d="M14.03 62.22V61.072H16.676C17.04 61.072 17.362 60.9973 17.642 60.848C17.9313 60.6987 18.1553 60.4887 18.314 60.218C18.482 59.9473 18.566 59.6253 18.566 59.252C18.566 58.8787 18.482 58.5567 18.314 58.286C18.1553 58.0153 17.9313 57.8053 17.642 57.656C17.362 57.5067 17.04 57.432 16.676 57.432H14.03V56.284H16.76C17.3573 56.284 17.8893 56.4053 18.356 56.648C18.832 56.8907 19.2053 57.236 19.476 57.684C19.756 58.1227 19.896 58.6453 19.896 59.252C19.896 59.8493 19.756 60.372 19.476 60.82C19.2053 61.2587 18.832 61.604 18.356 61.856C17.8893 62.0987 17.3573 62.22 16.76 62.22H14.03ZM13.148 66V56.284H14.464V66H13.148ZM23.8594 66.14C23.2528 66.14 22.7021 65.9907 22.2074 65.692C21.7128 65.384 21.3208 64.9687 21.0314 64.446C20.7514 63.9233 20.6114 63.3353 20.6114 62.682C20.6114 62.0287 20.7514 61.4407 21.0314 60.918C21.3208 60.3953 21.7081 59.98 22.1934 59.672C22.6881 59.364 23.2434 59.21 23.8594 59.21C24.3634 59.21 24.8114 59.3173 25.2034 59.532C25.6048 59.7373 25.9268 60.0267 26.1694 60.4C26.4121 60.764 26.5474 61.1887 26.5754 61.674V63.676C26.5474 64.152 26.4121 64.5767 26.1694 64.95C25.9361 65.3233 25.6188 65.6173 25.2174 65.832C24.8254 66.0373 24.3728 66.14 23.8594 66.14ZM24.0694 64.95C24.6948 64.95 25.1988 64.74 25.5814 64.32C25.9641 63.8907 26.1554 63.3447 26.1554 62.682C26.1554 62.2247 26.0668 61.828 25.8894 61.492C25.7214 61.1467 25.4788 60.8807 25.1614 60.694C24.8441 60.498 24.4754 60.4 24.0554 60.4C23.6354 60.4 23.2621 60.498 22.9354 60.694C22.6181 60.89 22.3661 61.1607 22.1794 61.506C22.0021 61.842 21.9134 62.2293 21.9134 62.668C21.9134 63.116 22.0021 63.5127 22.1794 63.858C22.3661 64.194 22.6228 64.46 22.9494 64.656C23.2761 64.852 23.6494 64.95 24.0694 64.95ZM26.0714 66V64.208L26.3094 62.584L26.0714 60.974V59.35H27.3454V66H26.0714ZM31.3639 66.056L28.4799 59.35H29.8799L32.0219 64.6H31.5739L33.8279 59.35H35.2279L32.1199 66.056H31.3639ZM29.4599 68.786L31.4199 64.768L32.1199 66.056L30.8599 68.786H29.4599ZM41.4674 66.056L38.5834 59.35H39.9834L42.1254 64.6H41.6774L43.9314 59.35H45.3314L42.2234 66.056H41.4674ZM39.5634 68.786L41.5234 64.768L42.2234 66.056L40.9634 68.786H39.5634ZM49.1436 66.14C48.4903 66.14 47.9023 65.986 47.3796 65.678C46.857 65.37 46.4416 64.9547 46.1336 64.432C45.8256 63.9 45.6716 63.3073 45.6716 62.654C45.6716 62.01 45.8256 61.4313 46.1336 60.918C46.4416 60.3953 46.857 59.98 47.3796 59.672C47.9023 59.364 48.4903 59.21 49.1436 59.21C49.7876 59.21 50.371 59.364 50.8936 59.672C51.4256 59.9707 51.8456 60.3813 52.1536 60.904C52.4616 61.4267 52.6156 62.01 52.6156 62.654C52.6156 63.3073 52.4616 63.9 52.1536 64.432C51.8456 64.9547 51.4256 65.37 50.8936 65.678C50.371 65.986 49.7876 66.14 49.1436 66.14ZM49.1436 64.922C49.5636 64.922 49.937 64.824 50.2636 64.628C50.5903 64.432 50.847 64.166 51.0336 63.83C51.2203 63.4847 51.3136 63.0927 51.3136 62.654C51.3136 62.2247 51.2156 61.842 51.0196 61.506C50.833 61.17 50.5763 60.9087 50.2496 60.722C49.9323 60.526 49.5636 60.428 49.1436 60.428C48.7236 60.428 48.3503 60.526 48.0236 60.722C47.697 60.9087 47.4403 61.17 47.2536 61.506C47.067 61.842 46.9736 62.2247 46.9736 62.654C46.9736 63.0927 47.067 63.4847 47.2536 63.83C47.4403 64.166 47.697 64.432 48.0236 64.628C48.3503 64.824 48.7236 64.922 49.1436 64.922ZM56.7093 66.14C56.168 66.14 55.678 66.0187 55.2393 65.776C54.81 65.524 54.474 65.1787 54.2313 64.74C53.9887 64.3013 53.8673 63.7927 53.8673 63.214V59.35H55.1273V63.158C55.1273 63.522 55.188 63.8393 55.3093 64.11C55.44 64.3713 55.6267 64.572 55.8693 64.712C56.112 64.852 56.3967 64.922 56.7233 64.922C57.218 64.922 57.6053 64.768 57.8853 64.46C58.1653 64.1427 58.3053 63.7087 58.3053 63.158V59.35H59.5653V63.214C59.5653 63.7927 59.444 64.3013 59.2013 64.74C58.9587 65.1787 58.6227 65.524 58.1933 65.776C57.7733 66.0187 57.2787 66.14 56.7093 66.14ZM61.2541 66V59.35H62.5141V66H61.2541ZM62.5141 62.206L62.0381 61.996C62.0381 61.1467 62.2341 60.47 62.6261 59.966C63.0181 59.462 63.5827 59.21 64.3201 59.21C64.6561 59.21 64.9594 59.2707 65.2301 59.392C65.5007 59.504 65.7527 59.6953 65.9861 59.966L65.1601 60.82C65.0201 60.6707 64.8661 60.5633 64.6981 60.498C64.5301 60.4327 64.3341 60.4 64.1101 60.4C63.6434 60.4 63.2607 60.5493 62.9621 60.848C62.6634 61.1467 62.5141 61.5993 62.5141 62.206ZM73.1114 66.14C72.4488 66.14 71.8514 65.9907 71.3194 65.692C70.7874 65.384 70.3674 64.9687 70.0594 64.446C69.7514 63.9233 69.5974 63.3307 69.5974 62.668C69.5974 62.0147 69.7468 61.4267 70.0454 60.904C70.3534 60.3813 70.7641 59.9707 71.2774 59.672C71.8001 59.364 72.3834 59.21 73.0274 59.21C73.6434 59.21 74.1848 59.35 74.6514 59.63C75.1274 59.91 75.4961 60.2973 75.7574 60.792C76.0281 61.2867 76.1634 61.8467 76.1634 62.472C76.1634 62.5653 76.1588 62.668 76.1494 62.78C76.1401 62.8827 76.1214 63.004 76.0934 63.144H70.4794V62.094H75.4214L74.9594 62.5C74.9594 62.052 74.8801 61.674 74.7214 61.366C74.5628 61.0487 74.3388 60.806 74.0494 60.638C73.7601 60.4607 73.4101 60.372 72.9994 60.372C72.5701 60.372 72.1921 60.4653 71.8654 60.652C71.5388 60.8387 71.2868 61.1 71.1094 61.436C70.9321 61.772 70.8434 62.1687 70.8434 62.626C70.8434 63.0927 70.9368 63.5033 71.1234 63.858C71.3101 64.2033 71.5761 64.474 71.9214 64.67C72.2668 64.8567 72.6634 64.95 73.1114 64.95C73.4848 64.95 73.8254 64.8847 74.1334 64.754C74.4508 64.6233 74.7214 64.4273 74.9454 64.166L75.7574 64.992C75.4401 65.3653 75.0481 65.65 74.5814 65.846C74.1241 66.042 73.6341 66.14 73.1114 66.14ZM77.5373 66V56.004H78.7973V66H77.5373ZM83.7208 66.14C83.0581 66.14 82.4608 65.9907 81.9288 65.692C81.3968 65.384 80.9768 64.9687 80.6688 64.446C80.3608 63.9233 80.2068 63.3307 80.2068 62.668C80.2068 62.0147 80.3561 61.4267 80.6548 60.904C80.9628 60.3813 81.3735 59.9707 81.8868 59.672C82.4095 59.364 82.9928 59.21 83.6368 59.21C84.2528 59.21 84.7941 59.35 85.2608 59.63C85.7368 59.91 86.1055 60.2973 86.3668 60.792C86.6375 61.2867 86.7728 61.8467 86.7728 62.472C86.7728 62.5653 86.7681 62.668 86.7588 62.78C86.7495 62.8827 86.7308 63.004 86.7028 63.144H81.0888V62.094H86.0308L85.5688 62.5C85.5688 62.052 85.4895 61.674 85.3308 61.366C85.1721 61.0487 84.9481 60.806 84.6588 60.638C84.3695 60.4607 84.0195 60.372 83.6088 60.372C83.1795 60.372 82.8015 60.4653 82.4748 60.652C82.1481 60.8387 81.8961 61.1 81.7188 61.436C81.5415 61.772 81.4528 62.1687 81.4528 62.626C81.4528 63.0927 81.5461 63.5033 81.7328 63.858C81.9195 64.2033 82.1855 64.474 82.5308 64.67C82.8761 64.8567 83.2728 64.95 83.7208 64.95C84.0941 64.95 84.4348 64.8847 84.7428 64.754C85.0601 64.6233 85.3308 64.4273 85.5548 64.166L86.3668 64.992C86.0495 65.3653 85.6575 65.65 85.1908 65.846C84.7335 66.042 84.2435 66.14 83.7208 66.14ZM91.1847 66.14C90.5313 66.14 89.9387 65.986 89.4067 65.678C88.884 65.37 88.4687 64.9547 88.1607 64.432C87.862 63.9 87.7127 63.312 87.7127 62.668C87.7127 62.0147 87.862 61.4267 88.1607 60.904C88.4687 60.3813 88.884 59.9707 89.4067 59.672C89.9387 59.364 90.5313 59.21 91.1847 59.21C91.698 59.21 92.174 59.308 92.6127 59.504C93.0513 59.6907 93.4293 59.966 93.7467 60.33L92.9067 61.17C92.7013 60.9273 92.4493 60.7453 92.1507 60.624C91.8613 60.4933 91.5393 60.428 91.1847 60.428C90.7647 60.428 90.3913 60.526 90.0647 60.722C89.738 60.9087 89.4813 61.17 89.2947 61.506C89.108 61.842 89.0147 62.2293 89.0147 62.668C89.0147 63.1067 89.108 63.494 89.2947 63.83C89.4813 64.166 89.738 64.432 90.0647 64.628C90.3913 64.824 90.7647 64.922 91.1847 64.922C91.5393 64.922 91.8613 64.8613 92.1507 64.74C92.4493 64.6093 92.706 64.4227 92.9207 64.18L93.7467 65.02C93.4387 65.3747 93.0607 65.65 92.6127 65.846C92.174 66.042 91.698 66.14 91.1847 66.14ZM95.9362 66V56.564H97.1962V66H95.9362ZM94.2982 60.498V59.35H98.8342V60.498H94.2982ZM100.069 66V59.35H101.329V66H100.069ZM101.329 62.206L100.853 61.996C100.853 61.1467 101.049 60.47 101.441 59.966C101.833 59.462 102.397 59.21 103.135 59.21C103.471 59.21 103.774 59.2707 104.045 59.392C104.315 59.504 104.567 59.6953 104.801 59.966L103.975 60.82C103.835 60.6707 103.681 60.5633 103.513 60.498C103.345 60.4327 103.149 60.4 102.925 60.4C102.458 60.4 102.075 60.5493 101.777 60.848C101.478 61.1467 101.329 61.5993 101.329 62.206ZM105.702 66V59.35H106.962V66H105.702ZM106.332 58.02C106.098 58.02 105.907 57.9453 105.758 57.796C105.608 57.6373 105.534 57.4413 105.534 57.208C105.534 56.984 105.608 56.7973 105.758 56.648C105.907 56.4893 106.098 56.41 106.332 56.41C106.565 56.41 106.756 56.4893 106.906 56.648C107.055 56.7973 107.13 56.984 107.13 57.208C107.13 57.4413 107.055 57.6373 106.906 57.796C106.756 57.9453 106.565 58.02 106.332 58.02ZM111.857 66.14C111.203 66.14 110.611 65.986 110.079 65.678C109.556 65.37 109.141 64.9547 108.833 64.432C108.534 63.9 108.385 63.312 108.385 62.668C108.385 62.0147 108.534 61.4267 108.833 60.904C109.141 60.3813 109.556 59.9707 110.079 59.672C110.611 59.364 111.203 59.21 111.857 59.21C112.37 59.21 112.846 59.308 113.285 59.504C113.723 59.6907 114.101 59.966 114.419 60.33L113.579 61.17C113.373 60.9273 113.121 60.7453 112.823 60.624C112.533 60.4933 112.211 60.428 111.857 60.428C111.437 60.428 111.063 60.526 110.737 60.722C110.41 60.9087 110.153 61.17 109.967 61.506C109.78 61.842 109.687 62.2293 109.687 62.668C109.687 63.1067 109.78 63.494 109.967 63.83C110.153 64.166 110.41 64.432 110.737 64.628C111.063 64.824 111.437 64.922 111.857 64.922C112.211 64.922 112.533 64.8613 112.823 64.74C113.121 64.6093 113.378 64.4227 113.593 64.18L114.419 65.02C114.111 65.3747 113.733 65.65 113.285 65.846C112.846 66.042 112.37 66.14 111.857 66.14ZM115.682 66V59.35H116.942V66H115.682ZM116.312 58.02C116.079 58.02 115.887 57.9453 115.738 57.796C115.589 57.6373 115.514 57.4413 115.514 57.208C115.514 56.984 115.589 56.7973 115.738 56.648C115.887 56.4893 116.079 56.41 116.312 56.41C116.545 56.41 116.737 56.4893 116.886 56.648C117.035 56.7973 117.11 56.984 117.11 57.208C117.11 57.4413 117.035 57.6373 116.886 57.796C116.737 57.9453 116.545 58.02 116.312 58.02ZM119.821 66V56.564H121.081V66H119.821ZM118.183 60.498V59.35H122.719V60.498H118.183ZM126.137 66.056L123.253 59.35H124.653L126.795 64.6H126.347L128.601 59.35H130.001L126.893 66.056H126.137ZM124.233 68.786L126.193 64.768L126.893 66.056L125.633 68.786H124.233ZM130.258 67.54L131.126 65.874L131.574 65.762C131.527 65.8647 131.466 65.9487 131.392 66.014C131.326 66.0793 131.242 66.112 131.14 66.112C130.944 66.112 130.762 66.0327 130.594 65.874C130.435 65.706 130.356 65.5007 130.356 65.258C130.356 64.9873 130.444 64.7633 130.622 64.586C130.799 64.3993 131.023 64.306 131.294 64.306C131.536 64.306 131.751 64.3993 131.938 64.586C132.124 64.7633 132.218 64.9873 132.218 65.258C132.218 65.3607 132.194 65.4867 132.148 65.636C132.11 65.776 132.031 65.958 131.91 66.182L130.986 67.932L130.258 67.54ZM138.859 66L136.227 59.35H137.543L139.447 64.53H139.027L140.917 59.35H141.645L143.535 64.53H143.115L145.019 59.35H146.335L143.717 66H142.975L141.057 60.974H141.519L139.587 66H138.859ZM150.092 66.14C149.485 66.14 148.935 65.9907 148.44 65.692C147.945 65.384 147.553 64.9687 147.264 64.446C146.984 63.9233 146.844 63.3353 146.844 62.682C146.844 62.0287 146.984 61.4407 147.264 60.918C147.553 60.3953 147.941 59.98 148.426 59.672C148.921 59.364 149.476 59.21 150.092 59.21C150.596 59.21 151.044 59.3173 151.436 59.532C151.837 59.7373 152.159 60.0267 152.402 60.4C152.645 60.764 152.78 61.1887 152.808 61.674V63.676C152.78 64.152 152.645 64.5767 152.402 64.95C152.169 65.3233 151.851 65.6173 151.45 65.832C151.058 66.0373 150.605 66.14 150.092 66.14ZM150.302 64.95C150.927 64.95 151.431 64.74 151.814 64.32C152.197 63.8907 152.388 63.3447 152.388 62.682C152.388 62.2247 152.299 61.828 152.122 61.492C151.954 61.1467 151.711 60.8807 151.394 60.694C151.077 60.498 150.708 60.4 150.288 60.4C149.868 60.4 149.495 60.498 149.168 60.694C148.851 60.89 148.599 61.1607 148.412 61.506C148.235 61.842 148.146 62.2293 148.146 62.668C148.146 63.116 148.235 63.5127 148.412 63.858C148.599 64.194 148.855 64.46 149.182 64.656C149.509 64.852 149.882 64.95 150.302 64.95ZM152.304 66V64.208L152.542 62.584L152.304 60.974V59.35H153.578V66H152.304ZM157.526 66.14C157.153 66.14 156.798 66.0933 156.462 66C156.136 65.8973 155.832 65.7573 155.552 65.58C155.272 65.3933 155.03 65.174 154.824 64.922L155.636 64.11C155.879 64.4087 156.159 64.6327 156.476 64.782C156.794 64.922 157.148 64.992 157.54 64.992C157.932 64.992 158.236 64.9267 158.45 64.796C158.665 64.656 158.772 64.4647 158.772 64.222C158.772 63.9793 158.684 63.7927 158.506 63.662C158.338 63.522 158.119 63.41 157.848 63.326C157.578 63.2327 157.288 63.144 156.98 63.06C156.682 62.9667 156.397 62.85 156.126 62.71C155.856 62.57 155.632 62.3787 155.454 62.136C155.286 61.8933 155.202 61.5713 155.202 61.17C155.202 60.7687 155.3 60.4233 155.496 60.134C155.692 59.8353 155.963 59.6067 156.308 59.448C156.663 59.2893 157.088 59.21 157.582 59.21C158.105 59.21 158.567 59.3033 158.968 59.49C159.379 59.6673 159.715 59.938 159.976 60.302L159.164 61.114C158.978 60.8713 158.744 60.6847 158.464 60.554C158.194 60.4233 157.886 60.358 157.54 60.358C157.176 60.358 156.896 60.4233 156.7 60.554C156.514 60.6753 156.42 60.848 156.42 61.072C156.42 61.296 156.504 61.4687 156.672 61.59C156.84 61.7113 157.06 61.814 157.33 61.898C157.61 61.982 157.9 62.0707 158.198 62.164C158.497 62.248 158.782 62.3647 159.052 62.514C159.323 62.6633 159.542 62.864 159.71 63.116C159.888 63.368 159.976 63.6993 159.976 64.11C159.976 64.7353 159.752 65.23 159.304 65.594C158.866 65.958 158.273 66.14 157.526 66.14ZM162.409 66V56.564H163.669V66H162.409ZM160.771 60.498V59.35H165.307V60.498H160.771ZM169.416 66.14C168.753 66.14 168.156 65.9907 167.624 65.692C167.092 65.384 166.672 64.9687 166.364 64.446C166.056 63.9233 165.902 63.3307 165.902 62.668C165.902 62.0147 166.051 61.4267 166.35 60.904C166.658 60.3813 167.069 59.9707 167.582 59.672C168.105 59.364 168.688 59.21 169.332 59.21C169.948 59.21 170.489 59.35 170.956 59.63C171.432 59.91 171.801 60.2973 172.062 60.792C172.333 61.2867 172.468 61.8467 172.468 62.472C172.468 62.5653 172.463 62.668 172.454 62.78C172.445 62.8827 172.426 63.004 172.398 63.144H166.784V62.094H171.726L171.264 62.5C171.264 62.052 171.185 61.674 171.026 61.366C170.867 61.0487 170.643 60.806 170.354 60.638C170.065 60.4607 169.715 60.372 169.304 60.372C168.875 60.372 168.497 60.4653 168.17 60.652C167.843 60.8387 167.591 61.1 167.414 61.436C167.237 61.772 167.148 62.1687 167.148 62.626C167.148 63.0927 167.241 63.5033 167.428 63.858C167.615 64.2033 167.881 64.474 168.226 64.67C168.571 64.8567 168.968 64.95 169.416 64.95C169.789 64.95 170.13 64.8847 170.438 64.754C170.755 64.6233 171.026 64.4273 171.25 64.166L172.062 64.992C171.745 65.3653 171.353 65.65 170.886 65.846C170.429 66.042 169.939 66.14 169.416 66.14ZM179.582 66.14C178.975 66.14 178.425 65.9907 177.93 65.692C177.435 65.384 177.043 64.9687 176.754 64.446C176.474 63.9233 176.334 63.3353 176.334 62.682C176.334 62.0287 176.474 61.4407 176.754 60.918C177.043 60.3953 177.431 59.98 177.916 59.672C178.411 59.364 178.966 59.21 179.582 59.21C180.086 59.21 180.534 59.3173 180.926 59.532C181.327 59.7373 181.649 60.0267 181.892 60.4C182.135 60.764 182.27 61.1887 182.298 61.674V63.676C182.27 64.152 182.135 64.5767 181.892 64.95C181.659 65.3233 181.341 65.6173 180.94 65.832C180.548 66.0373 180.095 66.14 179.582 66.14ZM179.792 64.95C180.417 64.95 180.921 64.74 181.304 64.32C181.687 63.8907 181.878 63.3447 181.878 62.682C181.878 62.2247 181.789 61.828 181.612 61.492C181.444 61.1467 181.201 60.8807 180.884 60.694C180.567 60.498 180.198 60.4 179.778 60.4C179.358 60.4 178.985 60.498 178.658 60.694C178.341 60.89 178.089 61.1607 177.902 61.506C177.725 61.842 177.636 62.2293 177.636 62.668C177.636 63.116 177.725 63.5127 177.902 63.858C178.089 64.194 178.345 64.46 178.672 64.656C178.999 64.852 179.372 64.95 179.792 64.95ZM181.794 66V64.208L182.032 62.584L181.794 60.974V59.35H183.068V66H181.794ZM189.607 66V62.122C189.607 61.618 189.448 61.2027 189.131 60.876C188.813 60.5493 188.403 60.386 187.899 60.386C187.563 60.386 187.264 60.4607 187.003 60.61C186.741 60.7593 186.536 60.9647 186.387 61.226C186.237 61.4873 186.163 61.786 186.163 62.122L185.645 61.828C185.645 61.324 185.757 60.876 185.981 60.484C186.205 60.092 186.517 59.784 186.919 59.56C187.32 59.3267 187.773 59.21 188.277 59.21C188.781 59.21 189.224 59.336 189.607 59.588C189.999 59.84 190.307 60.1713 190.531 60.582C190.755 60.9833 190.867 61.4127 190.867 61.87V66H189.607ZM184.903 66V59.35H186.163V66H184.903ZM195.386 66.14C194.77 66.14 194.22 65.9907 193.734 65.692C193.249 65.384 192.862 64.9687 192.572 64.446C192.292 63.9233 192.152 63.3353 192.152 62.682C192.152 62.0287 192.292 61.4407 192.572 60.918C192.862 60.3953 193.249 59.98 193.734 59.672C194.22 59.364 194.77 59.21 195.386 59.21C195.881 59.21 196.329 59.3173 196.73 59.532C197.132 59.7373 197.454 60.0267 197.696 60.4C197.948 60.764 198.088 61.1887 198.116 61.674V63.676C198.088 64.152 197.953 64.5767 197.71 64.95C197.468 65.3233 197.146 65.6173 196.744 65.832C196.343 66.0373 195.89 66.14 195.386 66.14ZM195.596 64.95C196.016 64.95 196.38 64.852 196.688 64.656C197.006 64.46 197.253 64.194 197.43 63.858C197.608 63.5127 197.696 63.1207 197.696 62.682C197.696 62.2247 197.603 61.828 197.416 61.492C197.239 61.156 196.992 60.89 196.674 60.694C196.366 60.498 196.002 60.4 195.582 60.4C195.162 60.4 194.794 60.498 194.476 60.694C194.159 60.89 193.907 61.1607 193.72 61.506C193.543 61.842 193.454 62.2293 193.454 62.668C193.454 63.116 193.543 63.5127 193.72 63.858C193.907 64.194 194.159 64.46 194.476 64.656C194.803 64.852 195.176 64.95 195.596 64.95ZM198.886 66H197.612V64.208L197.85 62.584L197.612 60.974V56.004H198.886V66ZM15.962 84.14C15.3087 84.14 14.7207 83.986 14.198 83.678C13.6753 83.37 13.26 82.9547 12.952 82.432C12.644 81.9 12.49 81.3073 12.49 80.654C12.49 80.01 12.644 79.4313 12.952 78.918C13.26 78.3953 13.6753 77.98 14.198 77.672C14.7207 77.364 15.3087 77.21 15.962 77.21C16.606 77.21 17.1893 77.364 17.712 77.672C18.244 77.9707 18.664 78.3813 18.972 78.904C19.28 79.4267 19.434 80.01 19.434 80.654C19.434 81.3073 19.28 81.9 18.972 82.432C18.664 82.9547 18.244 83.37 17.712 83.678C17.1893 83.986 16.606 84.14 15.962 84.14ZM15.962 82.922C16.382 82.922 16.7553 82.824 17.082 82.628C17.4087 82.432 17.6653 82.166 17.852 81.83C18.0387 81.4847 18.132 81.0927 18.132 80.654C18.132 80.2247 18.034 79.842 17.838 79.506C17.6513 79.17 17.3947 78.9087 17.068 78.722C16.7507 78.526 16.382 78.428 15.962 78.428C15.542 78.428 15.1687 78.526 14.842 78.722C14.5153 78.9087 14.2587 79.17 14.072 79.506C13.8853 79.842 13.792 80.2247 13.792 80.654C13.792 81.0927 13.8853 81.4847 14.072 81.83C14.2587 82.166 14.5153 82.432 14.842 82.628C15.1687 82.824 15.542 82.922 15.962 82.922ZM21.6706 84V74.564H22.9306V84H21.6706ZM20.0326 78.498V77.35H24.5686V78.498H20.0326ZM30.5069 84V80.122C30.5069 79.618 30.3482 79.2027 30.0309 78.876C29.7136 78.5493 29.3029 78.386 28.7989 78.386C28.4629 78.386 28.1642 78.4607 27.9029 78.61C27.6416 78.7593 27.4362 78.9647 27.2869 79.226C27.1376 79.4873 27.0629 79.786 27.0629 80.122L26.5449 79.828C26.5449 79.324 26.6569 78.876 26.8809 78.484C27.1049 78.092 27.4176 77.784 27.8189 77.56C28.2202 77.3267 28.6729 77.21 29.1769 77.21C29.6809 77.21 30.1242 77.322 30.5069 77.546C30.8989 77.77 31.2069 78.0827 31.4309 78.484C31.6549 78.8853 31.7669 79.3473 31.7669 79.87V84H30.5069ZM25.8029 84V74.004H27.0629V84H25.8029ZM36.5528 84.14C35.8902 84.14 35.2928 83.9907 34.7608 83.692C34.2288 83.384 33.8088 82.9687 33.5008 82.446C33.1928 81.9233 33.0388 81.3307 33.0388 80.668C33.0388 80.0147 33.1882 79.4267 33.4868 78.904C33.7948 78.3813 34.2055 77.9707 34.7188 77.672C35.2415 77.364 35.8248 77.21 36.4688 77.21C37.0848 77.21 37.6262 77.35 38.0928 77.63C38.5688 77.91 38.9375 78.2973 39.1988 78.792C39.4695 79.2867 39.6048 79.8467 39.6048 80.472C39.6048 80.5653 39.6002 80.668 39.5908 80.78C39.5815 80.8827 39.5628 81.004 39.5348 81.144H33.9208V80.094H38.8628L38.4008 80.5C38.4008 80.052 38.3215 79.674 38.1628 79.366C38.0042 79.0487 37.7802 78.806 37.4908 78.638C37.2015 78.4607 36.8515 78.372 36.4408 78.372C36.0115 78.372 35.6335 78.4653 35.3068 78.652C34.9802 78.8387 34.7282 79.1 34.5508 79.436C34.3735 79.772 34.2848 80.1687 34.2848 80.626C34.2848 81.0927 34.3782 81.5033 34.5648 81.858C34.7515 82.2033 35.0175 82.474 35.3628 82.67C35.7082 82.8567 36.1048 82.95 36.5528 82.95C36.9262 82.95 37.2668 82.8847 37.5748 82.754C37.8922 82.6233 38.1628 82.4273 38.3868 82.166L39.1988 82.992C38.8815 83.3653 38.4895 83.65 38.0228 83.846C37.5655 84.042 37.0755 84.14 36.5528 84.14ZM40.9787 84V77.35H42.2387V84H40.9787ZM42.2387 80.206L41.7627 79.996C41.7627 79.1467 41.9587 78.47 42.3507 77.966C42.7427 77.462 43.3074 77.21 44.0447 77.21C44.3807 77.21 44.684 77.2707 44.9547 77.392C45.2254 77.504 45.4774 77.6953 45.7107 77.966L44.8847 78.82C44.7447 78.6707 44.5907 78.5633 44.4227 78.498C44.2547 78.4327 44.0587 78.4 43.8347 78.4C43.368 78.4 42.9854 78.5493 42.6867 78.848C42.388 79.1467 42.2387 79.5993 42.2387 80.206ZM52.43 84.14C51.8887 84.14 51.3987 84.0187 50.96 83.776C50.5307 83.524 50.1947 83.1787 49.952 82.74C49.7094 82.3013 49.588 81.7927 49.588 81.214V77.35H50.848V81.158C50.848 81.522 50.9087 81.8393 51.03 82.11C51.1607 82.3713 51.3474 82.572 51.59 82.712C51.8327 82.852 52.1174 82.922 52.444 82.922C52.9387 82.922 53.326 82.768 53.606 82.46C53.886 82.1427 54.026 81.7087 54.026 81.158V77.35H55.286V81.214C55.286 81.7927 55.1647 82.3013 54.922 82.74C54.6794 83.1787 54.3434 83.524 53.914 83.776C53.494 84.0187 52.9994 84.14 52.43 84.14ZM57.9968 84V74.564H59.2568V84H57.9968ZM56.3588 78.498V77.35H60.8948V78.498H56.3588ZM62.1431 84V77.35H63.4031V84H62.1431ZM62.7731 76.02C62.5397 76.02 62.3484 75.9453 62.1991 75.796C62.0497 75.6373 61.9751 75.4413 61.9751 75.208C61.9751 74.984 62.0497 74.7973 62.1991 74.648C62.3484 74.4893 62.5397 74.41 62.7731 74.41C63.0064 74.41 63.1977 74.4893 63.3471 74.648C63.4964 74.7973 63.5711 74.984 63.5711 75.208C63.5711 75.4413 63.4964 75.6373 63.3471 75.796C63.1977 75.9453 63.0064 76.02 62.7731 76.02ZM65.2599 84V74.004H66.5199V84H65.2599ZM68.3775 84V77.35H69.6375V84H68.3775ZM69.0075 76.02C68.7741 76.02 68.5828 75.9453 68.4335 75.796C68.2841 75.6373 68.2095 75.4413 68.2095 75.208C68.2095 74.984 68.2841 74.7973 68.4335 74.648C68.5828 74.4893 68.7741 74.41 69.0075 74.41C69.2408 74.41 69.4321 74.4893 69.5815 74.648C69.7308 74.7973 69.8055 74.984 69.8055 75.208C69.8055 75.4413 69.7308 75.6373 69.5815 75.796C69.4321 75.9453 69.2408 76.02 69.0075 76.02ZM72.5163 84V74.564H73.7763V84H72.5163ZM70.8783 78.498V77.35H75.4143V78.498H70.8783ZM78.8326 84.056L75.9486 77.35H77.3486L79.4906 82.6H79.0426L81.2966 77.35H82.6966L79.5886 84.056H78.8326ZM76.9286 86.786L78.8886 82.768L79.5886 84.056L78.3286 86.786H76.9286ZM90.2521 84.14C89.7481 84.14 89.2908 84.0373 88.8801 83.832C88.4788 83.6173 88.1568 83.3233 87.9141 82.95C87.6715 82.5767 87.5361 82.152 87.5081 81.676V79.674C87.5361 79.1887 87.6715 78.764 87.9141 78.4C88.1661 78.0267 88.4928 77.7373 88.8941 77.532C89.3048 77.3173 89.7575 77.21 90.2521 77.21C90.8588 77.21 91.4048 77.364 91.8901 77.672C92.3848 77.98 92.7721 78.3953 93.0521 78.918C93.3321 79.4407 93.4721 80.0287 93.4721 80.682C93.4721 81.3353 93.3321 81.9233 93.0521 82.446C92.7721 82.9687 92.3848 83.384 91.8901 83.692C91.4048 83.9907 90.8588 84.14 90.2521 84.14ZM90.0421 82.95C90.4621 82.95 90.8308 82.852 91.1481 82.656C91.4655 82.46 91.7175 82.194 91.9041 81.858C92.0908 81.5127 92.1841 81.116 92.1841 80.668C92.1841 80.2293 92.0908 79.8373 91.9041 79.492C91.7175 79.1467 91.4655 78.8807 91.1481 78.694C90.8308 78.498 90.4668 78.4 90.0561 78.4C89.6361 78.4 89.2675 78.498 88.9501 78.694C88.6328 78.8807 88.3855 79.1467 88.2081 79.492C88.0308 79.8373 87.9421 80.234 87.9421 80.682C87.9421 81.1207 88.0261 81.5127 88.1941 81.858C88.3715 82.194 88.6188 82.46 88.9361 82.656C89.2628 82.852 89.6315 82.95 90.0421 82.95ZM86.7521 84V74.004H88.0121V78.974L87.7741 80.584L88.0121 82.208V84H86.7521ZM94.9146 84V77.35H96.1746V84H94.9146ZM95.5446 76.02C95.3112 76.02 95.1199 75.9453 94.9706 75.796C94.8212 75.6373 94.7466 75.4413 94.7466 75.208C94.7466 74.984 94.8212 74.7973 94.9706 74.648C95.1199 74.4893 95.3112 74.41 95.5446 74.41C95.7779 74.41 95.9692 74.4893 96.1186 74.648C96.2679 74.7973 96.3426 74.984 96.3426 75.208C96.3426 75.4413 96.2679 75.6373 96.1186 75.796C95.9692 75.9453 95.7779 76.02 95.5446 76.02ZM98.0314 84V74.004H99.2914V84H98.0314ZM101.135 84V74.004H102.395V84H101.135ZM106.352 84.14C105.979 84.14 105.624 84.0933 105.288 84C104.962 83.8973 104.658 83.7573 104.378 83.58C104.098 83.3933 103.856 83.174 103.65 82.922L104.462 82.11C104.705 82.4087 104.985 82.6327 105.302 82.782C105.62 82.922 105.974 82.992 106.366 82.992C106.758 82.992 107.062 82.9267 107.276 82.796C107.491 82.656 107.598 82.4647 107.598 82.222C107.598 81.9793 107.51 81.7927 107.332 81.662C107.164 81.522 106.945 81.41 106.674 81.326C106.404 81.2327 106.114 81.144 105.806 81.06C105.508 80.9667 105.223 80.85 104.952 80.71C104.682 80.57 104.458 80.3787 104.28 80.136C104.112 79.8933 104.028 79.5713 104.028 79.17C104.028 78.7687 104.126 78.4233 104.322 78.134C104.518 77.8353 104.789 77.6067 105.134 77.448C105.489 77.2893 105.914 77.21 106.408 77.21C106.931 77.21 107.393 77.3033 107.794 77.49C108.205 77.6673 108.541 77.938 108.802 78.302L107.99 79.114C107.804 78.8713 107.57 78.6847 107.29 78.554C107.02 78.4233 106.712 78.358 106.366 78.358C106.002 78.358 105.722 78.4233 105.526 78.554C105.34 78.6753 105.246 78.848 105.246 79.072C105.246 79.296 105.33 79.4687 105.498 79.59C105.666 79.7113 105.886 79.814 106.156 79.898C106.436 79.982 106.726 80.0707 107.024 80.164C107.323 80.248 107.608 80.3647 107.878 80.514C108.149 80.6633 108.368 80.864 108.536 81.116C108.714 81.368 108.802 81.6993 108.802 82.11C108.802 82.7353 108.578 83.23 108.13 83.594C107.692 83.958 107.099 84.14 106.352 84.14ZM115.029 84L112.397 77.35H113.713L115.617 82.53H115.197L117.087 77.35H117.815L119.705 82.53H119.285L121.189 77.35H122.505L119.887 84H119.145L117.227 78.974H117.689L115.757 84H115.029ZM123.53 84V77.35H124.79V84H123.53ZM124.16 76.02C123.926 76.02 123.735 75.9453 123.586 75.796C123.436 75.6373 123.362 75.4413 123.362 75.208C123.362 74.984 123.436 74.7973 123.586 74.648C123.735 74.4893 123.926 74.41 124.16 74.41C124.393 74.41 124.584 74.4893 124.734 74.648C124.883 74.7973 124.958 74.984 124.958 75.208C124.958 75.4413 124.883 75.6373 124.734 75.796C124.584 75.9453 124.393 76.02 124.16 76.02ZM127.669 84V74.564H128.929V84H127.669ZM126.031 78.498V77.35H130.567V78.498H126.031ZM136.505 84V80.122C136.505 79.618 136.346 79.2027 136.029 78.876C135.712 78.5493 135.301 78.386 134.797 78.386C134.461 78.386 134.162 78.4607 133.901 78.61C133.64 78.7593 133.434 78.9647 133.285 79.226C133.136 79.4873 133.061 79.786 133.061 80.122L132.543 79.828C132.543 79.324 132.655 78.876 132.879 78.484C133.103 78.092 133.416 77.784 133.817 77.56C134.218 77.3267 134.671 77.21 135.175 77.21C135.679 77.21 136.122 77.322 136.505 77.546C136.897 77.77 137.205 78.0827 137.429 78.484C137.653 78.8853 137.765 79.3473 137.765 79.87V84H136.505ZM131.801 84V74.004H133.061V84H131.801ZM145.463 84.14C144.8 84.14 144.203 83.9907 143.671 83.692C143.139 83.384 142.719 82.9687 142.411 82.446C142.103 81.9233 141.949 81.3307 141.949 80.668C141.949 80.0147 142.098 79.4267 142.397 78.904C142.705 78.3813 143.116 77.9707 143.629 77.672C144.152 77.364 144.735 77.21 145.379 77.21C145.995 77.21 146.536 77.35 147.003 77.63C147.479 77.91 147.848 78.2973 148.109 78.792C148.38 79.2867 148.515 79.8467 148.515 80.472C148.515 80.5653 148.51 80.668 148.501 80.78C148.492 80.8827 148.473 81.004 148.445 81.144H142.831V80.094H147.773L147.311 80.5C147.311 80.052 147.232 79.674 147.073 79.366C146.914 79.0487 146.69 78.806 146.401 78.638C146.112 78.4607 145.762 78.372 145.351 78.372C144.922 78.372 144.544 78.4653 144.217 78.652C143.89 78.8387 143.638 79.1 143.461 79.436C143.284 79.772 143.195 80.1687 143.195 80.626C143.195 81.0927 143.288 81.5033 143.475 81.858C143.662 82.2033 143.928 82.474 144.273 82.67C144.618 82.8567 145.015 82.95 145.463 82.95C145.836 82.95 146.177 82.8847 146.485 82.754C146.802 82.6233 147.073 82.4273 147.297 82.166L148.109 82.992C147.792 83.3653 147.4 83.65 146.933 83.846C146.476 84.042 145.986 84.14 145.463 84.14ZM152.717 84.14C152.11 84.14 151.56 83.9907 151.065 83.692C150.57 83.384 150.178 82.9687 149.889 82.446C149.609 81.9233 149.469 81.3353 149.469 80.682C149.469 80.0287 149.609 79.4407 149.889 78.918C150.178 78.3953 150.566 77.98 151.051 77.672C151.546 77.364 152.101 77.21 152.717 77.21C153.221 77.21 153.669 77.3173 154.061 77.532C154.462 77.7373 154.784 78.0267 155.027 78.4C155.27 78.764 155.405 79.1887 155.433 79.674V81.676C155.405 82.152 155.27 82.5767 155.027 82.95C154.794 83.3233 154.476 83.6173 154.075 83.832C153.683 84.0373 153.23 84.14 152.717 84.14ZM152.927 82.95C153.552 82.95 154.056 82.74 154.439 82.32C154.822 81.8907 155.013 81.3447 155.013 80.682C155.013 80.2247 154.924 79.828 154.747 79.492C154.579 79.1467 154.336 78.8807 154.019 78.694C153.702 78.498 153.333 78.4 152.913 78.4C152.493 78.4 152.12 78.498 151.793 78.694C151.476 78.89 151.224 79.1607 151.037 79.506C150.86 79.842 150.771 80.2293 150.771 80.668C150.771 81.116 150.86 81.5127 151.037 81.858C151.224 82.194 151.48 82.46 151.807 82.656C152.134 82.852 152.507 82.95 152.927 82.95ZM154.929 84V82.208L155.167 80.584L154.929 78.974V77.35H156.203V84H154.929ZM160.151 84.14C159.778 84.14 159.423 84.0933 159.087 84C158.761 83.8973 158.457 83.7573 158.177 83.58C157.897 83.3933 157.655 83.174 157.449 82.922L158.261 82.11C158.504 82.4087 158.784 82.6327 159.101 82.782C159.419 82.922 159.773 82.992 160.165 82.992C160.557 82.992 160.861 82.9267 161.075 82.796C161.29 82.656 161.397 82.4647 161.397 82.222C161.397 81.9793 161.309 81.7927 161.131 81.662C160.963 81.522 160.744 81.41 160.473 81.326C160.203 81.2327 159.913 81.144 159.605 81.06C159.307 80.9667 159.022 80.85 158.751 80.71C158.481 80.57 158.257 80.3787 158.079 80.136C157.911 79.8933 157.827 79.5713 157.827 79.17C157.827 78.7687 157.925 78.4233 158.121 78.134C158.317 77.8353 158.588 77.6067 158.933 77.448C159.288 77.2893 159.713 77.21 160.207 77.21C160.73 77.21 161.192 77.3033 161.593 77.49C162.004 77.6673 162.34 77.938 162.601 78.302L161.789 79.114C161.603 78.8713 161.369 78.6847 161.089 78.554C160.819 78.4233 160.511 78.358 160.165 78.358C159.801 78.358 159.521 78.4233 159.325 78.554C159.139 78.6753 159.045 78.848 159.045 79.072C159.045 79.296 159.129 79.4687 159.297 79.59C159.465 79.7113 159.685 79.814 159.955 79.898C160.235 79.982 160.525 80.0707 160.823 80.164C161.122 80.248 161.407 80.3647 161.677 80.514C161.948 80.6633 162.167 80.864 162.335 81.116C162.513 81.368 162.601 81.6993 162.601 82.11C162.601 82.7353 162.377 83.23 161.929 83.594C161.491 83.958 160.898 84.14 160.151 84.14ZM167.092 84.14C166.429 84.14 165.832 83.9907 165.3 83.692C164.768 83.384 164.348 82.9687 164.04 82.446C163.732 81.9233 163.578 81.3307 163.578 80.668C163.578 80.0147 163.727 79.4267 164.026 78.904C164.334 78.3813 164.745 77.9707 165.258 77.672C165.781 77.364 166.364 77.21 167.008 77.21C167.624 77.21 168.165 77.35 168.632 77.63C169.108 77.91 169.477 78.2973 169.738 78.792C170.009 79.2867 170.144 79.8467 170.144 80.472C170.144 80.5653 170.139 80.668 170.13 80.78C170.121 80.8827 170.102 81.004 170.074 81.144H164.46V80.094H169.402L168.94 80.5C168.94 80.052 168.861 79.674 168.702 79.366C168.543 79.0487 168.319 78.806 168.03 78.638C167.741 78.4607 167.391 78.372 166.98 78.372C166.551 78.372 166.173 78.4653 165.846 78.652C165.519 78.8387 165.267 79.1 165.09 79.436C164.913 79.772 164.824 80.1687 164.824 80.626C164.824 81.0927 164.917 81.5033 165.104 81.858C165.291 82.2033 165.557 82.474 165.902 82.67C166.247 82.8567 166.644 82.95 167.092 82.95C167.465 82.95 167.806 82.8847 168.114 82.754C168.431 82.6233 168.702 82.4273 168.926 82.166L169.738 82.992C169.421 83.3653 169.029 83.65 168.562 83.846C168.105 84.042 167.615 84.14 167.092 84.14Z" fill="white"/>
<path fill-rule="evenodd" clip-rule="evenodd" d="M404.834 71.4871C415.942 85.1328 427.962 97.9441 433.94 114.392C440.213 131.655 450.463 153.431 439.86 167.863C428 184.004 400.907 175.696 382.686 184.15C371.983 189.115 367.131 201.965 356.288 206.635C344.454 211.73 331.225 210.019 318.379 211.841C296.46 214.952 269.271 237.632 253.772 221.182C238.045 204.489 271.783 178.093 265.881 156.12C260.068 134.472 220.282 127.441 222.68 105.41C224.91 84.9149 259.403 88.622 274.692 75.1687C288.722 62.8229 290.678 39.1696 307.455 30.8125C324.798 22.1735 346.967 22.3966 365.278 30.0452C383.119 37.4971 392.573 56.425 404.834 71.4871Z" fill="#F5F4FF"/>
<path d="M286.569 77.4932C285.113 78.3719 283.465 78.8844 281.767 78.9866C282.163 80.1102 282.458 81.2673 282.647 82.4438L285.563 83.7261L287.336 81.1489C287.177 79.9121 286.92 78.6897 286.569 77.4932Z" fill="#FECFC4"/>
<path d="M305.288 55.3545C297.972 64.4816 291.95 67.9263 287.927 69.2966C289.008 72.163 289.85 74.3002 290.243 76.8775C290.255 76.9026 304.27 71.4339 310.761 60.0709C309.418 58.014 307.521 56.3789 305.288 55.3545Z" fill="#FECFC4"/>
<path d="M284.683 70.1012C284.004 70.212 283.307 70.1292 282.672 69.8623C281.754 70.9309 280.183 71.2955 278.334 71.3584C278.058 71.7467 277.702 72.0722 277.291 72.3138C278.19 73.7375 279.007 75.2107 279.739 76.7265C282.643 76.5505 284.843 76.0225 286.365 74.6647C285.967 73.0885 285.403 71.5587 284.683 70.1012Z" fill="#FECFC4"/>
<path d="M253.505 85.8534C260.822 85.5768 270.213 84.3977 277.303 81.9059C276.323 79.1613 275.081 76.5174 273.595 74.0107C268.158 76.0586 263.849 76.052 252.763 76.8143C255.373 76.6707 255.937 85.5146 253.505 85.8534Z" fill="#FECFC4"/>
<path d="M311.927 53.1151L313.875 54.8752C314.061 55.04 314.304 55.1247 314.551 55.1106C314.799 55.0964 315.03 54.9846 315.196 54.7997L321.18 48.1525C321.345 47.9667 321.43 47.7232 321.417 47.475C321.402 47.2269 321.29 46.9948 321.104 46.8292L316.629 42.793C316.443 42.6277 316.199 42.5425 315.951 42.5561C315.828 42.5631 315.708 42.5943 315.597 42.6479C315.486 42.7014 315.387 42.7764 315.305 42.8684L309.321 49.5196C309.238 49.6113 309.175 49.7183 309.134 49.8346C309.094 49.9509 309.076 50.0741 309.084 50.1971C309.09 50.3201 309.121 50.4405 309.175 50.5514C309.229 50.6623 309.304 50.7614 309.396 50.8429L309.859 51.2578C310.557 50.2243 312.111 48.052 312.614 47.9243C312.967 48.4192 312.586 49.765 312.244 50.9693C311.958 51.9783 311.701 52.8882 311.927 53.1151Z" fill="#FECFC4"/>
<path d="M254.07 77.7446C253.243 77.8517 252.413 77.9314 251.581 77.9834C252.185 76.5383 253.241 76.412 254.07 77.7446Z" fill="#6153BD"/>
<path d="M254.636 84.6717C253.97 86.3187 252.788 86.2307 251.946 84.6089C253.04 84.6109 254.008 84.634 254.636 84.6717Z" fill="#6153BD"/>
<path d="M320.589 94.8666C320.397 94.4492 320.086 94.098 319.695 93.8573C319.303 93.6166 318.85 93.4972 318.391 93.5143C317.932 93.5314 317.488 93.6841 317.116 93.9532C316.743 94.2222 316.459 94.5956 316.299 95.0261C316.18 95.3482 316.133 95.6927 316.163 96.0348C316.193 96.377 316.298 96.7083 316.471 97.0049C316.644 97.3015 316.881 97.556 317.165 97.7502C317.448 97.9443 317.771 98.0733 318.11 98.1277C318.449 98.1821 318.796 98.1607 319.126 98.065C319.456 97.9693 319.76 97.8016 320.017 97.5741C320.275 97.3466 320.478 97.0649 320.614 96.7492C320.749 96.4336 320.813 96.0919 320.8 95.7486C320.789 95.4435 320.717 95.1437 320.589 94.8666Z" fill="#6153BD"/>
<path d="M285.865 95.1816C285.211 96.9166 284.541 98.576 283.813 100.185C284.251 101.547 284.736 102.894 285.269 104.221C284.809 100.286 285.877 95.1975 285.865 95.1816Z" fill="#6153BD"/>
<path d="M280.848 49.9351C278.842 49.9372 276.918 50.7352 275.499 52.1541C274.08 53.5729 273.282 55.4967 273.28 57.5033C273.265 58.6393 273.464 59.768 273.865 60.8309C272.88 59.0828 271.318 57.7314 269.446 57.008C267.574 56.2845 265.51 56.2338 263.605 56.8647C261.7 57.4956 260.073 58.7687 259.004 60.4664C257.934 62.164 257.487 64.1807 257.74 66.1713C257.993 68.1619 258.93 70.0028 260.39 71.379C261.85 72.7553 263.743 73.5813 265.745 73.7158C267.748 73.8503 269.734 73.2849 271.365 72.1164C272.997 70.9479 274.171 69.2489 274.688 67.31C275.782 67.9134 277.253 67.9889 278.195 68.6552C278.041 68.3468 277.426 67.2293 277.064 67.1843C274.615 67.0334 274.7 64.8082 276.121 65.2105C276.8 65.3991 276.963 65.2482 276.849 64.9088C276.006 63.0852 276.685 58.6116 280.293 62.3686C281.076 63.1201 281.741 63.9848 282.267 64.9339C284.118 64.5817 285.771 63.5515 286.902 62.0449C288.033 60.5383 288.562 58.6637 288.384 56.788C288.206 54.9124 287.335 53.1705 285.941 51.9031C284.547 50.6357 282.73 49.9339 280.846 49.9351H280.848Z" fill="#6153BD"/>
<path d="M281.163 68.1274C280.723 68.2532 280.273 68.3418 279.817 68.3921L281.942 69.423C281.526 69.1064 281.248 68.6429 281.163 68.1274Z" fill="#6153BD"/>
<path d="M333.362 79.027C333.499 79.3419 333.727 79.6089 334.017 79.7939C334.307 79.9789 334.645 80.0735 334.988 80.0658C335.245 80.0607 335.498 79.9987 335.728 79.8842C335.958 79.7696 336.159 79.6055 336.318 79.4035C336.477 79.2016 336.589 78.9669 336.646 78.7164C336.703 78.4659 336.704 78.2059 336.648 77.9551C336.593 77.7042 336.483 77.4688 336.326 77.2657C336.169 77.0626 335.968 76.8969 335.739 76.7806C335.51 76.6642 335.258 76.6002 335.002 76.593C334.745 76.5858 334.49 76.6356 334.254 76.7389C334.045 76.8302 333.856 76.9618 333.698 77.1263C333.54 77.2908 333.416 77.4849 333.333 77.6975C333.25 77.9101 333.21 78.137 333.215 78.3652C333.22 78.5933 333.27 78.8182 333.362 79.027Z" fill="#6153BD"/>
<path d="M304.546 111.789L328.622 100.764C329.89 100.181 330.875 99.119 331.361 97.8108C331.846 96.5025 331.793 95.0551 331.212 93.7862L314.278 56.8125" stroke="#120071" stroke-width="0.769171" stroke-linecap="round" stroke-linejoin="round"/>
<path d="M309.097 50.1619C307.927 49.8589 306.688 49.9699 305.59 50.4762L288.394 58.3495" stroke="#120071" stroke-width="0.769171" stroke-linecap="round" stroke-linejoin="round"/>
<path d="M247.433 77.1034L260.266 71.2271" stroke="#120071" stroke-width="0.769171" stroke-linecap="round" stroke-linejoin="round"/>
<path d="M242.102 79.5425L240.757 80.1585C239.489 80.7411 238.504 81.8031 238.018 83.1113C237.533 84.4195 237.586 85.8669 238.167 87.1359L248.401 109.463" stroke="#120071" stroke-width="0.769171" stroke-linecap="round" stroke-linejoin="round"/>
<path d="M296.236 97.8443L303.377 94.5756C303.655 94.4464 303.87 94.2126 303.976 93.9253C304.082 93.638 304.07 93.3204 303.943 93.0418L303.252 91.5081C303.122 91.2304 302.889 91.0151 302.601 90.9091C302.314 90.8031 301.996 90.815 301.718 90.9423L294.414 94.2864" stroke="#120071" stroke-width="0.769171" stroke-linecap="round" stroke-linejoin="round"/>
<path d="M284.821 103.077L281.666 104.522" stroke="#120071" stroke-width="0.769171" stroke-linecap="round" stroke-linejoin="round"/>
<path d="M281.15 68.1396C281.236 68.534 281.423 68.8996 281.692 69.201C281.96 69.5024 282.302 69.7293 282.684 69.8599C283.319 70.1279 284.016 70.2106 284.696 70.0988C292.918 68.8244 300.08 61.8391 305.288 55.3521C307.52 56.3763 309.416 58.0107 310.758 60.0665C304.27 71.4314 290.252 76.9002 290.24 76.873" stroke="#120071" stroke-width="0.769171" stroke-linecap="round" stroke-linejoin="round"/>
<path d="M279.805 68.3911C279.805 68.3911 285.863 68.1158 280.409 62.4823C276.664 58.6142 275.997 62.9673 276.812 64.8372C277.04 65.3606 276.617 65.3388 276.109 65.1978C274.686 64.8008 274.6 67.0207 277.052 67.1716C277.248 67.2755 277.42 67.4217 277.555 67.599C279.225 70.0347 279.177 71.4718 276.423 72.7786C269.321 76.1492 265.36 75.9216 252.763 76.8148" stroke="#120071" stroke-width="0.769171" stroke-linecap="round" stroke-linejoin="round"/>
<path d="M279.817 68.3911L281.929 69.422" stroke="#120071" stroke-width="0.769171" stroke-linecap="round" stroke-linejoin="round"/>
<path d="M253.492 85.8533C260.809 85.5767 270.2 84.3976 277.291 81.9058" stroke="#120071" stroke-width="0.769171" stroke-linecap="round" stroke-linejoin="round"/>
<path d="M254.071 77.7447C251.126 78.1258 248.148 78.1635 245.195 77.8578C244.289 77.7313 243.394 77.538 242.517 77.2795C241.508 77.0032 240.517 76.663 239.55 76.2612C236.885 75.1655 236.231 75.6578 238.732 77.5687C241.525 79.4197 244.558 80.8791 247.747 81.906" stroke="#120071" stroke-width="0.769171" stroke-linecap="round" stroke-linejoin="round"/>
<path d="M254.636 84.6716C252.69 84.5551 246.146 84.5392 244.214 84.7219C240.819 85.0487 241.964 84.2944 243.023 83.6533C243.789 83.1901 247.398 82.2829 246.078 81.3374" stroke="#120071" stroke-width="0.769171" stroke-linecap="round" stroke-linejoin="round"/>
<path d="M242.079 77.1411C241.501 76.7137 240.37 75.7198 240.042 75.4313C238.537 74.108 239.011 73.7831 239.301 73.9095C240.459 74.4196 242.242 75.4558 243.337 75.9084C245.097 76.6362 248.441 78.0959 250.1 78.0582" stroke="#120071" stroke-width="0.769171" stroke-linecap="round" stroke-linejoin="round"/>
<path d="M243.221 75.8715C243.007 75.6068 242.819 75.3931 242.718 75.268C241.458 73.7137 241.964 73.4703 242.228 73.6463C243.287 74.3503 244.883 75.6538 245.886 76.2738C247.094 76.9848 248.365 77.5828 249.683 78.0603" stroke="#120071" stroke-width="0.769171" stroke-linecap="round" stroke-linejoin="round"/>
<path d="M251.581 77.9837C252.555 75.6493 254.527 76.9839 254.995 80.645C255.544 84.9459 253.483 87.5707 251.946 84.6091" stroke="#120071" stroke-width="0.769171" stroke-linecap="round" stroke-linejoin="round"/>
<path d="M311.927 53.1152C311.464 52.4992 312.555 50.1106 312.668 49.3814C312.857 48.1619 313.012 46.7942 311.084 49.6203C309.541 51.7727 307.875 53.8337 306.093 55.793" stroke="#120071" stroke-width="0.769171" stroke-linecap="round" stroke-linejoin="round"/>
<path d="M311.927 53.1151L313.875 54.8751C314.061 55.04 314.304 55.1247 314.551 55.1105C314.799 55.0964 315.03 54.9846 315.195 54.7997L321.18 48.1525C321.345 47.9667 321.43 47.7232 321.417 47.475C321.402 47.2269 321.29 46.9948 321.104 46.8292L316.629 42.793C316.443 42.6277 316.199 42.5426 315.951 42.5561C315.828 42.563 315.708 42.5941 315.597 42.6477C315.486 42.7013 315.387 42.7763 315.305 42.8684L309.32 49.5196C309.196 49.6576 309.116 49.8295 309.091 50.0132C309.065 50.197 309.094 50.3842 309.176 50.5511C309.229 50.6616 309.304 50.7609 309.396 50.8429L309.859 51.2578" stroke="#120071" stroke-width="0.769171" stroke-linecap="round" stroke-linejoin="round"/>
<path d="M310.468 59.6411C312.43 57.5416 321.849 52.4467 320.601 52.2614C319.14 52.0438 316.511 53.4955 316.226 53.6549" stroke="#120071" stroke-width="0.769171" stroke-linecap="round" stroke-linejoin="round"/>
<path d="M318.355 52.6698C318.652 52.4766 319.869 51.6899 320.878 51.1427C321.886 50.5955 319.696 50.5769 318.389 51.2558" stroke="#120071" stroke-width="0.769171" stroke-linecap="round" stroke-linejoin="round"/>
<path d="M313.494 54.5323C313.318 54.4343 312.318 53.9593 310.354 54.5495" stroke="#120071" stroke-width="0.769171" stroke-linecap="round" stroke-linejoin="round"/>
<path d="M323.618 93.4845C323.809 93.9023 323.872 94.3673 323.8 94.8209C323.727 95.2745 323.521 95.6963 323.209 96.0332C322.816 96.4544 322.281 96.7147 321.707 96.7636C321.133 96.8125 320.561 96.6466 320.103 96.298C319.644 95.9494 319.332 95.4429 319.225 94.8769C319.119 94.3108 319.227 93.7255 319.528 93.2344C319.769 92.843 320.12 92.5319 320.538 92.3404C320.955 92.1466 321.421 92.0818 321.876 92.1544C322.33 92.2271 322.752 92.4338 323.088 92.748C323.312 92.9565 323.492 93.2066 323.618 93.4845Z" stroke="#120071" stroke-width="0.769171" stroke-linecap="round" stroke-linejoin="round"/>
<path d="M320.589 94.8668C320.78 95.2846 320.843 95.7496 320.77 96.2032C320.697 96.6568 320.491 97.0787 320.179 97.4156C319.866 97.7523 319.461 97.9886 319.014 98.0945C318.567 98.2014 318.098 98.173 317.667 98.013C317.236 97.8531 316.863 97.5686 316.594 97.1959C316.392 96.9177 316.255 96.5982 316.192 96.2604C316.129 95.9226 316.141 95.5751 316.229 95.2428C316.316 94.9105 316.476 94.6018 316.698 94.3389C316.919 94.0761 317.196 93.8656 317.508 93.7228C318.069 93.4712 318.707 93.4501 319.283 93.6642C319.859 93.8782 320.328 94.3101 320.589 94.8668Z" stroke="#120071" stroke-width="0.769171" stroke-linecap="round" stroke-linejoin="round"/>
<path d="M317.559 96.2628C317.75 96.6806 317.813 97.1456 317.74 97.5992C317.667 98.0528 317.462 98.4747 317.149 98.8116C316.837 99.1483 316.431 99.3846 315.984 99.4904C315.537 99.5973 315.068 99.569 314.637 99.409C314.207 99.249 313.833 98.9646 313.564 98.5919C313.363 98.3137 313.225 97.9941 313.162 97.6564C313.099 97.3186 313.112 96.9711 313.199 96.6388C313.287 96.3065 313.447 95.9978 313.668 95.7349C313.889 95.4721 314.166 95.2616 314.479 95.1187C314.896 94.9249 315.362 94.8601 315.816 94.9328C316.27 95.0054 316.693 95.2121 317.029 95.5263C317.252 95.7348 317.432 95.9849 317.559 96.2628Z" stroke="#120071" stroke-width="0.769171" stroke-linecap="round" stroke-linejoin="round"/>
<path d="M258.182 90.169C258.987 89.8022 259.905 89.7695 260.734 90.0782C261.564 90.3869 262.237 91.0117 262.607 91.8159L264.581 96.1406C264.947 96.946 264.98 97.864 264.671 98.6934C264.363 99.5229 263.738 100.196 262.934 100.566L256.748 103.395C255.943 103.762 255.025 103.794 254.195 103.486C253.366 103.177 252.693 102.552 252.323 101.748L250.338 97.4229C249.971 96.6175 249.938 95.6994 250.247 94.8699C250.556 94.0404 251.181 93.3671 251.985 92.9976L258.182 90.169Z" stroke="#120071" stroke-width="0.769171" stroke-linecap="round" stroke-linejoin="round"/>
<path d="M319.47 87.211C319.747 87.0815 319.962 86.8478 320.068 86.5605C320.174 86.2733 320.163 85.9558 320.036 85.6772L319.344 84.1435C319.215 83.8654 318.982 83.6498 318.694 83.5437C318.407 83.4377 318.089 83.4499 317.81 83.5777L306.118 88.9208C305.841 89.0502 305.625 89.284 305.52 89.5712C305.414 89.8585 305.425 90.1759 305.552 90.4545L306.244 91.9883C306.373 92.266 306.607 92.4813 306.894 92.5873C307.181 92.6933 307.499 92.6813 307.777 92.554L319.47 87.211Z" stroke="#120071" stroke-width="0.769171" stroke-linecap="round" stroke-linejoin="round"/>
<path d="M333.362 79.027C333.499 79.3419 333.727 79.6089 334.017 79.7939C334.307 79.9789 334.645 80.0735 334.988 80.0658C335.245 80.0607 335.498 79.9987 335.728 79.8842C335.958 79.7696 336.159 79.6055 336.318 79.4035C336.477 79.2016 336.589 78.9669 336.646 78.7164C336.703 78.4659 336.704 78.2059 336.648 77.9551C336.593 77.7042 336.483 77.4688 336.326 77.2657C336.169 77.0626 335.968 76.8969 335.739 76.7806C335.51 76.6642 335.258 76.6002 335.002 76.593C334.745 76.5858 334.49 76.6356 334.254 76.7389C334.045 76.8302 333.856 76.9618 333.698 77.1263C333.54 77.2908 333.416 77.4849 333.333 77.6975C333.25 77.9101 333.21 78.137 333.215 78.3652C333.22 78.5933 333.27 78.8182 333.362 79.027Z" stroke="#120071" stroke-width="0.769171" stroke-linecap="round" stroke-linejoin="round"/>
<path d="M344.01 69.5605L331.111 73.7217L325.957 68.6679L342.879 61.2002" stroke="#120071" stroke-width="0.769171" stroke-linecap="round" stroke-linejoin="round"/>
<path d="M283.823 100.209C284.551 98.6002 285.213 96.9169 285.865 95.1807C285.877 95.1932 284.806 100.285 285.274 104.22" stroke="#120071" stroke-width="0.769171" stroke-linecap="round" stroke-linejoin="round"/>
<path d="M273.582 74.0108C276.788 79.203 278.435 85.5518 278.988 86.5575C282.181 88.3553 288.178 86.8467 290.127 84.722C291.003 77.7857 290.193 75.2978 287.926 69.2964" stroke="#120071" stroke-width="0.769171" stroke-linecap="round" stroke-linejoin="round"/>
<path d="M278.988 86.5575C276.335 89.2982 273.368 86.3312 269.584 106.408C260.997 106.357 257.88 107.074 249.834 108.017C248.413 112.583 248.815 117.484 250.5 122.601L272.124 115.497C273.642 114.996 274.989 114.077 276.008 112.845C279.177 109.008 281.806 104.756 283.823 100.207C286.53 108.779 293.833 121.767 298.587 129.275C305.866 129.275 311.914 128.031 316.717 125.504C303.881 115.573 292.632 91.2706 290.127 84.7207" stroke="#120071" stroke-width="0.769171" stroke-linecap="round" stroke-linejoin="round"/>
<path d="M277.291 72.3137C278.192 73.7387 279.014 75.2118 279.755 76.7265C282.659 76.5505 284.859 76.0224 286.38 74.6647C285.981 73.0876 285.416 71.5573 284.695 70.0991" stroke="#120071" stroke-width="0.769171" stroke-linecap="round" stroke-linejoin="round"/>
<path d="M287.337 81.1518L285.565 83.729L282.646 82.4467C282.458 81.2689 282.163 80.111 281.766 78.9868C283.464 78.8837 285.112 78.3704 286.569 77.4907C286.921 78.6884 287.178 79.9131 287.337 81.1518Z" stroke="#120071" stroke-width="0.769171" stroke-linecap="round" stroke-linejoin="round"/>
<path d="M278.347 71.371C280.195 71.3082 281.766 70.9436 282.684 69.875" stroke="#120071" stroke-width="0.769171" stroke-linecap="round" stroke-linejoin="round"/>
<path d="M282.256 64.9212C283.31 64.7195 284.31 64.2956 285.188 63.6778C286.066 63.06 286.803 62.2625 287.349 61.3381C287.895 60.4137 288.238 59.3837 288.356 58.3165C288.473 57.2493 288.362 56.1693 288.03 55.1483C287.472 53.4359 286.322 51.9787 284.785 51.0386C283.249 50.0985 281.428 49.7371 279.649 50.0193C277.87 50.3015 276.251 51.2089 275.081 52.5784C273.911 53.9478 273.268 55.6896 273.268 57.4906C273.251 58.6267 273.45 59.7557 273.856 60.8169C272.868 59.0717 271.304 57.724 269.432 57.0043C267.56 56.2845 265.497 56.2373 263.594 56.8707C261.691 57.5042 260.067 58.779 259 60.4771C257.933 62.1752 257.489 64.1913 257.743 66.1806C257.998 68.17 258.936 70.009 260.397 71.3834C261.858 72.7577 263.75 73.582 265.751 73.7154C267.752 73.8488 269.738 73.2829 271.368 72.1145C272.998 70.9461 274.172 69.2478 274.688 67.3099C275.782 67.9133 277.253 67.9888 278.195 68.6551" stroke="#120071" stroke-width="0.769171" stroke-linecap="round" stroke-linejoin="round"/>
<path d="M241.172 53.9463C241.319 54.2696 241.366 54.6292 241.309 54.9795C241.251 55.3298 241.091 55.6552 240.848 55.9145C240.606 56.1738 240.292 56.3554 239.946 56.4362C239.6 56.5171 239.239 56.4936 238.906 56.3688C238.574 56.244 238.286 56.0234 238.079 55.735C237.872 55.4465 237.755 55.1032 237.743 54.7484C237.731 54.3935 237.825 54.0431 238.012 53.7415C238.199 53.4399 238.472 53.2005 238.795 53.0537C239.01 52.955 239.242 52.8998 239.478 52.8913C239.713 52.8828 239.949 52.9211 240.17 53.0041C240.391 53.0872 240.593 53.2132 240.765 53.3749C240.937 53.5366 241.075 53.7309 241.172 53.9463Z" stroke="#120071" stroke-width="0.769171" stroke-linecap="round" stroke-linejoin="round"/>
<path d="M247.269 56.1964C247.416 56.5197 247.463 56.8792 247.406 57.2296C247.348 57.58 247.188 57.9054 246.946 58.1648C246.703 58.4241 246.389 58.6057 246.043 58.6865C245.698 58.7674 245.336 58.7439 245.003 58.619C244.671 58.4942 244.383 58.2735 244.176 57.985C243.969 57.6965 243.852 57.3531 243.84 56.9982C243.829 56.6434 243.922 56.293 244.11 55.9913C244.297 55.6897 244.57 55.4504 244.893 55.3038C245.107 55.2052 245.339 55.1502 245.575 55.1418C245.811 55.1333 246.046 55.1717 246.267 55.2547C246.488 55.3377 246.69 55.4637 246.862 55.6253C247.034 55.7869 247.172 55.981 247.269 56.1964Z" stroke="#120071" stroke-width="0.769171" stroke-linecap="round" stroke-linejoin="round"/>
<path d="M240.518 61.2125L244.629 50.3379" stroke="#120071" stroke-width="0.769171" stroke-linecap="round" stroke-linejoin="round"/>
<path d="M308.683 72.54C309.065 72.8023 309.37 73.1621 309.567 73.5821C309.764 74.002 309.845 74.4669 309.802 74.9287" stroke="#120071" stroke-width="0.769171" stroke-linecap="round" stroke-linejoin="round"/>
<path d="M310.028 70.5171C310.721 71.0853 311.278 71.8013 311.659 72.6126C312.04 73.424 312.234 74.3102 312.229 75.2064" stroke="#120071" stroke-width="0.769171" stroke-linecap="round" stroke-linejoin="round"/>
<path d="M311.489 68.2529C313.474 70.193 314.685 72.7894 314.896 75.5572" stroke="#120071" stroke-width="0.769171" stroke-linecap="round" stroke-linejoin="round"/>
<path d="M297.167 42.6309L295.013 43.6075C294.81 43.6856 294.637 43.8243 294.516 44.0046C294.395 44.1849 294.332 44.3981 294.337 44.6152C294.34 44.7592 294.372 44.901 294.432 45.0321C294.492 45.1632 294.577 45.2809 294.683 45.3781C294.844 45.5244 295.045 45.6176 295.261 45.6452C295.476 45.6728 295.695 45.6334 295.887 45.5323L297.094 44.9838C297.346 44.8763 297.63 44.8716 297.886 44.9707C298.142 45.0699 298.348 45.265 298.462 45.5145C298.576 45.764 298.587 46.048 298.495 46.306C298.402 46.564 298.212 46.7755 297.965 46.8954L295.797 47.8879" stroke="#120071" stroke-width="0.769171" stroke-linecap="round" stroke-linejoin="round"/>
<path d="M295.281 42.6309L297.682 47.8865" stroke="#120071" stroke-width="0.769171" stroke-linecap="round" stroke-linejoin="round"/>
<path d="M227.858 91.6247C227.711 91.345 227.463 91.1318 227.165 91.0288C226.866 90.9257 226.54 90.9405 226.252 91.0702C225.964 91.2006 225.737 91.4362 225.617 91.7286C225.497 92.0211 225.494 92.3482 225.608 92.643L226.161 93.8751" stroke="#120071" stroke-width="0.769171" stroke-linecap="round" stroke-linejoin="round"/>
<path d="M234.822 96.9667C235.166 96.8372 235.451 96.5878 235.625 96.2645C235.799 95.9412 235.85 95.5659 235.769 95.2079C235.688 94.8498 235.48 94.5332 235.184 94.3165C234.887 94.0998 234.523 93.9976 234.157 94.0289C233.95 94.0449 233.748 94.1035 233.565 94.2009C228.511 95.4078 226.776 95.2318 226.16 93.874C226.776 95.2318 225.758 96.6531 221.534 99.6696C221.191 99.8511 220.931 100.157 220.806 100.523C220.681 100.89 220.701 101.291 220.861 101.644C221.021 101.997 221.31 102.275 221.669 102.423C222.028 102.57 222.429 102.574 222.791 102.435L234.822 96.9667Z" stroke="#120071" stroke-width="0.769171" stroke-linecap="round" stroke-linejoin="round"/>
</g>
<defs>
<clipPath id="clip0_940_4794">
<rect width="335" height="105" rx="8" fill="white"/>
</clipPath>
</defs>
</svg>
