<svg width="16" height="16" viewBox="0 0 16 16" fill="none" xmlns="http://www.w3.org/2000/svg">
<path d="M11.633 15.1667C10.8797 15.1667 10.0863 14.9867 9.26634 14.64C8.46634 14.3 7.65967 13.8333 6.87301 13.2667C6.09301 12.6933 5.33967 12.0533 4.62634 11.3533C3.91967 10.64 3.27967 9.88666 2.71301 9.11333C2.13967 8.31333 1.67967 7.51333 1.35301 6.73999C1.00634 5.91333 0.833008 5.11333 0.833008 4.35999C0.833008 3.83999 0.926341 3.34666 1.10634 2.88666C1.29301 2.41333 1.59301 1.97333 1.99967 1.59333C2.51301 1.08666 3.09967 0.833328 3.72634 0.833328C3.98634 0.833328 4.25301 0.893328 4.47967 0.999995C4.73967 1.11999 4.95967 1.29999 5.11967 1.53999L6.66634 3.71999C6.80634 3.91333 6.91301 4.09999 6.98634 4.28666C7.07301 4.48666 7.11967 4.68666 7.11967 4.88C7.11967 5.13333 7.04634 5.38 6.90634 5.61333C6.80634 5.79333 6.65301 5.98666 6.45967 6.18L6.00634 6.65333C6.01301 6.67333 6.01967 6.68666 6.02634 6.7C6.10634 6.84 6.26634 7.07999 6.57301 7.44C6.89967 7.81333 7.20634 8.15333 7.51301 8.46666C7.90634 8.85333 8.23301 9.16 8.53967 9.41333C8.91967 9.73333 9.16634 9.89333 9.31301 9.96666L9.29967 10L9.78634 9.51999C9.99301 9.31333 10.193 9.16 10.3863 9.06C10.753 8.83333 11.2197 8.79333 11.6863 8.98666C11.8597 9.05999 12.0463 9.16 12.2463 9.3L14.4597 10.8733C14.7063 11.04 14.8863 11.2533 14.993 11.5067C15.093 11.76 15.1397 11.9933 15.1397 12.2267C15.1397 12.5467 15.0663 12.8667 14.9263 13.1667C14.7863 13.4667 14.613 13.7267 14.393 13.9667C14.013 14.3867 13.5997 14.6867 13.1197 14.88C12.6597 15.0667 12.1597 15.1667 11.633 15.1667ZM3.72634 1.83333C3.35967 1.83333 3.01967 1.99333 2.69301 2.31333C2.38634 2.59999 2.17301 2.91333 2.03967 3.25333C1.89967 3.6 1.83301 3.96666 1.83301 4.35999C1.83301 4.98 1.97967 5.65333 2.27301 6.34666C2.57301 7.05333 2.99301 7.78666 3.52634 8.51999C4.05967 9.25333 4.66634 9.96666 5.33301 10.64C5.99967 11.3 6.71967 11.9133 7.45967 12.4533C8.17967 12.98 8.91967 13.4067 9.65301 13.7133C10.793 14.2 11.8597 14.3133 12.7397 13.9467C13.0797 13.8067 13.3797 13.5933 13.653 13.2867C13.8063 13.12 13.9263 12.94 14.0263 12.7267C14.1063 12.56 14.1463 12.3867 14.1463 12.2133C14.1463 12.1067 14.1263 12 14.073 11.88C14.053 11.84 14.013 11.7667 13.8863 11.68L11.673 10.1067C11.5397 10.0133 11.4197 9.94666 11.3063 9.9C11.1597 9.84 11.0997 9.78 10.873 9.92C10.7397 9.98666 10.6197 10.0867 10.4863 10.22L9.97967 10.72C9.71967 10.9733 9.31968 11.0333 9.01301 10.92L8.83301 10.84C8.55967 10.6933 8.23967 10.4667 7.88634 10.1667C7.56634 9.89333 7.21967 9.57333 6.79967 9.16C6.47301 8.82666 6.14634 8.47333 5.80634 8.08C5.49301 7.71333 5.26634 7.4 5.12634 7.14L5.04634 6.93999C5.00634 6.78666 4.99301 6.69999 4.99301 6.60666C4.99301 6.36666 5.07967 6.15333 5.24634 5.98666L5.74634 5.46666C5.87967 5.33333 5.97967 5.20666 6.04634 5.09333C6.09967 5.00666 6.11967 4.93333 6.11967 4.86666C6.11967 4.81333 6.09967 4.73333 6.06634 4.65333C6.01967 4.54666 5.94634 4.42666 5.85301 4.29999L4.30634 2.11333C4.23967 2.01999 4.15967 1.95333 4.05967 1.90666C3.95301 1.85999 3.83967 1.83333 3.72634 1.83333ZM9.29967 10.0067L9.19301 10.46L9.37301 9.99333C9.33968 9.98666 9.31301 9.99333 9.29967 10.0067Z" fill="#465064"/>
</svg>
