<svg width="36" height="36" viewBox="0 0 36 36" fill="none" xmlns="http://www.w3.org/2000/svg">
<g style="mix-blend-mode:multiply">
<rect x="2" y="2" width="32" height="32" rx="16" fill="#FDECEE"/>
<rect x="2" y="2" width="32" height="32" rx="16" stroke="#F3F5FA" stroke-width="4"/>
<path d="M17.6399 19.1533C18.6745 19.1533 19.5133 18.3146 19.5133 17.28C19.5133 16.2454 18.6745 15.4066 17.6399 15.4066C16.6053 15.4066 15.7666 16.2454 15.7666 17.28C15.7666 18.3146 16.6053 19.1533 17.6399 19.1533Z" stroke="#465064" stroke-width="1.5" stroke-linecap="round" stroke-linejoin="round"/>
<path d="M21.0997 23.4667C21.0997 21.9133 19.553 20.6466 17.6397 20.6466C15.7264 20.6466 14.1797 21.9067 14.1797 23.4667" stroke="#465064" stroke-width="1.5" stroke-linecap="round" stroke-linejoin="round"/>
<path d="M23.9997 18.3333C23.9997 21.8333 21.1663 24.6667 17.6663 24.6667C14.1663 24.6667 11.333 21.8333 11.333 18.3333C11.333 14.8333 14.1663 12 17.6663 12C18.5397 12 19.373 12.1733 20.133 12.4933C20.0463 12.76 19.9997 13.04 19.9997 13.3333C19.9997 13.8333 20.1397 14.3067 20.3863 14.7067C20.5197 14.9333 20.693 15.14 20.893 15.3133C21.3597 15.74 21.9797 16 22.6663 16C22.9597 16 23.2397 15.9533 23.4997 15.86C23.8197 16.62 23.9997 17.46 23.9997 18.3333Z" stroke="#465064" stroke-width="1.5" stroke-linecap="round" stroke-linejoin="round"/>
<path d="M25.3333 13.3333C25.3333 13.5467 25.3067 13.7533 25.2533 13.9533C25.1933 14.22 25.0867 14.48 24.9467 14.7067C24.6267 15.2467 24.1133 15.6666 23.5 15.86C23.24 15.9533 22.96 16 22.6667 16C21.98 16 21.36 15.74 20.8933 15.3133C20.6933 15.14 20.52 14.9333 20.3867 14.7067C20.14 14.3067 20 13.8333 20 13.3333C20 13.04 20.0467 12.76 20.1333 12.4933C20.26 12.1067 20.4733 11.76 20.7533 11.4733C21.24 10.9733 21.92 10.6667 22.6667 10.6667C23.4533 10.6667 24.1667 11.0067 24.6467 11.5533C25.0733 12.0267 25.3333 12.6533 25.3333 13.3333Z" stroke="#465064" stroke-width="1.5" stroke-miterlimit="10" stroke-linecap="round" stroke-linejoin="round"/>
<path d="M23.6595 13.32H21.6729" stroke="#465064" stroke-width="1.5" stroke-miterlimit="10" stroke-linecap="round" stroke-linejoin="round"/>
<path d="M22.666 12.3467V14.34" stroke="#465064" stroke-width="1.5" stroke-miterlimit="10" stroke-linecap="round" stroke-linejoin="round"/>
</g>
</svg>
