<svg width="64" height="64" viewBox="0 0 64 64" fill="none" xmlns="http://www.w3.org/2000/svg">
<circle cx="32" cy="32" r="32" fill="#1A202C"/>
<path d="M36 42.75H28C24.35 42.75 22.25 40.65 22.25 37V27C22.25 23.35 24.35 21.25 28 21.25H36C39.65 21.25 41.75 23.35 41.75 27V37C41.75 40.65 39.65 42.75 36 42.75ZM28 22.75C25.14 22.75 23.75 24.14 23.75 27V37C23.75 39.86 25.14 41.25 28 41.25H36C38.86 41.25 40.25 39.86 40.25 37V27C40.25 24.14 38.86 22.75 36 22.75H28Z" fill="white"/>
<path d="M38.5 29.25H36.5C34.98 29.25 33.75 28.02 33.75 26.5V24.5C33.75 24.09 34.09 23.75 34.5 23.75C34.91 23.75 35.25 24.09 35.25 24.5V26.5C35.25 27.19 35.81 27.75 36.5 27.75H38.5C38.91 27.75 39.25 28.09 39.25 28.5C39.25 28.91 38.91 29.25 38.5 29.25Z" fill="white"/>
<path d="M32 33.75H28C27.59 33.75 27.25 33.41 27.25 33C27.25 32.59 27.59 32.25 28 32.25H32C32.41 32.25 32.75 32.59 32.75 33C32.75 33.41 32.41 33.75 32 33.75Z" fill="white"/>
<path d="M36 37.75H28C27.59 37.75 27.25 37.41 27.25 37C27.25 36.59 27.59 36.25 28 36.25H36C36.41 36.25 36.75 36.59 36.75 37C36.75 37.41 36.41 37.75 36 37.75Z" fill="white"/>
</svg>
