<svg width="64" height="64" viewBox="0 0 64 64" fill="none" xmlns="http://www.w3.org/2000/svg">
<circle cx="32" cy="32" r="32" fill="#1A202C"/>
<path d="M38.5 40.25H34.5C34.09 40.25 33.75 39.91 33.75 39.5C33.75 39.09 34.09 38.75 34.5 38.75H38.5C38.91 38.75 39.25 39.09 39.25 39.5C39.25 39.91 38.91 40.25 38.5 40.25Z" fill="white"/>
<path d="M36.5 42.25C36.09 42.25 35.75 41.91 35.75 41.5V37.5C35.75 37.09 36.09 36.75 36.5 36.75C36.91 36.75 37.25 37.09 37.25 37.5V41.5C37.25 41.91 36.91 42.25 36.5 42.25Z" fill="white"/>
<path d="M32.1597 31.62C32.1297 31.62 32.1097 31.62 32.0797 31.62C32.0297 31.61 31.9597 31.61 31.8997 31.62C28.9997 31.53 26.8097 29.25 26.8097 26.44C26.7997 25.06 27.3397 23.76 28.3197 22.78C29.2997 21.8 30.5997 21.25 31.9897 21.25C34.8497 21.25 37.1797 23.58 37.1797 26.44C37.1797 29.25 34.9897 31.52 32.1897 31.62C32.1797 31.62 32.1697 31.62 32.1597 31.62ZM31.9897 22.75C30.9997 22.75 30.0797 23.14 29.3797 23.83C28.6897 24.53 28.3097 25.45 28.3097 26.43C28.3097 28.43 29.8697 30.05 31.8597 30.11C31.9197 30.1 32.0497 30.1 32.1797 30.11C34.1497 30.02 35.6797 28.41 35.6797 26.43C35.6797 24.41 34.0197 22.75 31.9897 22.75Z" fill="white"/>
<path d="M31.9902 42.5601C29.9502 42.5601 28.0202 42.0301 26.5602 41.0501C25.1702 40.1201 24.4102 38.8501 24.4102 37.4801C24.4102 36.1101 25.1802 34.8501 26.5602 33.9301C29.5502 31.9301 34.4102 31.9301 37.4002 33.9301C37.7402 34.1601 37.8402 34.6301 37.6102 34.9701C37.3802 35.3201 36.9102 35.4101 36.5702 35.1801C34.0802 33.5201 29.8802 33.5201 27.3902 35.1801C26.4302 35.8201 25.9102 36.6301 25.9102 37.4801C25.9102 38.3301 26.4302 39.1601 27.3902 39.8001C28.6002 40.6101 30.2302 41.0501 31.9802 41.0501C32.3902 41.0501 32.7302 41.3901 32.7302 41.8001C32.7302 42.2101 32.4002 42.5601 31.9902 42.5601Z" fill="white"/>
</svg>
