<svg width="64" height="64" viewBox="0 0 64 64" fill="none" xmlns="http://www.w3.org/2000/svg">
<circle cx="32" cy="32" r="32" fill="#1A202C"/>
<path d="M23.1699 27.4399L31.9999 32.5499L40.7699 27.4699" stroke="white" stroke-width="1.5" stroke-linecap="round" stroke-linejoin="round"/>
<path d="M32 41.61V32.54" stroke="white" stroke-width="1.5" stroke-linecap="round" stroke-linejoin="round"/>
<path d="M29.9296 22.48L24.5896 25.44C23.3796 26.11 22.3896 27.79 22.3896 29.17V34.82C22.3896 36.2 23.3796 37.88 24.5896 38.55L29.9296 41.52C31.0696 42.15 32.9396 42.15 34.0796 41.52L39.4196 38.55C40.6296 37.88 41.6196 36.2 41.6196 34.82V29.17C41.6196 27.79 40.6296 26.11 39.4196 25.44L34.0796 22.47C32.9296 21.84 31.0696 21.84 29.9296 22.48Z" stroke="white" stroke-width="1.5" stroke-linecap="round" stroke-linejoin="round"/>
</svg>
