<svg width="147" height="110" viewBox="0 0 147 110" fill="none" xmlns="http://www.w3.org/2000/svg">
<path d="M103.424 55.1036C101.999 52.0209 99.8472 47.4404 98.8147 45.5508C97.1808 42.5737 95.872 42.4949 94.5105 41.2175C93.3843 41.1088 92.2941 40.7618 91.3122 40.1996C91.1756 40.2773 91.0302 40.3384 90.8791 40.3818C91.2273 40.9175 90.4329 41.5994 89.6936 41.7908C90.0762 42.0686 89.6867 42.9081 88.9283 43.0352C88.551 43.0352 88.114 43.0842 86.3108 43.0933C85.8172 44.2987 85.1766 44.3071 84.6907 43.5112C83.6368 41.7869 83.7677 36.2169 85.2784 35.8228L75.0858 36.6646C74.0742 36.7497 73.1196 37.1686 72.3722 37.8556C71.6248 38.5426 71.127 39.4585 70.9571 40.4594C70.7872 41.4602 70.955 42.4892 71.4339 43.3843C71.9128 44.2794 72.6757 44.9898 73.6026 45.4039L80.3635 48.4277L79.5347 52.4839L92.2 58.4748L95.8491 50.579V55.2903L97.4632 58.1833L93.3664 69.4588C95.3949 70.926 97.8143 71.7562 100.316 71.8435L103.777 61.2729C104.445 59.246 104.319 57.0411 103.424 55.1036ZM81.0355 45.2745L74.5799 44.9263L81.21 44.4028L81.0355 45.2745Z" fill="#FECFC4"/>
<path d="M45.9942 56.8629L38.0838 52.1516C37.8774 52.0314 37.6328 51.995 37.4003 52.0498L24.6339 53.7335L38.1427 58.4915C38.3256 58.5552 38.4787 58.6841 38.5725 58.8535C38.6664 59.023 38.6946 59.221 38.6516 59.4099C38.6241 59.5111 38.5761 59.6056 38.5106 59.6876C38.4451 59.7695 38.3635 59.8371 38.2708 59.8861C38.1781 59.9352 38.0763 59.9647 37.9717 59.9729C37.8671 59.981 37.762 59.9676 37.6628 59.9334L24.2559 54.5654L32.8619 64.3072C33.0043 64.4963 33.2117 64.6256 33.4436 64.6708L42.505 66.2558C42.7194 66.2902 42.9392 66.2498 43.1272 66.1412C43.3153 66.0326 43.4601 65.8625 43.5375 65.6596L46.3875 57.9826C46.4628 57.7794 46.4647 57.5562 46.3929 57.3518C46.3211 57.1473 46.18 56.9744 45.9942 56.8629Z" fill="#FECFC4"/>
<path d="M126.271 75.4749L128.743 71.0107L131.128 72.334L128.656 76.7974L126.271 75.4749Z" fill="#FECFC4"/>
<path d="M136.784 66.605L136.683 61.501L139.416 61.4429L139.517 66.5468L136.784 66.605Z" fill="#FECFC4"/>
<path d="M133.295 66.6777L133.179 61.5738L135.912 61.5156L136.014 66.6196L133.295 66.6777Z" fill="#FECFC4"/>
<path d="M126.882 7.48346C122.331 4.57522 116.486 5.57856 113.825 9.7228C112.895 11.1766 112.443 12.8846 112.532 14.6079L109.012 17.2253L113.352 18.0243C114.184 19.8681 115.536 21.4297 117.241 22.5183C121.793 25.4265 127.637 24.4232 130.298 20.2789C132.959 16.1347 131.436 10.3917 126.882 7.48346Z" fill="#FECFC4"/>
<path d="M113.708 80.4473L109.157 92.7047L104.33 90.9024L108.881 78.6587L113.708 80.4473Z" fill="#999999"/>
<path d="M101.914 35.1765C101.774 35.0467 101.624 34.9273 101.466 34.8191C103.034 35.5943 103.082 33.8341 101.393 32.6532C98.7375 30.42 96.6558 30.3358 95.2782 30.7598C96.9574 30.6136 97.2872 32.1726 96.7836 33.7576C96.6206 34.1249 96.9964 34.1402 97.3959 34.0775C98.5883 33.9175 98.3992 35.7612 96.8602 35.5316C96.7836 35.6341 95.3089 37.5826 95.2461 37.6691C95.4802 37.4042 95.7779 37.2033 96.1112 37.0855C96.4446 36.9676 96.8024 36.9367 97.151 36.9956C98.4368 37.281 99.6312 37.8823 100.626 38.7452C101.324 39.4141 102.157 39.6904 102.488 39.3574C102.818 39.0245 102.517 38.1941 101.819 37.5253C101.702 37.4143 101.567 37.2765 101.431 37.1426C102.629 37.5696 103.154 36.3643 101.914 35.1765Z" fill="#999999"/>
<path d="M72.7334 60.5419L73.6204 62.5188L80.9048 60.1631L72.7334 60.5419Z" fill="#999999"/>
<path d="M95.8674 50.5811V55.2924L94.6758 53.1556L95.8674 50.5811Z" fill="#999999"/>
<path d="M86.3283 43.0928C85.8193 44.3579 85.0487 44.416 84.4961 43.1219C84.9905 43.1219 85.6594 43.1073 86.3283 43.0928Z" fill="#999999"/>
<path d="M86.3433 36.8113C85.7088 36.9185 85.0675 36.9767 84.4238 36.9858C84.9182 35.5753 85.7455 35.3572 86.3433 36.8113Z" fill="#999999"/>
<path d="M81.2101 44.4019L81.0356 45.2736L74.5801 44.9253L81.2101 44.4019Z" fill="#999999"/>
<path d="M2.99805 74.0642C2.88853 74.2682 2.72107 74.4352 2.51677 74.5442C2.31247 74.6531 2.08048 74.6992 1.85006 74.6765C1.6195 74.6542 1.40079 74.5637 1.22183 74.4166C1.04287 74.2696 0.91175 74.0725 0.845188 73.8507C0.789367 73.6664 0.77987 73.4711 0.817538 73.2822C0.855207 73.0934 0.938878 72.9167 1.06114 72.7679C1.1834 72.6191 1.34047 72.5028 1.51845 72.4292C1.69642 72.3556 1.88979 72.327 2.08144 72.346C2.27309 72.3651 2.45708 72.431 2.61713 72.5382C2.77718 72.6453 2.90834 72.7902 2.99899 72.9601C3.08964 73.13 3.13698 73.3197 3.13682 73.5123C3.13665 73.7049 3.08899 73.8944 2.99805 74.0642Z" fill="#999999"/>
<path d="M46.314 36.0986C46.1673 36.3724 45.9179 36.5768 45.6206 36.6667C45.3233 36.7566 45.0024 36.7248 44.7286 36.5781C44.4548 36.4315 44.2504 36.182 44.1605 35.8847C44.0706 35.5874 44.1025 35.2666 44.2491 34.9927C44.3958 34.7189 44.6452 34.5146 44.9425 34.4247C45.0897 34.3801 45.2442 34.365 45.3973 34.3802C45.5503 34.3954 45.6989 34.4406 45.8345 34.5133C45.9701 34.5859 46.09 34.6845 46.1875 34.8035C46.2849 34.9224 46.358 35.0594 46.4026 35.2066C46.4471 35.3539 46.4622 35.5084 46.447 35.6615C46.4318 35.8145 46.3866 35.9631 46.314 36.0986Z" fill="#999999"/>
<path d="M139.881 40.5485C142.586 39.1709 143.865 41.8427 146.207 41.773C144.433 43.8088 141.452 44.5649 139.532 42.7037L139.881 40.5485Z" fill="#999999"/>
<path d="M121.197 18.1412C121.177 18.2005 121.146 18.2552 121.105 18.3021C121.064 18.349 121.014 18.3872 120.958 18.4144C120.902 18.4416 120.841 18.4572 120.779 18.4603C120.716 18.4634 120.654 18.4539 120.596 18.4324C120.537 18.4109 120.483 18.3779 120.438 18.3352C120.392 18.2926 120.356 18.2412 120.331 18.1842C120.305 18.1272 120.292 18.0657 120.291 18.0033C120.29 17.941 120.302 17.8791 120.325 17.8213C120.371 17.7097 120.458 17.6202 120.568 17.5714C120.678 17.5227 120.803 17.5187 120.916 17.5602C121.029 17.6017 121.121 17.6855 121.174 17.7938C121.226 17.9022 121.235 18.0268 121.197 18.1412Z" fill="#999999"/>
<path d="M53.9616 49.5195C52.1294 49.854 50.3263 49.9848 48.9602 50.232C46.0665 50.7555 43.5218 51.3517 43.3182 51.9043C42.6057 53.8528 49.9046 53.911 52.6674 55.7309C54.9083 57.198 55.718 57.3986 57.7568 56.2253C55.9406 54.3503 54.6342 52.0419 53.9616 49.5195Z" fill="#999999"/>
<path d="M63.6893 88.2092C63.2418 89.4293 62.5986 90.5685 61.7851 91.5819C61.1966 92.2039 60.4761 92.6859 59.6766 92.9924C56.336 94.37 51.8137 100.901 50.4866 99.0561C50.1101 98.5319 51.1425 95.8869 52.4497 92.9488C53.3811 90.8557 55.227 87.7002 56.7248 84.9229C58.7838 86.505 61.159 87.6258 63.6893 88.2092Z" fill="#999999"/>
<path d="M83.6972 68.6257C83.6859 68.7587 83.6251 68.8825 83.5268 68.9728C83.4286 69.0631 83.3 69.1132 83.1665 69.1132C83.033 69.1132 82.9044 69.0631 82.8061 68.9728C82.7079 68.8825 82.647 68.7587 82.6357 68.6257C82.6402 68.5235 82.674 68.4248 82.733 68.3413C82.792 68.2579 82.8738 68.1931 82.9686 68.1549C83.0634 68.1166 83.1673 68.1065 83.2677 68.1256C83.3681 68.1448 83.4609 68.1924 83.535 68.2629C83.6337 68.3585 83.6918 68.4884 83.6972 68.6257Z" fill="#999999"/>
<path d="M88.6113 59.1604C88.6069 59.2626 88.5731 59.3613 88.5141 59.4447C88.455 59.5282 88.3732 59.5929 88.2784 59.6312C88.1836 59.6694 88.0798 59.6796 87.9794 59.6604C87.8789 59.6413 87.7861 59.5936 87.7121 59.5232C87.6134 59.4276 87.5553 59.2977 87.5498 59.1604C87.5611 59.0274 87.6219 58.9035 87.7202 58.8132C87.8185 58.723 87.9471 58.6729 88.0806 58.6729C88.214 58.6729 88.3426 58.723 88.4409 58.8132C88.5392 58.9035 88.6 59.0274 88.6113 59.1604Z" fill="#999999"/>
<path d="M75.6435 57.5193C75.6391 57.6214 75.6053 57.7201 75.5463 57.8036C75.4873 57.8871 75.4055 57.9518 75.3107 57.9901C75.2158 58.0283 75.112 58.0385 75.0116 58.0193C74.9112 58.0002 74.8184 57.9525 74.7443 57.8821C74.6456 57.7865 74.5875 57.6566 74.582 57.5193C74.5933 57.3863 74.6541 57.2624 74.7524 57.1721C74.8507 57.0818 74.9793 57.0317 75.1128 57.0317C75.2462 57.0317 75.3748 57.0818 75.4731 57.1721C75.5714 57.2624 75.6322 57.3863 75.6435 57.5193Z" fill="#999999"/>
<path d="M76.5146 48.489C76.5091 48.6262 76.4508 48.756 76.3518 48.8513C76.2528 48.9466 76.1209 48.9999 75.9835 49.0002C75.8461 49.0003 75.714 48.947 75.6151 48.8517C75.5161 48.7563 75.4581 48.6263 75.4531 48.489C75.4576 48.3868 75.4913 48.2881 75.5504 48.2046C75.6094 48.1211 75.6912 48.0564 75.786 48.0182C75.8808 47.9799 75.9846 47.9698 76.0851 47.9889C76.1855 48.0081 76.2783 48.0557 76.3524 48.1262C76.4512 48.2217 76.5094 48.3516 76.5146 48.489Z" fill="#999999"/>
<path d="M68.4726 43.7913C68.4674 43.9285 68.4092 44.0584 68.3103 44.1537C68.2113 44.249 68.0793 44.3022 67.9419 44.3022C67.8045 44.3022 67.6725 44.249 67.5735 44.1537C67.4745 44.0584 67.4163 43.9285 67.4111 43.7913C67.4163 43.654 67.4745 43.5241 67.5735 43.4288C67.6725 43.3335 67.8045 43.2803 67.9419 43.2803C68.0793 43.2803 68.2113 43.3335 68.3103 43.4288C68.4092 43.5241 68.4674 43.654 68.4726 43.7913Z" fill="#999999"/>
<path d="M56.8847 49.5051C56.8795 49.6424 56.8213 49.7723 56.7224 49.8676C56.6234 49.9629 56.4914 50.0161 56.354 50.0161C56.2166 50.0161 56.0846 49.9629 55.9856 49.8676C55.8867 49.7723 55.8285 49.6424 55.8232 49.5051C55.8285 49.3678 55.8867 49.2379 55.9856 49.1426C56.0846 49.0474 56.2166 48.9941 56.354 48.9941C56.4914 48.9941 56.6234 49.0474 56.7224 49.1426C56.8213 49.2379 56.8795 49.3678 56.8847 49.5051Z" fill="#999999"/>
<path d="M64.8672 50.5813C64.862 50.7186 64.8038 50.8485 64.7048 50.9438C64.6058 51.039 64.4738 51.0923 64.3364 51.0923C64.199 51.0923 64.067 51.039 63.968 50.9438C63.8691 50.8485 63.8109 50.7186 63.8057 50.5813C63.8109 50.444 63.8691 50.3141 63.968 50.2188C64.067 50.1235 64.199 50.0703 64.3364 50.0703C64.4738 50.0703 64.6058 50.1235 64.7048 50.2188C64.8038 50.3141 64.862 50.444 64.8672 50.5813Z" fill="#999999"/>
<path d="M69.1855 73.5845C69.1798 73.7217 69.1214 73.8514 69.0225 73.9466C68.9236 74.0418 68.7917 74.0952 68.6544 74.0957C68.5172 74.0952 68.3854 74.0418 68.2866 73.9466C68.1878 73.8513 68.1295 73.7216 68.124 73.5845C68.1297 73.4473 68.1881 73.3176 68.2871 73.2223C68.386 73.1271 68.5178 73.0737 68.6552 73.0732C68.7924 73.0737 68.9242 73.1272 69.023 73.2224C69.1218 73.3176 69.18 73.4473 69.1855 73.5845Z" fill="#999999"/>
<path d="M74.9873 64.1184C74.9828 64.2206 74.9491 64.3193 74.89 64.4027C74.831 64.4862 74.7492 64.551 74.6544 64.5892C74.5596 64.6274 74.4558 64.6376 74.3553 64.6184C74.2549 64.5993 74.1621 64.5516 74.088 64.4812C73.9894 64.3856 73.9313 64.2557 73.9258 64.1184C73.9371 63.9854 73.9979 63.8615 74.0962 63.7713C74.1945 63.681 74.3231 63.6309 74.4565 63.6309C74.59 63.6309 74.7186 63.681 74.8169 63.7713C74.9152 63.8615 74.976 63.9854 74.9873 64.1184Z" fill="#999999"/>
<path d="M59.8076 80.5635C59.8019 80.7007 59.7435 80.8304 59.6446 80.9256C59.5456 81.0208 59.4138 81.0742 59.2765 81.0747C59.1392 81.0742 59.0075 81.0208 58.9087 80.9256C58.8098 80.8303 58.7516 80.7006 58.7461 80.5635C58.7518 80.4263 58.8102 80.2966 58.9091 80.2013C59.0081 80.1061 59.1399 80.0527 59.2772 80.0522C59.4145 80.0527 59.5462 80.1062 59.645 80.2014C59.7438 80.2966 59.8021 80.4264 59.8076 80.5635Z" fill="#999999"/>
<path d="M139.88 40.5485C142.585 39.1709 143.865 41.8427 146.206 41.773C144.432 43.8088 141.451 44.5649 139.531 42.7037L139.88 40.5485Z" stroke="#999999" stroke-width="0.769171" stroke-linejoin="round"/>
<path d="M59.9961 76.041L42.0967 69.3965L47.666 54.4053L71.4247 63.231" stroke="#999999" stroke-width="0.769171" stroke-linecap="round" stroke-linejoin="round"/>
<path d="M99.0224 73.4824L109.375 77.3351L103.806 92.3117L68.6475 79.2545" stroke="#999999" stroke-width="0.769171" stroke-linecap="round" stroke-linejoin="round"/>
<path d="M87.6523 69.2656L92.8948 71.2111" stroke="#999999" stroke-width="0.769171" stroke-linecap="round" stroke-linejoin="round"/>
<path d="M113.708 80.4473L109.157 92.7047L104.33 90.9024L108.881 78.6587L113.708 80.4473Z" stroke="#999999" stroke-width="0.769171" stroke-linecap="round" stroke-linejoin="round"/>
<path d="M45.9351 56.848L38.0974 52.1657C37.891 52.0456 37.6464 52.0092 37.414 52.064L24.6331 53.7362L38.1556 58.4912C38.3387 58.5546 38.492 58.6834 38.5859 58.8529C38.6798 59.0224 38.7078 59.2206 38.6645 59.4095C38.637 59.5108 38.589 59.6053 38.5235 59.6872C38.458 59.7691 38.3764 59.8367 38.2837 59.8858C38.191 59.9348 38.0892 59.9644 37.9846 59.9725C37.88 59.9806 37.7749 59.9672 37.6757 59.933L24.2695 54.5528L32.8611 64.2923C33.0034 64.4814 33.2108 64.6107 33.4427 64.6558L42.4429 66.2263C42.6575 66.2616 42.8777 66.2217 43.0662 66.1133C43.2548 66.0049 43.4001 65.8348 43.4777 65.6316L46.3308 57.9677C46.4056 57.7642 46.407 57.5409 46.3347 57.3365C46.2625 57.1321 46.1212 56.9593 45.9351 56.848Z" stroke="#999999" stroke-width="0.769171" stroke-linecap="round" stroke-linejoin="round"/>
<path d="M44.9092 61.7817L63.3405 68.626" stroke="#999999" stroke-width="0.769171" stroke-linecap="round" stroke-linejoin="round"/>
<path d="M94.0928 80.04L106.642 84.7078" stroke="#999999" stroke-width="0.769171" stroke-linecap="round" stroke-linejoin="round"/>
<path d="M92.5664 79.4727L93.2062 79.7199" stroke="#999999" stroke-width="0.769171" stroke-linecap="round" stroke-linejoin="round"/>
<path d="M90.4873 78.7021L91.5924 79.1093" stroke="#999999" stroke-width="0.769171" stroke-linecap="round" stroke-linejoin="round"/>
<path d="M74.4639 72.7559L90.2694 78.6152" stroke="#999999" stroke-width="0.769171" stroke-linecap="round" stroke-linejoin="round"/>
<path d="M103.719 55.8306C108.356 57.5381 112.444 60.4695 115.549 64.3135C118.654 68.1575 120.66 72.7707 121.353 77.663C122.046 82.5555 121.402 87.5444 119.487 92.0999C117.573 96.6555 114.461 100.607 110.481 103.536C106.501 106.465 101.802 108.26 96.8836 108.733C91.965 109.205 87.0103 108.336 82.5457 106.219C78.0811 104.102 74.2733 100.815 71.5267 96.7073C68.7801 92.5998 67.1973 87.825 66.9463 82.8902" stroke="#999999" stroke-width="0.769171" stroke-linecap="round" stroke-linejoin="round"/>
<path d="M79.5521 52.4861L80.3809 48.4299L73.6201 45.4061C72.6909 44.9934 71.9257 44.283 71.4453 43.387C70.9649 42.491 70.7966 41.4605 70.9672 40.4582C71.1377 39.4559 71.6372 38.539 72.3869 37.8523C73.1366 37.1656 74.0937 36.7482 75.1071 36.6661L85.377 35.8242" stroke="#999999" stroke-width="0.769171" stroke-linecap="round" stroke-linejoin="round"/>
<path d="M91.3164 40.1997C92.2983 40.7619 93.3885 41.1089 94.5147 41.2176C94.9961 41.6469 95.5133 42.0343 96.0607 42.3755C97.2375 43.1787 98.1866 44.2725 98.8158 45.5509C99.8505 47.4397 102.03 52.0064 103.425 55.1036C104.338 57.0344 104.469 59.2436 103.789 61.2683L100.328 71.8398C97.8212 71.7548 95.3965 70.9246 93.3636 69.455L97.478 58.1864L94.6754 53.1574L92.218 58.4787" stroke="#999999" stroke-width="0.769171" stroke-linecap="round" stroke-linejoin="round"/>
<path d="M81.0356 45.2736L74.5801 44.9253L81.2101 44.4019L81.0356 45.2736Z" stroke="#999999" stroke-width="0.769171" stroke-linecap="round" stroke-linejoin="round"/>
<path d="M91.1562 35.1246C91.6107 34.004 92.2897 32.9882 93.1515 32.1398C95.7987 29.4558 97.6508 30.9972 96.7829 33.7317C96.6299 34.1144 97.0125 34.1266 97.3952 34.0662C98.5837 33.8787 98.3985 35.7499 96.8594 35.5203C95.9541 36.6247 95.1419 37.8022 94.4311 39.0408C94.2718 39.3853 94.1966 39.7627 94.2118 40.1419C94.227 40.5211 94.332 40.8913 94.5183 41.222" stroke="#999999" stroke-width="0.769171" stroke-linecap="round" stroke-linejoin="round"/>
<path d="M91.2437 37.3057C90.9768 36.9386 90.8654 36.481 90.9337 36.0322" stroke="#999999" stroke-width="0.769171" stroke-linecap="round" stroke-linejoin="round"/>
<path d="M95.0889 30.8236C97.4966 29.9504 99.9869 31.2553 101.843 32.9872C103.129 34.1865 102.817 35.4592 101.465 34.7903C103.132 35.9812 102.805 38.0047 101.029 36.8261C101.603 37.1138 103.095 38.7287 102.497 39.3562C102.17 39.6976 101.319 39.4144 100.621 38.744C100.607 38.7294 97.1086 35.7003 95.3016 37.6029" stroke="#999999" stroke-width="0.769171" stroke-linecap="round" stroke-linejoin="round"/>
<path d="M72.7334 60.5419L80.9048 60.1631L73.6204 62.5188" stroke="#999999" stroke-width="0.769171" stroke-linecap="round" stroke-linejoin="round"/>
<path d="M95.8664 50.5811V55.2924L94.6748 53.1556L95.8664 50.5811Z" stroke="#999999" stroke-width="0.769171" stroke-linecap="round" stroke-linejoin="round"/>
<path d="M76.9501 46.9026L79.5522 52.4894L92.2176 58.4804L92.203 58.5095C92.1012 60.0945 90.9961 69.534 84.4817 70.7378C80.0978 71.5555 75.7301 72.4573 71.3808 73.4425L64.3865 88.361C60.8339 87.6944 58.7843 86.4346 56.2151 84.5076L63.0495 69.211C63.5842 68.0145 64.3637 66.9434 65.3379 66.0668C66.312 65.1901 67.4592 64.5275 68.7053 64.1216L73.6202 62.5221L68.4734 51.0192L58.1055 56.587C57.0152 55.4825 56.0738 54.2403 55.3052 52.892C54.6422 51.7211 54.1597 50.4568 53.874 49.1419H53.8886L67.9637 40.7815C68.8902 40.2262 69.9719 39.9864 71.0464 40.098" stroke="#999999" stroke-width="0.769171" stroke-linecap="round" stroke-linejoin="round"/>
<path d="M57.7571 56.2234C57.0182 56.7321 56.1385 56.9966 55.2415 56.9795C54.318 56.7138 53.4473 56.2908 52.6677 55.729C49.9034 53.9144 42.6037 53.8524 43.3185 51.9023C43.5213 51.3498 46.0668 50.7543 48.9605 50.2301C50.3266 49.9829 52.1297 49.852 53.9619 49.5176C54.6345 52.0399 55.9409 54.3483 57.7571 56.2234Z" stroke="#999999" stroke-width="0.769171" stroke-linecap="round" stroke-linejoin="round"/>
<path d="M90.4727 39.0361C90.8071 38.9779 91.7668 38.8471 92.2903 38.7017" stroke="#999999" stroke-width="0.769171" stroke-linecap="round" stroke-linejoin="round"/>
<path d="M88.3789 37.4077C88.7861 37.4368 89.1787 37.4513 89.5269 37.4513" stroke="#999999" stroke-width="0.769171" stroke-linecap="round" stroke-linejoin="round"/>
<path d="M90.9008 40.3701L89.4551 40.5484" stroke="#999999" stroke-width="0.769171" stroke-linecap="round" stroke-linejoin="round"/>
<path d="M95.0231 36.4626C94.834 36.07 93.0608 36.8843 92.4493 37.0442C91.4974 37.3077 90.5149 37.4446 89.5273 37.4514C92.2465 35.0084 91.6939 34.4995 89.1056 36.0409C87.6161 36.639 86.0283 36.9545 84.4233 36.9715C83.8187 38.9767 83.8493 41.1203 84.5106 43.1079C89.7278 43.0076 88.6609 43.0206 88.9494 43.0206C89.7477 42.8875 90.1548 42.0173 89.6665 41.7877C90.4181 41.6124 91.2561 40.9168 90.9041 40.3703C91.2828 40.2757 91.6217 40.0631 91.8715 39.7631C92.1214 39.4632 92.2693 39.0915 92.2939 38.7019C93.0386 38.5519 95.3345 37.1093 95.0231 36.4626Z" stroke="#999999" stroke-width="0.769171" stroke-linecap="round" stroke-linejoin="round"/>
<path d="M88.6113 41.93C88.6113 41.93 89.3721 41.8167 89.6629 41.7876" stroke="#999999" stroke-width="0.769171" stroke-linecap="round" stroke-linejoin="round"/>
<path d="M86.3287 36.8114C86.0838 36.1831 85.7272 35.8165 85.3736 35.8218C84.2631 35.906 83.9623 38.9115 83.9792 40.1077C83.9945 41.2556 84.345 44.0697 85.4126 44.0697C85.7486 44.0514 86.0716 43.6871 86.3142 43.0955" stroke="#999999" stroke-width="0.769171" stroke-linecap="round" stroke-linejoin="round"/>
<path d="M93.2501 72.6538C92.6012 74.4768 91.6741 76.1884 90.5019 77.7279C89.8421 78.6555 90.3564 79.0948 91.3162 78.2223C92.1779 77.4086 92.9525 76.5073 93.6274 75.533" stroke="#999999" stroke-width="0.769171" stroke-linecap="round" stroke-linejoin="round"/>
<path d="M93.0371 76.3327C92.5797 77.365 92.0535 78.3655 91.4621 79.3274C90.8223 80.2726 91.4728 80.6331 92.3636 79.7055C93.3492 78.5571 94.2481 77.3372 95.053 76.0557" stroke="#999999" stroke-width="0.769171" stroke-linecap="round" stroke-linejoin="round"/>
<path d="M94.1842 77.3576C93.9123 78.1364 93.6004 78.9007 93.2497 79.6474C92.7553 80.6653 93.4395 80.9569 94.1941 79.9237C94.9312 78.8268 95.5733 77.669 96.1135 76.4629" stroke="#999999" stroke-width="0.769171" stroke-linecap="round" stroke-linejoin="round"/>
<path d="M95.5909 77.5392C95.4783 78.0698 95.3376 78.594 95.1692 79.1096C94.8003 80.1459 95.3437 80.2729 96.0111 79.2259C96.6785 78.179 97.2471 77.0593 97.8142 75.9687C98.5359 74.5988 99.0992 73.3574 99.7329 71.8184" stroke="#999999" stroke-width="0.769171" stroke-linecap="round" stroke-linejoin="round"/>
<path d="M92.9397 73.4955C89.3641 75.2106 88.8973 74.4904 91.494 72.5955C92.4765 71.8425 93.2689 70.8698 93.8076 69.7554" stroke="#999999" stroke-width="0.769171" stroke-linecap="round" stroke-linejoin="round"/>
<path d="M25.1569 55.5686L25.0697 55.8158L22.5977 54.8997L23.5137 52.4277L25.9858 53.3438L25.9008 53.5704" stroke="#999999" stroke-width="0.769171" stroke-linecap="round" stroke-linejoin="round"/>
<path d="M25.6949 54.1147L25.375 55.0018" stroke="#999999" stroke-width="0.769171" stroke-linecap="round" stroke-linejoin="round"/>
<path d="M23.0002 55.0493L2.02344 73.4102" stroke="#999999" stroke-width="0.769171" stroke-linecap="round" stroke-linejoin="round"/>
<path d="M45.281 35.5464L25.2646 53.0769" stroke="#999999" stroke-width="0.769171" stroke-linecap="round" stroke-linejoin="round"/>
<path d="M2.99779 74.0642C2.88839 74.2684 2.72097 74.4355 2.51666 74.5446C2.31236 74.6537 2.08031 74.6999 1.84981 74.6772C1.67764 74.6598 1.51147 74.6045 1.3632 74.5152C1.21493 74.426 1.08824 74.3051 0.992197 74.1611C0.896156 74.0172 0.833149 73.8538 0.807689 73.6826C0.78223 73.5114 0.794949 73.3368 0.844935 73.1711C0.895521 73.0056 0.982119 72.8533 1.09851 72.7252C1.21491 72.5972 1.35822 72.4964 1.51815 72.4303C1.67808 72.3642 1.85067 72.3343 2.02352 72.3427C2.19638 72.3512 2.36523 72.3978 2.51794 72.4792C2.79131 72.6262 2.9953 72.8755 3.08524 73.1726C3.17518 73.4697 3.14373 73.7903 2.99779 74.0642Z" stroke="#999999" stroke-width="0.769171" stroke-linecap="round" stroke-linejoin="round"/>
<path d="M46.314 36.0988C46.2449 36.2403 46.148 36.3664 46.0291 36.4695C45.9101 36.5727 45.7716 36.6508 45.6218 36.6992C45.472 36.7476 45.314 36.7653 45.1572 36.7513C45.0004 36.7372 44.848 36.6917 44.7092 36.6174C44.5704 36.5431 44.448 36.4416 44.3493 36.3189C44.2507 36.1962 44.1777 36.0549 44.1349 35.9034C44.0921 35.7519 44.0803 35.5933 44.1002 35.4371C44.1201 35.281 44.1712 35.1304 44.2506 34.9945C44.4035 34.7328 44.6518 34.5406 44.9434 34.4582C45.235 34.3758 45.5472 34.4096 45.8143 34.5526C46.0815 34.6956 46.2828 34.9366 46.376 35.225C46.4692 35.5133 46.4469 35.8265 46.314 36.0988Z" stroke="#999999" stroke-width="0.769171" stroke-linecap="round" stroke-linejoin="round"/>
<path d="M139.881 40.5485L139.532 42.7006C137.877 42.6768 136.225 42.5408 134.588 42.2934C129.745 41.512 124.657 39.9975 124.788 39.1816C124.918 38.3658 130.24 38.5755 135.068 39.3561C136.7 39.6339 138.308 40.0327 139.881 40.5485Z" stroke="#999999" stroke-width="0.769171" stroke-linecap="round" stroke-linejoin="round"/>
<path d="M135.679 39.4609L135.187 42.3829" stroke="#999999" stroke-width="0.769171" stroke-linecap="round" stroke-linejoin="round"/>
<path d="M126.882 7.48346C122.331 4.57522 116.486 5.57856 113.825 9.7228C112.895 11.1766 112.443 12.8846 112.532 14.6079L109.012 17.2253L113.352 18.0243C114.184 19.8681 115.536 21.4297 117.241 22.5183C121.793 25.4265 127.637 24.4232 130.298 20.2789C132.959 16.1347 131.436 10.3917 126.882 7.48346Z" stroke="#999999" stroke-width="0.769171" stroke-linecap="round" stroke-linejoin="round"/>
<path d="M121.371 16.0764C121.56 15.51 121.907 15.158 122.927 14.434C125.085 12.8919 124.622 11.1883 123.334 10.7115C123.106 10.627 122.861 10.5941 122.618 10.615C122.375 10.6358 122.14 10.71 121.929 10.8322C121.718 10.9544 121.536 11.1215 121.397 11.3219C121.258 11.5222 121.165 11.7507 121.124 11.9911" stroke="#999999" stroke-width="0.769171" stroke-linecap="round" stroke-linejoin="round"/>
<path d="M121.197 18.1413C121.176 18.1985 121.144 18.2511 121.103 18.2959C121.061 18.3408 121.012 18.3771 120.956 18.4028C120.901 18.4284 120.841 18.4429 120.78 18.4455C120.719 18.448 120.659 18.4385 120.601 18.4176C120.544 18.3966 120.492 18.3646 120.447 18.3233C120.402 18.2821 120.366 18.2324 120.34 18.1771C120.314 18.1218 120.3 18.062 120.297 18.0011C120.295 17.9402 120.304 17.8794 120.325 17.8222C120.367 17.7066 120.454 17.6125 120.566 17.5607C120.677 17.5089 120.805 17.5035 120.921 17.5459C121.036 17.5882 121.13 17.6747 121.182 17.7864C121.234 17.898 121.239 18.0257 121.197 18.1413Z" stroke="#999999" stroke-width="0.769171" stroke-linecap="round" stroke-linejoin="round"/>
<path d="M89.4406 10.9879C89.5638 6.25056 88.2773 6.12046 88.4809 4.21173C88.5385 3.72084 88.6946 3.24662 88.9397 2.81741C89.1848 2.3882 89.514 2.01282 89.9074 1.71371C90.3014 1.41496 90.7516 1.19887 91.2311 1.0784C91.7106 0.957935 92.2095 0.93558 92.6978 1.01268C93.7018 1.14777 94.6152 1.66417 95.2487 2.45476C95.8821 3.24534 96.1868 4.24942 96.0997 5.2587C95.8877 7.24854 94.553 6.96002 93.7004 11.5696L89.4406 10.9879Z" stroke="#999999" stroke-width="0.769171" stroke-linecap="round" stroke-linejoin="round"/>
<path d="M93.4391 14.7396L89.0186 14.1289L89.2512 12.0059L93.671 12.6166L93.4391 14.7396Z" stroke="#999999" stroke-width="0.769171" stroke-linecap="round" stroke-linejoin="round"/>
<path d="M91.9558 4.03724L91.0374 3.92091C90.9226 3.90349 90.8054 3.9094 90.6928 3.93827C90.5803 3.96715 90.4747 4.0184 90.3825 4.08898C90.2902 4.15955 90.213 4.248 90.1557 4.34904C90.0983 4.45007 90.0619 4.56163 90.0486 4.67705C90.0244 4.91563 90.0945 5.15421 90.244 5.34174C90.3935 5.52926 90.6104 5.65082 90.8484 5.68039L93.4804 6.02938C93.5952 6.04668 93.7123 6.0407 93.8247 6.01177C93.9372 5.98284 94.0427 5.93156 94.1349 5.861C94.2271 5.79044 94.3041 5.70203 94.3614 5.60105C94.4187 5.50007 94.4551 5.38858 94.4684 5.27324C94.4926 5.03466 94.4225 4.79607 94.273 4.60855C94.1236 4.42103 93.9066 4.29947 93.6686 4.2699L93.2477 4.22627C93.1328 4.20885 93.0156 4.21476 92.9031 4.24363C92.7906 4.27251 92.685 4.32377 92.5927 4.39434C92.5004 4.46492 92.4233 4.55336 92.366 4.6544C92.3086 4.75544 92.2722 4.86699 92.2589 4.98241L91.5755 11.2787" stroke="#999999" stroke-width="0.769171" stroke-linecap="round" stroke-linejoin="round"/>
<path d="M124.395 67.6807L135.504 73.8316L132.247 79.7054L120.295 73.1045" stroke="#999999" stroke-width="0.769171" stroke-linecap="round" stroke-linejoin="round"/>
<path d="M129.339 77.1753L131.811 72.7119L134.196 74.0352L131.724 78.4985L129.339 77.1753Z" stroke="#999999" stroke-width="0.769171" stroke-linecap="round" stroke-linejoin="round"/>
<path d="M126.271 75.4749L128.743 71.0107L131.127 72.334L128.655 76.7974L126.271 75.4749Z" stroke="#999999" stroke-width="0.769171" stroke-linecap="round" stroke-linejoin="round"/>
<path d="M123.203 73.7884L125.674 69.3242L128.059 70.6475L125.602 75.0971L123.203 73.7884Z" stroke="#999999" stroke-width="0.769171" stroke-linecap="round" stroke-linejoin="round"/>
<path d="M122.781 67.71L125.005 68.946L122.534 73.4101L120.149 72.0869L122.563 67.7245" stroke="#999999" stroke-width="0.769171" stroke-linecap="round" stroke-linejoin="round"/>
<path d="M118.23 68.3059L118.507 67.8115" stroke="#999999" stroke-width="0.769171" stroke-linecap="round" stroke-linejoin="round"/>
<path d="M121.662 67.7388L119.67 71.345" stroke="#999999" stroke-width="0.769171" stroke-linecap="round" stroke-linejoin="round"/>
<path d="M69.5342 16.2656L69.8686 18.2141" stroke="#999999" stroke-width="0.769171" stroke-linecap="round" stroke-linejoin="round"/>
<path d="M68.3715 20.3516L66.4375 20.686" stroke="#999999" stroke-width="0.769171" stroke-linecap="round" stroke-linejoin="round"/>
<path d="M73.9545 19.3628L72.0205 19.7118" stroke="#999999" stroke-width="0.769171" stroke-linecap="round" stroke-linejoin="round"/>
<path d="M70.8578 23.7831L70.5088 21.8491" stroke="#999999" stroke-width="0.769171" stroke-linecap="round" stroke-linejoin="round"/>
<path d="M70.5081 21.8492C70.4229 21.3675 70.1502 20.9394 69.7498 20.6586C69.3493 20.3778 68.8539 20.2673 68.3721 20.3514C68.854 20.2663 69.2824 19.9934 69.5632 19.5926C69.8441 19.1918 69.9543 18.6959 69.8698 18.2139C69.9548 18.6956 70.2274 19.124 70.6279 19.4049C71.0283 19.6859 71.5239 19.7964 72.0058 19.7124C71.5241 19.7975 71.0958 20.0703 70.815 20.471C70.5341 20.8716 70.4238 21.3672 70.5081 21.8492Z" stroke="#999999" stroke-width="0.769171" stroke-linecap="round" stroke-linejoin="round"/>
<path d="M63.6893 88.2092C63.2418 89.4293 62.5986 90.5685 61.7851 91.5819C61.1966 92.2039 60.4761 92.6859 59.6766 92.9924C56.336 94.37 51.8137 100.901 50.4866 99.0561C50.1101 98.5319 51.1425 95.8869 52.4497 92.9488C53.3811 90.8557 55.227 87.7002 56.7248 84.9229C58.7838 86.505 61.159 87.6258 63.6893 88.2092Z" stroke="#999999" stroke-width="0.769171" stroke-linecap="round" stroke-linejoin="round"/>
<path d="M112.604 61.2097L140.434 60.6143L140.579 67.3315L117.955 67.8114" stroke="#999999" stroke-width="0.769171" stroke-linecap="round" stroke-linejoin="round"/>
<path d="M136.784 66.6045L136.683 61.5005L139.416 61.4424L139.517 66.5463L136.784 66.6045Z" stroke="#999999" stroke-width="0.769171" stroke-linecap="round" stroke-linejoin="round"/>
<path d="M133.294 66.6777L133.178 61.5738L135.911 61.5156L136.013 66.6196L133.294 66.6777Z" stroke="#999999" stroke-width="0.769171" stroke-linecap="round" stroke-linejoin="round"/>
<path d="M129.79 66.75L129.674 61.6461L132.408 61.5879L132.524 66.6918L129.79 66.75Z" stroke="#999999" stroke-width="0.769171" stroke-linecap="round" stroke-linejoin="round"/>
<path d="M126.285 66.8229L126.169 61.7335L128.903 61.6753L129.019 66.7647L126.285 66.8229Z" stroke="#999999" stroke-width="0.769171" stroke-linecap="round" stroke-linejoin="round"/>
<path d="M122.781 66.9102L122.68 61.8062L125.398 61.748L125.514 66.8375L122.781 66.9102Z" stroke="#999999" stroke-width="0.769171" stroke-linecap="round" stroke-linejoin="round"/>
<path d="M88.9461 43.0205C86.839 46.6838 85.3134 50.6521 84.4238 54.7836" stroke="#999999" stroke-width="0.769171" stroke-linecap="round" stroke-linejoin="round"/>
<path d="M51.7948 76.041L49.5264 81.0286" stroke="#999999" stroke-width="0.769171" stroke-linecap="round" stroke-linejoin="round"/>
<path d="M53.147 79.662L48.1602 77.3936" stroke="#999999" stroke-width="0.769171" stroke-linecap="round" stroke-linejoin="round"/>
<path d="M68.4736 51.0189L69.5053 50.4648" stroke="#999999" stroke-width="0.769171" stroke-linecap="round" stroke-linejoin="round"/>
<path d="M85.4121 44.0674L81.2097 44.4018L80.3809 48.429" stroke="#999999" stroke-width="0.769171" stroke-linecap="round" stroke-linejoin="round"/>
</svg>
