<svg width="281" height="227" viewBox="0 0 281 227" fill="none" xmlns="http://www.w3.org/2000/svg">
<path d="M135.597 227C198.978 227 250.359 176.184 250.359 113.5C250.359 50.8157 198.978 0 135.597 0C72.2156 0 20.835 50.8157 20.835 113.5C20.835 176.184 72.2156 227 135.597 227Z" fill="url(#paint0_linear_1456_515)"/>
<path fill-rule="evenodd" clip-rule="evenodd" d="M234.613 185.852C235.658 185.483 236.759 184.993 237.608 184.284C238.616 183.442 239.025 182.357 239.301 181.215C239.654 179.748 239.795 178.185 240.224 176.716C240.383 176.17 240.688 175.964 240.819 175.872C241.15 175.641 241.485 175.579 241.8 175.602C242.173 175.629 242.686 175.769 243.023 176.388C243.071 176.476 243.134 176.611 243.176 176.796C243.206 176.932 243.226 177.355 243.259 177.53C243.34 177.96 243.408 178.391 243.471 178.824C243.684 180.264 243.806 181.487 244.476 182.81C245.385 184.607 246.296 185.706 247.532 186.193C248.727 186.664 250.156 186.575 251.981 186.206C252.155 186.164 252.327 186.129 252.497 186.099C253.301 185.96 254.071 186.483 254.229 187.276C254.387 188.068 253.875 188.84 253.078 189.015C252.911 189.051 252.747 189.085 252.585 189.117C250.118 189.721 247.263 191.876 245.603 193.764C245.092 194.345 244.343 195.972 243.579 197.01C243.015 197.776 242.382 198.281 241.85 198.459C241.493 198.579 241.193 198.561 240.945 198.5C240.584 198.412 240.285 198.219 240.055 197.911C239.93 197.743 239.814 197.518 239.759 197.23C239.732 197.092 239.729 196.74 239.73 196.581C239.574 196.051 239.384 195.534 239.245 194.999C238.914 193.724 238.264 192.917 237.492 191.851C236.77 190.853 235.995 190.225 234.858 189.725C234.711 189.689 233.517 189.4 233.096 189.235C232.481 188.991 232.187 188.584 232.081 188.365C231.9 187.993 231.881 187.668 231.917 187.397C231.971 186.996 232.153 186.654 232.475 186.378C232.674 186.206 232.972 186.039 233.371 185.957C233.68 185.894 234.498 185.857 234.613 185.852ZM241.612 183.773C241.667 183.895 241.726 184.018 241.788 184.141C243.12 186.772 244.61 188.241 246.42 188.954L246.481 188.977C245.27 189.866 244.173 190.86 243.335 191.813C242.99 192.206 242.534 193.02 242.04 193.856C241.592 192.415 240.859 191.396 239.937 190.121C239.232 189.148 238.494 188.415 237.587 187.819C238.291 187.461 238.962 187.043 239.547 186.554C240.521 185.74 241.165 184.798 241.612 183.773Z" fill="#E3E3E3"/>
<ellipse cx="5.43515" cy="91.3825" rx="5.43521" ry="5.37545" fill="#E3E3E3"/>
<path d="M52.4331 43.213C52.5975 43.7828 53.1988 44.1107 53.7741 43.9442L52.4331 43.213ZM52.4331 43.213L51.9533 43.3537C50.5764 38.6584 47.8728 34.9972 43.7201 32.3468L43.7199 32.3467M52.4331 43.213L51.9527 43.3516C52.1949 44.1912 53.0768 44.6665 53.9131 44.4244L53.9138 44.4243C54.7459 44.1822 55.2375 43.3087 54.9891 42.4688C53.394 37.0305 50.2404 32.7671 45.4263 29.6931L43.7199 32.3467M43.7199 32.3467C42.9866 31.8782 42.7687 30.9022 43.2445 30.1679M43.7199 32.3467L43.2445 30.1679M43.2445 30.1679C43.7149 29.4353 44.6942 29.2254 45.4262 29.6931L43.2445 30.1679Z" fill="black" stroke="black"/>
<path d="M103.254 45.0127L103.253 45.0128C101.993 45.6489 100.918 45.6069 100.059 45.1814C99.2403 44.7765 98.6418 44.0029 98.278 43.043L98.2779 43.0428C97.9312 42.127 97.7928 41.0006 97.7784 39.9363C97.7655 38.9876 97.8507 38.0552 97.9935 37.3146C97.1707 36.4923 96.2755 35.7419 95.3212 35.0692C87.7517 29.7336 76.5302 31.6406 67.798 39.7941C66.3429 41.1535 65.2309 43.2978 64.3862 45.9601C63.5442 48.6143 62.9833 51.7332 62.598 54.991L62.598 54.9911C61.5533 63.8143 61.9349 73.5366 62.1152 78.1308C62.1423 78.82 62.1648 79.3938 62.1773 79.8319L62.1774 79.833C62.1886 80.2625 62.1742 80.6107 62.1499 80.8699C62.1379 80.9993 62.1231 81.1097 62.107 81.1992C62.0938 81.2722 62.0733 81.3705 62.0375 81.4534C61.7438 82.1451 61.1975 82.3359 60.8575 82.4001L60.8522 82.401C60.3721 82.4863 59.9716 82.3948 59.6488 82.2283L59.6462 82.2269C59.2057 81.9964 58.8559 81.5915 58.6988 81.0092L58.6978 81.0055C58.6144 80.6871 58.5993 80.284 58.6081 79.9062L58.6083 79.901C58.6109 79.8247 58.6166 79.7494 58.622 79.6835C58.6232 79.6685 58.6244 79.6542 58.6255 79.6403C58.6297 79.5897 58.6333 79.5457 58.636 79.502C58.6393 79.4475 58.6402 79.4065 58.6389 79.3749C58.6375 79.3425 58.6343 79.3328 58.6356 79.3374C58.3453 78.3298 58.0031 77.3428 57.6549 76.3384C57.604 76.1917 57.553 76.0447 57.5021 75.8971L57.5017 75.896C56.1853 72.0574 54.4807 68.4537 52.5791 64.8404L53.0216 64.6075L52.5791 64.8404C52.0683 63.8698 51.5594 62.8955 51.0498 61.9198C45.4954 51.2859 39.8562 40.4896 30.8322 32.5204L30.8321 32.5203C30.1809 31.9448 30.1151 30.9471 30.6991 30.2943C31.2777 29.6426 32.2752 29.5879 32.9289 30.1606L32.9303 30.1618C42.3603 38.4874 48.2527 49.754 53.9511 60.6496C54.4282 61.5619 54.904 62.4716 55.3804 63.3767L55.3804 63.3768C56.5897 65.6752 57.7274 67.9813 58.7438 70.3501C58.6958 64.9736 58.8628 58.3178 59.7642 52.3173C60.2347 49.1839 60.9197 46.2169 61.8727 43.6702C62.824 41.1285 64.0546 38.9723 65.6361 37.4947L65.6362 37.4946C75.4315 28.348 88.3212 26.2722 97.1476 32.4966L97.1478 32.4967C97.9118 33.0359 98.647 33.6195 99.3437 34.2451C104.079 26.3641 113.716 23.2736 122.246 27.1472C123.043 27.508 123.393 28.4437 123.031 29.2356L123.031 29.2356L123.03 29.2386C122.663 30.0275 121.729 30.3748 120.934 30.0153L120.934 30.0151C113.632 26.6996 105.372 29.5689 101.631 36.62C102.403 37.5519 103.1 38.5497 103.701 39.6077C103.996 40.127 104.542 41.2697 104.629 42.2943C104.728 43.4154 104.338 44.4645 103.254 45.0127ZM101.237 41.929L101.237 41.9296C101.296 42.083 101.341 42.1895 101.389 42.2676C101.409 42.3011 101.426 42.3224 101.439 42.336C101.361 42.008 101.212 41.6673 101.08 41.4059C101.124 41.5922 101.176 41.7679 101.237 41.929Z" fill="black" stroke="black"/>
<rect x="82.6317" y="58.887" width="197.556" height="70.4335" rx="24" fill="black"/>
<rect x="164.181" y="83.1345" width="66.6179" height="9.23718" rx="4.61859" fill="#CCC6D9"/>
<rect x="99.8606" y="96.9903" width="131.274" height="9.23718" rx="4.61859" fill="white"/>
<ellipse cx="254.919" cy="94.681" rx="11.4858" ry="11.5465" fill="#E1DCEB"/>
<rect x="-6.10352e-05" y="117.774" width="197.556" height="70.4335" rx="24" fill="#E1DCEB"/>
<rect x="49.389" y="142.022" width="66.6179" height="9.23718" rx="4.61859" fill="black"/>
<rect x="49.389" y="155.878" width="131.274" height="9.23719" rx="4.61859" fill="white"/>
<ellipse cx="28.7145" cy="153.568" rx="11.4858" ry="11.5465" fill="#CCC6D9"/>
<defs>
<linearGradient id="paint0_linear_1456_515" x1="134.712" y1="-36.9584" x2="137.012" y2="361.637" gradientUnits="userSpaceOnUse">
<stop stop-color="#F2F2F2"/>
<stop offset="1" stop-color="#EFEFEF"/>
</linearGradient>
</defs>
</svg>
