<svg width="281" height="175" viewBox="0 0 281 175" fill="none" xmlns="http://www.w3.org/2000/svg">
<path fill-rule="evenodd" clip-rule="evenodd" d="M234.613 161.852C235.658 161.483 236.759 160.993 237.608 160.284C238.616 159.442 239.025 158.357 239.301 157.215C239.654 155.748 239.795 154.185 240.224 152.716C240.383 152.17 240.688 151.964 240.819 151.872C241.15 151.641 241.485 151.579 241.8 151.602C242.173 151.629 242.686 151.769 243.023 152.388C243.071 152.476 243.134 152.611 243.176 152.796C243.206 152.932 243.226 153.355 243.259 153.53C243.34 153.96 243.408 154.391 243.471 154.824C243.684 156.264 243.806 157.487 244.476 158.81C245.385 160.607 246.296 161.706 247.532 162.193C248.727 162.664 250.156 162.575 251.981 162.206C252.155 162.164 252.327 162.129 252.497 162.099C253.301 161.96 254.071 162.483 254.229 163.276C254.387 164.068 253.875 164.84 253.078 165.015C252.911 165.051 252.747 165.085 252.585 165.117C250.118 165.721 247.263 167.876 245.603 169.764C245.092 170.345 244.343 171.972 243.579 173.01C243.015 173.776 242.382 174.281 241.85 174.459C241.493 174.579 241.193 174.561 240.945 174.5C240.584 174.412 240.285 174.219 240.055 173.911C239.93 173.743 239.814 173.518 239.759 173.23C239.732 173.092 239.729 172.74 239.73 172.581C239.574 172.051 239.384 171.534 239.245 170.999C238.914 169.724 238.264 168.917 237.492 167.851C236.77 166.853 235.995 166.225 234.858 165.725C234.711 165.689 233.517 165.4 233.096 165.235C232.481 164.991 232.187 164.584 232.081 164.365C231.9 163.993 231.881 163.668 231.917 163.397C231.971 162.996 232.153 162.654 232.475 162.378C232.674 162.206 232.972 162.039 233.371 161.957C233.68 161.894 234.498 161.857 234.613 161.852ZM241.612 159.773C241.667 159.895 241.726 160.018 241.788 160.141C243.12 162.772 244.61 164.241 246.42 164.954L246.481 164.977C245.27 165.866 244.173 166.86 243.335 167.813C242.99 168.206 242.534 169.02 242.04 169.856C241.592 168.415 240.859 167.396 239.937 166.121C239.232 165.148 238.494 164.415 237.587 163.819C238.291 163.461 238.962 163.043 239.547 162.554C240.521 161.74 241.165 160.798 241.612 159.773Z" fill="#E3E3E3"/>
<ellipse cx="5.43515" cy="67.3825" rx="5.43521" ry="5.37545" fill="#E3E3E3"/>
<path d="M43.7201 8.3468L43.7199 8.34667C42.9866 7.87816 42.7687 6.90218 43.2445 6.16794C43.7149 5.43525 44.6943 5.22542 45.4263 5.69313C50.2403 8.76708 53.394 13.0305 54.9891 18.4688C55.2375 19.3087 54.7459 20.1822 53.9138 20.4243L53.9131 20.4244C53.0768 20.6665 52.1949 20.1912 51.9527 19.3516L52.4331 19.213L51.9533 19.3537C50.5764 14.6584 47.8728 10.9972 43.7201 8.3468Z" fill="#CCC6D9" stroke="#CCC6D9"/>
<path d="M103.254 21.0127L103.253 21.0128C101.993 21.6488 100.918 21.6069 100.06 21.1816C99.2405 20.7769 98.6419 20.0031 98.278 19.043L98.2779 19.0428C97.9312 18.127 97.7928 17.0006 97.7784 15.9363C97.7655 14.9876 97.8507 14.0552 97.9935 13.3146C97.1707 12.4923 96.2755 11.7419 95.3212 11.0692C87.7517 5.73358 76.5302 7.64055 67.798 15.7941C66.3429 17.1535 65.2309 19.2978 64.3862 21.9601C63.5442 24.6143 62.9833 27.7332 62.598 30.991L62.598 30.9911C61.5533 39.8143 61.9349 49.5365 62.1152 54.1308C62.1423 54.82 62.1648 55.3938 62.1773 55.8319L62.1773 55.833C62.1886 56.2625 62.1742 56.6107 62.1499 56.8699C62.1379 56.9993 62.1231 57.1097 62.107 57.1992C62.0938 57.2723 62.0732 57.3709 62.0374 57.4539C61.7435 58.1451 61.1974 58.3359 60.8575 58.4L60.8575 58.4001L60.8522 58.401C60.3721 58.4863 59.9716 58.3948 59.6488 58.2283L59.6462 58.2269C59.2057 57.9964 58.8559 57.5915 58.6988 57.0092L58.6978 57.0055C58.6144 56.6871 58.5993 56.284 58.6081 55.9062L58.6083 55.901C58.6109 55.8247 58.6166 55.7494 58.622 55.6835C58.6232 55.6685 58.6244 55.6542 58.6255 55.6403C58.6297 55.5897 58.6333 55.5457 58.636 55.502C58.6393 55.4475 58.6402 55.4065 58.6389 55.3749C58.6375 55.3425 58.6343 55.3328 58.6356 55.3374C58.3453 54.3297 58.0031 53.3428 57.6549 52.3384C57.604 52.1917 57.553 52.0446 57.5021 51.8971L57.5017 51.896C56.1853 48.0574 54.4807 44.4537 52.5791 40.8404L53.0216 40.6075L52.5791 40.8404C52.0683 39.8697 51.5594 38.8955 51.0498 37.9198C45.4954 27.2859 39.8562 16.4896 30.8322 8.52044L30.8321 8.52033C30.1809 7.94483 30.1152 6.94705 30.6991 6.29434C31.2777 5.64264 32.2752 5.58786 32.9289 6.16057L32.9303 6.16182C42.3603 14.4874 48.2527 25.7539 53.9511 36.6495C54.4282 37.5618 54.904 38.4715 55.3804 39.3767L55.3804 39.3768C56.5897 41.6752 57.7274 43.9813 58.7438 46.3501C58.6958 40.9736 58.8628 34.3178 59.7642 28.3173C60.2347 25.1839 60.9197 22.2169 61.8727 19.6702C62.824 17.1285 64.0546 14.9723 65.6361 13.4947L65.6362 13.4946C75.4315 4.34803 88.3212 2.27224 97.1476 8.4966L97.1478 8.4967C97.9118 9.03591 98.647 9.61947 99.3437 10.2451C104.079 2.36409 113.716 -0.726369 122.246 3.14723C123.043 3.50799 123.393 4.44371 123.031 5.23555L123.031 5.23556L123.03 5.23855C122.663 6.02751 121.729 6.37484 120.934 6.01535L120.934 6.01506C113.632 2.69956 105.372 5.56891 101.631 12.62C102.403 13.5518 103.1 14.5495 103.701 15.6074C103.996 16.1263 104.541 17.2686 104.629 18.293C104.729 19.4146 104.339 20.4642 103.254 21.0127ZM101.237 17.929L101.237 17.9296C101.296 18.083 101.341 18.1895 101.389 18.2676C101.409 18.3011 101.426 18.3224 101.439 18.336C101.361 18.008 101.212 17.6673 101.08 17.4059C101.124 17.5922 101.176 17.7679 101.237 17.929Z" fill="#CCC6D9" stroke="#CCC6D9"/>
<rect x="82.6317" y="34.887" width="197.556" height="70.4335" rx="24" fill="#E3E3E3"/>
<rect x="164.181" y="59.1345" width="66.6179" height="9.23718" rx="4.61859" fill="#E3E3E3"/>
<rect x="99.8606" y="72.9903" width="131.274" height="9.23718" rx="4.61859" fill="white"/>
<ellipse cx="254.919" cy="70.681" rx="11.4858" ry="11.5465" fill="#E1DCEB"/>
<rect x="-6.10352e-05" y="93.774" width="197.556" height="70.4335" rx="24" fill="url(#paint0_linear_1452_515)"/>
<rect x="49.389" y="118.022" width="66.6179" height="9.23718" rx="4.61859" fill="#CCC6D9"/>
<rect x="49.389" y="131.878" width="131.274" height="9.23719" rx="4.61859" fill="white"/>
<ellipse cx="28.7145" cy="129.568" rx="11.4858" ry="11.5465" fill="#CCC6D9"/>
<defs>
<linearGradient id="paint0_linear_1452_515" x1="98.7782" y1="93.774" x2="98.7782" y2="164.208" gradientUnits="userSpaceOnUse">
<stop stop-color="white"/>
<stop offset="0.71875" stop-color="#EAEAEA"/>
</linearGradient>
</defs>
</svg>
