<svg width="64" height="64" viewBox="0 0 64 64" fill="none" xmlns="http://www.w3.org/2000/svg">
<path d="M0 32C0 14.3269 14.3269 0 32 0C49.6731 0 64 14.3269 64 32C64 49.6731 49.6731 64 32 64C14.3269 64 0 49.6731 0 32Z" fill="#BA1A1A"/>
<path d="M41.4062 25.4062L34.8438 31.9688L41.4062 38.5938C42.2188 39.3438 42.2188 40.6562 41.4062 41.4062C40.6562 42.2188 39.3438 42.2188 38.5938 41.4062L32.0312 34.8438L25.4062 41.4062C24.6562 42.2188 23.3438 42.2188 22.5938 41.4062C21.7812 40.6562 21.7812 39.3438 22.5938 38.5938L29.1562 31.9688L22.5938 25.4062C21.7812 24.6562 21.7812 23.3438 22.5938 22.5938C23.3438 21.7812 24.6562 21.7812 25.4062 22.5938L32.0312 29.1562L38.5938 22.5938C39.3438 21.7812 40.6562 21.7812 41.4062 22.5938C42.2188 23.3438 42.2188 24.6562 41.4062 25.4062Z" fill="white"/>
</svg>
