<svg width="154" height="154" viewBox="0 0 154 154" fill="none" xmlns="http://www.w3.org/2000/svg">
<path d="M36.6789 92.939C36.325 92.1771 35.7526 91.5375 35.0345 91.1016C34.3164 90.6657 33.4849 90.4531 32.6456 90.4907C32.0884 90.5161 31.5417 90.6513 31.0369 90.8887L24.5508 93.9133L28.506 102.408C29.5349 102.864 30.5944 103.248 31.6767 103.556C28.6369 98.6851 29.742 97.8417 32.9418 101.332C36.0207 104.691 39.8198 104.975 42.379 105.215L36.6789 92.939Z" fill="#FD93A1"/>
<path d="M35.8639 113.472C34.999 113.218 34.1365 112.956 33.2764 112.687L36.4463 119.492C35.9141 117.533 35.7171 115.497 35.8639 113.472Z" fill="#FD93A1"/>
<path d="M38.1037 121.107C37.6698 121.291 37.2167 120.948 36.9404 120.524L38.2055 123.23L44.5018 120.292C42.6987 120.541 39.1652 120.975 38.1037 121.107Z" fill="#FD93A1"/>
<path d="M27.619 110.668C26.3684 110.173 25.0888 109.664 23.8819 109.068C22.2533 108.269 22.3512 107.44 23.94 107.818C24.5217 107.949 25.2051 108.036 26.3248 108.18C25.044 107.705 23.7956 107.147 22.5877 106.508C20.9446 105.578 21.2645 104.502 22.8349 105.069C23.2566 105.229 24.2309 105.534 25.3651 105.825L25.1906 105.461C24.2936 104.952 23.4249 104.394 22.5885 103.79C21.0762 102.626 21.5124 101.608 22.9956 102.393C23.2138 102.509 23.5482 102.655 23.9554 102.829L20.64 95.7042L14.1684 98.7287C13.4064 99.0825 12.7668 99.6549 12.3309 100.373C11.8949 101.091 11.6823 101.923 11.7201 102.762C11.7461 103.319 11.8808 103.866 12.1181 104.371L22.1806 126.009C22.4157 126.515 22.7483 126.97 23.1594 127.347C23.5704 127.724 24.0518 128.016 24.576 128.207C25.1002 128.397 25.6568 128.482 26.2139 128.457C26.7711 128.432 27.3178 128.297 27.8225 128.06L34.3087 125.034L27.619 110.668Z" fill="#FD93A1"/>
<path d="M72.8005 10.9521L62.7518 15.1698L71.6808 8.91632L69.3688 4.71392C69.2931 4.57729 69.1857 4.4608 69.0557 4.37425C68.9256 4.2877 68.7767 4.23361 68.6215 4.21651C68.4662 4.19942 68.3091 4.21982 68.1633 4.27601C68.0176 4.3322 67.8874 4.42253 67.7838 4.53943L55.6993 17.9908C55.5657 18.1417 55.482 18.3303 55.4596 18.5307C55.4373 18.7311 55.4774 18.9334 55.5745 19.1101C55.6716 19.2868 55.821 19.4292 56.0021 19.5177C56.1832 19.6063 56.3873 19.6367 56.5863 19.6049L74.4291 16.5948C74.5825 16.5698 74.7276 16.5085 74.8524 16.4159C74.9771 16.3233 75.0779 16.2022 75.1463 16.0626C75.2146 15.9231 75.2485 15.7692 75.2452 15.6139C75.2419 15.4585 75.2014 15.3063 75.1271 15.1698L72.8005 10.9521Z" fill="#FD93A1"/>
<path d="M78.3261 85.5513C77.1919 86.0756 76.9302 88.1396 77.4077 91.005C79.707 90.8198 81.9821 90.4057 84.1992 89.769C81.9469 86.7444 79.6494 84.9406 78.3261 85.5513Z" fill="#5A3EA4"/>
<path d="M89.916 101.155C87.8365 102.803 85.3934 103.932 82.79 104.446C85.5245 108.823 88.4328 111.469 90.0469 110.713C91.6609 109.968 91.5155 106.056 89.916 101.155Z" fill="#5A3EA4"/>
<path d="M144.23 24.3453C140.638 27.4426 134.123 37.7822 132.916 41.5192C133.134 43.3223 133.309 44.602 133.425 45.6926C136.103 46.0507 138.82 45.9964 141.482 45.5326L141.452 44.3402C144.564 34.1759 144.681 29.8128 144.23 24.3453Z" fill="#5A3EA4"/>
<path d="M101.069 11.9119C98.4811 16.5506 95.7764 27.1955 95.5591 32.0239C96.3158 33.2361 97.0574 34.4577 97.7839 35.6883C99.8373 33.8611 102.169 32.3735 104.692 31.2815C104.737 28.5761 105.097 23.7431 101.069 11.9119Z" fill="#5A3EA4"/>
<path d="M35.8637 113.472C35.6601 117.674 36.4897 121.049 37.7839 121.15C39.0084 121.252 40.2413 118.46 40.7357 114.679C39.0796 114.419 37.4494 114.015 35.8637 113.472Z" fill="#5A3EA4"/>
<path d="M71.5497 128.508C70.6262 128.926 69.7941 129.522 69.1011 130.262C68.4081 131.002 67.8678 131.871 67.5111 132.82C66.7903 134.735 66.8598 136.859 67.7043 138.723C68.5487 140.588 70.099 142.041 72.0143 142.763C72.9628 143.12 73.9725 143.287 74.9856 143.254C75.9987 143.221 76.9954 142.989 77.9187 142.571L71.5497 128.508Z" fill="#5A3EA4"/>
<path d="M141.642 51.4661L141.685 53.5891C144.23 52.9623 144.172 52.0477 141.642 51.4661Z" fill="#5A3EA4"/>
<path d="M97.7686 44.7909C98.0938 45.355 99.9788 44.9073 102.393 43.8021C101.971 42.9733 101.506 42.1184 101.026 41.2283C98.801 42.7835 97.4395 44.2208 97.7686 44.7909Z" fill="#5A3EA4"/>
<path d="M110.711 37.3169C110.492 36.9388 109.576 37.0108 108.282 37.4332L109.402 39.3527C110.42 38.4366 110.929 37.695 110.711 37.3169Z" fill="#5A3EA4"/>
<path d="M73.3824 99.1772C73.0005 100.394 72.4937 101.569 71.8701 102.682L73.426 103.424L73.3824 99.1772Z" fill="#5A3EA4"/>
<path d="M64.802 87.0354L64.104 89.2457L63.6387 87.6461L64.802 87.0354Z" fill="#5A3EA4"/>
<path d="M128.554 52.5277C128.554 53.2257 130.648 53.8073 133.556 54.0254C133.6 52.8476 133.614 51.8733 133.629 51.0299C130.677 51.2335 128.554 51.8297 128.554 52.5277Z" fill="#5A3EA4"/>
<path d="M78.3118 71.8537C78.7105 71.5941 79.0121 71.2098 79.1696 70.7609C79.3272 70.312 79.3318 69.8236 79.1827 69.3717C79.0805 69.0595 78.9088 68.7744 78.6805 68.5381C78.4523 68.3017 78.1734 68.1202 77.8649 68.0072C77.5563 67.8938 77.2261 67.8516 76.899 67.8839C77.0963 67.6137 77.2215 67.2976 77.2625 66.9655C77.3388 66.3972 77.1875 65.8217 76.8417 65.3642C76.4959 64.9067 75.9835 64.6043 75.4158 64.5226C74.988 64.4629 74.5521 64.5338 74.1653 64.7262C74.296 64.2457 74.2575 63.7349 74.0563 63.2794C73.855 62.824 73.5031 62.4516 73.0598 62.2248C72.6165 61.998 72.1087 61.9307 71.6215 62.034C71.1344 62.1373 70.6977 62.405 70.3846 62.7922C70.3876 62.2689 70.2005 61.7623 69.8582 61.3665C69.5159 60.9707 69.0416 60.7126 68.5233 60.6401L68.3779 60.6111C67.8733 60.5412 67.3603 60.6517 66.9293 60.923C66.4982 61.1944 66.1767 61.6091 66.0214 62.0943C65.8516 61.6437 65.5365 61.2625 65.1259 61.0109C64.7153 60.7594 64.2325 60.6518 63.754 60.7051C63.2754 60.7585 62.8282 60.9698 62.4831 61.3056C62.138 61.6414 61.9146 62.0826 61.8481 62.5596C61.8361 62.6218 61.8312 62.6852 61.8336 62.7486C61.5029 62.4294 61.0811 62.221 60.6267 62.1524C60.3449 62.1123 60.0579 62.1283 59.7823 62.1995C59.5068 62.2708 59.248 62.3958 59.0209 62.5674C58.7939 62.7391 58.603 62.9539 58.4593 63.1997C58.3157 63.4454 58.222 63.7171 58.1838 63.9992C58.1455 64.3022 58.1715 64.6091 58.2588 64.9015C58.0753 64.813 57.879 64.7541 57.6771 64.727C57.2487 64.6676 56.8124 64.7379 56.4244 64.9289C56.0363 65.1199 55.7145 65.4228 55.5003 65.7986C55.2861 66.1743 55.1895 66.6056 55.2228 67.0368C55.2561 67.468 55.4179 67.8793 55.6873 68.2176C55.1782 68.157 54.6641 68.2789 54.2365 68.5618C53.8089 68.8447 53.4956 69.2701 53.3523 69.7624C53.209 70.2546 53.2451 70.7818 53.454 71.2499C53.663 71.7181 54.0313 72.0969 54.4934 72.319C53.9841 72.387 53.5156 72.6336 53.1714 73.015C52.8271 73.3963 52.6295 73.8875 52.6138 74.401C52.5981 74.9145 52.7653 75.4169 53.0856 75.8186C53.4058 76.2202 53.8584 76.4951 54.3625 76.5941C53.9964 76.8366 53.7128 77.185 53.5498 77.5927C53.3867 78.0005 53.3518 78.4483 53.4497 78.8764C53.5477 79.3045 53.7738 79.6926 54.098 79.9888C54.4221 80.2851 54.8289 80.4756 55.264 80.5348C55.4424 80.5493 55.6215 80.5493 55.7998 80.5348C55.6178 80.8117 55.4987 81.1252 55.4508 81.4531C55.3745 82.0215 55.5258 82.597 55.8716 83.0545C56.2174 83.512 56.7299 83.8144 57.2975 83.8961C57.7301 83.9634 58.173 83.8922 58.5626 83.6925C58.4557 84.0927 58.4661 84.5152 58.5924 84.9098C58.7187 85.3043 58.9557 85.6543 59.2751 85.9181C59.0014 84.5313 58.9916 83.1053 59.246 81.7149C60.2494 74.4443 64.0446 78.2105 64.7862 80.8424C64.9607 81.3077 65.2661 81.3223 65.8041 80.5225C66.9245 78.8648 68.9748 81.0751 66.5755 83.3726C66.3283 83.6198 66.2112 85.3066 67.1878 87.1388C67.5039 87.425 67.8996 87.6071 68.322 87.6622C68.6192 87.7023 68.9215 87.6804 69.2098 87.5979C69.4981 87.5155 69.7662 87.3742 69.9973 87.1831C70.2282 86.9918 70.4169 86.7547 70.5515 86.4868C70.6861 86.2188 70.7637 85.9259 70.7795 85.6265C71.0635 85.9116 71.4216 86.1115 71.8133 86.2036C72.205 86.2958 72.6147 86.2764 72.996 86.1478C73.3773 86.0192 73.715 85.7865 73.9708 85.4759C74.2267 85.1653 74.3906 84.7893 74.4438 84.3905C74.4835 84.0939 74.4638 83.7923 74.3857 83.5035C74.6923 83.6431 75.0273 83.7093 75.364 83.6965C75.7007 83.6838 76.0298 83.5926 76.325 83.4302C76.6202 83.2677 76.8733 83.0386 77.0643 82.761C77.2552 82.4834 77.3787 82.165 77.4248 81.8312C77.4668 81.5444 77.4498 81.2519 77.3748 80.9719C77.2998 80.6918 77.1684 80.43 76.9886 80.2026C77.4988 80.267 78.0152 80.1477 78.4456 79.8662C78.8759 79.5846 79.192 79.1591 79.3373 78.6658C79.4817 78.1725 79.4461 77.6439 79.237 77.1743C79.0279 76.7048 78.6588 76.3247 78.1955 76.102C78.667 76.0415 79.1057 75.8281 79.4445 75.4946C79.7832 75.1611 80.0034 74.7258 80.0713 74.2553C80.1464 73.705 80.0049 73.147 79.6767 72.699C79.3485 72.251 78.8591 71.948 78.3118 71.8537Z" fill="#5A3EA4"/>
<path d="M144.143 65.2222C146.323 70.12 147.51 75.4016 147.636 80.7614C147.761 86.1211 146.822 91.4525 144.873 96.447C142.925 101.441 140.005 106 136.282 109.858C132.56 113.716 128.109 116.798 123.188 118.925" stroke="#120071" stroke-width="0.769171" stroke-linecap="round" stroke-linejoin="round"/>
<path d="M113.285 41.6937C120.828 42.8424 127.892 46.1047 133.658 51.1026" stroke="#120071" stroke-width="0.769171" stroke-linecap="round" stroke-linejoin="round"/>
<path d="M89.0728 45.4745C92.5914 43.7146 96.3491 42.4803 100.226 41.8109" stroke="#120071" stroke-width="0.769171" stroke-linecap="round" stroke-linejoin="round"/>
<path d="M64.9619 113.937L81.1325 149.623" stroke="#120071" stroke-width="0.769171" stroke-linecap="round" stroke-linejoin="round"/>
<path d="M56.2957 94.8004L33.4798 44.4857C32.2438 41.807 33.9887 39.4399 36.9115 39.8172L76.5232 44.9938C78.8258 45.295 81.0152 46.1726 82.8882 47.5454C84.7612 48.9182 86.2573 50.7417 87.2378 52.8468L132.055 149.593" stroke="#120071" stroke-width="0.769171" stroke-linecap="round" stroke-linejoin="round"/>
<path d="M64.3331 90.164C59.2881 93.5683 53.7994 96.2635 48.0209 98.1739C45.187 98.5809 42.3324 98.8285 39.4707 98.9155" stroke="#120071" stroke-width="0.769171" stroke-linecap="round" stroke-linejoin="round"/>
<path d="M42.3644 105.198L36.6612 92.9245C36.1844 91.905 35.3223 91.1164 34.2645 90.732C33.2066 90.3476 32.0394 90.3987 31.0193 90.8742L14.1683 98.741C13.1487 99.2177 12.3599 100.08 11.9753 101.138C11.5908 102.195 11.6418 103.363 12.1173 104.383L22.1805 126.022C22.6574 127.041 23.5194 127.83 24.5773 128.214C25.6351 128.599 26.8023 128.548 27.8225 128.072L44.502 120.292" stroke="#120071" stroke-width="0.769171" stroke-linecap="round" stroke-linejoin="round"/>
<path d="M22.5148 94.8295C22.5148 94.8295 11.1834 93.7871 6.53329 90.4817C1.88318 87.1763 5.74501 79.1549 11.7245 83.4139C17.7996 87.738 22.5148 94.8295 22.5148 94.8295Z" stroke="#120071" stroke-width="0.769171" stroke-linecap="round" stroke-linejoin="round"/>
<path d="M22.5027 94.8295C22.5027 94.8295 29.5483 85.902 30.355 80.2439C31.1616 74.5859 22.6872 71.8843 21.6609 79.1365C20.6078 86.528 22.5027 94.8295 22.5027 94.8295Z" stroke="#120071" stroke-width="0.769171" stroke-linecap="round" stroke-linejoin="round"/>
<path d="M64.081 89.3206L64.802 87.0246C64.802 87.0246 58.0128 91.6342 59.2618 81.7163C60.158 74.5988 63.8836 78.0428 64.7461 80.6609C64.9481 81.2732 65.1946 81.4668 65.8176 80.5385C66.9365 78.88 68.9998 81.1041 66.5882 83.3886C66.1252 83.8279 66.302 87.092 69.0755 89.4675C70.8358 90.9768 76.288 92.0268 84.1838 89.7737" stroke="#120071" stroke-width="0.769171" stroke-linecap="round" stroke-linejoin="round"/>
<path d="M63.6387 87.6461C64.0929 89.6055 64.7407 91.515 65.5726 93.3462" stroke="#120071" stroke-width="0.769171" stroke-linecap="round" stroke-linejoin="round"/>
<path d="M67.9438 88.2714C66.1835 93.8988 61.0069 100.152 56.9499 105.242C51.0339 105.749 45.0805 105.612 39.1943 104.834" stroke="#120071" stroke-width="0.769171" stroke-linecap="round" stroke-linejoin="round"/>
<path d="M89.9163 101.155C87.3943 103.158 84.3371 104.371 81.128 104.644C77.919 104.916 74.701 104.235 71.8776 102.685C69.8348 106.515 67.5643 110.219 65.0784 113.777C64.257 115.015 63.0353 115.933 61.6176 116.379C53.9463 118.734 46.0599 120.322 38.0747 121.119" stroke="#120071" stroke-width="0.769171" stroke-linecap="round" stroke-linejoin="round"/>
<path d="M82.7903 104.442C85.5248 108.819 88.4299 111.459 90.0471 110.709C95.05 108.388 83.4086 83.2064 78.3261 85.5514C77.1919 86.0756 76.9302 88.1397 77.4077 91.0051" stroke="#120071" stroke-width="0.769171" stroke-linecap="round" stroke-linejoin="round"/>
<path d="M128.554 52.5277C128.699 57.0063 129.252 73.1914 129.252 74.8637C126.692 75.2563 106.494 80.113 105.345 80.3166" stroke="#120071" stroke-width="0.769171" stroke-linecap="round" stroke-linejoin="round"/>
<path d="M113.576 98.0139C144.245 87.2229 143.573 87.7326 144.189 79.3132C144.58 73.9475 143.942 58.5622 143.564 52.5131" stroke="#120071" stroke-width="0.769171" stroke-linecap="round" stroke-linejoin="round"/>
<path d="M97.7686 44.7909C99.9788 48.688 108.789 63.259 109.577 64.7277C108.735 65.3529 104.88 69.527 101.694 72.5225" stroke="#120071" stroke-width="0.769171" stroke-linecap="round" stroke-linejoin="round"/>
<path d="M120.948 76.6814C126.954 67.3888 125.788 65.0783 123.933 61.2088C121.53 56.2082 113.608 42.0428 110.671 37.2733" stroke="#120071" stroke-width="0.769171" stroke-linecap="round" stroke-linejoin="round"/>
<path d="M101.069 11.9119C98.4811 16.5506 95.7764 27.1955 95.5591 32.0239C96.3158 33.2361 97.0574 34.4577 97.7839 35.6883C99.8449 33.8711 102.175 32.3846 104.692 31.2815C104.704 29.9376 105.097 23.7431 101.069 11.9119Z" stroke="#120071" stroke-width="0.769171" stroke-linecap="round" stroke-linejoin="round"/>
<path d="M33.3872 41.4098C34.1758 39.5656 35.5434 38.0282 37.2831 37.0301C39.0228 36.032 41.0402 35.6273 43.0303 35.8772L81.8713 40.8794C83.5541 41.0949 85.1547 41.7336 86.5235 42.7358C87.8924 43.7381 88.9847 45.071 89.6983 46.6102L137.409 149.595" stroke="#120071" stroke-width="0.769171" stroke-linecap="round" stroke-linejoin="round"/>
<path d="M41.4062 45.9688C41.9419 47.132 41.7552 48.368 40.9845 48.7316C40.2138 49.0951 39.1378 48.4408 38.5997 47.2775C38.0617 46.1142 38.2477 44.872 39.0214 44.5146C39.7952 44.1572 40.8704 44.8055 41.4062 45.9688Z" stroke="#120071" stroke-width="0.769171" stroke-linecap="round" stroke-linejoin="round"/>
<path d="M17.1782 52.1641L21.0607 60.5689" stroke="#120071" stroke-width="0.769171" stroke-linecap="round" stroke-linejoin="round"/>
<path d="M23.3146 54.4181L14.9243 58.3151" stroke="#120071" stroke-width="0.769171" stroke-linecap="round" stroke-linejoin="round"/>
<path d="M128.757 58.3586C133.668 59.9711 138.695 59.8127 143.867 58.3586" stroke="#120071" stroke-width="0.769171" stroke-linecap="round" stroke-linejoin="round"/>
<path d="M100.745 49.8643C105.79 48.9021 110.333 46.186 113.569 42.1966" stroke="#120071" stroke-width="0.769171" stroke-linecap="round" stroke-linejoin="round"/>
<path d="M72.8005 10.9521L62.7518 15.1698L71.6808 8.91638L69.3688 4.71398C69.2931 4.57734 69.1857 4.46086 69.0557 4.37431C68.9256 4.28776 68.7767 4.23366 68.6215 4.21657C68.4662 4.19948 68.3091 4.21988 68.1633 4.27607C68.0176 4.33226 67.8874 4.42259 67.7838 4.53948L55.6993 17.9908C55.5657 18.1418 55.482 18.3304 55.4596 18.5307C55.4373 18.7311 55.4774 18.9335 55.5745 19.1102C55.6716 19.2869 55.821 19.4292 56.0021 19.5178C56.1832 19.6064 56.3873 19.6368 56.5863 19.6049L74.4291 16.5949C74.5825 16.5699 74.7276 16.5085 74.8524 16.4159C74.9771 16.3234 75.0779 16.2022 75.1463 16.0627C75.2146 15.9232 75.2485 15.7693 75.2452 15.6139C75.2419 15.4586 75.2014 15.3063 75.1271 15.1698L72.8005 10.9521Z" stroke="#120071" stroke-width="0.769171" stroke-linecap="round" stroke-linejoin="round"/>
<path d="M133.876 123.433C140.886 127.2 142.354 116.453 149.363 120.219" stroke="#120071" stroke-width="0.769171" stroke-linecap="round" stroke-linejoin="round"/>
<path d="M33.1451 103.933C30.3546 103.28 27.6814 102.201 25.2194 100.734C23.7362 99.9196 23.1798 100.738 24.6232 102.013C25.9598 103.147 27.4123 104.137 28.9565 104.966" stroke="#120071" stroke-width="0.769171" stroke-linecap="round" stroke-linejoin="round"/>
<path d="M27.6303 104.209C26.0572 103.706 24.5176 103.104 23.0208 102.406C21.5253 101.616 21.0883 102.635 22.6136 103.801C24.4644 105.063 26.4089 106.181 28.4301 107.147" stroke="#120071" stroke-width="0.769171" stroke-linecap="round" stroke-linejoin="round"/>
<path d="M26.2228 106.041C25.0818 105.777 23.9557 105.451 22.8492 105.067C21.2857 104.481 20.9604 105.572 22.602 106.507C24.3385 107.409 26.148 108.163 28.0113 108.761" stroke="#120071" stroke-width="0.769171" stroke-linecap="round" stroke-linejoin="round"/>
<path d="M40.7358 114.679C40.3286 114.81 33.1881 112.847 28.9857 111.218C27.302 110.564 25.5418 109.906 23.8963 109.095C22.2401 108.278 22.3381 107.46 23.9399 107.83C24.5208 107.964 25.205 108.048 26.3247 108.194" stroke="#120071" stroke-width="0.769171" stroke-linecap="round" stroke-linejoin="round"/>
<path d="M35.8638 113.472C35.6602 117.674 36.4899 121.045 37.784 121.15C41.0221 121.412 42.2994 105.365 39.0782 104.806C36.732 104.282 34.5925 103.078 32.9273 101.344C29.7382 97.8579 28.7386 98.6102 31.764 103.482" stroke="#120071" stroke-width="0.769171" stroke-linecap="round" stroke-linejoin="round"/>
<path d="M71.55 128.523C70.1819 129.141 69.0236 130.144 68.2171 131.41C67.4106 132.676 66.9909 134.15 67.0094 135.651C67.0231 136.774 67.2819 137.88 67.7675 138.893C68.2532 139.905 68.9541 140.799 69.8212 141.513C70.6883 142.226 71.7008 142.742 72.7878 143.023C73.8748 143.305 75.0102 143.346 76.1147 143.143C77.2191 142.94 78.2659 142.499 79.182 141.849C80.0981 141.2 80.8614 140.358 81.4185 139.383C81.9756 138.408 82.3131 137.324 82.4074 136.205C82.5018 135.086 82.3506 133.96 81.9646 132.905C81.4134 131.407 80.4115 130.116 79.0967 129.21C77.7819 128.304 76.2187 127.827 74.6221 127.846C73.5624 127.858 72.5167 128.089 71.55 128.523Z" stroke="#120071" stroke-width="0.769171" stroke-linecap="round" stroke-linejoin="round"/>
<path d="M108.283 37.4332C109.577 37.0115 110.49 36.9403 110.711 37.3169C111.323 38.3608 106.879 41.2966 105.837 41.9356C104.459 42.7775 98.5125 46.0806 97.7686 44.791C97.4395 44.2209 98.801 42.7844 101.026 41.2285" stroke="#120071" stroke-width="0.769171" stroke-linecap="round" stroke-linejoin="round"/>
<path d="M104.691 31.2815C102.176 32.3726 99.849 33.8551 97.7974 35.6737C99.4114 38.4074 101.098 41.2606 102.393 43.7861C104.919 42.6288 107.276 41.1356 109.402 39.3473L104.691 31.2815Z" stroke="#120071" stroke-width="0.769171" stroke-linecap="round" stroke-linejoin="round"/>
<path d="M144.23 24.3454C140.638 27.4426 134.123 37.7822 132.916 41.5192C133.134 43.3224 133.309 44.602 133.425 45.6926C136.103 46.0507 138.82 45.9964 141.482 45.5326L141.452 44.3402C144.564 34.176 144.681 29.8128 144.23 24.3454Z" stroke="#120071" stroke-width="0.769171" stroke-linecap="round" stroke-linejoin="round"/>
<path d="M141.481 45.5326C138.82 45.9964 136.103 46.0504 133.425 45.6925C133.694 48.4622 133.738 51.2488 133.556 54.0254C136.273 54.2526 139.009 54.1009 141.685 53.5746C141.484 45.4537 141.521 46.9071 141.481 45.5326Z" stroke="#120071" stroke-width="0.769171" stroke-linecap="round" stroke-linejoin="round"/>
<path d="M126.357 37.3314C126.12 37.5142 125.834 37.6226 125.535 37.6427C125.236 37.6629 124.938 37.5939 124.678 37.4446C124.418 37.2952 124.209 37.0722 124.076 36.8037C123.943 36.5352 123.892 36.2332 123.931 35.9361C123.97 35.639 124.096 35.3601 124.293 35.1345C124.49 34.909 124.75 34.747 125.039 34.6691C125.329 34.5912 125.634 34.6009 125.918 34.6968C126.202 34.7928 126.451 34.9708 126.634 35.2084C126.877 35.5273 126.984 35.9291 126.932 36.3267C126.88 36.7242 126.674 37.0853 126.357 37.3314Z" stroke="#120071" stroke-width="0.769171" stroke-linecap="round" stroke-linejoin="round"/>
<path d="M80.0713 74.2529C80.0041 74.7237 79.7842 75.1595 79.4453 75.4931C79.1064 75.8267 78.6673 76.0399 78.1955 76.0996C78.6595 76.3215 79.0293 76.7015 79.2385 77.1713C79.4478 77.6411 79.4828 78.1702 79.3373 78.6635C79.1917 79.1566 78.8756 79.5819 78.4453 79.8634C78.0151 80.145 77.4987 80.2643 76.9886 80.2003C77.1675 80.4282 77.2985 80.69 77.3734 80.9699C77.4484 81.2498 77.4659 81.542 77.4248 81.8289C77.3656 82.253 77.1821 82.6502 76.8974 82.9701C76.6128 83.2901 76.2397 83.5185 75.8253 83.6266C75.5497 83.6978 75.2635 83.7146 74.9819 83.6756C74.7757 83.6468 74.5748 83.588 74.3857 83.5011C74.463 83.7904 74.4829 84.0912 74.4438 84.3881C74.39 84.7867 74.226 85.1623 73.9701 85.4727C73.7143 85.783 73.3769 86.0157 72.9959 86.1445C72.6146 86.273 72.2051 86.2923 71.8135 86.2003C71.4218 86.1084 71.0637 85.9088 70.7795 85.6241C70.7818 85.6876 70.7772 85.7512 70.7649 85.8132C70.684 86.3811 70.3818 86.8941 69.9241 87.2401C69.4665 87.586 68.8905 87.7369 68.322 87.6599C67.8997 87.6042 67.5042 87.4217 67.1878 87.1364C66.2135 85.3042 66.3268 83.6159 66.5755 83.3702C68.9481 81.0467 66.923 78.8617 65.8041 80.5202C65.3403 81.209 64.9837 81.4485 64.7411 80.6901C63.903 78.0704 60.2394 74.5805 59.246 81.7125C58.9935 83.1031 59.0027 84.5289 59.2751 85.9157C58.9897 85.6814 58.769 85.3779 58.6341 85.0341C58.4992 84.6904 58.4545 84.3178 58.5044 83.9519C58.5159 83.8631 58.535 83.7759 58.5626 83.6901C58.172 83.8869 57.7301 83.958 57.2975 83.8937C56.731 83.8096 56.2202 83.5066 55.8748 83.0497C55.5295 82.5929 55.3772 82.0187 55.4508 81.4508C55.499 81.1232 55.6184 80.8095 55.7998 80.5324C55.6215 80.547 55.4423 80.547 55.264 80.5324C54.8284 80.474 54.421 80.284 54.0962 79.9877C53.7715 79.6915 53.545 79.3031 53.447 78.8747C53.349 78.4462 53.3841 77.998 53.5477 77.59C53.7113 77.1821 53.9956 76.8338 54.3625 76.5918C53.8584 76.4927 53.4058 76.2179 53.0856 75.8162C52.7653 75.4145 52.5981 74.9122 52.6138 74.3987C52.6295 73.8852 52.8271 73.394 53.1714 73.0126C53.5156 72.6313 53.9841 72.3846 54.4934 72.3166C54.0321 72.0942 53.6646 71.7155 53.4562 71.2478C53.2477 70.7801 53.2118 70.2536 53.3547 69.7619C53.4977 69.2702 53.8104 68.8451 54.2371 68.562C54.6639 68.279 55.1771 68.1564 55.6857 68.216C55.416 67.8778 55.2538 67.4664 55.2203 67.0351C55.1868 66.6037 55.2834 66.1722 55.4976 65.7963C55.7119 65.4205 56.034 65.1175 56.4222 64.9266C56.8105 64.7357 57.2471 64.6656 57.6756 64.7254C57.8775 64.7522 58.0739 64.8111 58.2572 64.8999C58.1539 64.5535 58.1394 64.1866 58.2151 63.8331C58.2908 63.4797 58.4542 63.1509 58.6903 62.8772C58.9264 62.6034 59.2276 62.3935 59.5661 62.2667C59.9046 62.1399 60.2696 62.1003 60.6274 62.1516C61.082 62.2182 61.5045 62.4271 61.8344 62.7478C61.8597 62.2511 62.0553 61.7783 62.3882 61.4088C62.7211 61.0394 63.171 60.7958 63.6624 60.719C64.1538 60.6422 64.6566 60.7369 65.0863 60.9872C65.5161 61.2375 65.8466 61.6282 66.0222 62.0934C66.796 59.7026 70.4182 60.3577 70.3846 62.7914C70.698 62.4051 71.1347 62.1381 71.6215 62.0353C72.1082 61.9325 72.6156 62 73.0585 62.2266C73.5014 62.4532 73.8531 62.825 74.0545 63.2799C74.256 63.7348 74.2951 64.2451 74.1653 64.7254C74.5518 64.5321 74.988 64.4611 75.4158 64.5218C75.9844 64.6031 76.4978 64.9058 76.8441 65.3639C77.1905 65.8221 77.3417 66.3986 77.2648 66.9678C77.2229 67.2996 77.0979 67.6155 76.9013 67.8862C77.2277 67.8564 77.5565 67.9002 77.8637 68.0145C78.1708 68.1288 78.4483 68.3106 78.6758 68.5464C78.9033 68.7823 79.075 69.0662 79.1781 69.3773C79.2812 69.6883 79.3131 70.0186 79.2715 70.3436C79.2291 70.6497 79.1215 70.9431 78.956 71.204C78.7904 71.4649 78.5707 71.6872 78.3118 71.8559C78.859 71.9486 79.3487 72.2506 79.6771 72.698C80.0055 73.1454 80.1469 73.7031 80.0713 74.2529Z" stroke="#120071" stroke-width="0.769171" stroke-linecap="round" stroke-linejoin="round"/>
<path d="M20.668 95.7019L23.9834 102.827" stroke="#120071" stroke-width="0.769171" stroke-linecap="round" stroke-linejoin="round"/>
<path d="M27.6333 110.666L34.323 125.033" stroke="#120071" stroke-width="0.769171" stroke-linecap="round" stroke-linejoin="round"/>
<path d="M24.5361 93.8989L28.4913 102.391" stroke="#120071" stroke-width="0.769171" stroke-linecap="round" stroke-linejoin="round"/>
<path d="M33.2764 112.687L36.4463 119.492" stroke="#120071" stroke-width="0.769171" stroke-linecap="round" stroke-linejoin="round"/>
<path d="M36.9404 120.524L38.191 123.23" stroke="#120071" stroke-width="0.769171" stroke-linecap="round" stroke-linejoin="round"/>
<path d="M133.628 51.03C132.349 51.118 128.041 51.5879 128.601 52.7305C129.187 53.9191 134.877 54.1295 136.319 54.1257C142.074 54.1112 146.223 52.5285 141.626 51.4517" stroke="#120071" stroke-width="0.769171" stroke-linecap="round" stroke-linejoin="round"/>
<path d="M71.8813 102.679C72.4564 101.539 72.9719 100.37 73.4258 99.1772V103.438" stroke="#120071" stroke-width="0.769171" stroke-linecap="round" stroke-linejoin="round"/>
</svg>
