<svg width="512" height="512" viewBox="0 0 512 512" fill="none" xmlns="http://www.w3.org/2000/svg">
<rect width="512" height="512" rx="60" fill="#1A202C"/>
<path d="M211.66 172.623V149.908C211.66 128.741 210.628 118.415 200.819 105.509C197.205 100.862 199.27 85.8907 204.949 82.2768C216.307 76.5979 253.478 103.96 257.608 112.737C260.706 116.35 262.255 120.481 262.255 124.611C259.157 137.001 259.157 144.745 259.157 157.135V169.01C274.645 166.945 290.133 164.363 305.621 161.782C313.365 160.233 328.337 165.396 328.853 170.042C328.853 180.367 314.397 198.953 304.072 198.953C294.263 198.953 284.454 199.469 275.161 200.502L259.157 202.051V270.198C259.157 317.694 258.124 374.484 299.426 374.484C308.719 374.484 325.239 370.354 325.239 377.065C325.239 382.228 315.946 399.265 292.198 401.846C265.868 405.46 240.055 394.102 228.181 377.065C211.66 353.833 211.66 322.341 211.66 272.263V207.213C202.368 207.73 192.559 207.73 181.717 207.73C173.457 207.73 152.806 198.437 152.806 187.595C153.322 183.465 156.42 177.786 158.485 177.27C164.68 177.27 171.908 176.754 178.619 176.237L211.66 172.623Z" fill="#FD93A1"/>
</svg>
