<svg width="135" height="44" viewBox="0 0 135 44" fill="none" xmlns="http://www.w3.org/2000/svg">
<path d="M6.192 42V9.168H12.48V42H6.192ZM0.768 24.336V18.816H17.904V24.336H0.768Z" fill="#FD93A1"/>
<path d="M30.5257 42.48C28.0938 42.48 25.9338 41.968 24.0458 40.944C22.1577 39.888 20.6537 38.448 19.5337 36.624C18.4457 34.8 17.9017 32.72 17.9017 30.384C17.9017 28.08 18.4297 26.032 19.4857 24.24C20.5737 22.416 22.0457 20.976 23.9017 19.92C25.7577 18.832 27.8217 18.288 30.0937 18.288C32.3338 18.288 34.3018 18.8 35.9978 19.824C37.7258 20.816 39.0698 22.192 40.0298 23.952C41.0217 25.68 41.5177 27.648 41.5177 29.856C41.5177 30.272 41.4858 30.704 41.4218 31.152C41.3898 31.568 41.3098 32.048 41.1818 32.592L21.6937 32.64V27.936L38.2538 27.888L35.7098 29.856C35.6458 28.48 35.3898 27.328 34.9418 26.4C34.5258 25.472 33.9018 24.768 33.0697 24.288C32.2697 23.776 31.2777 23.52 30.0937 23.52C28.8457 23.52 27.7578 23.808 26.8298 24.384C25.9018 24.928 25.1818 25.712 24.6697 26.736C24.1897 27.728 23.9497 28.912 23.9497 30.288C23.9497 31.696 24.2057 32.928 24.7178 33.984C25.2617 35.008 26.0297 35.808 27.0217 36.384C28.0137 36.928 29.1658 37.2 30.4778 37.2C31.6618 37.2 32.7338 37.008 33.6938 36.624C34.6538 36.208 35.4858 35.6 36.1897 34.8L39.8858 38.496C38.7658 39.808 37.3898 40.8 35.7578 41.472C34.1578 42.144 32.4138 42.48 30.5257 42.48ZM59.5665 42V28.704C59.5665 27.328 59.1345 26.208 58.2705 25.344C57.4065 24.48 56.2865 24.048 54.9105 24.048C54.0145 24.048 53.2145 24.24 52.5105 24.624C51.8065 25.008 51.2465 25.552 50.8305 26.256C50.4465 26.96 50.2545 27.776 50.2545 28.704L47.8065 27.456C47.8065 25.632 48.1905 24.048 48.9585 22.704C49.7585 21.328 50.8465 20.256 52.2225 19.488C53.6305 18.72 55.2145 18.336 56.9745 18.336C58.6705 18.336 60.1905 18.768 61.5345 19.632C62.8785 20.464 63.9345 21.568 64.7025 22.944C65.4705 24.288 65.8545 25.744 65.8545 27.312V42H59.5665ZM43.9665 42V18.816H50.2545V42H43.9665ZM79.1756 42.48C77.0636 42.48 75.1596 41.952 73.4636 40.896C71.7676 39.84 70.4396 38.4 69.4796 36.576C68.5196 34.752 68.0396 32.704 68.0396 30.432C68.0396 28.128 68.5196 26.064 69.4796 24.24C70.4396 22.416 71.7676 20.976 73.4636 19.92C75.1596 18.864 77.0636 18.336 79.1756 18.336C80.8396 18.336 82.3276 18.672 83.6396 19.344C84.9516 20.016 85.9916 20.96 86.7596 22.176C87.5596 23.36 87.9916 24.704 88.0556 26.208V34.56C87.9916 36.096 87.5596 37.456 86.7596 38.64C85.9916 39.824 84.9516 40.768 83.6396 41.472C82.3276 42.144 80.8396 42.48 79.1756 42.48ZM80.3276 36.672C82.0876 36.672 83.5116 36.096 84.5996 34.944C85.6876 33.76 86.2316 32.24 86.2316 30.384C86.2316 29.168 85.9756 28.096 85.4636 27.168C84.9836 26.208 84.2956 25.472 83.3996 24.96C82.5356 24.416 81.5116 24.144 80.3276 24.144C79.1756 24.144 78.1516 24.416 77.2556 24.96C76.3916 25.472 75.7036 26.208 75.1916 27.168C74.7116 28.096 74.4716 29.168 74.4716 30.384C74.4716 31.632 74.7116 32.736 75.1916 33.696C75.7036 34.624 76.3916 35.36 77.2556 35.904C78.1516 36.416 79.1756 36.672 80.3276 36.672ZM85.8956 42V35.76L86.9036 30.096L85.8956 24.528V18.816H92.1356V42H85.8956ZM96.2584 42V18.816H102.594V42H96.2584ZM99.4264 15.072C98.4024 15.072 97.5544 14.736 96.8824 14.064C96.2104 13.36 95.8744 12.496 95.8744 11.472C95.8744 10.48 96.2104 9.632 96.8824 8.928C97.5544 8.224 98.4024 7.872 99.4264 7.872C100.482 7.872 101.33 8.224 101.97 8.928C102.642 9.632 102.978 10.48 102.978 11.472C102.978 12.496 102.642 13.36 101.97 14.064C101.33 14.736 100.482 15.072 99.4264 15.072ZM116.517 42.48C114.373 42.48 112.453 41.952 110.757 40.896C109.061 39.84 107.717 38.4 106.725 36.576C105.765 34.752 105.285 32.704 105.285 30.432C105.285 28.128 105.765 26.064 106.725 24.24C107.717 22.416 109.045 20.976 110.709 19.92C112.405 18.864 114.341 18.336 116.517 18.336C118.181 18.336 119.669 18.672 120.981 19.344C122.325 20.016 123.397 20.96 124.197 22.176C125.029 23.36 125.477 24.704 125.541 26.208V34.464C125.477 35.968 125.045 37.328 124.245 38.544C123.445 39.76 122.373 40.72 121.029 41.424C119.685 42.128 118.181 42.48 116.517 42.48ZM117.573 36.672C118.757 36.672 119.781 36.416 120.645 35.904C121.541 35.36 122.229 34.624 122.709 33.696C123.221 32.736 123.477 31.632 123.477 30.384C123.477 29.168 123.221 28.096 122.709 27.168C122.229 26.208 121.541 25.472 120.645 24.96C119.781 24.416 118.773 24.144 117.621 24.144C116.437 24.144 115.397 24.416 114.501 24.96C113.637 25.504 112.949 26.24 112.437 27.168C111.957 28.096 111.717 29.168 111.717 30.384C111.717 31.632 111.957 32.736 112.437 33.696C112.949 34.624 113.653 35.36 114.549 35.904C115.445 36.416 116.453 36.672 117.573 36.672ZM129.381 42H123.141V35.76L124.149 30.096L123.093 24.528V7.296H129.381V42Z" fill="#1A202C"/>
</svg>
