<svg width="14" height="14" viewBox="0 0 14 14" fill="none" xmlns="http://www.w3.org/2000/svg">
<path d="M5.34325 6.34091C5.28491 6.33508 5.21491 6.33508 5.15075 6.34091C3.76241 6.29425 2.65991 5.15675 2.65991 3.75675C2.65991 2.32758 3.81491 1.16675 5.24991 1.16675C6.67908 1.16675 7.83991 2.32758 7.83991 3.75675C7.83408 5.15675 6.73158 6.29425 5.34325 6.34091Z" stroke="#465064" stroke-width="1.5" stroke-linecap="round" stroke-linejoin="round"/>
<path d="M9.57241 2.33325C10.7041 2.33325 11.6141 3.24909 11.6141 4.37492C11.6141 5.47742 10.7391 6.37575 9.64825 6.41659C9.60158 6.41075 9.54908 6.41075 9.49658 6.41659" stroke="#465064" stroke-width="1.5" stroke-linecap="round" stroke-linejoin="round"/>
<path d="M2.42667 8.49325C1.015 9.43825 1.015 10.9783 2.42667 11.9174C4.03084 12.9908 6.66167 12.9908 8.26584 11.9174C9.6775 10.9724 9.6775 9.43242 8.26584 8.49325C6.6675 7.42575 4.03667 7.42575 2.42667 8.49325Z" stroke="#465064" stroke-width="1.5" stroke-linecap="round" stroke-linejoin="round"/>
<path d="M10.6982 11.6667C11.1182 11.5792 11.5149 11.4101 11.8416 11.1592C12.7516 10.4767 12.7516 9.35091 11.8416 8.66841C11.5207 8.42341 11.1299 8.26008 10.7157 8.16675" stroke="#465064" stroke-width="1.5" stroke-linecap="round" stroke-linejoin="round"/>
</svg>
