<svg width="300" height="300" viewBox="0 0 300 300" fill="none" xmlns="http://www.w3.org/2000/svg">
<path fill-rule="evenodd" clip-rule="evenodd" d="M14.7749 213.615C15.8456 213.234 16.9724 212.727 17.8413 211.992C18.8733 211.12 19.293 209.997 19.5749 208.815C19.9367 207.296 20.0813 205.679 20.5201 204.157C20.6826 203.592 20.9952 203.379 21.1294 203.284C21.4684 203.045 21.8112 202.981 22.1336 203.005C22.5158 203.032 23.0407 203.177 23.386 203.818C23.4352 203.909 23.4992 204.049 23.5423 204.24C23.5736 204.381 23.5939 204.819 23.6272 205C23.7103 205.446 23.7798 205.891 23.845 206.339C24.0623 207.831 24.1872 209.097 24.8733 210.467C25.8044 212.327 26.7374 213.464 28.0026 213.968C29.226 214.456 30.6887 214.364 32.5577 213.982C32.7355 213.939 32.9115 213.902 33.0856 213.872C33.9096 213.728 34.6973 214.269 34.8592 215.09C35.021 215.91 34.4974 216.709 33.6807 216.89C33.5103 216.927 33.3423 216.963 33.1761 216.995C30.6506 217.621 27.7269 219.852 26.0278 221.806C25.5041 222.408 24.7373 224.093 23.9552 225.167C23.378 225.96 22.7293 226.482 22.1847 226.667C21.8198 226.791 21.5121 226.772 21.258 226.709C20.8887 226.618 20.5823 226.418 20.3472 226.1C20.2192 225.926 20.1004 225.693 20.0438 225.395C20.0167 225.251 20.0137 224.887 20.0143 224.722C19.8549 224.174 19.6598 223.639 19.5177 223.085C19.1786 221.765 18.5133 220.93 17.7232 219.826C16.9841 218.792 16.1903 218.143 15.0266 217.625C14.8752 217.588 13.6537 217.289 13.2223 217.117C12.5921 216.866 12.2918 216.444 12.1829 216.217C11.9976 215.832 11.9786 215.495 12.0155 215.215C12.0703 214.8 12.2561 214.446 12.586 214.16C12.7903 213.982 13.0955 213.809 13.5041 213.725C13.8198 213.659 14.6573 213.621 14.7749 213.615ZM21.941 211.464C21.9976 211.59 22.058 211.717 22.122 211.845C23.4856 214.568 25.0106 216.089 26.8641 216.827L26.9263 216.851C25.6863 217.771 24.5638 218.8 23.7059 219.787C23.3527 220.193 22.885 221.037 22.3798 221.902C21.9207 220.41 21.17 219.355 20.226 218.035C19.5047 217.027 18.749 216.269 17.8204 215.651C18.541 215.282 19.2284 214.848 19.8272 214.343C20.8241 213.5 21.4832 212.524 21.941 211.464Z" fill="#417BA4"/>
<circle cx="42" cy="32" r="6" fill="#417BA4"/>
<circle cx="281" cy="157" r="6" fill="#417BA4"/>
<path d="M141 254C203.96 254 255 202.96 255 140C255 77.0395 203.96 26 141 26C78.0395 26 27 77.0395 27 140C27 202.96 78.0395 254 141 254Z" fill="url(#paint0_linear_1216_4912)"/>
<path fill-rule="evenodd" clip-rule="evenodd" d="M140.5 71C152.926 71 163 60.9264 163 48.5C163 36.0736 152.926 26 140.5 26C128.074 26 118 36.0736 118 48.5C118 60.9264 128.074 71 140.5 71ZM140 61C146.627 61 152 55.6274 152 49C152 42.3726 146.627 37 140 37C133.373 37 128 42.3726 128 49C128 55.6274 133.373 61 140 61Z" fill="#011625"/>
<path d="M140.05 229.1C164.378 229.1 184.1 209.378 184.1 185.05C184.1 160.722 164.378 141 140.05 141C115.722 141 96 160.722 96 185.05C96 209.378 115.722 229.1 140.05 229.1Z" fill="#FD93A1"/>
<path d="M209.767 152.299V118.504C209.767 100.07 202.444 82.3917 189.41 69.3572C176.375 56.3227 158.697 49 140.263 49C121.83 49 104.151 56.3227 91.1165 69.3572C78.082 82.3917 70.7593 100.07 70.7593 118.504V152.299C70.7601 160.063 68.5637 167.669 64.424 174.237C60.2843 180.806 54.3702 186.069 47.3655 189.418C45.7555 190.184 44.3965 191.393 43.4466 192.902C42.4967 194.411 41.9951 196.159 42 197.942V198.125C41.9988 198.769 42.1247 199.407 42.3703 200.003C42.6159 200.598 42.9765 201.139 43.4315 201.595C43.8865 202.051 44.4269 202.412 45.0218 202.659C45.6168 202.906 46.2545 203.033 46.8985 203.033H233.619C234.263 203.033 234.9 202.906 235.495 202.659C236.09 202.412 236.631 202.051 237.086 201.595C237.541 201.139 237.901 200.598 238.147 200.003C238.393 199.407 238.518 198.769 238.517 198.125V197.942C238.518 196.165 238.015 194.423 237.067 192.919C236.119 191.416 234.765 190.211 233.161 189.445C226.152 186.094 220.235 180.827 216.095 174.253C211.955 167.68 209.761 160.068 209.767 152.299Z" fill="#E1DCEB"/>
<path fill-rule="evenodd" clip-rule="evenodd" d="M239 203H42V197H239V203Z" fill="#011625"/>
<path d="M196 113C211.464 113 224 100.464 224 85C224 69.536 211.464 57 196 57C180.536 57 168 69.536 168 85C168 100.464 180.536 113 196 113Z" fill="white"/>
<path fill-rule="evenodd" clip-rule="evenodd" d="M86.1081 218.302C81.3176 222.634 76.5405 226.879 71.8784 231.349C70.8719 232.307 70.834 233.886 71.7862 234.882C72.7414 235.887 74.3298 235.918 75.3268 234.963C79.9665 230.522 84.7019 226.312 89.4605 222.011C90.4858 221.078 90.5651 219.495 89.6479 218.478C88.7182 217.454 87.1334 217.369 86.1081 218.302Z" fill="#011625"/>
<path fill-rule="evenodd" clip-rule="evenodd" d="M194.324 218.304C199.088 222.637 203.838 226.883 208.473 231.353C209.474 232.311 209.503 233.89 208.547 234.883C207.588 235.886 206.001 235.916 205.01 234.961C200.398 230.519 195.689 226.308 190.957 222.006C189.937 221.073 189.866 219.492 190.787 218.476C191.721 217.454 193.305 217.371 194.324 218.304Z" fill="#011625"/>
<path fill-rule="evenodd" clip-rule="evenodd" d="M137.152 246.296C137.076 252.741 136.945 259.117 137.057 265.56C137.076 266.947 138.208 268.043 139.584 268.017C140.969 267.995 142.07 266.851 142.046 265.474C141.94 259.066 142.069 252.744 142.146 246.343C142.158 244.96 141.052 243.832 139.684 243.817C138.303 243.807 137.165 244.913 137.152 246.296Z" fill="#011625"/>
<path d="M199.358 76.5455V94H195.148V80.483H195.045L191.142 82.8693V79.2216L195.446 76.5455H199.358Z" fill="black"/>
<defs>
<linearGradient id="paint0_linear_1216_4912" x1="140.121" y1="-11.1212" x2="142.457" y2="389.23" gradientUnits="userSpaceOnUse">
<stop stop-color="#F2F2F2"/>
<stop offset="1" stop-color="#EFEFEF"/>
</linearGradient>
</defs>
</svg>
