<svg width="16" height="17" viewBox="0 0 16 17" fill="none" xmlns="http://www.w3.org/2000/svg">
<path d="M11.6335 15.6666C10.8802 15.6666 10.0868 15.4866 9.26683 15.1399C8.46683 14.7999 7.66016 14.3333 6.8735 13.7666C6.0935 13.1933 5.34016 12.5533 4.62683 11.8533C3.92016 11.1399 3.28016 10.3866 2.7135 9.61325C2.14016 8.81325 1.68016 8.01325 1.3535 7.23992C1.00683 6.41325 0.833496 5.61325 0.833496 4.85992C0.833496 4.33992 0.926829 3.84659 1.10683 3.38659C1.2935 2.91325 1.5935 2.47325 2.00016 2.09325C2.5135 1.58659 3.10016 1.33325 3.72683 1.33325C3.98683 1.33325 4.2535 1.39325 4.48016 1.49992C4.74016 1.61992 4.96016 1.79992 5.12016 2.03992L6.66683 4.21992C6.80683 4.41325 6.9135 4.59992 6.98683 4.78659C7.0735 4.98659 7.12016 5.18659 7.12016 5.37992C7.12016 5.63325 7.04683 5.87992 6.90683 6.11325C6.80683 6.29325 6.6535 6.48659 6.46016 6.67992L6.00683 7.15325C6.0135 7.17325 6.02016 7.18659 6.02683 7.19992C6.10683 7.33992 6.26683 7.57992 6.5735 7.93992C6.90016 8.31325 7.20683 8.65325 7.5135 8.96659C7.90683 9.35325 8.2335 9.65992 8.54016 9.91325C8.92016 10.2333 9.16683 10.3933 9.3135 10.4666L9.30016 10.4999L9.78683 10.0199C9.9935 9.81325 10.1935 9.65992 10.3868 9.55992C10.7535 9.33325 11.2202 9.29325 11.6868 9.48659C11.8602 9.55992 12.0468 9.65992 12.2468 9.79992L14.4602 11.3733C14.7068 11.5399 14.8868 11.7533 14.9935 12.0066C15.0935 12.2599 15.1402 12.4933 15.1402 12.7266C15.1402 13.0466 15.0668 13.3666 14.9268 13.6666C14.7868 13.9666 14.6135 14.2266 14.3935 14.4666C14.0135 14.8866 13.6002 15.1866 13.1202 15.3799C12.6602 15.5666 12.1602 15.6666 11.6335 15.6666ZM3.72683 2.33325C3.36016 2.33325 3.02016 2.49325 2.6935 2.81325C2.38683 3.09992 2.1735 3.41325 2.04016 3.75325C1.90016 4.09992 1.8335 4.46659 1.8335 4.85992C1.8335 5.47992 1.98016 6.15325 2.2735 6.84659C2.5735 7.55325 2.9935 8.28659 3.52683 9.01992C4.06016 9.75325 4.66683 10.4666 5.3335 11.1399C6.00016 11.7999 6.72016 12.4133 7.46016 12.9533C8.18016 13.4799 8.92016 13.9066 9.6535 14.2133C10.7935 14.6999 11.8602 14.8133 12.7402 14.4466C13.0802 14.3066 13.3802 14.0933 13.6535 13.7866C13.8068 13.6199 13.9268 13.4399 14.0268 13.2266C14.1068 13.0599 14.1468 12.8866 14.1468 12.7133C14.1468 12.6066 14.1268 12.4999 14.0735 12.3799C14.0535 12.3399 14.0135 12.2666 13.8868 12.1799L11.6735 10.6066C11.5402 10.5133 11.4202 10.4466 11.3068 10.3999C11.1602 10.3399 11.1002 10.2799 10.8735 10.4199C10.7402 10.4866 10.6202 10.5866 10.4868 10.7199L9.98016 11.2199C9.72016 11.4733 9.32016 11.5333 9.0135 11.4199L8.8335 11.3399C8.56016 11.1933 8.24016 10.9666 7.88683 10.6666C7.56683 10.3933 7.22016 10.0733 6.80016 9.65992C6.4735 9.32659 6.14683 8.97325 5.80683 8.57992C5.4935 8.21325 5.26683 7.89992 5.12683 7.63992L5.04683 7.43992C5.00683 7.28659 4.9935 7.19992 4.9935 7.10659C4.9935 6.86659 5.08016 6.65325 5.24683 6.48659L5.74683 5.96659C5.88016 5.83325 5.98016 5.70659 6.04683 5.59325C6.10016 5.50659 6.12016 5.43325 6.12016 5.36659C6.12016 5.31325 6.10016 5.23325 6.06683 5.15325C6.02016 5.04659 5.94683 4.92659 5.8535 4.79992L4.30683 2.61325C4.24016 2.51992 4.16016 2.45325 4.06016 2.40659C3.9535 2.35992 3.84016 2.33325 3.72683 2.33325ZM9.30016 10.5066L9.1935 10.9599L9.3735 10.4933C9.34016 10.4866 9.3135 10.4933 9.30016 10.5066Z" fill="#465064"/>
</svg>
