<svg width="154" height="154" viewBox="0 0 154 154" fill="none" xmlns="http://www.w3.org/2000/svg">
<path d="M119.333 37.3061L116.934 36.3755C117.364 36.5539 117.722 36.8713 117.951 37.277C119.176 39.2401 118.87 43.7333 117.021 48.4883C115.189 53.2425 112.382 56.776 110.157 57.4013C109.71 57.5381 109.231 57.5279 108.791 57.3722L111.19 58.3028C113.486 59.1898 117.166 55.2201 119.419 49.4182C121.672 43.6162 121.63 38.1916 119.333 37.3061Z" fill="#FECFC4"/>
<path d="M125.148 73.9922L123.883 71.7536C124.106 72.1669 124.183 72.6437 124.101 73.1059C123.795 75.3889 120.713 78.6752 116.278 81.19C111.843 83.7049 107.438 84.6508 105.315 83.7347C104.877 83.5632 104.509 83.2512 104.268 82.8477L105.533 85.0871C106.758 87.2246 112.135 86.483 117.544 83.4294C122.953 80.3612 126.357 76.1435 125.148 73.9922Z" fill="#FECFC4"/>
<path d="M120.541 69.7614C118.636 71.0701 114.128 71.012 109.29 69.427C104.453 67.842 100.769 65.2246 100.03 63.0434C99.8637 62.6053 99.8484 62.1243 99.9862 61.6765L99.1864 64.1195C98.4157 66.4606 102.589 69.9359 108.493 71.8699C114.411 73.8039 119.82 73.4687 120.59 71.1275L121.39 68.6854C121.233 69.1279 120.934 69.5061 120.541 69.7614Z" fill="#FECFC4"/>
<path d="M84.0128 94.6407C81.8317 95.3677 77.5129 94.059 73.2983 91.1967C69.0959 88.3175 66.2902 84.784 66.1731 82.4865C66.1346 82.0206 66.2523 81.555 66.5076 81.1633L65.068 83.2863C63.6866 85.3221 66.7264 89.8153 71.8733 93.3197C77.0063 96.8241 82.3138 98.0012 83.6952 95.9662L85.1348 93.8432C84.8657 94.2321 84.4686 94.5144 84.0128 94.6407Z" fill="#FECFC4"/>
<path d="M80.5521 51.8144L78.1528 50.8838C78.5875 51.0644 78.9464 51.3889 79.1707 51.8022C80.3952 53.7652 80.0891 58.2584 78.2523 63.0134C76.4056 67.7684 73.6136 71.2873 71.3888 71.9271C70.9419 72.064 70.4627 72.0538 70.022 71.8981L72.4213 72.8279C74.7172 73.7157 78.4122 69.7307 80.6516 63.9295C82.9078 58.1283 82.8496 52.7045 80.5521 51.8144Z" fill="#FECFC4"/>
<path d="M90.5711 78.0053L89.8954 75.6145C89.9918 76.0408 89.9482 76.4869 89.7714 76.8864C88.9295 79.0378 85.1473 81.4952 80.2324 82.8621C75.3175 84.2397 70.8097 84.0981 68.9775 82.7021C68.5921 82.4364 68.3097 82.0462 68.1777 81.597L68.8757 84.069C69.5446 86.4415 74.9394 87.0063 80.9303 85.3341C86.9213 83.6619 91.24 80.3756 90.5711 78.0053Z" fill="#FECFC4"/>
<path d="M53.4049 92.4304L51.9217 90.3364C52.185 90.7206 52.3174 91.1798 52.2998 91.6452C52.2562 93.9281 49.6211 97.4325 45.5818 100.282C41.5424 103.131 37.3522 104.441 35.1848 103.714C34.7374 103.578 34.3452 103.303 34.0659 102.928L35.5491 105.022C36.9734 107.029 42.121 105.851 47.0504 102.377C51.9799 98.902 54.8299 94.4516 53.4049 92.4304Z" fill="#FECFC4"/>
<path d="M44.8691 91.9361C43.1387 93.4339 38.7763 93.8265 33.9494 92.7359C29.1225 91.6453 25.3556 89.4205 24.4395 87.3266C24.2386 86.9058 24.1823 86.4303 24.2795 85.9743L23.7124 88.4753C23.1767 90.8892 27.4931 93.9137 33.3823 95.2515C39.2707 96.5748 44.491 95.7023 45.029 93.303L45.5961 90.8019C45.4848 91.2496 45.2294 91.6481 44.8691 91.9361Z" fill="#FECFC4"/>
<path d="M40.2452 64.3811L37.8169 63.5393C38.2554 63.7 38.6312 63.9946 38.8929 64.3811C40.1871 66.2569 40.0853 70.6484 38.4567 75.3153C36.8281 79.9823 34.1816 83.4875 32.0012 84.1564C31.5587 84.3065 31.0798 84.3116 30.6343 84.1709L33.0627 85.0128C35.3892 85.8271 38.8791 81.8749 40.869 76.1717C42.8481 70.4739 42.5718 65.1954 40.2452 64.3811Z" fill="#FECFC4"/>
<path d="M46.8033 102.565C41.9465 105.895 36.9589 107 35.5637 105.022L34.0805 102.928C33.9128 102.676 33.7969 102.394 33.7395 102.097C33.6821 101.8 33.6843 101.495 33.7461 101.199C29.6133 101.867 26.7051 103.467 26.7051 105.342C26.7051 108.648 34.216 109.806 37.9554 109.806C43.0448 109.806 47.349 108.468 48.7464 106.622C49.9733 104.992 48.65 103.498 46.8033 102.565Z" fill="#6153BD"/>
<path d="M85.4675 92.8812C85.4476 93.2241 85.3374 93.5547 85.1476 93.8409L83.708 95.9639C82.3266 97.9997 77.0336 96.8219 71.8861 93.3174C71.0008 92.7126 70.1511 92.0571 69.3414 91.3544C66.3459 92.1687 64.3828 93.521 64.3828 95.0624C64.3828 98.3609 71.9595 99.5265 75.6377 99.5265C79.3648 99.5265 86.8926 98.3671 86.8926 95.0624C86.8445 94.612 86.6903 94.1794 86.4426 93.8003C86.1949 93.4211 85.8607 93.1061 85.4675 92.8812Z" fill="#6153BD"/>
<path d="M120.176 81.7426C119.334 82.3466 118.46 82.9048 117.559 83.4149C112.135 86.483 106.768 87.2247 105.548 85.0726L104.283 82.8332C104.078 82.4597 103.998 82.0309 104.053 81.6087C101.552 82.583 99.7926 84.2552 101.16 86.0728C104.31 90.2821 119.523 90.3265 122.738 86.0728C124.103 84.2514 122.282 82.648 120.176 81.7426Z" fill="#6153BD"/>
<path d="M123.171 128.434H146.03" stroke="#120071" stroke-width="0.769171" stroke-linecap="round" stroke-linejoin="round"/>
<path d="M86.8926 128.434H100.648" stroke="#120071" stroke-width="0.769171" stroke-linecap="round" stroke-linejoin="round"/>
<path d="M49.2188 128.434H64.3684" stroke="#120071" stroke-width="0.769171" stroke-linecap="round" stroke-linejoin="round"/>
<path d="M138.701 124.478L146.03 128.434L138.701 132.403" stroke="#120071" stroke-width="0.769171" stroke-linecap="round" stroke-linejoin="round"/>
<path d="M144.83 39.0804V45.4349" stroke="#120071" stroke-width="0.769171" stroke-linecap="round" stroke-linejoin="round"/>
<path d="M148.007 42.2572H141.653" stroke="#120071" stroke-width="0.769171" stroke-linecap="round" stroke-linejoin="round"/>
<path d="M124.437 148.034C124.48 148.222 124.481 148.417 124.44 148.605C124.399 148.793 124.317 148.97 124.199 149.122C124.082 149.275 123.932 149.399 123.761 149.487C123.589 149.575 123.401 149.623 123.208 149.629C122.951 149.637 122.697 149.569 122.478 149.432C122.26 149.295 122.087 149.097 121.982 148.862C121.904 148.686 121.865 148.495 121.869 148.302C121.873 148.11 121.92 147.921 122.006 147.748C122.091 147.576 122.215 147.425 122.366 147.306C122.517 147.187 122.693 147.103 122.881 147.06C123.216 146.984 123.568 147.043 123.86 147.226C124.151 147.409 124.359 147.699 124.437 148.034Z" stroke="#120071" stroke-width="0.769171" stroke-linecap="round" stroke-linejoin="round"/>
<path d="M26.6934 125.874C26.6934 129.179 34.2211 130.338 37.9475 130.338C41.5261 130.338 49.2023 129.19 49.2023 125.874" stroke="#120071" stroke-width="0.769171" stroke-linecap="round" stroke-linejoin="round"/>
<path d="M26.6934 123.3C26.6934 126.605 34.2211 127.765 37.9475 127.765C41.5261 127.765 49.2023 126.617 49.2023 123.3" stroke="#120071" stroke-width="0.769171" stroke-linecap="round" stroke-linejoin="round"/>
<path d="M26.6934 120.741C26.6934 124.046 34.2211 125.205 37.9475 125.205C41.5261 125.205 49.2023 124.057 49.2023 120.741" stroke="#120071" stroke-width="0.769171" stroke-linecap="round" stroke-linejoin="round"/>
<path d="M26.6934 118.168C26.6934 121.473 34.2211 122.632 37.9475 122.632C41.5261 122.632 49.2023 121.484 49.2023 118.168" stroke="#120071" stroke-width="0.769171" stroke-linecap="round" stroke-linejoin="round"/>
<path d="M26.6934 115.608C26.6934 118.913 34.2211 120.072 37.9475 120.072C41.5261 120.072 49.2023 118.924 49.2023 115.608" stroke="#120071" stroke-width="0.769171" stroke-linecap="round" stroke-linejoin="round"/>
<path d="M26.6934 113.034C26.6934 116.339 34.2211 117.499 37.9475 117.499C41.5261 117.499 49.2023 116.351 49.2023 113.034" stroke="#120071" stroke-width="0.769171" stroke-linecap="round" stroke-linejoin="round"/>
<path d="M26.6934 110.475C26.6934 113.78 34.2211 114.939 37.9475 114.939C41.5261 114.939 49.2023 113.791 49.2023 110.475" stroke="#120071" stroke-width="0.769171" stroke-linecap="round" stroke-linejoin="round"/>
<path d="M26.6934 107.901C26.6934 111.206 34.2211 112.366 37.9475 112.366C41.5261 112.366 49.2023 111.218 49.2023 107.901" stroke="#120071" stroke-width="0.769171" stroke-linecap="round" stroke-linejoin="round"/>
<path d="M33.7461 101.199C29.6133 101.868 26.7051 103.467 26.7051 105.342C26.7051 108.641 34.2818 109.806 37.9554 109.806C41.6825 109.806 49.2118 108.647 49.2118 105.342C49.2118 104.296 48.3087 103.322 46.7819 102.565" stroke="#120071" stroke-width="0.769171" stroke-linecap="round" stroke-linejoin="round"/>
<path d="M26.6855 105.342V128.434C26.6855 130.891 31.7244 132.897 37.9473 132.897C44.1702 132.897 49.2182 130.907 49.2182 128.434V105.342" stroke="#120071" stroke-width="0.769171" stroke-linecap="round" stroke-linejoin="round"/>
<path d="M112.804 72.9023C109.273 74.6679 102.54 79.752 104.268 82.8332C105.847 85.6748 113.031 83.0069 116.279 81.1755C119.505 79.3456 125.492 74.6327 123.884 71.739C123.419 70.9102 122.299 70.503 120.787 70.5145" stroke="#120071" stroke-width="0.769171" stroke-linecap="round" stroke-linejoin="round"/>
<path d="M112.077 60.9351C106.159 59.0011 100.75 59.3356 99.9789 61.6775C98.9212 64.7449 105.733 68.2639 109.285 69.4271C112.777 70.5675 120.291 71.8532 121.383 68.6856C122.153 66.3444 117.981 62.8691 112.077 60.9351Z" stroke="#120071" stroke-width="0.769171" stroke-linecap="round" stroke-linejoin="round"/>
<path d="M121.383 68.6854L120.583 71.1284C119.812 73.4703 114.403 73.807 108.485 71.8707C102.581 69.9375 98.4084 66.4606 99.1791 64.1195L99.9789 61.6766" stroke="#120071" stroke-width="0.769171" stroke-linecap="round" stroke-linejoin="round"/>
<path d="M80.4799 85.4362C84.1298 88.4753 86.3729 92.0256 85.1331 93.8548C82.2394 98.126 66.4538 88.574 66.186 82.4981C66.1286 81.1787 66.9383 80.4225 68.2837 80.2167" stroke="#120071" stroke-width="0.769171" stroke-linecap="round" stroke-linejoin="round"/>
<path d="M89.8734 75.5338C89.2191 73.149 83.8273 72.5827 77.8042 74.284C71.8133 75.9555 67.4945 79.2418 68.1611 81.612C69.0237 84.7383 76.6172 83.8781 80.2158 82.8771C83.8143 81.876 90.7275 78.739 89.8734 75.5338Z" stroke="#120071" stroke-width="0.769171" stroke-linecap="round" stroke-linejoin="round"/>
<path d="M89.8732 75.5333L90.5712 78.0053C91.2401 80.3778 86.9214 83.6618 80.9281 85.3341C74.9349 87.0063 69.5424 86.4392 68.8735 84.069L68.2612 81.8794" stroke="#120071" stroke-width="0.769171" stroke-linecap="round" stroke-linejoin="round"/>
<path d="M78.1531 50.887C75.8572 50 72.1622 53.9843 69.9374 59.7725C67.6835 65.5736 67.7424 70.9975 70.0392 71.8837C73.0783 73.1419 76.9761 66.355 78.2695 62.9998C79.6111 59.5176 81.2466 52.061 78.1531 50.887Z" stroke="#120071" stroke-width="0.769171" stroke-linecap="round" stroke-linejoin="round"/>
<path d="M78.1529 50.887L80.5522 51.8146C82.8482 52.7016 82.9018 58.1231 80.654 63.9274C78.4062 69.7316 74.7212 73.7159 72.4237 72.8288L70.0244 71.899" stroke="#120071" stroke-width="0.769171" stroke-linecap="round" stroke-linejoin="round"/>
<path d="M116.934 36.3756C114.638 35.4886 110.943 39.4729 108.718 45.2595C106.464 51.0614 106.522 56.4853 108.82 57.3723C111.858 58.6297 115.757 51.8436 117.05 48.4884C118.391 45.0031 120.027 37.5488 116.934 36.3756Z" stroke="#120071" stroke-width="0.769171" stroke-linecap="round" stroke-linejoin="round"/>
<path d="M116.933 36.3755L119.333 37.3062C121.629 38.194 121.682 43.614 119.434 49.4182C117.186 55.2224 113.499 59.2044 111.203 58.3197L108.804 57.3891" stroke="#120071" stroke-width="0.769171" stroke-linecap="round" stroke-linejoin="round"/>
<path d="M45.6256 90.162C48.5629 89.0569 51.0004 89.0462 51.9219 90.3365C53.8168 92.9907 48.5904 98.162 45.5697 100.286C39.5236 104.526 33.1592 105.287 33.7485 101.187C33.9651 99.6743 35.1727 97.7265 37.0631 95.8071" stroke="#120071" stroke-width="0.769171" stroke-linecap="round" stroke-linejoin="round"/>
<path d="M34.0659 102.914C34.3453 103.289 34.7371 103.564 35.1848 103.699C37.017 104.311 40.2857 103.476 43.6914 101.49C44.3159 101.125 44.9435 100.724 45.5672 100.283C49.6166 97.4425 52.2309 93.9305 52.2852 91.6452C52.3136 91.1806 52.1856 90.7199 51.9217 90.3365" stroke="#120071" stroke-width="0.769171" stroke-linecap="round" stroke-linejoin="round"/>
<path d="M51.9217 90.3365L53.4049 92.4304C54.7886 94.3935 52.1398 98.6479 47.4698 102.074C44.3282 104.379 37.4777 107.761 35.5491 105.022L34.0659 102.913" stroke="#120071" stroke-width="0.769171" stroke-linecap="round" stroke-linejoin="round"/>
<path d="M44.7734 93.9138C44.9001 93.9043 45.0273 93.9243 45.1449 93.9722C45.2626 94.0202 45.3675 94.0947 45.4515 94.19L46.9347 96.0804" stroke="#120071" stroke-width="0.769171" stroke-linecap="round" stroke-linejoin="round"/>
<path d="M36.0574 84.0547C41.8738 85.4071 46.1528 88.4033 45.5964 90.8018C44.8563 93.9963 37.5796 93.57 33.9497 92.7503C30.4988 91.9705 23.5504 89.1694 24.2798 85.9887C24.6196 84.507 26.7227 83.6039 29.6455 83.444" stroke="#120071" stroke-width="0.769171" stroke-linecap="round" stroke-linejoin="round"/>
<path d="M45.5964 90.802L45.0293 93.3031C44.4936 95.7024 39.2695 96.5817 33.3826 95.2516C27.4957 93.9214 23.1747 90.8892 23.7127 88.4754L24.2798 85.9743" stroke="#120071" stroke-width="0.769171" stroke-linecap="round" stroke-linejoin="round"/>
<path d="M37.8168 63.5378C35.4902 62.7235 32.0003 66.6932 29.9944 72.3934C28.0168 78.0927 28.2931 83.3712 30.6197 84.1855C33.7192 85.257 37.2711 78.6866 38.4421 75.3299C39.6635 71.8316 40.911 64.6047 37.8168 63.5378Z" stroke="#120071" stroke-width="0.769171" stroke-linecap="round" stroke-linejoin="round"/>
<path d="M37.8168 63.5379L40.2452 64.3797C42.5718 65.194 42.8549 70.4748 40.8704 76.1719C38.8859 81.8689 35.3884 85.8272 33.0641 85.0129L30.6357 84.171" stroke="#120071" stroke-width="0.769171" stroke-linecap="round" stroke-linejoin="round"/>
<path d="M9.78223 98.4214V70.125" stroke="#120071" stroke-width="0.769171" stroke-linecap="round" stroke-linejoin="round"/>
<path d="M5.82764 77.453L9.78207 70.125L13.7518 77.453" stroke="#120071" stroke-width="0.769171" stroke-linecap="round" stroke-linejoin="round"/>
<path d="M85.0227 94.0031L83.6933 95.9639C82.3157 97.9996 77.0067 96.818 71.8713 93.3174C66.736 89.8168 63.6823 85.3197 65.0661 83.284L66.5202 81.1755" stroke="#120071" stroke-width="0.769171" stroke-linecap="round" stroke-linejoin="round"/>
<path d="M104.269 82.8333L105.534 85.0726C106.758 87.2101 112.138 86.4739 117.545 83.4149C122.951 80.3559 126.356 76.1298 125.149 73.9784L123.884 71.7536" stroke="#120071" stroke-width="0.769171" stroke-linecap="round" stroke-linejoin="round"/>
<path d="M100.677 105.328C100.677 108.632 108.204 109.792 111.932 109.792C115.51 109.792 123.182 108.644 123.182 105.328" stroke="#120071" stroke-width="0.769171" stroke-linecap="round" stroke-linejoin="round"/>
<path d="M100.677 102.755C100.677 106.059 108.204 107.218 111.932 107.218C115.51 107.218 123.182 106.07 123.182 102.755" stroke="#120071" stroke-width="0.769171" stroke-linecap="round" stroke-linejoin="round"/>
<path d="M100.677 107.931C100.677 111.235 108.204 112.395 111.932 112.395C115.51 112.395 123.182 111.247 123.182 107.931" stroke="#120071" stroke-width="0.769171" stroke-linecap="round" stroke-linejoin="round"/>
<path d="M100.677 110.519C100.677 113.824 108.204 114.983 111.932 114.983C115.51 114.983 123.182 113.835 123.182 110.519" stroke="#120071" stroke-width="0.769171" stroke-linecap="round" stroke-linejoin="round"/>
<path d="M100.677 113.107C100.677 116.412 108.204 117.571 111.932 117.571C115.51 117.571 123.182 116.423 123.182 113.107" stroke="#120071" stroke-width="0.769171" stroke-linecap="round" stroke-linejoin="round"/>
<path d="M100.677 115.695C100.677 119 108.204 120.16 111.932 120.16C115.51 120.16 123.182 119.012 123.182 115.695" stroke="#120071" stroke-width="0.769171" stroke-linecap="round" stroke-linejoin="round"/>
<path d="M100.677 118.284C100.677 121.589 108.204 122.748 111.932 122.748C115.51 122.748 123.182 121.6 123.182 118.284" stroke="#120071" stroke-width="0.769171" stroke-linecap="round" stroke-linejoin="round"/>
<path d="M100.677 120.872C100.677 124.177 108.204 125.336 111.932 125.336C115.51 125.336 123.182 124.188 123.182 120.872" stroke="#120071" stroke-width="0.769171" stroke-linecap="round" stroke-linejoin="round"/>
<path d="M100.677 123.461C100.677 126.765 108.204 127.925 111.932 127.925C115.51 127.925 123.182 126.777 123.182 123.461" stroke="#120071" stroke-width="0.769171" stroke-linecap="round" stroke-linejoin="round"/>
<path d="M100.677 126.051C100.677 129.356 108.204 130.516 111.932 130.516C115.51 130.516 123.182 129.368 123.182 126.051" stroke="#120071" stroke-width="0.769171" stroke-linecap="round" stroke-linejoin="round"/>
<path d="M100.677 100.196C100.677 103.5 108.204 104.659 111.932 104.659C115.51 104.659 123.182 103.511 123.182 100.196" stroke="#120071" stroke-width="0.769171" stroke-linecap="round" stroke-linejoin="round"/>
<path d="M100.677 97.622C100.677 100.927 108.204 102.086 111.932 102.086C115.51 102.086 123.182 100.938 123.182 97.622" stroke="#120071" stroke-width="0.769171" stroke-linecap="round" stroke-linejoin="round"/>
<path d="M100.677 95.0627C100.677 98.3674 108.204 99.5268 111.932 99.5268C115.51 99.5268 123.182 98.3789 123.182 95.0627" stroke="#120071" stroke-width="0.769171" stroke-linecap="round" stroke-linejoin="round"/>
<path d="M100.677 92.4889C100.677 95.7935 108.204 96.953 111.932 96.953C115.51 96.953 123.182 95.805 123.182 92.4889" stroke="#120071" stroke-width="0.769171" stroke-linecap="round" stroke-linejoin="round"/>
<path d="M100.677 89.9279C100.677 93.2326 108.204 94.3921 111.932 94.3921C115.51 94.3921 123.182 93.2441 123.182 89.9279" stroke="#120071" stroke-width="0.769171" stroke-linecap="round" stroke-linejoin="round"/>
<path d="M100.677 87.3558C100.677 90.6604 108.204 91.8199 111.932 91.8199C115.51 91.8199 123.182 90.6719 123.182 87.3558" stroke="#120071" stroke-width="0.769171" stroke-linecap="round" stroke-linejoin="round"/>
<path d="M100.67 85.0766V128.44C100.67 130.897 105.708 132.904 111.932 132.904C118.155 132.904 123.193 130.914 123.193 128.44V85.1225" stroke="#120071" stroke-width="0.769171" stroke-linecap="round" stroke-linejoin="round"/>
<path d="M120.158 81.7426C122.301 82.6495 124.116 84.2375 122.732 86.0758C119.525 90.3356 104.305 90.2851 101.154 86.0758C99.7974 84.2727 101.519 82.612 103.989 81.6369" stroke="#120071" stroke-width="0.769171" stroke-linecap="round" stroke-linejoin="round"/>
<path d="M64.3657 115.608C64.3657 118.913 71.8935 120.073 75.6206 120.073C79.1985 120.073 86.8755 118.925 86.8755 115.608" stroke="#120071" stroke-width="0.769171" stroke-linecap="round" stroke-linejoin="round"/>
<path d="M64.3657 113.035C64.3657 116.339 71.8935 117.499 75.6206 117.499C79.1985 117.499 86.8755 116.351 86.8755 113.035" stroke="#120071" stroke-width="0.769171" stroke-linecap="round" stroke-linejoin="round"/>
<path d="M64.3657 118.211C64.3657 121.516 71.8935 122.675 75.6206 122.675C79.1985 122.675 86.8755 121.527 86.8755 118.211" stroke="#120071" stroke-width="0.769171" stroke-linecap="round" stroke-linejoin="round"/>
<path d="M64.3657 120.799C64.3657 124.104 71.8935 125.263 75.6206 125.263C79.1985 125.263 86.8755 124.116 86.8755 120.799" stroke="#120071" stroke-width="0.769171" stroke-linecap="round" stroke-linejoin="round"/>
<path d="M64.3657 123.388C64.3657 126.692 71.8935 127.852 75.6206 127.852C79.1985 127.852 86.8755 126.704 86.8755 123.388" stroke="#120071" stroke-width="0.769171" stroke-linecap="round" stroke-linejoin="round"/>
<path d="M64.3657 125.975C64.3657 129.279 71.8935 130.439 75.6206 130.439C79.1985 130.439 86.8755 129.291 86.8755 125.975" stroke="#120071" stroke-width="0.769171" stroke-linecap="round" stroke-linejoin="round"/>
<path d="M64.3657 110.476C64.3657 113.78 71.8935 114.94 75.6206 114.94C79.1985 114.94 86.8755 113.792 86.8755 110.476" stroke="#120071" stroke-width="0.769171" stroke-linecap="round" stroke-linejoin="round"/>
<path d="M64.3657 107.902C64.3657 111.206 71.8935 112.366 75.6206 112.366C79.1985 112.366 86.8755 111.218 86.8755 107.902" stroke="#120071" stroke-width="0.769171" stroke-linecap="round" stroke-linejoin="round"/>
<path d="M64.3657 105.342C64.3657 108.647 71.8935 109.806 75.6206 109.806C79.1985 109.806 86.8755 108.658 86.8755 105.342" stroke="#120071" stroke-width="0.769171" stroke-linecap="round" stroke-linejoin="round"/>
<path d="M64.3657 102.769C64.3657 106.073 71.8935 107.233 75.6206 107.233C79.1985 107.233 86.8755 106.085 86.8755 102.769" stroke="#120071" stroke-width="0.769171" stroke-linecap="round" stroke-linejoin="round"/>
<path d="M64.3657 100.21C64.3657 103.515 71.8935 104.673 75.6206 104.673C79.1985 104.673 86.8755 103.525 86.8755 100.21" stroke="#120071" stroke-width="0.769171" stroke-linecap="round" stroke-linejoin="round"/>
<path d="M64.3657 97.6362C64.3657 100.941 71.8935 102.1 75.6206 102.1C79.1985 102.1 86.8755 100.952 86.8755 97.6362" stroke="#120071" stroke-width="0.769171" stroke-linecap="round" stroke-linejoin="round"/>
<path d="M64.3657 95.2163V128.565C64.3657 131.868 71.8927 133.028 75.616 133.028C79.1939 133.028 86.8663 131.88 86.8663 128.565V95.2729" stroke="#120071" stroke-width="0.769171" stroke-linecap="round" stroke-linejoin="round"/>
<path d="M85.4644 92.8896C86.7532 93.7943 87.3777 95.0708 86.4272 96.342C85.0312 98.1888 80.727 99.5265 75.6361 99.5265C70.5451 99.5265 66.2279 98.1888 64.845 96.342C63.1092 94.0269 66.345 92.1725 69.3191 91.3598" stroke="#120071" stroke-width="0.769171" stroke-linecap="round" stroke-linejoin="round"/>
</svg>
