<svg width="22" height="22" viewBox="0 0 22 22" fill="none" xmlns="http://www.w3.org/2000/svg">
<path fill-rule="evenodd" clip-rule="evenodd" d="M2 3.66667C2 2.74619 2.74619 2 3.66667 2H8.25C9.17048 2 9.91667 2.74619 9.91667 3.66667V8.25C9.91667 9.17048 9.17047 9.91667 8.25 9.91667H3.66667C2.74619 9.91667 2 9.17047 2 8.25V3.66667ZM3.66667 3.5C3.57462 3.5 3.5 3.57462 3.5 3.66667V8.25C3.5 8.34205 3.57462 8.41667 3.66667 8.41667H8.25C8.34205 8.41667 8.41667 8.34205 8.41667 8.25V3.66667C8.41667 3.57462 8.34205 3.5 8.25 3.5H3.66667ZM2 13.75C2 12.8295 2.74619 12.0833 3.66667 12.0833H8.25C9.17048 12.0833 9.91667 12.8295 9.91667 13.75V18.3333C9.91667 19.2538 9.17047 20 8.25 20H3.66667C2.74619 20 2 19.2538 2 18.3333V13.75ZM3.66667 13.5833C3.57462 13.5833 3.5 13.658 3.5 13.75V18.3333C3.5 18.4254 3.57462 18.5 3.66667 18.5H8.25C8.34205 18.5 8.41667 18.4254 8.41667 18.3333V13.75C8.41667 13.658 8.34205 13.5833 8.25 13.5833H3.66667ZM13.75 2C12.8295 2 12.0833 2.74619 12.0833 3.66667V8.25C12.0833 9.17047 12.8295 9.91667 13.75 9.91667H18.3333C19.2538 9.91667 20 9.17048 20 8.25V3.66667C20 2.74619 19.2538 2 18.3333 2H13.75ZM13.5833 3.66667C13.5833 3.57462 13.658 3.5 13.75 3.5H18.3333C18.4254 3.5 18.5 3.57462 18.5 3.66667V8.25C18.5 8.34205 18.4254 8.41667 18.3333 8.41667H13.75C13.658 8.41667 13.5833 8.34205 13.5833 8.25V3.66667ZM12.0833 12.8333C12.0833 12.4191 12.4191 12.0833 12.8333 12.0833H19.25C19.6642 12.0833 20 12.4191 20 12.8333C20 13.2475 19.6642 13.5833 19.25 13.5833H12.8333C12.4191 13.5833 12.0833 13.2475 12.0833 12.8333ZM13.5833 15.5833C13.5833 15.1691 13.2475 14.8333 12.8333 14.8333C12.4191 14.8333 12.0833 15.1691 12.0833 15.5833V18.5625C12.0833 18.9767 12.4191 19.3125 12.8333 19.3125C13.2475 19.3125 13.5833 18.9767 13.5833 18.5625V15.5833ZM19.25 14.8333C19.6642 14.8333 20 15.1691 20 15.5833V18.1042C20 18.5184 19.6642 18.8542 19.25 18.8542C18.8358 18.8542 18.5 18.5184 18.5 18.1042V15.5833C18.5 15.1691 18.8358 14.8333 19.25 14.8333ZM16.7917 15.5833C16.7917 15.1691 16.4559 14.8333 16.0417 14.8333C15.6275 14.8333 15.2917 15.1691 15.2917 15.5833V17.4167C15.2917 17.8309 15.6275 18.1667 16.0417 18.1667C16.4559 18.1667 16.7917 17.8309 16.7917 17.4167V15.5833Z" fill="black" fill-opacity="0.4"/>
</svg>
