<svg width="64" height="64" viewBox="0 0 64 64" fill="none" xmlns="http://www.w3.org/2000/svg">
<circle cx="32" cy="32" r="32" fill="#1A202C"/>
<path d="M39.5 39.75H35.5C35.09 39.75 34.75 39.41 34.75 39C34.75 38.59 35.09 38.25 35.5 38.25H39.5C39.91 38.25 40.25 38.59 40.25 39C40.25 39.41 39.91 39.75 39.5 39.75Z" fill="white"/>
<path d="M32.1503 31.62C32.1203 31.62 32.1003 31.62 32.0703 31.62C32.0103 31.61 31.9503 31.62 31.8903 31.62C28.9903 31.53 26.8003 29.25 26.8003 26.44C26.8003 23.58 29.1303 21.25 31.9903 21.25C34.8503 21.25 37.1803 23.58 37.1803 26.44C37.1703 29.25 34.9703 31.53 32.1803 31.62C32.1703 31.62 32.1603 31.62 32.1503 31.62ZM31.9903 22.75C29.9603 22.75 28.3003 24.41 28.3003 26.44C28.3003 28.44 29.8603 30.05 31.8503 30.12C31.9103 30.11 32.0403 30.11 32.1703 30.12C34.1303 30.03 35.6703 28.42 35.6803 26.44C35.6803 24.41 34.0203 22.75 31.9903 22.75Z" fill="white"/>
<path d="M31.9902 42.5602C29.9502 42.5602 28.0202 42.0302 26.5602 41.0502C25.1702 40.1202 24.4102 38.8502 24.4102 37.4802C24.4102 36.1102 25.1802 34.8502 26.5602 33.9302C29.5502 31.9302 34.4102 31.9302 37.4002 33.9302C37.7402 34.1602 37.8402 34.6302 37.6102 34.9702C37.3802 35.3202 36.9102 35.4102 36.5702 35.1802C34.0802 33.5202 29.8802 33.5202 27.3902 35.1802C26.4302 35.8202 25.9102 36.6302 25.9102 37.4802C25.9102 38.3302 26.4302 39.1602 27.3902 39.8002C28.6002 40.6102 30.2302 41.0502 31.9802 41.0502C32.3902 41.0502 32.7302 41.3902 32.7302 41.8002C32.7302 42.2102 32.4002 42.5602 31.9902 42.5602Z" fill="white"/>
</svg>
