<svg width="159" height="158" viewBox="0 0 159 158" fill="none" xmlns="http://www.w3.org/2000/svg">
<path d="M92.5261 74.9355C82.805 71.7999 80.4744 61.9877 80.4744 61.9877C80.8009 61.5214 81.1195 61.0497 81.4302 60.5728L81.7447 55.5106C76.6668 54.1067 79.5492 47.9237 79.5492 47.9237C77.2207 44.5204 75.2772 40.8691 73.7545 37.0369C70.9351 37.3116 68.2344 38.3093 65.9136 39.9335C67.8544 46.4129 71.1322 54.4125 78.0974 65.0706C75.1002 68.8122 70.2078 74.728 67.8512 77.8046L49.0646 69.3938L44.7822 78.251L65.8688 89.0482C67.3253 89.7296 68.9738 89.8816 70.5303 89.4781C72.0868 89.0746 73.4538 88.1409 74.3959 86.8378L79.0108 80.4756C80.8627 83.3132 82.2815 85.6431 87.4215 87.7937C92.8893 85.3334 95.2568 82.3534 97.3077 78.251C95.5331 77.4324 93.9149 76.3104 92.5261 74.9355Z" fill="#FECFC4"/>
<path d="M92.7802 113.212L92.0186 109.045L109.819 105.76L110.581 109.926L92.7802 113.212Z" fill="#FECFC4"/>
<path d="M108.357 109.702L105.564 106.537L120.603 93.2751L123.395 96.4406L108.357 109.702Z" fill="#FECFC4"/>
<path d="M39.9884 46.3667C39.3567 46.3488 38.7438 46.5825 38.2844 47.0165C37.8251 47.4505 37.557 48.0491 37.539 48.6808C37.5211 49.3125 37.7549 49.9254 38.1888 50.3848C38.6228 50.8441 39.2215 51.1122 39.8532 51.1301C40.4849 51.1481 41.0978 50.9143 41.5571 50.4804C42.0165 50.0464 42.2846 49.4477 42.3025 48.816C42.3204 48.1843 42.0867 47.5714 41.6527 47.1121C41.2187 46.6527 40.6201 46.3846 39.9884 46.3667Z" fill="#FECFC4"/>
<path d="M41.9301 35.4053C42.5675 34.4374 42.9573 33.3277 43.0654 32.1739C43.1734 31.0201 42.9963 29.8573 42.5497 28.788C42.1031 27.7186 41.4006 26.7753 40.504 26.0411C39.6074 25.3068 38.5441 24.8041 37.4077 24.577C36.2712 24.35 35.0964 24.4056 33.9865 24.739C32.8766 25.0724 31.8656 25.6734 31.0424 26.489C30.2192 27.3047 29.6089 28.3102 29.2653 29.4169C28.9218 30.5237 28.8553 31.698 29.0719 32.8364C29.09 32.9575 29.1143 33.077 29.1466 33.1949L32.5808 32.5535C32.4388 32.0853 32.3938 31.5931 32.4487 31.1069C32.5036 30.6208 32.6571 30.1509 32.9 29.7262C33.1428 29.3015 33.4698 28.9308 33.861 28.6369C34.2521 28.343 34.6991 28.1321 35.1746 28.017C35.6502 27.902 36.1442 27.8852 36.6264 27.9678C37.1086 28.0504 37.5689 28.2305 37.979 28.4972C38.3892 28.7639 38.7406 29.1116 39.0116 29.5189C39.2827 29.9262 39.4677 30.3845 39.5554 30.8658C39.8699 32.5802 38.9384 33.896 37.7782 35.3463C37.0165 36.2544 36.599 37.4019 36.5991 38.5872C36.6038 40.3574 36.8145 42.1221 37.228 43.8435L40.7652 43.1714C40.3857 41.5879 40.2199 39.9608 40.2723 38.3333C40.4963 37.1974 41.3178 36.3312 41.9301 35.4053Z" fill="#FECFC4"/>
<path fill-rule="evenodd" clip-rule="evenodd" d="M32.8553 6.29218C38.5903 5.59096 44.4081 6.46403 49.6846 8.81776C59.8373 13.3407 66.0738 22.1617 67.9344 31.7979C67.9344 31.7979 67.9799 33.0965 68.0782 34.0971C67.458 34.4713 66.2373 33.4313 65.1706 32.5219C64.2085 31.702 63.3713 30.9891 63.2141 31.5181C63.0632 32.0267 63.4264 32.5714 64.0033 33.4361C64.7776 34.5963 65.9354 36.3319 66.7514 39.3291L65.9653 39.9681C66.2035 40.9208 66.7671 42.5228 67.4297 44.4093L67.7017 45.1852C66.3827 50.8887 63.4625 56.3203 58.8484 60.7623C54.9074 64.5743 50.0486 67.3036 44.7427 68.6857C44.6248 68.7171 43.8215 68.1952 42.8664 67.575C41.5608 66.7261 39.9714 65.694 39.4605 65.6374C38.6501 65.547 40.5665 68.0191 41.3942 69.0881C41.4696 69.184 41.5357 69.2689 41.5891 69.3397C37.4134 69.9922 33.1495 69.8065 29.0463 68.7935C24.943 67.7805 21.0826 65.9605 17.6903 63.4396C14.298 60.9187 11.4417 57.7475 9.28807 54.1109C7.13444 50.4744 5.72661 46.4454 5.14673 42.2589C4.56684 38.0725 4.82651 33.8125 5.9106 29.7274C6.99468 25.6424 8.88145 21.8142 11.4608 18.4662C14.0402 15.1181 17.2606 12.3173 20.9339 10.2271C24.6073 8.13697 28.6602 6.7993 32.8561 6.29218H32.8553ZM33.6932 13.1049C38.1797 12.5562 42.7309 13.239 46.8588 15.0802C63.1237 22.326 66.5375 43.6736 54.0276 55.7151C51.1892 58.4609 47.7385 60.4922 43.9602 61.6413C40.182 62.7904 36.1846 63.0243 32.2981 62.3237C28.4116 61.6231 24.7475 60.008 21.6083 57.612C18.4691 55.2159 15.9449 52.1075 14.2441 48.5434C12.5432 44.9793 11.7145 41.0618 11.8264 37.1142C11.9383 33.1667 12.9876 29.3024 14.8876 25.8403C16.7876 22.3783 19.4839 19.4179 22.7537 17.2035C26.0236 14.9891 29.7733 13.5842 33.6932 13.1049Z" fill="#FD93A1"/>
<path d="M123.44 102.22L125.262 99.457L122.454 97.2466L120.977 98.5758L123.44 102.22Z" fill="#FD93A1"/>
<path d="M133.088 105.569L130.73 110.993C130.019 112.645 128.793 114.023 127.235 114.923L139.004 124.098L145.934 115.556L133.088 105.569Z" fill="#FD93A1"/>
<path d="M120.678 64.228C122.639 64.5021 124.63 64.0045 126.232 62.8401C127.834 61.6757 128.921 59.9353 129.265 57.9852C126.848 57.2078 124.3 56.9222 121.771 57.1454C119.242 57.3685 116.783 58.0959 114.54 59.2846C115.023 60.5854 115.848 61.7315 116.928 62.6018C118.009 63.472 119.305 64.0339 120.678 64.228Z" fill="#FD93A1"/>
<path d="M75.6819 61.241L64.81 52.7886C63.2471 56.1017 60.9851 59.037 58.1797 61.3927L72.1714 72.4288L78.1155 65.0667L75.6819 61.241Z" fill="#FD93A1"/>
<path d="M84.4025 73.1284L79.0283 80.5362C79.4066 81.231 79.8465 81.8905 80.3426 82.5068L84.4025 73.1284Z" fill="#FD93A1"/>
<path d="M81.6553 57.0593L83.7902 55.5516C83.1134 55.5958 82.434 55.5808 81.7598 55.5068L81.6553 57.0593Z" fill="#FD93A1"/>
<path d="M95.8571 64.8404C96.0143 63.6363 95.7408 62.4153 95.0851 61.3933C94.4294 60.3712 93.4335 59.6137 92.2735 59.2547C92.4218 58.8283 92.4679 58.373 92.4079 57.9255C91.4222 50.7276 89.9287 46.292 87.4644 43.7538C85.7917 42.0056 82.3724 42.2902 80.3412 44.8433C78.3242 47.4003 78.8312 50.7732 78.8179 51.0531C79.0224 48.5405 80.1952 46.2057 82.0886 44.5414C82.6185 44.1063 83.2419 43.7996 83.9099 43.6453C83.8054 45.9162 85.6125 49.5148 87.793 48.6187C89.2511 48.0236 89.4264 50.6624 86.5534 50.6624C85.7768 56.8895 86.0157 64.0252 88.8832 69.8381L89.3462 70.7185C90.7556 73.2854 92.7704 75.4695 95.2157 77.0808C96.8396 77.1655 98.4307 76.6019 99.6392 75.5137C100.848 74.4256 101.574 72.902 101.66 71.2781C101.744 69.6543 101.181 68.0634 100.092 66.8551C99.0043 65.6469 97.4809 64.9202 95.8571 64.8349V64.8404Z" fill="#FD93A1"/>
<path d="M123.44 102.22L125.262 99.4572L122.454 97.2468L120.977 98.576L123.44 102.22Z" stroke="#120071" stroke-width="0.769171" stroke-linejoin="round"/>
<path d="M133.088 105.569L130.73 110.993C130.019 112.645 128.793 114.023 127.235 114.923L139.004 124.098L145.934 115.556L133.088 105.569Z" stroke="#120071" stroke-width="0.769171"/>
<path d="M75.6809 61.2412L64.809 52.7888C63.2461 56.1019 60.9841 59.0372 58.1787 61.3929L72.1704 72.4291L78.1145 65.0669L75.6809 61.2412Z" stroke="#120071" stroke-width="0.769171"/>
<path d="M79.3256 47.6064C77.0703 44.3091 75.2059 40.7609 73.7698 37.0332C70.9498 37.3068 68.2487 38.3061 65.9297 39.9337C67.8712 46.4147 71.1412 54.4049 78.1135 65.0677" stroke="#120071" stroke-width="0.769171" stroke-linecap="round" stroke-linejoin="round"/>
<path d="M68.3188 35.4201C67.9001 33.2414 67.7397 31.021 67.8409 28.8047C67.7964 27.6595 67.8754 26.5128 68.0767 25.3846C68.627 22.2899 69.3808 22.5918 69.63 25.5788C70.2392 32.8953 71.9881 35.3156 72.6311 37.1974" stroke="#120071" stroke-width="0.769171" stroke-linecap="round" stroke-linejoin="round"/>
<path d="M67.9444 26.3256C67.4437 25.2695 66.795 24.2902 66.0178 23.4173C65.782 23.1909 65.2318 23.1681 65.9133 25.0601C66.0595 25.4641 66.6435 27.2107 66.8243 27.838C67.2435 29.0894 67.5827 30.3661 67.8399 31.6606" stroke="#120071" stroke-width="0.769171" stroke-linecap="round" stroke-linejoin="round"/>
<path d="M68.0498 33.6729C67.9452 35.1514 65.6617 32.8648 64.5848 32.0002C63.6157 31.222 62.2267 30.7275 64.1816 33.5534C65.3401 35.3563 66.2164 37.3255 66.7803 39.393" stroke="#120071" stroke-width="0.769171" stroke-linecap="round" stroke-linejoin="round"/>
<path d="M124.5 103.773L120.977 98.5759" stroke="#120071" stroke-width="0.769171" stroke-linecap="round" stroke-linejoin="round"/>
<path d="M81.7796 55.4683C81.7796 55.4683 81.6146 57.5371 81.4503 60.5689C81.1206 61.0364 80.797 61.5081 80.4795 61.9838" stroke="#120071" stroke-width="0.769171" stroke-linecap="round" stroke-linejoin="round"/>
<path d="M83.7905 55.5967L81.6611 57.0414" stroke="#120071" stroke-width="0.769171" stroke-linecap="round" stroke-linejoin="round"/>
<path d="M106.311 105.864L94.3789 92.7075" stroke="#120071" stroke-width="0.769171" stroke-linecap="round" stroke-linejoin="round"/>
<path d="M84.3874 73.1138L80.3408 82.4921" stroke="#120071" stroke-width="0.769171" stroke-linecap="round" stroke-linejoin="round"/>
<path d="M115.152 98.0684C110.516 90.617 103.783 84.7 95.7979 81.0591" stroke="#120071" stroke-width="0.769171" stroke-linecap="round" stroke-linejoin="round"/>
<path d="M93.261 108.816L87.4639 87.7791" stroke="#120071" stroke-width="0.769171" stroke-linecap="round" stroke-linejoin="round"/>
<path d="M110.224 108.059L110.582 109.926L92.7812 113.211L92.0195 109.045L105.565 106.551" stroke="#120071" stroke-width="0.769171" stroke-linecap="round" stroke-linejoin="round"/>
<path d="M95.2006 77.1014C96.8004 77.1438 98.3536 76.5602 99.5296 75.4748C100.706 74.3893 101.411 72.8877 101.497 71.2896C101.583 69.6915 101.041 68.1232 99.9876 66.9184C98.9342 65.7136 97.4522 64.9675 95.857 64.839C96.0141 63.6349 95.7407 62.4139 95.085 61.3919C94.4292 60.3698 93.4334 59.6123 92.2734 59.2533C92.7568 57.8518 91.2617 49.0441 88.5695 45.1123C86.0431 41.4226 82.3503 42.2864 80.3262 44.8419C78.3021 47.3973 78.8162 50.771 78.8028 51.0517" stroke="#120071" stroke-width="0.769171" stroke-linecap="round" stroke-linejoin="round"/>
<path d="M123.44 102.22L133.611 86.7484C135.552 83.627 135.477 82.6413 136.343 80.4914C140.405 78.281 149.62 75.6824 154.175 75.085C150.829 80.3122 142.989 83.4029 139.898 89.8847L130.713 110.971C130.171 112.22 129.334 113.319 128.273 114.174C127.213 115.029 125.962 115.614 124.626 115.879C123.291 116.145 121.91 116.083 120.604 115.699C119.297 115.315 118.103 114.62 117.123 113.675L110.791 107.567" stroke="#120071" stroke-width="0.769171" stroke-linecap="round" stroke-linejoin="round"/>
<path d="M108.357 109.702L105.564 106.537L120.603 93.2751L123.395 96.4406L108.357 109.702Z" stroke="#120071" stroke-width="0.769171" stroke-linecap="round" stroke-linejoin="round"/>
<path d="M41.3765 70.5745C43.0044 70.4102 40.298 67.8288 39.8531 67.0373C39.2518 65.9643 38.6143 64.7216 41.4213 66.6938C43.6953 68.1291 46.0541 69.4256 48.4847 70.5761" stroke="#120071" stroke-width="0.769171" stroke-linecap="round" stroke-linejoin="round"/>
<path d="M95.6484 112.674L96.8873 117.125C97.6954 119.984 99.5867 122.416 102.159 123.904C104.728 125.398 128.189 136.658 128.189 136.658C134.447 140.195 137 148.217 141.988 151.921C141.705 147.336 139.733 137.957 137.807 133.763C135.751 132.765 134.75 132.761 131.893 130.717L109.477 114.961L108.193 110.361" stroke="#120071" stroke-width="0.769171" stroke-linecap="round" stroke-linejoin="round"/>
<path d="M84.3875 73.1137C83.537 74.2189 78.4364 81.2769 74.3968 86.8531C73.4536 88.1547 72.0864 89.0871 70.5303 89.4902C68.9742 89.8933 67.3263 89.7419 65.8698 89.0619L44.7832 78.2663L49.0538 69.4106L67.8404 77.8033" stroke="#120071" stroke-width="0.769171" stroke-linecap="round" stroke-linejoin="round"/>
<path d="M92.5273 74.936C93.9258 76.3062 95.5435 77.4329 97.3135 78.2697C95.3327 82.8288 91.9432 85.7804 87.4345 87.8092C82.2803 85.6515 80.8694 83.3436 79.0088 80.4934" stroke="#120071" stroke-width="0.769171" stroke-linecap="round" stroke-linejoin="round"/>
<path d="M119.737 94.0217C110.485 81.621 100.682 79.6582 97.3135 78.2693" stroke="#120071" stroke-width="0.769171" stroke-linecap="round" stroke-linejoin="round"/>
<path d="M80.4755 61.9878C80.4755 61.9878 82.8053 71.7993 92.5272 74.9356C91.0281 73.4573 89.7909 71.7352 88.8681 69.8428C85.9935 64.0378 85.7616 56.895 86.5383 50.6679H86.9266C89.2847 50.5335 89.2407 48.0228 87.7779 48.6242C85.5966 49.5179 83.791 45.9209 83.8956 43.6516C83.2278 43.8071 82.6046 44.1134 82.0735 44.5469C80.9691 45.5139 80.103 46.7229 79.5427 48.0797C78.9825 49.4365 78.7432 50.9044 78.8436 52.3689C79.1219 54.2672 80.4291 55.7843 83.791 55.5988" stroke="#120071" stroke-width="0.769171" stroke-linecap="round" stroke-linejoin="round"/>
<path d="M80.4752 61.9878C79.0713 64.1101 68.1248 77.0862 66.6611 79.4609" stroke="#120071" stroke-width="0.769171" stroke-linecap="round" stroke-linejoin="round"/>
<path d="M35.8068 72.2773C35.0899 72.367 33.6121 72.6664 33.1782 72.7553C31.2076 73.1609 31.4615 73.6812 31.7751 73.7111C33.0438 73.8314 35.1048 73.8164 36.2847 73.965C38.1814 74.2047 41.8405 74.5475 43.2743 75.3988" stroke="#120071" stroke-width="0.769171" stroke-linecap="round" stroke-linejoin="round"/>
<path d="M36.1805 73.95C35.8661 74.0694 35.5831 74.174 35.4487 74.2337C33.5669 74.9506 33.9112 75.4324 34.224 75.4128C35.4943 75.3381 37.5254 74.9655 38.7195 74.9199C40.1554 74.8931 41.5907 75.0031 43.0058 75.2485" stroke="#120071" stroke-width="0.769171" stroke-linecap="round" stroke-linejoin="round"/>
<path d="M90.7352 31.0449C90.7122 31.4291 90.5755 31.7979 90.3424 32.1042C90.1094 32.4106 89.7905 32.6408 89.4264 32.7656C89.1544 32.859 88.865 32.891 88.5792 32.8593C88.2933 32.8275 88.018 32.7327 87.7732 32.5818C87.5284 32.4308 87.32 32.2275 87.1632 31.9864C87.0064 31.7453 86.905 31.4724 86.8663 31.1874C86.8276 30.9023 86.8526 30.6123 86.9395 30.3381C87.0264 30.0639 87.173 29.8124 87.3687 29.6017C87.5645 29.3909 87.8045 29.2262 88.0716 29.1194C88.3386 29.0126 88.626 28.9663 88.9131 28.9839C89.4273 29.0176 89.9072 29.2532 90.2485 29.6392C90.5898 30.0253 90.7647 30.5305 90.7352 31.0449Z" stroke="#120071" stroke-width="0.769171" stroke-linecap="round" stroke-linejoin="round"/>
<path d="M142.361 78.0273C142.795 73.819 141.813 69.5862 139.571 65.9989C137.328 62.4116 133.953 59.6749 129.98 58.222C126.678 57.0152 123.106 56.7477 119.661 57.4492C116.216 58.1508 113.033 59.7938 110.466 62.1958C107.899 64.5978 106.048 67.6645 105.12 71.0553C104.191 74.446 104.221 78.0278 105.206 81.4026" stroke="#120071" stroke-width="0.769171" stroke-linecap="round" stroke-linejoin="round"/>
<path d="M122.155 95.0358C124.293 95.1875 126.439 94.9697 128.503 94.3936" stroke="#120071" stroke-width="0.769171" stroke-linecap="round" stroke-linejoin="round"/>
<path d="M122.798 49.0702C121.679 48.9159 120.54 49.0115 119.462 49.3502C118.384 49.6889 117.395 50.2623 116.565 51.029C115.735 51.7957 115.085 52.7368 114.663 53.7846C114.24 54.8324 114.055 55.9608 114.12 57.0887C114.209 58.5972 114.743 60.0456 115.654 61.2509C116.566 62.4562 117.814 63.3645 119.241 63.8608C120.669 64.3572 122.211 64.4196 123.674 64.0399C125.136 63.6603 126.454 62.8558 127.46 61.7279C128.465 60.5996 129.113 59.1985 129.322 57.7018C129.6 55.6924 129.068 53.6551 127.845 52.0369C126.622 50.4187 124.807 49.3517 122.798 49.0702Z" stroke="#120071" stroke-width="0.769171" stroke-linecap="round" stroke-linejoin="round"/>
<path d="M66.3336 26.281C64.4291 21.4234 61.3602 17.1082 57.3969 13.7148C53.4336 10.3214 48.6973 7.95381 43.6044 6.82014C38.5115 5.68648 33.218 5.82151 28.1896 7.21336C23.1611 8.60521 18.5516 11.2112 14.7665 14.8023C10.9813 18.3933 8.1365 22.8594 6.48213 27.8077C4.82777 32.756 4.41455 38.0351 5.27882 43.1805C6.14308 48.326 8.25836 53.1803 11.4386 57.3166C14.6189 61.4529 18.7668 64.7444 23.5174 66.9017C29.1782 69.4269 35.4441 70.2769 41.573 69.351" stroke="#120071" stroke-width="0.769171" stroke-linecap="round" stroke-linejoin="round"/>
<path d="M67.6778 45.1272C66.7101 49.3112 64.9034 53.2554 62.3671 56.7208C59.8308 60.1863 56.6176 63.1011 52.922 65.2886C50.3684 66.7962 47.6132 67.9327 44.7393 68.6639" stroke="#120071" stroke-width="0.769171" stroke-linecap="round" stroke-linejoin="round"/>
<path d="M46.8585 15.0804C42.7307 13.2391 38.1797 12.5562 33.6933 13.1047C29.2069 13.6533 24.9545 15.4127 21.392 18.1943C17.8295 20.9759 15.0913 24.6747 13.4711 28.8941C11.8509 33.1135 11.4098 37.6944 12.1951 42.1454C12.9803 46.5965 14.9623 50.7498 17.9286 54.1601C20.8948 57.5704 24.7333 60.109 29.0326 61.5036C33.3318 62.8982 37.9296 63.0963 42.3329 62.0765C46.7361 61.0568 50.7788 58.8578 54.0273 55.7152C66.5372 43.6737 63.1234 22.3262 46.8585 15.0804Z" stroke="#120071" stroke-width="0.769171" stroke-linecap="round" stroke-linejoin="round"/>
<path d="M24.1885 90.0641L30.8196 95.3204L37.5843 84.9414" stroke="#120071" stroke-width="0.769171" stroke-linecap="round" stroke-linejoin="round"/>
<path d="M82.2527 94.6787L75.8008 95.4993" stroke="#120071" stroke-width="0.769171" stroke-linecap="round" stroke-linejoin="round"/>
<path d="M79.4298 98.3225L78.6084 91.8564" stroke="#120071" stroke-width="0.769171" stroke-linecap="round" stroke-linejoin="round"/>
<path d="M42.3038 48.8163C42.2905 49.2875 42.1378 49.7442 41.865 50.1286C41.5922 50.513 41.2115 50.8079 40.7711 50.976C40.3307 51.144 39.8503 51.1777 39.3907 51.0727C38.9312 50.9678 38.5131 50.7289 38.1893 50.3863C37.8655 50.0437 37.6506 49.6128 37.5717 49.1481C37.4928 48.6833 37.5535 48.2056 37.7462 47.7754C37.9388 47.3451 38.2547 46.9817 38.6539 46.731C39.0531 46.4803 39.5176 46.3536 39.9888 46.3669C40.62 46.3865 41.2178 46.655 41.6516 47.114C42.0854 47.573 42.3198 48.185 42.3038 48.8163Z" stroke="#120071" stroke-width="0.769171" stroke-linecap="round" stroke-linejoin="round"/>
<path d="M41.9155 35.4053C42.5528 34.4374 42.9427 33.3277 43.0507 32.1739C43.1587 31.0201 42.9817 29.8573 42.535 28.788C42.0884 27.7186 41.3859 26.7753 40.4893 26.0411C39.5927 25.3068 38.5294 24.8041 37.393 24.577C36.2566 24.35 35.0818 24.4056 33.9719 24.739C32.862 25.0724 31.851 25.6734 31.0277 26.489C30.2045 27.3047 29.5943 28.3102 29.2507 29.4169C28.9071 30.5237 28.8407 31.698 29.0572 32.8364C29.0745 32.9575 29.0997 33.077 29.1319 33.1949L32.567 32.5535C32.4239 32.085 32.3781 31.5923 32.4323 31.1055C32.4866 30.6187 32.6398 30.1482 32.8825 29.7228C33.1252 29.2973 33.4523 28.926 33.8438 28.6316C34.2352 28.3372 34.6827 28.1259 35.1587 28.0107C35.6348 27.8955 36.1294 27.8788 36.6121 27.9617C37.0948 28.0445 37.5555 28.2252 37.9659 28.4926C38.3763 28.76 38.7277 29.1084 38.9985 29.5165C39.2693 29.9246 39.4539 30.3838 39.5408 30.8658C39.8552 32.5802 38.9237 33.896 37.7635 35.3463C37.0018 36.2544 36.5844 37.4019 36.5845 38.5872C36.5672 39.2239 36.5955 39.8614 36.6678 40.4949C36.755 41.3281 37.2267 43.8435 37.2267 43.8435L40.7639 43.1714C40.7191 43.1714 40.286 40.3644 40.2561 40.0508C40.174 39.4813 40.174 38.9029 40.2561 38.3333C40.4817 37.1974 41.3031 36.3312 41.9155 35.4053Z" stroke="#120071" stroke-width="0.769171" stroke-linecap="round" stroke-linejoin="round"/>
<path d="M45.5141 76.7429C43.4229 75.3621 41.2083 74.1779 38.8987 73.2057C37.0444 72.5279 35.1195 72.0619 33.1605 71.8167C30.2781 71.463 29.9487 70.6872 33.0858 70.2635C34.2402 70.1237 35.4036 70.0737 36.5657 70.1141C38.769 70.1424 40.9628 70.4128 43.1072 70.9206" stroke="#120071" stroke-width="0.769171" stroke-linecap="round" stroke-linejoin="round"/>
</svg>
