<svg width="64" height="64" viewBox="0 0 64 64" fill="none" xmlns="http://www.w3.org/2000/svg">
<circle cx="32" cy="32" r="32" fill="#1A202C"/>
<path d="M25.4099 41.7501C24.2899 41.7501 23.5799 41.3701 23.1299 40.9201C22.2499 40.0401 21.6299 38.1701 23.6099 34.2001L24.4799 32.4701C24.5899 32.2401 24.5899 31.7601 24.4799 31.5301L23.6099 29.8001C21.6199 25.8301 22.2499 23.9501 23.1299 23.0801C23.9999 22.2001 25.8799 21.5701 29.8399 23.5601L38.3999 27.8401C40.5299 28.9001 41.6999 30.3801 41.6999 32.0001C41.6999 33.6201 40.5299 35.1001 38.4099 36.1601L29.8499 40.4401C27.9099 41.4101 26.4699 41.7501 25.4099 41.7501ZM25.4099 23.7501C24.8699 23.7501 24.4499 23.8801 24.1899 24.1401C23.4599 24.8601 23.7499 26.7301 24.9499 29.1201L25.8199 30.8601C26.1399 31.5101 26.1399 32.4901 25.8199 33.1401L24.9499 34.8701C23.7499 37.2701 23.4599 39.1301 24.1899 39.8501C24.9099 40.5801 26.7799 40.2901 29.1799 39.0901L37.7399 34.8101C39.3099 34.0301 40.1999 33.0001 40.1999 31.9901C40.1999 30.9801 39.2999 29.9501 37.7299 29.1701L29.1699 24.9001C27.6499 24.1401 26.3399 23.7501 25.4099 23.7501Z" fill="white"/>
<path d="M30.8399 32.75H25.4399C25.0299 32.75 24.6899 32.41 24.6899 32C24.6899 31.59 25.0299 31.25 25.4399 31.25H30.8399C31.2499 31.25 31.5899 31.59 31.5899 32C31.5899 32.41 31.2499 32.75 30.8399 32.75Z" fill="white"/>
</svg>
