<svg width="24" height="24" viewBox="0 0 24 24" fill="none" xmlns="http://www.w3.org/2000/svg">
<path d="M23.7097 10.8542L20.9574 8.33318C20.8655 8.24884 20.7563 8.18193 20.6361 8.1363C20.5159 8.09067 20.3871 8.06722 20.257 8.06728H12.9907V0.90747C12.9907 0.666794 12.8863 0.435975 12.7006 0.265792C12.5148 0.0956081 12.2628 0 12 0C11.7372 0 11.4853 0.0956081 11.2995 0.265792C11.1137 0.435975 11.0093 0.666794 11.0093 0.90747V2.01682H3.74305C3.61294 2.01676 3.4841 2.04022 3.3639 2.08585C3.24371 2.13148 3.13452 2.19838 3.0426 2.28273L0.290285 4.80376C0.198257 4.88799 0.125254 4.988 0.0754453 5.09809C0.0256368 5.20818 0 5.32617 0 5.44534C0 5.5645 0.0256368 5.6825 0.0754453 5.79259C0.125254 5.90267 0.198257 6.00269 0.290285 6.08692L3.0426 8.60795C3.13452 8.6923 3.24371 8.7592 3.3639 8.80483C3.4841 8.85046 3.61294 8.87391 3.74305 8.87385H11.0093V22.1851H7.59629C7.33354 22.1851 7.08154 22.2807 6.89575 22.4509C6.70995 22.621 6.60557 22.8519 6.60557 23.0925C6.60557 23.3332 6.70995 23.564 6.89575 23.7342C7.08154 23.9044 7.33354 24 7.59629 24H16.4037C16.6665 24 16.9185 23.9044 17.1043 23.7342C17.2901 23.564 17.3944 23.3332 17.3944 23.0925C17.3944 22.8519 17.2901 22.621 17.1043 22.4509C16.9185 22.2807 16.6665 22.1851 16.4037 22.1851H12.9907V14.9243H20.257C20.3871 14.9244 20.5159 14.9009 20.6361 14.8553C20.7563 14.8096 20.8655 14.7427 20.9574 14.6584L23.7097 12.1374C23.8018 12.0531 23.8748 11.9531 23.9246 11.843C23.9744 11.7329 24 11.6149 24 11.4958C24 11.3766 23.9744 11.2586 23.9246 11.1485C23.8748 11.0385 23.8018 10.9384 23.7097 10.8542Z" fill="#465064"/>
<rect x="12.8112" y="9.71777" width="8.63359" height="3.5029" fill="white"/>
<rect x="2.55518" y="3.56128" width="8.63359" height="3.5029" fill="white"/>
</svg>
