<svg fill="none" height="64" viewBox="0 0 64 64" width="64" xmlns="http://www.w3.org/2000/svg">
    <path
        d="M0 32C0 14.3269 14.3269 0 32 0C49.6731 0 64 14.3269 64 32C64 49.6731 49.6731 64 32 64C14.3269 64 0 49.6731 0 32Z"
        fill="#36B84A" />
    <path
        d="M45.3854 22.6084C46.1967 23.3573 46.1967 24.6677 45.3854 25.4165L29.4104 41.3916C28.6616 42.2028 27.3511 42.2028 26.6023 41.3916L18.6148 33.4041C17.8035 32.6552 17.8035 31.3448 18.6148 30.5959C19.3636 29.7847 20.6741 29.7847 21.4229 30.5959L28.0375 37.1482L42.5773 22.6084C43.3262 21.7972 44.6366 21.7972 45.3854 22.6084Z"
        fill="white" />
</svg>
