<svg width="155" height="154" viewBox="0 0 155 154" fill="none" xmlns="http://www.w3.org/2000/svg">
<g filter="url(#filter0_d_79_4952)">
<path d="M136.706 68.1217C134.966 68.1217 134.31 59.6488 136.052 59.5133C126.638 60.5151 116.973 62.055 110.402 61.011C108.096 63.8556 106.214 67.0198 104.816 70.4046C103.928 67.2185 103.605 63.9015 103.861 60.6039C102.611 60.5021 88.9718 51.4583 83.2288 48.0992C81.9835 48.9412 80.9224 50.0275 80.11 51.2923C79.2976 52.557 78.7508 53.9737 78.5029 55.4563L98.631 67.7015L100.216 65.4186C99.8455 66.3301 99.6382 67.2998 99.6037 68.2832C99.5455 70.2608 100.185 73.1537 102.569 78.2324C104.896 78.9304 108.692 77.8543 111.585 76.1821C111.454 74.3644 112.341 72.1396 113.01 70.2791C112.496 69.9029 111.957 69.5628 111.396 69.2612C119.926 69.823 127.953 69.187 136.706 68.1217Z" fill="#F7C6CC"/>
<path d="M65.7925 81.4845C61.3716 81.1384 56.9359 81.0171 52.5026 81.121C52.7797 80.1789 52.945 79.2077 52.997 78.2273C49.3617 79.1725 45.8428 79.2016 41.1613 78.5334V78.4753C38.9862 79.9141 37.0875 85.0157 38.4513 88.7658L34.6759 96.739L23.9162 89.874C20.6735 91.8953 19.0449 94.4836 17.8525 98.4533L31.4187 107.744C32.3286 108.369 33.3606 108.794 34.4467 108.991C35.5328 109.188 36.6482 109.152 37.7196 108.887C38.791 108.622 39.7941 108.133 40.6629 107.452C41.5316 106.772 42.2464 105.915 42.76 104.938L47.0933 96.6938L41.6243 92.5167C42.4263 92.985 43.2876 93.3433 44.1851 93.582C48.6492 94.818 55.1774 94.3236 59.5681 93.7856C58.2768 98.9224 57.2673 104.126 56.5443 109.373C59.3129 111.236 62.6889 111.969 65.9808 111.423C68.4401 104.531 70.5181 97.5079 72.2052 90.3868C72.457 89.3735 72.4851 88.3175 72.2876 87.2923C72.0901 86.267 71.6717 85.2971 71.0614 84.4499C70.4511 83.6027 69.6637 82.8986 68.7538 82.3865C67.8439 81.8744 66.8334 81.5666 65.7925 81.4845Z" fill="#F7C6CC"/>
<path d="M129.465 36.3794C129.301 36.2128 129.09 36.0992 128.86 36.0532C128.631 36.0072 128.392 36.031 128.176 36.1215C128.033 36.1812 127.902 36.2689 127.793 36.3794L127.487 36.6855L127.181 36.3794C126.957 36.1679 126.659 36.0521 126.351 36.0565C126.043 36.0609 125.749 36.1853 125.531 36.4031C125.314 36.621 125.189 36.9151 125.185 37.2231C125.181 37.5311 125.297 37.8286 125.508 38.0524L127.498 40.03L129.461 38.0524C129.628 37.8878 129.742 37.6773 129.788 37.4478C129.835 37.2182 129.812 36.9801 129.722 36.7636C129.663 36.6198 129.575 36.4893 129.465 36.3794Z" fill="#F7C6CC"/>
<path d="M46.2061 121.441L44.1849 121.136L43.2833 119.318L42.3818 121.136L40.3613 121.441L41.83 122.852L41.481 124.859L43.2833 123.913L45.0864 124.859L44.7375 122.852L46.2061 121.441Z" fill="#F7C6CC"/>
<path d="M106.942 57.7071L105.411 59.1612C105.553 58.7579 105.641 58.337 105.673 57.9107C106.102 57.8901 106.528 57.8218 106.942 57.7071Z" fill="#4E2DA6"/>
<path d="M113.311 69.3576C113.209 69.6485 113.107 69.9538 112.991 70.276C112.477 69.8997 111.938 69.5596 111.377 69.2582C112.031 69.2849 112.671 69.3286 113.311 69.3576Z" fill="#4E2DA6"/>
<path d="M125.147 45.2198C122.765 43.2422 116.307 48.797 116.307 48.797C117.498 42.9223 108.774 47.9551 105.837 50.8182C107.349 49.6113 108.556 52.2279 108.425 53.7111C108.425 54.0609 108.614 54.1336 109.152 53.7555C110.272 52.9412 111.072 54.8752 108.963 55.7759C108.822 55.929 108.718 56.1127 108.657 56.3117C108.271 57.4091 108.245 58.6014 108.584 59.7143C118.371 57.7107 127.517 47.1829 125.147 45.2198Z" fill="#4E2DA6"/>
<path d="M108.338 89.8302L107.175 90.8336L106.157 86.5148L108.338 89.8302Z" fill="#4E2DA6"/>
<path d="M76.3925 22.1586C75.227 22.1586 74.0876 22.5042 73.1185 23.1518C72.1494 23.7993 71.3941 24.7196 70.9481 25.7965C70.5021 26.8733 70.3854 28.0581 70.6127 29.2013C70.8401 30.3444 71.4014 31.3944 72.2255 32.2186C73.0497 33.0427 74.0997 33.604 75.2428 33.8314C76.386 34.0588 77.5709 33.9421 78.6477 33.496C79.7245 33.05 80.6448 32.2947 81.2924 31.3256C81.9399 30.3565 82.2855 29.2171 82.2855 28.0516C82.2875 26.8855 81.9429 25.745 81.2955 24.7751C80.6481 23.8052 79.7271 23.0495 78.6495 22.604C77.9338 22.3085 77.1668 22.1571 76.3925 22.1586ZM76.5379 31.6394C76.5379 31.678 76.5226 31.715 76.4953 31.7423C76.4681 31.7695 76.4311 31.7849 76.3925 31.7849C76.3731 31.786 76.3537 31.783 76.3356 31.7761C76.3174 31.7691 76.301 31.7585 76.2872 31.7447C76.2735 31.731 76.2628 31.7145 76.2559 31.6964C76.249 31.6782 76.246 31.6588 76.2471 31.6394V27.0735C76.2473 27.035 76.2627 26.9981 76.2899 26.9709C76.3171 26.9437 76.354 26.9283 76.3925 26.9281C76.4119 26.927 76.4313 26.93 76.4494 26.9369C76.4676 26.9438 76.4841 26.9545 76.4978 26.9682C76.5115 26.982 76.5222 26.9984 76.5291 27.0166C76.536 27.0347 76.539 27.0541 76.5379 27.0735V31.6394ZM75.9854 24.864C75.99 24.7572 76.0356 24.6563 76.1128 24.5823C76.1901 24.5083 76.2929 24.467 76.3998 24.467C76.5067 24.467 76.6095 24.5083 76.6867 24.5823C76.7639 24.6563 76.8096 24.7572 76.8142 24.864C76.8096 24.9709 76.7639 25.0718 76.6867 25.1458C76.6095 25.2197 76.5067 25.261 76.3998 25.261C76.2929 25.261 76.1901 25.2197 76.1128 25.1458C76.0356 25.0718 75.99 24.9709 75.9854 24.864Z" fill="#4E2DA6"/>
<path d="M41.5391 92.4619L47.0938 96.6933L48.388 94.2504C45.9978 94.1891 43.654 93.577 41.5391 92.4619Z" fill="#4E2DA6"/>
<path d="M46.3372 60.4148L44.5923 59.2378C45.0936 59.2982 45.5995 59.3173 46.1046 59.2959C46.1444 59.6755 46.2224 60.0505 46.3372 60.4148Z" fill="#4E2DA6"/>
<path d="M100.195 65.417C99.8249 66.3285 99.6177 67.2982 99.5831 68.2816L98.6089 67.6854L100.195 65.417Z" fill="#4E2DA6"/>
<path d="M53.7822 65.5188C53.9123 66.1525 54.0042 66.7939 54.0585 67.4383C54.3348 67.3074 54.6402 67.1474 54.9455 66.9875L53.7822 65.5188Z" fill="#4E2DA6"/>
<path d="M57.7513 110.565C57.4176 111.525 56.9951 112.484 56.7051 113.327C56.9309 114.295 57.2826 115.228 57.7513 116.104C59.2199 118.824 60.6886 124.16 61.8519 125.498C62.4917 123.593 63.1751 118.81 63.6259 116.119C61.3563 114.628 59.3676 112.747 57.7513 110.565Z" fill="#4E2DA6"/>
<path d="M19.0452 88.7249C18.0532 88.6815 17.06 88.7744 16.0933 89.0012C13.0687 89.6992 7.52932 89.6992 5.94434 90.4698C7.60203 91.604 12.0363 93.538 14.5083 94.6722C16.5518 92.8697 18.9007 91.4466 21.4445 90.4698C20.5865 89.8882 19.7722 89.2338 19.0452 88.7249Z" fill="#4E2DA6"/>
<path d="M44.8835 51.1252C44.4037 50.34 43.3529 50.3836 43.4585 50.9798C42.8049 50.3982 41.6707 50.6737 41.8008 51.3434C41.0164 50.7036 40.1003 51.2125 40.2885 51.8232C39.6059 51.2997 38.8643 51.8232 39.0969 52.4485C38.1227 52.0268 37.3084 52.7546 38.4571 53.9026C38.9515 54.397 41.1028 55.9958 42.3098 58.017C42.3839 57.7263 42.377 57.4208 42.2899 57.1337C42.2027 56.8466 42.0386 56.5888 41.8154 56.3884C40.623 55.4868 41.4373 54.4116 42.1934 55.1524C42.8623 55.8067 42.645 54.8463 42.1643 53.9891C42.2638 54.0752 42.3834 54.1348 42.5121 54.1624C42.6407 54.1901 42.7742 54.1848 42.9003 54.1472C43.0264 54.1096 43.141 54.0409 43.2334 53.9473C43.3259 53.8537 43.3933 53.7383 43.4294 53.6118C43.5248 53.6838 43.6347 53.7342 43.7515 53.7594C43.8683 53.7846 43.9892 53.784 44.1058 53.7577C44.2224 53.7314 44.3318 53.68 44.4265 53.6071C44.5211 53.5342 44.5988 53.4415 44.6539 53.3355C45.1897 53.7128 45.919 53.4809 45.9481 52.9138C45.6251 52.3597 45.2616 51.749 44.8835 51.1252Z" fill="#4E2DA6"/>
<path d="M41.1048 70.5494L40.044 71.9162C39.8986 71.3499 39.7532 70.7966 39.5933 70.2593C40.0854 70.3465 41.1048 70.5494 41.1048 70.5494Z" fill="#4E2DA6"/>
<path d="M26.2712 66.9582C26.2662 67.0859 26.212 67.2066 26.1199 67.2952C26.0278 67.3837 25.905 67.4332 25.7772 67.4332C25.6495 67.4332 25.5267 67.3837 25.4346 67.2952C25.3425 67.2066 25.2882 67.0859 25.2832 66.9582C25.2882 66.8306 25.3425 66.7098 25.4346 66.6213C25.5267 66.5327 25.6495 66.4833 25.7772 66.4833C25.905 66.4833 26.0278 66.5327 26.1199 66.6213C26.212 66.7098 26.2662 66.8306 26.2712 66.9582Z" fill="#4E2DA6"/>
<path d="M32.9024 62.596C32.9024 62.661 32.8896 62.7252 32.8647 62.7852C32.8399 62.8452 32.8035 62.8997 32.7576 62.9456C32.7117 62.9915 32.6572 63.0279 32.5972 63.0528C32.5372 63.0776 32.4729 63.0904 32.408 63.0904C32.343 63.0904 32.2788 63.0776 32.2188 63.0528C32.1588 63.0279 32.1043 62.9915 32.0584 62.9456C32.0125 62.8997 31.9761 62.8452 31.9512 62.7852C31.9264 62.7252 31.9136 62.661 31.9136 62.596C31.9136 62.4649 31.9657 62.3392 32.0584 62.2464C32.1511 62.1537 32.2769 62.1016 32.408 62.1016C32.5391 62.1016 32.6648 62.1537 32.7576 62.2464C32.8503 62.3392 32.9024 62.4649 32.9024 62.596Z" fill="#4E2DA6"/>
<path d="M39.2567 67.4528C39.2567 67.5841 39.2045 67.7099 39.1117 67.8027C39.0189 67.8955 38.8931 67.9476 38.7619 67.9476C38.6306 67.9476 38.5048 67.8955 38.412 67.8027C38.3192 67.7099 38.2671 67.5841 38.2671 67.4528C38.2671 67.3216 38.3192 67.1958 38.412 67.103C38.5048 67.0102 38.6306 66.9581 38.7619 66.9581C38.8931 66.9581 39.0189 67.0102 39.1117 67.103C39.2045 67.1958 39.2567 67.3216 39.2567 67.4528Z" fill="#4E2DA6"/>
<path d="M47.9227 68.8342C47.9227 68.9654 47.8705 69.0913 47.7778 69.1841C47.685 69.2769 47.5591 69.329 47.4279 69.329C47.2967 69.329 47.1708 69.2769 47.078 69.1841C46.9852 69.0913 46.9331 68.9654 46.9331 68.8342C46.9331 68.703 46.9852 68.5771 47.078 68.4843C47.1708 68.3916 47.2967 68.3394 47.4279 68.3394C47.5591 68.3394 47.685 68.3916 47.7778 68.4843C47.8705 68.5771 47.9227 68.703 47.9227 68.8342Z" fill="#4E2DA6"/>
<path d="M52.4319 61.2729C52.4319 61.4041 52.3798 61.53 52.287 61.6228C52.1942 61.7156 52.0684 61.7677 51.9372 61.7677C51.8059 61.7677 51.6801 61.7156 51.5873 61.6228C51.4945 61.53 51.4424 61.4041 51.4424 61.2729C51.4424 61.1417 51.4945 61.0158 51.5873 60.923C51.6801 60.8302 51.8059 60.7781 51.9372 60.7781C52.0684 60.7781 52.1942 60.8302 52.287 60.923C52.3798 61.0158 52.4319 61.1417 52.4319 61.2729Z" fill="#4E2DA6"/>
<path d="M60.8633 61.1711C60.8633 61.2361 60.8505 61.3004 60.8257 61.3603C60.8008 61.4203 60.7644 61.4748 60.7185 61.5207C60.6726 61.5666 60.6181 61.6031 60.5581 61.6279C60.4981 61.6527 60.4338 61.6655 60.3689 61.6655C60.304 61.6655 60.2397 61.6527 60.1797 61.6279C60.1197 61.6031 60.0652 61.5666 60.0193 61.5207C59.9734 61.4748 59.937 61.4203 59.9121 61.3603C59.8873 61.3004 59.8745 61.2361 59.8745 61.1711C59.8745 61.04 59.9266 60.9143 60.0193 60.8215C60.112 60.7288 60.2378 60.6767 60.3689 60.6767C60.5 60.6767 60.6258 60.7288 60.7185 60.8215C60.8112 60.9143 60.8633 61.04 60.8633 61.1711Z" fill="#4E2DA6"/>
<path d="M63.7134 54.4683C63.7134 54.5994 63.6613 54.7251 63.5686 54.8179C63.4759 54.9106 63.3501 54.9627 63.219 54.9627C63.0879 54.9627 62.9621 54.9106 62.8694 54.8179C62.7767 54.7251 62.7246 54.5994 62.7246 54.4683C62.7246 54.3371 62.7767 54.2114 62.8694 54.1187C62.9621 54.026 63.0879 53.9739 63.219 53.9739C63.3501 53.9739 63.4759 54.026 63.5686 54.1187C63.6613 54.2114 63.7134 54.3371 63.7134 54.4683Z" fill="#4E2DA6"/>
<path d="M44.2725 75.6242C44.2725 75.6892 44.2597 75.7534 44.2349 75.8134C44.21 75.8734 44.1736 75.9279 44.1277 75.9738C44.0818 76.0197 44.0273 76.0561 43.9673 76.081C43.9073 76.1058 43.843 76.1186 43.7781 76.1186C43.7132 76.1186 43.6489 76.1058 43.5889 76.081C43.5289 76.0561 43.4744 76.0197 43.4285 75.9738C43.3826 75.9279 43.3462 75.8734 43.3213 75.8134C43.2965 75.7534 43.2837 75.6892 43.2837 75.6242C43.2837 75.4931 43.3358 75.3673 43.4285 75.2746C43.5212 75.1819 43.647 75.1298 43.7781 75.1298C43.9092 75.1298 44.035 75.1819 44.1277 75.2746C44.2204 75.3673 44.2725 75.4931 44.2725 75.6242Z" fill="#4E2DA6"/>
<path d="M51.9359 75.1299C51.9359 75.2611 51.8837 75.3869 51.7909 75.4797C51.6981 75.5725 51.5723 75.6247 51.4411 75.6247C51.3099 75.6247 51.184 75.5725 51.0912 75.4797C50.9984 75.3869 50.9463 75.2611 50.9463 75.1299C50.9463 74.9986 50.9984 74.8728 51.0912 74.78C51.184 74.6872 51.3099 74.6351 51.4411 74.6351C51.5723 74.6351 51.6981 74.6872 51.7909 74.78C51.8837 74.8728 51.9359 74.9986 51.9359 75.1299Z" fill="#4E2DA6"/>
<path d="M136.953 60.3566C136.444 60.3857 135.543 60.4293 135.339 60.4439C135.717 59.2377 136.388 59.2224 136.953 60.3566Z" fill="#4E2DA6"/>
<path d="M137.419 67.3363C137.055 68.3251 136.459 68.3688 135.95 67.4527C136.372 67.4266 136.881 67.38 137.419 67.3363Z" fill="#4E2DA6"/>
<path d="M83.925 50.8192C83.9276 50.8858 83.9168 50.9522 83.8931 51.0145C83.8694 51.0768 83.8334 51.1337 83.7872 51.1818C83.741 51.2299 83.6855 51.2681 83.6242 51.2942C83.5629 51.3203 83.4969 51.3338 83.4302 51.3338C83.3636 51.3338 83.2976 51.3203 83.2362 51.2942C83.1749 51.2681 83.1195 51.2299 83.0733 51.1818C83.0271 51.1337 82.991 51.0768 82.9674 51.0145C82.9437 50.9522 82.9328 50.8858 82.9354 50.8192C82.9405 50.6913 82.9948 50.5703 83.087 50.4817C83.1793 50.393 83.3023 50.3435 83.4302 50.3435C83.5582 50.3435 83.6812 50.393 83.7734 50.4817C83.8656 50.5703 83.92 50.6913 83.925 50.8192Z" fill="#4E2DA6"/>
<path d="M133.551 62.2616C133.551 62.3926 133.499 62.5183 133.406 62.6109C133.314 62.7036 133.188 62.7556 133.057 62.7556C132.926 62.7556 132.8 62.7036 132.708 62.6109C132.615 62.5183 132.563 62.3926 132.563 62.2616C132.563 62.1306 132.615 62.0049 132.708 61.9123C132.8 61.8196 132.926 61.7676 133.057 61.7676C133.188 61.7676 133.314 61.8196 133.406 61.9123C133.499 62.0049 133.551 62.1306 133.551 62.2616Z" fill="#4E2DA6"/>
<path d="M121.933 94.8613C121.929 94.0256 121.88 93.1907 121.788 92.3602L125.99 88.4631L121.933 94.8613Z" fill="#4E2DA6"/>
<path d="M81.0458 114.637C75.3655 115.346 69.5982 114.734 64.1934 112.848" stroke="#120071" stroke-width="0.769171" stroke-linecap="round" stroke-linejoin="round"/>
<path d="M110.17 92.6061C106.666 100.813 100.3 107.469 92.2563 111.334" stroke="#120071" stroke-width="0.769171" stroke-linecap="round" stroke-linejoin="round"/>
<path d="M112.497 71.64C112.819 73.3773 113.008 75.1376 113.064 76.904" stroke="#120071" stroke-width="0.769171" stroke-linecap="round" stroke-linejoin="round"/>
<path d="M82.1362 41.9775C90.623 43.3115 98.3697 47.5892 104.019 54.0613" stroke="#120071" stroke-width="0.769171" stroke-linecap="round" stroke-linejoin="round"/>
<path d="M73.3096 41.6575C74.9644 41.5246 76.6262 41.5003 78.2842 41.5848C78.575 41.6001 78.8804 41.6139 79.1712 41.643" stroke="#120071" stroke-width="0.769171" stroke-linecap="round" stroke-linejoin="round"/>
<path d="M47.3696 55.7473C52.784 48.7572 60.539 43.9556 69.2097 42.2248" stroke="#120071" stroke-width="0.769171" stroke-linecap="round" stroke-linejoin="round"/>
<path d="M39.7365 80.0301C39.6771 78.7995 39.682 77.5667 39.751 76.3366C39.8207 75.0264 39.9569 73.7215 40.1582 72.4251" stroke="#120071" stroke-width="0.769171" stroke-linecap="round" stroke-linejoin="round"/>
<path d="M56.6171 109.155C52.4077 106.456 48.7914 102.929 45.9883 98.7878" stroke="#120071" stroke-width="0.769171" stroke-linecap="round" stroke-linejoin="round"/>
<path d="M105.677 57.8994C106.1 57.8867 106.52 57.8232 106.927 57.7104L105.415 59.15" stroke="#120071" stroke-width="0.769171" stroke-linecap="round" stroke-linejoin="round"/>
<path d="M143.57 61.84L146.434 60.5313C148.251 59.7025 148.271 58.8185 146.1 59.5134C145.968 59.5555 142.741 60.5152 142.232 60.5895C141.839 60.6469 141.16 60.705 141.084 60.4441C140.792 59.4491 142.002 56.7613 141.157 56.4889C140.605 56.3121 139.662 58.0463 139.063 59.2953C138.643 60.1693 137.915 60.3132 136.954 60.3568" stroke="#120071" stroke-width="0.769171" stroke-linecap="round" stroke-linejoin="round"/>
<path d="M143.046 61.898C143.046 61.898 147.409 61.3623 147.7 61.3164C149.966 60.9865 149.808 61.8421 147.874 62.3779C146.027 62.8891 143.803 63.5259 143.803 63.5259" stroke="#120071" stroke-width="0.769171" stroke-linecap="round" stroke-linejoin="round"/>
<path d="M143.046 63.5122C144.478 63.5551 145.909 63.5161 147.336 63.3959C149.618 63.2176 149.371 63.9776 147.438 64.4574C146.245 64.7833 145.03 65.0215 143.803 65.1699" stroke="#120071" stroke-width="0.769171" stroke-linecap="round" stroke-linejoin="round"/>
<path d="M137.419 67.3367C137.419 67.3367 140.574 67.13 141.185 67.0749C142.362 66.9678 143.571 66.7803 144.748 66.6241C145.229 66.5591 145.709 66.4826 146.187 66.3945C148.225 66.0119 148.528 65.2557 146.216 65.3185C144.976 65.348 143.736 65.2309 142.523 64.9695" stroke="#120071" stroke-width="0.769171" stroke-linecap="round" stroke-linejoin="round"/>
<path d="M142.959 61.2003C143.18 63.0115 142.786 64.8444 141.839 66.4045" stroke="#120071" stroke-width="0.769171" stroke-linecap="round" stroke-linejoin="round"/>
<path d="M141.243 61.1711C140.902 62.0737 140.377 62.8954 139.701 63.5839C139.025 64.2723 138.213 64.8125 137.317 65.1699" stroke="#120071" stroke-width="0.769171" stroke-linecap="round" stroke-linejoin="round"/>
<path d="M113.32 69.3638C113.218 69.6547 113.117 69.96 113 70.2822C112.244 69.7733 111.603 69.4442 111.386 69.2643C112.041 69.2911 112.68 69.3348 113.32 69.3638Z" stroke="#120071" stroke-width="0.769171" stroke-linecap="round" stroke-linejoin="round"/>
<path d="M98.6108 67.7L100.196 65.4171C99.7839 66.3165 99.5699 67.2939 99.5683 68.2832" stroke="#120071" stroke-width="0.769171" stroke-linecap="round" stroke-linejoin="round"/>
<path d="M103.862 60.6039C104.387 60.6039 105.067 60.1524 105.417 59.1498C105.558 58.746 105.646 58.3257 105.679 57.8993C104.312 57.9138 102.557 57.2105 104.545 52.7379C104.973 51.7767 105.803 50.3065 106.835 50.5315C107.838 50.7511 108.527 52.5274 108.442 53.6693C108.408 54.1599 108.748 54.0397 109.152 53.7527C110.278 52.9476 111.071 54.8716 108.962 55.7732C108.822 55.927 108.718 56.1099 108.656 56.3089C108.112 58.6049 108.093 60.496 110.401 61.0203" stroke="#120071" stroke-width="0.769171" stroke-linecap="round" stroke-linejoin="round"/>
<path d="M105.851 50.8193C108.788 47.9546 117.513 42.9234 116.321 48.798C116.321 48.798 122.775 43.2441 125.161 45.2209C127.533 47.1847 118.399 57.711 108.614 59.7177" stroke="#120071" stroke-width="0.769171" stroke-linecap="round" stroke-linejoin="round"/>
<path d="M136.706 68.1216C134.985 68.1216 134.31 59.6487 136.052 59.5132C126.715 60.5081 117.032 62.0656 110.403 61.0109C108.096 63.8555 106.214 67.0196 104.816 70.4045C103.928 67.2184 103.605 63.9014 103.862 60.6038C102.612 60.502 88.9723 51.4582 83.2293 48.0991C81.984 48.9411 80.9229 50.0274 80.1105 51.2921C79.2981 52.5569 78.7513 53.9736 78.5034 55.4562L99.5705 68.2831C99.5652 68.518 99.5705 68.7644 99.5835 69.0277C99.6914 70.9778 100.438 73.7551 102.538 78.2269C105.137 79.0022 109.164 77.5749 111.583 76.1766C111.43 74.0513 112.668 71.3704 113.323 69.3652C121.145 69.7226 128.615 69.1027 136.706 68.1216Z" stroke="#120071" stroke-width="0.769171" stroke-linecap="round" stroke-linejoin="round"/>
<path d="M102.55 78.2271L89.9876 91.6769C87.7185 94.1003 86.0633 97.0323 85.1607 100.227L80.4639 116.643C81.7601 117.787 83.3144 118.601 84.9937 119.014C86.6731 119.428 88.4275 119.428 90.107 119.015L94.9285 101.549C109.196 89.0603 106.752 91.1948 108.335 89.8294L116.114 101.68C116.572 102.374 117.174 102.961 117.88 103.401C118.586 103.841 119.378 104.122 120.203 104.226C121.028 104.33 121.866 104.254 122.659 104.003C123.452 103.751 124.18 103.331 124.795 102.77L139.495 89.3496C139.109 87.6829 138.335 86.1308 137.237 84.8189C136.139 83.507 134.747 82.4724 133.174 81.7989L121.785 92.3603C121.785 92.3603 119.821 79.4049 111.563 76.1768" stroke="#120071" stroke-width="0.769171" stroke-linecap="round" stroke-linejoin="round"/>
<path d="M107.175 90.8337L106.157 86.5149L108.338 89.8303" stroke="#120071" stroke-width="0.769171" stroke-linecap="round" stroke-linejoin="round"/>
<path d="M81.38 117.341C80.8066 120.425 79.9298 123.445 78.7626 126.356C77.6551 128.856 76.7873 131.094 77.1049 131.475C78.2177 132.806 82.003 127.057 84.8117 125.586C85.4808 125.254 86.0787 124.794 86.5719 124.233C87.5584 123.068 87.0074 121.718 88.1562 119.289" stroke="#120071" stroke-width="0.769171" stroke-linecap="round" stroke-linejoin="round"/>
<path d="M138.902 87.5617C141.31 85.5122 143.834 83.6043 146.463 81.8478C148.746 80.3347 150.68 78.9105 150.621 78.4306C150.416 76.7148 144.108 79.4952 140.967 79.2304C140.22 79.1524 139.465 79.2165 138.742 79.4194C137.288 79.8587 137.099 81.2371 134.816 82.6766" stroke="#120071" stroke-width="0.769171" stroke-linecap="round" stroke-linejoin="round"/>
<path d="M78.1958 46.4415C78.1958 43.2271 80.6954 37.2346 81.6711 36.7433C81.71 36.7257 81.7542 36.724 81.7942 36.7386C81.8343 36.7532 81.867 36.7829 81.8854 36.8213C81.8977 36.8466 81.903 36.8749 81.9007 36.9032C81.5663 40.3365 79.3392 46.2004 82.4434 48.6701" stroke="#120071" stroke-width="0.769171" stroke-linecap="round" stroke-linejoin="round"/>
<path d="M78.8792 53.9884C77.7596 53.2322 76.1799 51.922 76.2327 50.6439C76.3789 47.1112 76.3567 45.4527 76.3636 44.0568C76.369 43.0243 77.181 42.9945 77.7305 44.7838C78.2126 46.3535 78.7193 48.5645 78.7193 48.5645" stroke="#120071" stroke-width="0.769171" stroke-linecap="round" stroke-linejoin="round"/>
<path d="M81.2202 40.9741C81.5263 40.4651 81.8577 39.9409 81.9909 39.7243C82.9629 38.1431 83.3532 38.5304 83.2705 38.8227C82.9468 39.9661 82.1654 41.6866 81.9036 42.7481C81.5133 44.3101 80.849 46.4905 82.0873 48.3457" stroke="#120071" stroke-width="0.769171" stroke-linecap="round" stroke-linejoin="round"/>
<path d="M66.3741 92.6827C66.3741 92.6827 63.4804 93.308 59.5688 93.7878" stroke="#120071" stroke-width="0.769171" stroke-linecap="round" stroke-linejoin="round"/>
<path d="M39.6926 80.1031C40.0704 79.4733 40.5693 78.9247 41.1605 78.489V78.5472C45.8428 79.2161 49.3618 79.187 52.997 78.2411C52.9453 79.2216 52.7794 80.1927 52.5026 81.1348C56.9359 81.0332 61.3714 81.1545 65.7925 81.4983C66.8323 81.5784 67.842 81.8846 68.751 82.3955C69.6601 82.9064 70.4467 83.6097 71.0557 84.4563C71.6648 85.3027 72.0818 86.272 72.2777 87.2962C72.4736 88.3205 72.4436 89.3753 72.1899 90.3868C70.5058 97.5098 68.4283 104.534 65.967 111.427C62.6749 111.973 59.2986 111.239 56.5298 109.377C57.2534 104.13 58.2631 98.9262 59.5544 93.7894C55.1637 94.3251 48.6362 94.8172 44.1713 93.5858C41.5256 92.8565 39.3689 91.3335 38.4314 88.7436C37.3607 85.8048 38.325 82.2399 39.6926 80.1031Z" stroke="#120071" stroke-width="0.769171" stroke-linecap="round" stroke-linejoin="round"/>
<path d="M52.5173 81.1499C51.7903 81.1645 51.0778 81.1935 50.3652 81.2226" stroke="#120071" stroke-width="0.769171" stroke-linecap="round" stroke-linejoin="round"/>
<path d="M48.3752 94.2502L42.7577 104.938C41.9837 106.41 40.76 107.597 39.2647 108.326C37.7695 109.055 36.0807 109.288 34.444 108.99C33.3581 108.794 32.3263 108.369 31.4164 107.744L17.8525 98.4533C19.0464 94.479 20.6774 91.8892 23.9277 89.8672L34.6614 96.739L38.4421 88.7414" stroke="#120071" stroke-width="0.769171" stroke-linecap="round" stroke-linejoin="round"/>
<path d="M41.5532 92.462L47.0934 96.6935" stroke="#120071" stroke-width="0.769171" stroke-linecap="round" stroke-linejoin="round"/>
<path d="M46.3372 60.4149L44.5923 59.2225C45.0948 59.2788 45.6012 59.2934 46.1061 59.2662" stroke="#120071" stroke-width="0.769171" stroke-linecap="round" stroke-linejoin="round"/>
<path d="M49.5948 60.7785C49.333 60.9385 49.0713 61.0846 48.8096 61.2438C48.5253 61.4672 48.1736 61.5874 47.8121 61.5847C47.4506 61.5821 47.1007 61.4568 46.8197 61.2293C46.374 60.6705 46.1242 59.9808 46.1087 59.2662C48.4476 59.1292 48.5907 57.5565 45.9472 52.898C45.9195 53.0334 45.8563 53.1592 45.7642 53.2623C45.6721 53.3655 45.5543 53.4424 45.4228 53.4852C45.2913 53.5281 45.1508 53.5353 45.0156 53.5062C44.8804 53.4771 44.7553 53.4128 44.6531 53.3197C44.6008 53.4285 44.5246 53.5241 44.4301 53.5993C44.3357 53.6745 44.2254 53.7274 44.1076 53.754C43.9899 53.7806 43.8676 53.7801 43.75 53.7528C43.6324 53.7254 43.5225 53.6718 43.4285 53.5959C43.3924 53.7224 43.3249 53.8377 43.2325 53.9313C43.14 54.0248 43.0255 54.0936 42.8995 54.1312C42.7735 54.1689 42.64 54.1742 42.5114 54.1468C42.3827 54.1193 42.2631 54.0599 42.1635 53.974C42.6579 54.8312 42.8614 55.7909 42.1925 55.1365C41.4364 54.3957 40.6221 55.4855 41.8152 56.3733C42.0386 56.5735 42.2027 56.8311 42.2899 57.1181C42.3771 57.4051 42.3839 57.7105 42.3096 58.0011C42.9995 59.0075 43.2752 60.2408 43.0796 61.4451C42.9487 62.0574 42.0762 62.5357 41.0132 62.2594C42.2813 64.5378 44.8911 66.6371 47.4289 65.7401C50.2216 64.7567 49.5948 60.7785 49.5948 60.7785Z" stroke="#120071" stroke-width="0.769171" stroke-linecap="round" stroke-linejoin="round"/>
<path d="M67.6616 48.8294C71.2533 46.1132 71.3949 40.3702 71.3949 36.252C71.3949 36.1212 71.5831 35.9459 71.6849 36.0224C72.5934 36.6133 73.8018 42.7366 73.511 45.9586" stroke="#120071" stroke-width="0.769171" stroke-linecap="round" stroke-linejoin="round"/>
<path d="M71.7832 53.7121C72.8135 53.2972 73.6671 52.5362 74.197 51.56C75.3042 49.0957 75.6918 46.3685 75.3152 43.6932C75.1177 42.5315 74.5146 42.6317 73.9919 44.3912C73.5258 45.9617 72.7996 48.0701 72.7996 48.0701" stroke="#120071" stroke-width="0.769171" stroke-linecap="round" stroke-linejoin="round"/>
<path d="M67.6011 48.791C68.6021 47.5665 69.5442 45.393 69.5006 44.2458C69.3831 42.9596 69.1594 41.6853 68.8317 40.436C68.7659 40.1299 69.1478 39.7227 70.2568 41.8136" stroke="#120071" stroke-width="0.769171" stroke-linecap="round" stroke-linejoin="round"/>
<path d="M54.0585 67.4384C54.0042 66.7937 53.9119 66.1528 53.7822 65.5189L54.9287 66.9677" stroke="#120071" stroke-width="0.769171" stroke-linecap="round" stroke-linejoin="round"/>
<path d="M53.012 78.2417H53.0266C53.6518 74.5483 54.3353 70.8112 54.059 67.4384C59.8655 64.3924 67.2455 58.4879 71.8145 54.4685C72.3326 53.9503 70.5181 51.6559 70.0191 51.0674C69.5071 50.4635 67.505 48.2402 66.7986 48.5938C61.4611 53.1823 55.7063 57.2616 49.6094 60.7786" stroke="#120071" stroke-width="0.769171" stroke-linecap="round" stroke-linejoin="round"/>
<path d="M64.4987 111.612C64.1239 113.097 63.8374 114.602 63.6407 116.12C61.3653 114.63 59.3756 112.744 57.7661 110.551C57.8243 110.424 57.8733 110.293 57.9115 110.158" stroke="#120071" stroke-width="0.769171" stroke-linecap="round" stroke-linejoin="round"/>
<path d="M57.7516 116.101C57.2829 115.225 56.9312 114.292 56.7054 113.324C56.458 113.909 56.328 114.537 56.3228 115.172C56.5056 116.077 56.8243 116.949 57.2679 117.759C58.7657 120.551 60.2634 126.397 61.3395 126.324C61.4994 126.309 61.6739 126.004 61.8484 125.495C60.7035 124.16 59.2348 118.824 57.7516 116.101Z" stroke="#120071" stroke-width="0.769171" stroke-linecap="round" stroke-linejoin="round"/>
<path d="M57.7513 110.565C57.4176 111.525 56.9951 112.485 56.7051 113.327C56.9309 114.295 57.2826 115.229 57.7513 116.105C59.2199 118.824 60.6886 124.16 61.8519 125.498C62.4917 123.593 63.1751 118.81 63.6259 116.119C61.3563 114.628 59.3676 112.748 57.7513 110.565Z" stroke="#120071" stroke-width="0.769171" stroke-linecap="round" stroke-linejoin="round"/>
<path d="M18.478 96.6063C17.1949 95.8823 15.8693 95.2365 14.5083 94.6723C16.5461 92.8732 18.8906 91.4547 21.4299 90.4845C21.8225 90.7462 21.8807 90.848 22.2587 91.0661" stroke="#120071" stroke-width="0.769171" stroke-linecap="round" stroke-linejoin="round"/>
<path d="M17.3727 87.8815C16.4508 87.8124 15.5238 87.8863 14.6244 88.1004C11.5417 88.8121 5.49334 88.6958 5.28747 89.7573C5.25838 89.9173 5.50558 90.1645 5.94182 90.4698C7.52681 89.6992 13.0662 89.6992 16.1053 89.0157C17.0719 88.7881 18.0652 88.6954 19.0572 88.7402C18.5596 88.3429 17.9865 88.0508 17.3727 87.8815Z" stroke="#120071" stroke-width="0.769171" stroke-linecap="round" stroke-linejoin="round"/>
<path d="M19.0452 88.725C18.0532 88.6816 17.06 88.7746 16.0933 89.0013C13.0687 89.6993 7.52932 89.6993 5.94434 90.4699C7.60203 91.6042 12.0363 93.5381 14.5083 94.6723C16.5518 92.8699 18.9007 91.4467 21.4445 90.4699C20.5865 89.8883 19.7722 89.2339 19.0452 88.725Z" stroke="#120071" stroke-width="0.769171" stroke-linecap="round" stroke-linejoin="round"/>
<path d="M9.81222 67.9181C9.15232 68.1371 8.48895 68.3456 7.82237 68.5434C6.48382 68.9475 5.99018 68.7033 7.32797 67.7872C8.59282 66.9284 9.9885 66.2802 11.4607 65.8678" stroke="#120071" stroke-width="0.769171" stroke-linecap="round" stroke-linejoin="round"/>
<path d="M12.7926 64.1811C12.3887 64.5754 12.0233 65.0072 11.7012 65.4707C11.1231 66.3368 10.7321 67.314 10.5532 68.3399" stroke="#120071" stroke-width="0.769171" stroke-linecap="round" stroke-linejoin="round"/>
<path d="M9.30331 66.6677C4.4611 68.369 3.85343 67.5754 7.90736 65.7225C9.47149 65.0529 11.0999 64.5447 12.7672 64.2056" stroke="#120071" stroke-width="0.769171" stroke-linecap="round" stroke-linejoin="round"/>
<path d="M18.7864 67.9464C16.7606 67.8332 12.438 68.5885 9.30323 69.6302C7.93636 70.0809 7.20547 69.7832 8.72158 68.6414C9.36033 68.1639 10.0448 67.7509 10.765 67.4084" stroke="#120071" stroke-width="0.769171" stroke-linecap="round" stroke-linejoin="round"/>
<path d="M10.3933 64.7917C8.76544 65.1697 5.05515 65.309 10.8295 63.4393C11.7311 63.1477 12.8194 62.9036 13.8395 62.6832C13.8972 62.3041 13.8309 61.9165 13.6505 61.5781C13.0383 60.5525 13.2449 60.1362 14.2467 60.7492C15.5182 61.6145 17.0278 62.0618 18.5654 62.0288" stroke="#120071" stroke-width="0.769171" stroke-linecap="round" stroke-linejoin="round"/>
<path d="M13.8392 62.6821C13.8329 63.0659 13.9059 63.447 14.0536 63.8014C14.2012 64.1558 14.4205 64.4759 14.6976 64.7417C14.9746 65.0075 15.3036 65.2133 15.6638 65.3461C16.024 65.479 16.4078 65.536 16.7911 65.5138" stroke="#120071" stroke-width="0.769171" stroke-linecap="round" stroke-linejoin="round"/>
<path d="M45.9448 52.9125C45.9158 53.4796 45.1887 53.7123 44.6507 53.3342C44.5956 53.4403 44.518 53.5331 44.4233 53.6061C44.3287 53.6791 44.2192 53.7306 44.1026 53.7569C43.986 53.7832 43.865 53.7837 43.7482 53.7584C43.6314 53.7332 43.5215 53.6827 43.4262 53.6105C43.3897 53.7368 43.3221 53.8519 43.2296 53.9452C43.1371 54.0385 43.0226 54.1071 42.8967 54.1447C42.7707 54.1823 42.6374 54.1876 42.5088 54.1602C42.3803 54.1328 42.2607 54.0735 42.1611 53.9878C42.6409 54.8457 42.859 55.8062 42.1902 55.1511C41.434 54.4103 40.6228 55.4825 41.8121 56.3871C42.0357 56.5873 42.2 56.845 42.2872 57.1322C42.3744 57.4194 42.381 57.725 42.3065 58.0157C41.1003 55.9953 38.9482 54.3957 38.4538 53.9013C37.3058 52.7533 38.1194 52.0255 39.0936 52.4472C38.864 51.8219 39.6026 51.2992 40.2853 51.8219C40.0962 51.2097 41.0131 50.7023 41.7975 51.3421C41.6667 50.6732 42.8009 50.3969 43.4552 50.9786C43.3534 50.3824 44.4027 50.3372 44.8803 51.124C45.2629 51.7477 45.9448 52.9125 45.9448 52.9125Z" stroke="#120071" stroke-width="0.769171" stroke-linecap="round" stroke-linejoin="round"/>
<path d="M40.0417 71.9163L41.1048 70.5495C40.5821 70.4484 40.0877 70.3459 39.5933 70.2594" stroke="#120071" stroke-width="0.769171" stroke-linecap="round" stroke-linejoin="round"/>
<path d="M41.0159 62.2617C40.8269 62.189 31.679 59.8042 18.8269 61.0371C18.1299 63.6399 18.2097 66.3896 19.0565 68.9475C25.9286 68.3888 32.8455 68.8304 39.5909 70.2585C40.4101 72.9369 40.9364 75.6962 41.1606 78.4881" stroke="#120071" stroke-width="0.769171" stroke-linecap="round" stroke-linejoin="round"/>
<path d="M32.0151 45.5982C32.0492 45.9922 31.9657 46.3874 31.7751 46.7339C31.5846 47.0805 31.2957 47.3627 30.9448 47.545C30.5939 47.7273 30.1968 47.8015 29.8037 47.7582C29.4107 47.7149 29.0393 47.5561 28.7365 47.3017C28.4337 47.0474 28.2131 46.709 28.1026 46.3293C27.9921 45.9496 27.9967 45.5457 28.1157 45.1686C28.2347 44.7915 28.4628 44.4582 28.7712 44.2107C29.0797 43.9632 29.4545 43.8127 29.8485 43.7783C30.3768 43.7339 30.9012 43.9004 31.3072 44.2414C31.7131 44.5824 31.9676 45.0702 32.0151 45.5982Z" stroke="#120071" stroke-width="0.769171" stroke-linecap="round" stroke-linejoin="round"/>
<path d="M111.726 114.928H105.43" stroke="#120071" stroke-width="0.769171" stroke-linecap="round" stroke-linejoin="round"/>
<path d="M108.578 118.082V111.772" stroke="#120071" stroke-width="0.769171" stroke-linecap="round" stroke-linejoin="round"/>
<path d="M23.4259 60.7347C22.7142 63.3896 22.8473 66.1991 23.804 68.776" stroke="#120071" stroke-width="0.769171" stroke-linecap="round" stroke-linejoin="round"/>
<path d="M64.0645 50.8913C66.2501 52.3528 68.0293 54.3448 69.2358 56.681" stroke="#120071" stroke-width="0.769171" stroke-linecap="round" stroke-linejoin="round"/>
<path d="M136.953 60.3567C136.444 60.3858 135.543 60.4294 135.339 60.444C135.717 59.2378 136.388 59.2225 136.953 60.3567Z" stroke="#120071" stroke-width="0.769171" stroke-linecap="round" stroke-linejoin="round"/>
<path d="M137.419 67.3365C137.055 68.3253 136.459 68.3689 135.95 67.4528C136.372 67.4268 136.881 67.3801 137.419 67.3365Z" stroke="#120071" stroke-width="0.769171" stroke-linecap="round" stroke-linejoin="round"/>
<path d="M109.443 77.2229C115.332 81.3557 116.943 86.4573 119.417 95.5142C119.504 95.8302 119.67 96.1187 119.9 96.3524C120.13 96.5862 120.415 96.7573 120.73 96.8497C121.044 96.9412 121.377 96.951 121.697 96.878C122.016 96.805 122.312 96.6517 122.555 96.4326L136.388 83.8981" stroke="#120071" stroke-width="0.769171" stroke-linecap="round" stroke-linejoin="round"/>
<path d="M86.5713 119.275L91.5872 100.053L106.331 87.2418" stroke="#120071" stroke-width="0.769171" stroke-linecap="round" stroke-linejoin="round"/>
<path d="M48.9695 80.5538C48.4128 81.4957 47.6619 82.3083 46.7669 82.9376C45.8718 83.5669 44.8531 83.9985 43.7783 84.2036" stroke="#120071" stroke-width="0.769171" stroke-linecap="round" stroke-linejoin="round"/>
<path d="M57.3296 104.414C58.8014 105.476 60.4782 106.22 62.2532 106.598C64.0281 106.976 65.8624 106.981 67.6393 106.611" stroke="#120071" stroke-width="0.769171" stroke-linecap="round" stroke-linejoin="round"/>
<path d="M27.8419 92.3764C24.9926 94.2958 23.1734 97.4076 22.0698 101.331" stroke="#120071" stroke-width="0.769171" stroke-linecap="round" stroke-linejoin="round"/>
<path d="M125.99 88.4632L121.934 94.8614C121.93 94.0257 121.881 93.1908 121.789 92.3603" stroke="#120071" stroke-width="0.769171" stroke-linecap="round" stroke-linejoin="round"/>
<path d="M67.6665 48.8295C69.7497 47.2591 70.2571 44.9264 70.3298 42.8041C70.1808 41.3199 69.9282 39.8479 69.5737 38.3989C69.5278 38.1081 69.9372 37.7591 70.7661 39.4313L71.2459 40.4753" stroke="#120071" stroke-width="0.769171" stroke-linecap="round" stroke-linejoin="round"/>
<path d="M76.3925 22.1587C75.227 22.1587 74.0876 22.5043 73.1185 23.1519C72.1494 23.7994 71.3941 24.7198 70.9481 25.7966C70.5021 26.8734 70.3854 28.0583 70.6127 29.2014C70.8401 30.3445 71.4014 31.3946 72.2255 32.2187C73.0497 33.0429 74.0997 33.6041 75.2428 33.8315C76.386 34.0589 77.5709 33.9422 78.6477 33.4961C79.7245 33.0501 80.6448 32.2948 81.2924 31.3257C81.9399 30.3566 82.2855 29.2172 82.2855 28.0517C82.2875 26.8856 81.9429 25.7452 81.2955 24.7752C80.6481 23.8053 79.7271 23.0496 78.6495 22.6041C77.9338 22.3086 77.1668 22.1572 76.3925 22.1587Z" stroke="#120071" stroke-width="0.769171" stroke-linejoin="round"/>
<path d="M75.8184 24.8509C75.8184 25.0032 75.8788 25.1492 75.9865 25.2568C76.0941 25.3645 76.2401 25.4249 76.3924 25.4249C76.5446 25.4249 76.6906 25.3645 76.7982 25.2568C76.9059 25.1492 76.9663 25.0032 76.9663 24.8509C76.9663 24.6987 76.9059 24.5527 76.7982 24.4451C76.6906 24.3374 76.5446 24.277 76.3924 24.277C76.2401 24.277 76.0941 24.3374 75.9865 24.4451C75.8788 24.5527 75.8184 24.6987 75.8184 24.8509Z" stroke="#120071" stroke-width="0.769171" stroke-linejoin="round"/>
<path d="M76.3862 26.9796V31.7155" stroke="#120071" stroke-width="0.769171" stroke-linecap="round" stroke-linejoin="round"/>
</g>
<defs>
<filter id="filter0_d_79_4952" x="-3" y="0" width="161.834" height="161.834" filterUnits="userSpaceOnUse" color-interpolation-filters="sRGB">
<feFlood flood-opacity="0" result="BackgroundImageFix"/>
<feColorMatrix in="SourceAlpha" type="matrix" values="0 0 0 0 0 0 0 0 0 0 0 0 0 0 0 0 0 0 127 0" result="hardAlpha"/>
<feOffset dy="4"/>
<feGaussianBlur stdDeviation="2"/>
<feComposite in2="hardAlpha" operator="out"/>
<feColorMatrix type="matrix" values="0 0 0 0 0 0 0 0 0 0 0 0 0 0 0 0 0 0 0.25 0"/>
<feBlend mode="normal" in2="BackgroundImageFix" result="effect1_dropShadow_79_4952"/>
<feBlend mode="normal" in="SourceGraphic" in2="effect1_dropShadow_79_4952" result="shape"/>
</filter>
</defs>
</svg>
