<svg width="550" height="156" viewBox="0 0 550 156" fill="none" xmlns="http://www.w3.org/2000/svg">
<path d="M22.6341 68.9507V60.5268C22.6341 52.6772 22.2512 48.8482 18.6136 44.0619C17.2735 42.3388 18.0393 36.7867 20.1452 35.4465C24.3572 33.3405 38.1418 43.4875 39.6734 46.7422C40.8221 48.0824 41.3965 49.614 41.3965 51.1456C40.2477 55.7405 40.2477 58.6122 40.2477 63.2071V67.6105C45.9913 66.8447 51.7349 65.8874 57.4785 64.9302C60.3502 64.3558 65.9024 66.2703 66.0938 67.9934C66.0938 71.8225 60.7331 78.7147 56.9041 78.7147C53.2665 78.7147 49.6289 78.9062 46.1828 79.2891L40.2477 79.8635V105.135C40.2477 122.749 39.8648 143.809 55.181 143.809C58.6272 143.809 64.7536 142.277 64.7536 144.766C64.7536 146.68 61.3075 152.998 52.5007 153.956C42.7366 155.296 33.164 151.084 28.7606 144.766C22.6341 136.15 22.6341 124.472 22.6341 105.901V81.778C19.188 81.9694 15.5504 81.9694 11.5299 81.9694C8.46664 81.9694 0.808548 78.5233 0.808548 74.5028C1 72.9712 2.14871 70.8652 2.91452 70.6737C5.21195 70.6737 7.89229 70.4823 10.3812 70.2908L22.6341 68.9507ZM386.135 59.5695C385.241 59.5695 384.284 59.761 383.263 60.1439C382.37 60.5268 381.923 61.0373 381.923 61.6755V138.256C381.923 138.895 382.37 139.405 383.263 139.788C384.284 140.171 385.241 140.362 386.135 140.362V144H357.8V133.47C349.759 142.149 339.612 146.489 327.359 146.489C318.042 146.489 309.809 144.638 302.662 140.937C295.642 137.108 290.153 131.683 286.197 124.663C282.368 117.643 280.453 109.475 280.453 100.157C280.453 91.0953 282.559 83.0543 286.771 76.0344C291.111 68.8869 296.854 63.3986 304.002 59.5695C311.149 55.6128 318.935 53.6345 327.359 53.6345C339.612 53.6345 349.759 58.357 357.8 67.802V55.9319H386.135V59.5695ZM330.231 126.195C335.464 126.195 340.122 125.046 344.207 122.749C348.419 120.324 351.673 117.197 353.971 113.368C356.268 109.411 357.417 105.199 357.417 100.732C357.417 93.0737 354.864 86.7557 349.759 81.778C344.781 76.8002 338.272 74.3113 330.231 74.3113C322.445 74.3113 315.999 76.7364 310.894 81.5865C305.916 86.4367 303.427 92.6269 303.427 100.157C303.427 108.071 305.98 114.389 311.086 119.111C316.319 123.834 322.7 126.195 330.231 126.195Z" fill="#FD93A1"/>
<path d="M115.231 51.9114C125.059 51.9114 133.547 54.0812 140.694 58.4208C147.842 62.6327 153.266 68.3763 156.968 75.6515C160.669 82.9267 162.52 90.9677 162.52 99.7745C162.52 102.455 162.329 105.135 161.946 107.816H91.8741C92.3846 113.942 95.0649 118.728 99.9151 122.174C104.765 125.621 110.573 127.344 117.337 127.344C121.932 127.344 125.761 126.705 128.824 125.429C132.015 124.153 134.823 122.238 137.248 119.686C137.504 119.175 137.631 118.856 137.631 118.728C137.631 118.218 137.44 117.707 137.057 117.197C136.674 116.558 136.291 116.112 135.908 115.857L138.206 112.985L159.457 129.641L157.351 132.513C155.436 131.364 154.096 131.237 153.33 132.13C144.396 142.851 132.398 148.212 117.337 148.212C107.637 148.212 99.0854 146.106 91.6826 141.894C84.2798 137.554 78.5362 131.811 74.4519 124.663C70.4952 117.388 68.5169 109.347 68.5169 100.54C68.5169 91.223 70.4952 82.8629 74.4519 75.4601C78.4086 68.0572 83.8969 62.3137 90.9168 58.2293C98.0644 54.0174 106.169 51.9114 115.231 51.9114ZM139.546 90.0104C139.035 84.7774 136.355 80.374 131.505 76.8002C126.782 73.0988 121.422 71.2481 115.423 71.2481C109.424 71.2481 104.255 73.0988 99.9151 76.8002C95.5755 80.374 92.959 84.7774 92.0655 90.0104H139.546ZM266.223 138.256C266.223 138.895 266.67 139.405 267.563 139.788C268.584 140.171 269.605 140.362 270.626 140.362V144H236.931V140.362C237.952 140.362 238.909 140.171 239.802 139.788C240.823 139.405 241.334 138.895 241.334 138.256V98.4343C241.334 91.925 239.739 86.3728 236.548 81.778C233.357 77.0555 228.571 74.6942 222.189 74.6942C215.679 74.6942 210.383 76.864 206.298 81.2036C202.342 85.5432 200.363 91.7973 200.363 99.966V138.256C200.363 138.895 200.81 139.405 201.703 139.788C202.724 140.171 203.746 140.362 204.767 140.362V144H171.262V140.362C172.284 140.362 173.241 140.171 174.134 139.788C175.155 139.405 175.666 138.895 175.666 138.256V61.6755C175.666 61.0373 175.155 60.5268 174.134 60.1439C173.241 59.761 172.347 59.5695 171.454 59.5695V55.9319H200.363V63.7815C203.682 60.7182 207.575 58.357 212.042 56.6977C216.637 54.9108 221.295 54.0174 226.018 54.0174C234.186 54.0174 241.27 55.7405 247.269 59.1866C253.396 62.6327 258.054 67.2914 261.245 73.1626C264.564 78.9062 266.223 85.3518 266.223 92.4993V138.256ZM417.306 39.8499C413.221 39.8499 409.711 38.4459 406.776 35.638C403.968 32.83 402.564 29.32 402.564 25.1081C402.564 21.1514 403.968 17.7691 406.776 14.9611C409.711 12.0255 413.221 10.5577 417.306 10.5577C421.39 10.5577 424.836 12.0255 427.644 14.9611C430.452 17.7691 431.856 21.1514 431.856 25.1081C431.856 29.32 430.452 32.83 427.644 35.638C424.836 38.4459 421.39 39.8499 417.306 39.8499ZM404.861 61.6755C404.861 61.0373 404.351 60.5268 403.33 60.1439C402.436 59.761 401.543 59.5695 400.649 59.5695V55.9319H433.579V59.5695C432.686 59.5695 431.728 59.761 430.707 60.1439C429.814 60.5268 429.367 61.0373 429.367 61.6755V138.256C429.367 138.895 429.814 139.405 430.707 139.788C431.728 140.171 432.686 140.362 433.579 140.362V144H400.649V140.362C401.543 140.362 402.436 140.171 403.33 139.788C404.351 139.405 404.861 138.895 404.861 138.256V61.6755ZM545.577 138.256C545.577 138.895 546.024 139.405 546.917 139.788C547.939 140.171 548.896 140.362 549.789 140.362V144H522.412V137.299C514.753 143.553 505.628 146.68 495.034 146.68C485.589 146.68 477.165 144.766 469.762 140.937C462.359 137.108 456.552 131.683 452.34 124.663C448.128 117.643 446.022 109.539 446.022 100.349C446.022 91.0315 448.128 82.7991 452.34 75.6515C456.68 68.3763 462.551 62.7604 469.954 58.8037C477.484 54.7194 485.844 52.6772 495.034 52.6772C505.628 52.6772 514.753 55.6766 522.412 61.6755V6.15429C522.412 5.51612 521.965 5.00558 521.071 4.62267C520.178 4.23977 519.284 4.04832 518.391 4.04832V0.410717H549.598V4.04832C548.704 4.04832 547.811 4.23977 546.917 4.62267C546.024 5.00558 545.577 5.51612 545.577 6.15429V138.256ZM496.183 126.195C501.16 126.195 505.691 125.046 509.776 122.749C513.988 120.451 517.242 117.388 519.54 113.559C521.965 109.602 523.177 105.454 523.177 101.115C523.177 93.3289 520.625 86.9472 515.519 81.9694C510.541 76.864 504.096 74.3113 496.183 74.3113C488.269 74.3113 481.76 76.8002 476.654 81.778C471.677 86.6281 469.188 92.946 469.188 100.732C469.188 108.517 471.74 114.708 476.846 119.303C482.079 123.898 488.524 126.195 496.183 126.195Z" fill="#1A202C"/>
</svg>
