<svg width="64" height="64" viewBox="0 0 64 64" fill="none" xmlns="http://www.w3.org/2000/svg">
<path d="M0 32C0 14.3269 14.3269 0 32 0C49.6731 0 64 14.3269 64 32C64 49.6731 49.6731 64 32 64C14.3269 64 0 49.6731 0 32Z" fill="#FFE66D"/>
<path d="M34 20V36C34 37.125 33.0625 38 32 38C30.875 38 30 37.125 30 36V20C30 18.9375 30.875 18 32 18C33.0625 18 34 18.9375 34 20ZM32 46C30.5625 46 29.5 44.9375 29.5 43.5C29.5 42.125 30.5625 41 32 41C33.375 41 34.5 42.125 34.5 43.5C34.5 44.9375 33.375 46 32 46Z" fill="#422C00"/>
</svg>
