<svg width="88" height="88" viewBox="0 0 88 88" fill="none" xmlns="http://www.w3.org/2000/svg">
<path d="M53.696 48.5759C53.696 48.5759 51.0666 46.1711 50.0185 44.0001C49.2366 42.3947 48.2134 40.4902 46.3755 39.6584C46.2219 38.0964 46.2052 36.524 46.3256 34.9591C46.4162 33.3256 46.0148 30.9313 45.45 30.5592C45.0799 30.3411 44.6824 30.1733 44.268 30.0601C44.5587 30.9241 44.7867 31.808 44.9501 32.7048L40.2656 32.8296C40.1164 31.9332 39.891 31.0512 39.5918 30.1932C39.1759 30.293 38.8349 30.3683 38.5271 30.4593C38.5354 30.5093 40.2989 37.0215 38.602 36.0737C38.9347 37.5456 39.5086 39.9579 39.833 40.4569C38.419 49.6144 36.6726 68.1456 36.3398 71.3976C38.2282 72.2081 40.3334 72.3633 42.3202 71.8384C42.3202 71.8384 44.7819 52.8997 45.1659 48.5746L51.3292 53.7897C51.8528 54.2379 52.4691 54.5646 53.1339 54.7463L62.1333 57.233C60.4981 56.7514 61.875 50.9423 63.7636 51.053L53.696 48.5759Z" fill="#FECFC4"/>
<path d="M12.5566 43.9418V45.8966C12.5572 46.2603 12.702 46.609 12.9591 46.8662C13.2163 47.1234 13.565 47.2681 13.9287 47.2687H15.8988C15.9036 46.8292 15.8203 46.3931 15.6538 45.9863C15.4874 45.5795 15.2411 45.2102 14.9296 44.9001C14.6181 44.59 14.2476 44.3455 13.8401 44.1809C13.4325 44.0163 12.9961 43.935 12.5566 43.9418Z" fill="#FECFC4"/>
<path d="M25.7876 24.2877C25.3401 23.707 24.7235 23.2796 24.0227 23.0644C23.3219 22.8492 22.5716 22.8569 21.8754 23.0864C21.93 22.8153 21.9273 22.5358 21.8677 22.2657C21.8081 21.9957 21.6928 21.7411 21.5291 21.5182C21.2229 21.1405 20.781 20.8976 20.298 20.8415C19.8151 20.7854 19.3293 20.9205 18.9446 21.2179C18.56 21.5153 18.3069 21.9514 18.2396 22.433C18.1723 22.9145 18.2961 23.4033 18.5845 23.7947C18.7563 24.0111 18.9721 24.1886 19.2176 24.3154C19.4631 24.4421 19.7327 24.5154 20.0086 24.5302C19.6122 25.1453 19.4161 25.8682 19.4475 26.5993C19.4789 27.3304 19.7361 28.0338 20.1838 28.6127C20.5214 29.003 20.9207 29.3353 21.3658 29.5965C21.8815 28.6333 22.0081 27.5489 21.9315 27.4587C21.3956 26.8317 21.9564 26.2447 22.3141 26.96C22.4971 27.326 22.7217 26.6855 22.8298 26.2197C23.3744 26.4631 23.9567 26.6124 24.5512 26.6606C24.493 28.9809 23.8608 30.1122 22.9047 29.139C22.8858 29.4358 22.8942 29.7337 22.9296 30.029C23.7275 29.9781 24.4956 29.7071 25.1488 29.2462C25.8906 28.673 26.3745 27.8288 26.4942 26.8991C26.614 25.9694 26.3598 25.0302 25.7876 24.2877Z" fill="#6153BD"/>
<path d="M22.8947 29.1367C22.7407 28.9719 22.6015 28.7937 22.4788 28.6044C22.4407 28.8581 22.4606 29.1171 22.5369 29.362C22.6133 29.6069 22.7441 29.8314 22.9196 30.0185C22.885 29.7259 22.8766 29.4308 22.8947 29.1367Z" fill="#6153BD"/>
<path d="M18.1454 36.6393C17.7128 36.8504 17.2685 37.0364 16.8145 37.1962L17.863 35.3833C17.9208 35.8093 18.0153 36.2296 18.1454 36.6393Z" fill="#6153BD"/>
<path d="M40.7859 28.1054C40.7609 28.3466 40.7609 28.671 40.7526 28.9871C40.2535 29.037 39.5132 29.062 39.3551 28.879L39.2803 28.7792C39.5049 29.1369 40.1537 28.6877 40.7859 28.1054Z" fill="#6153BD"/>
<path d="M33.6568 35.5414C33.4322 35.8575 33.1993 36.1981 32.9502 36.5645V34.4933C33.1539 34.8631 33.3903 35.2139 33.6568 35.5414Z" fill="#6153BD"/>
<path d="M45.1689 48.5664L46.2503 49.4814L46.3668 45.6222C46.3002 46.4868 45.1689 48.5747 45.1689 48.5664Z" fill="#6153BD"/>
<path d="M66.8612 52.2426C65.2172 52.155 63.6175 61.5927 65.6633 62.2069C67.6177 62.315 68.9902 52.359 66.8612 52.2426Z" fill="#6153BD"/>
<path d="M63.0345 56.6175C62.5294 56.3694 61.9912 56.1954 61.4365 56.1009C61.6195 57.3071 62.369 57.624 63.1842 56.7506C63.1343 56.709 63.0927 56.6674 63.0345 56.6175Z" fill="#6153BD"/>
<path d="M63.8579 51.0614C63.6878 51.0379 63.5145 51.0567 63.3534 51.1163C63.1923 51.1759 63.0484 51.2743 62.9346 51.4029C63.3921 51.5343 63.9244 51.6687 64.4485 51.7851C64.4163 51.6256 64.3457 51.4763 64.2428 51.3501C64.1399 51.224 64.0078 51.1249 63.8579 51.0614Z" fill="#6153BD"/>
<path d="M43.0894 23.7387C43.2474 23.3727 42.5907 23.1314 42.1831 23.6971C42.3495 23.3644 41.6508 23.0982 41.2848 23.747C41.3929 23.4309 40.7594 23.1647 40.3614 23.8884C40.4052 23.5141 39.7708 23.5224 39.6128 24.1879C39.513 24.6038 39.4377 25.053 39.3799 25.3857C39.5878 25.496 39.8046 25.5879 40.0287 25.6602C39.9455 26.5086 40.245 26.5585 40.4113 26.2591C40.7274 25.7018 41.3596 26.151 40.7441 27.0077C40.7848 27.0515 42.5316 28.9017 42.5736 28.9454C41.526 27.7143 43.2141 25.1029 43.7631 24.2045C44.2189 23.4559 43.5053 23.1897 43.0894 23.7387Z" fill="#6153BD"/>
<path d="M8.13135 51.1866L4.89557 54.4219C4.54971 54.7678 5.08163 55.3041 5.42093 54.9473L8.65671 51.7115C8.69117 51.677 8.71851 51.6361 8.73715 51.591C8.7558 51.546 8.76538 51.4977 8.76536 51.4489C8.76534 51.4001 8.75571 51.3519 8.73703 51.3068C8.71835 51.2618 8.69098 51.2208 8.65649 51.1864C8.62199 51.1519 8.58105 51.1246 8.53599 51.1059C8.49093 51.0873 8.44264 51.0777 8.39387 51.0777C8.34511 51.0777 8.29683 51.0874 8.25178 51.1061C8.20674 51.1247 8.16581 51.1521 8.13135 51.1866Z" fill="#6153BD"/>
<path d="M68.6571 35.5164C68.6155 35.716 68.5407 36.0903 68.4658 36.4795L69.9797 35.29L68.6571 35.5164Z" fill="#6153BD"/>
<path d="M63.6748 30.293C63.6932 30.3919 63.7046 30.4918 63.7081 30.5924L64.0583 30.1183L63.6748 30.293Z" fill="#6153BD"/>
<path d="M69.8546 24.2553C69.8525 24.1135 69.7992 23.9772 69.7043 23.8716C69.6095 23.7661 69.4797 23.6985 69.3388 23.6814C69.43 23.5692 69.4771 23.4274 69.4711 23.2829C69.4651 23.1385 69.4065 23.0011 69.3063 22.8968C69.2061 22.7926 69.0712 22.7285 68.9271 22.7167C68.7829 22.705 68.6394 22.7463 68.5236 22.8329C68.5053 22.6855 68.4339 22.5497 68.3229 22.451C68.2118 22.3523 68.0687 22.2973 67.9201 22.2962C67.7715 22.2952 67.6276 22.3483 67.5152 22.4455C67.4028 22.5427 67.3296 22.6774 67.3092 22.8246C67.1953 22.7371 67.0533 22.6942 66.91 22.704C66.7667 22.7137 66.6319 22.7754 66.5308 22.8775C66.4298 22.9797 66.3695 23.1151 66.3613 23.2585C66.353 23.402 66.3974 23.5434 66.4861 23.6564C66.3793 23.6695 66.2781 23.7116 66.1934 23.7781C66.1088 23.8445 66.0439 23.9329 66.0059 24.0335C65.9678 24.1342 65.958 24.2434 65.9776 24.3492C65.9971 24.4551 66.0452 24.5536 66.1166 24.634C66.2116 24.7417 66.3434 24.8113 66.4861 24.8293C66.397 24.9422 66.3523 25.0838 66.3605 25.2274C66.3687 25.371 66.4293 25.5066 66.5308 25.6086C66.6319 25.7106 66.7668 25.7722 66.9101 25.7818C67.0534 25.7915 67.1953 25.7486 67.3092 25.6611C67.3262 25.8041 67.3948 25.936 67.5021 26.032C67.6093 26.1281 67.7479 26.1817 67.8919 26.183C68.036 26.184 68.1754 26.1324 68.2841 26.0378C68.3928 25.9433 68.4632 25.8123 68.4821 25.6694C68.5955 25.7574 68.7369 25.8014 68.8803 25.7931C69.0236 25.7848 69.159 25.7249 69.2615 25.6244C69.3641 25.5239 69.4267 25.3896 69.4379 25.2465C69.449 25.1034 69.4079 24.9611 69.3222 24.8459C69.469 24.8325 69.6053 24.7643 69.7039 24.6548C69.8026 24.5453 69.8564 24.4027 69.8546 24.2553Z" fill="#6153BD"/>
<path d="M68.075 27.2324C68.2247 27.1897 68.3549 27.0965 68.4435 26.9686C68.5321 26.8408 68.5736 26.6861 68.561 26.531C68.548 26.376 68.4817 26.2304 68.3734 26.1188C68.2651 26.0072 68.1214 25.9366 67.9669 25.919C68.0693 25.8094 68.1322 25.6687 68.1457 25.5193C68.1592 25.37 68.1224 25.2203 68.0413 25.0942C67.9601 24.968 67.8392 24.8727 67.6976 24.8232C67.556 24.7737 67.4019 24.7729 67.2599 24.821C67.2947 24.6734 67.2788 24.5184 67.2147 24.3809C67.1506 24.2435 67.042 24.1317 66.9066 24.0636C66.7711 23.9955 66.6167 23.9749 66.4681 24.0052C66.3196 24.0354 66.1855 24.1148 66.0874 24.2304C66.0611 24.1154 66.0061 24.0089 65.9277 23.9208C65.8492 23.8327 65.7498 23.7657 65.6386 23.7262C65.5275 23.6867 65.4081 23.6759 65.2917 23.6948C65.1752 23.7137 65.0654 23.7616 64.9723 23.8342C64.8479 23.9317 64.7601 24.0684 64.7232 24.2221C64.6276 24.1047 64.4951 24.0231 64.3472 23.9906C64.1994 23.9581 64.0448 23.9767 63.9089 24.0432C63.7729 24.1098 63.6634 24.2204 63.5983 24.3571C63.5332 24.4938 63.5163 24.6485 63.5504 24.796C63.4086 24.7447 63.2538 24.7424 63.1106 24.7895C62.9674 24.8366 62.8441 24.9304 62.7606 25.0559C62.677 25.1814 62.638 25.3313 62.6498 25.4816C62.6615 25.6319 62.7234 25.7739 62.8254 25.8848C62.7104 25.8975 62.6006 25.9395 62.5066 26.0069C62.4126 26.0743 62.3375 26.1648 62.2886 26.2696C62.2398 26.3745 62.2187 26.4901 62.2275 26.6055C62.2364 26.7208 62.2747 26.8319 62.339 26.9281C62.4248 27.0573 62.5526 27.1523 62.7006 27.1982C62.6232 27.2431 62.5555 27.3031 62.5017 27.3746C62.4479 27.4462 62.409 27.5278 62.3873 27.6146C62.3655 27.7014 62.3615 27.7917 62.3753 27.8802C62.3891 27.9686 62.4205 28.0534 62.4677 28.1294C63.0859 25.356 64.3529 26.7285 64.5306 27.823C64.5722 27.9981 64.6803 28.006 64.9049 27.7485C65.3707 27.1995 65.9955 28.0524 65.063 28.7962C65.0113 28.8374 64.9421 29.1653 64.9964 29.9441C65.0812 29.9114 65.1587 29.8622 65.2243 29.7994C65.29 29.7365 65.3426 29.6613 65.3791 29.5781C65.4387 29.7211 65.546 29.839 65.6828 29.9118C65.8195 29.9845 65.9773 30.0077 66.1292 29.9773C66.2811 29.9469 66.4178 29.8649 66.516 29.7451C66.6142 29.6253 66.6679 29.4752 66.6679 29.3202C66.79 29.4058 66.937 29.4481 67.0858 29.4406C67.2346 29.433 67.3767 29.376 67.4894 29.2785C67.6021 29.1811 67.6791 29.0488 67.7081 28.9027C67.7371 28.7565 67.7165 28.6049 67.6495 28.4718C67.7448 28.4842 67.8416 28.4759 67.9335 28.4476C68.0253 28.4193 68.11 28.3715 68.1817 28.3076C68.2535 28.2438 68.3107 28.1652 68.3495 28.0773C68.3883 27.9893 68.4077 27.8941 68.4065 27.798C68.4032 27.6835 68.3711 27.5716 68.3132 27.4727C68.2553 27.3739 68.1734 27.2912 68.075 27.2324Z" fill="#6153BD"/>
<path d="M65.8207 38.8341C65.8242 38.8745 65.8195 38.9152 65.8071 38.9539C65.7948 38.9925 65.7749 39.0284 65.7486 39.0593C65.7223 39.0902 65.6901 39.1156 65.654 39.1341C65.6178 39.1525 65.5784 39.1636 65.5379 39.1668C65.4563 39.1732 65.3755 39.1471 65.3132 39.0941C65.2508 39.0411 65.212 38.9655 65.2052 38.884C65.2018 38.8435 65.2064 38.8028 65.2188 38.7642C65.2312 38.7255 65.2511 38.6897 65.2774 38.6588C65.3037 38.6278 65.3358 38.6024 65.372 38.584C65.4081 38.5655 65.4475 38.5544 65.488 38.5512C65.5696 38.5448 65.6504 38.571 65.7128 38.624C65.7751 38.677 65.8139 38.7525 65.8207 38.8341Z" fill="#6153BD"/>
<path d="M62.6352 36.7143C62.6386 36.7547 62.634 36.7954 62.6216 36.8341C62.6093 36.8727 62.5893 36.9086 62.5631 36.9395C62.5368 36.9704 62.5046 36.9958 62.4685 37.0143C62.4323 37.0327 62.3929 37.0439 62.3524 37.047C62.2708 37.0534 62.19 37.0273 62.1277 36.9743C62.0653 36.9213 62.0265 36.8457 62.0197 36.7642C62.0162 36.7237 62.0208 36.683 62.0332 36.6443C62.0455 36.6056 62.0654 36.5698 62.0917 36.5388C62.118 36.5079 62.1502 36.4825 62.1864 36.4641C62.2225 36.4456 62.262 36.4345 62.3025 36.4315C62.3841 36.425 62.4649 36.4512 62.5272 36.5042C62.5896 36.5572 62.6284 36.6327 62.6352 36.7143Z" fill="#6153BD"/>
<path d="M65.5131 34.252C65.5166 34.2925 65.512 34.3332 65.4996 34.3719C65.4873 34.4106 65.4674 34.4464 65.4411 34.4774C65.4148 34.5083 65.3826 34.5337 65.3464 34.5522C65.3103 34.5706 65.2708 34.5817 65.2303 34.5848C65.1487 34.5912 65.0679 34.565 65.0056 34.512C64.9432 34.459 64.9044 34.3835 64.8976 34.302C64.8942 34.2615 64.8988 34.2208 64.9112 34.1821C64.9236 34.1435 64.9435 34.1077 64.9698 34.0768C64.996 34.0458 65.0282 34.0204 65.0643 34.002C65.1005 33.9835 65.1399 33.9724 65.1804 33.9692C65.262 33.9628 65.3428 33.989 65.4051 34.042C65.4675 34.095 65.5063 34.1705 65.5131 34.252Z" fill="#6153BD"/>
<path d="M69.705 23.8718C69.8001 23.9769 69.8535 24.1135 69.8557 24.2553C69.8573 24.4026 69.8034 24.5451 69.7048 24.6545C69.6062 24.764 69.47 24.8323 69.3233 24.8459C69.4097 24.9611 69.4513 25.1037 69.4406 25.2472C69.4298 25.3908 69.3673 25.5255 69.2646 25.6265C69.1617 25.7272 69.0257 25.7871 68.882 25.795C68.7382 25.8028 68.5965 25.7582 68.4832 25.6694C68.4642 25.8121 68.3939 25.9431 68.2853 26.0376L68.2826 26.0398C68.426 26.1425 68.5233 26.2974 68.5535 26.4712C68.5837 26.645 68.5445 26.8237 68.4442 26.9688C68.3553 27.0966 68.2253 27.1899 68.0756 27.2323C68.1741 27.2909 68.2563 27.3735 68.3142 27.4724C68.3722 27.5713 68.4041 27.6834 68.407 27.798C68.4085 27.8941 68.3892 27.9894 68.3504 28.0773C68.3117 28.1653 68.2543 28.2438 68.1824 28.3076C68.1106 28.3715 68.0259 28.4193 67.9341 28.4476C67.8422 28.476 67.7453 28.4842 67.65 28.4718C67.7162 28.6049 67.7363 28.7563 67.7071 28.9021C67.678 29.0479 67.6012 29.1798 67.4889 29.2773C67.3764 29.3746 67.2346 29.4317 67.086 29.4394C66.9375 29.4472 66.7905 29.4052 66.6685 29.3202C66.6683 29.4749 66.6145 29.6248 66.5162 29.7443C66.4179 29.8638 66.2813 29.9455 66.1295 29.9756C65.9779 30.0058 65.8204 29.9828 65.6838 29.9103C65.5472 29.8379 65.4397 29.7205 65.3796 29.5781C65.3432 29.6614 65.2907 29.7366 65.225 29.7994C65.1593 29.8623 65.0818 29.9114 64.997 29.9441C64.9427 29.1652 65.0118 28.8373 65.0635 28.7962C65.996 28.0523 65.3713 27.1995 64.9054 27.7485C64.6809 28.0059 64.5727 27.9981 64.5311 27.8229C64.3534 26.7284 63.0864 25.3559 62.4682 28.1294C62.3974 28.0147 62.3627 27.8814 62.3688 27.7467C62.3749 27.6121 62.4214 27.4824 62.5024 27.3746C62.5562 27.3033 62.6236 27.2433 62.7011 27.1982C62.5528 27.1528 62.4246 27.0577 62.3383 26.9287C62.2521 26.7998 62.213 26.645 62.2276 26.4906C62.2423 26.3361 62.3098 26.1915 62.4189 26.0811C62.5279 25.9707 62.6717 25.9014 62.8259 25.8848C62.7246 25.7735 62.6633 25.6316 62.6518 25.4815C62.6403 25.3315 62.6792 25.1819 62.7624 25.0565C62.8457 24.931 62.9686 24.8371 63.1116 24.7899C63.2546 24.7426 63.4093 24.7448 63.5509 24.796C63.5177 24.6486 63.535 24.4944 63.6001 24.3581C63.6653 24.2218 63.7744 24.1114 63.9099 24.0447C64.0457 23.9782 64.2 23.9595 64.3477 23.9917C64.4954 24.0239 64.6279 24.1051 64.7238 24.222C64.7564 24.0862 64.8288 23.9632 64.9319 23.8688C65.0349 23.7745 65.1638 23.7131 65.302 23.6926C65.4402 23.6721 65.5814 23.6934 65.7074 23.7537C65.8334 23.814 65.9385 23.9106 66.0091 24.0311C66.0474 23.9312 66.1121 23.8435 66.1963 23.7775C66.2805 23.7115 66.381 23.6696 66.4872 23.6564C66.42 23.5723 66.3772 23.4713 66.3635 23.3646C66.3497 23.2578 66.3655 23.1493 66.4091 23.0509C66.4527 22.9524 66.5225 22.8679 66.6108 22.8063C66.6992 22.7448 66.8027 22.7087 66.9101 22.702C67.0542 22.6924 67.1965 22.7361 67.3103 22.8246C67.3312 22.6779 67.4046 22.5438 67.5169 22.4471C67.6293 22.3505 67.7728 22.2979 67.921 22.2992C68.0692 22.3 68.2121 22.3545 68.3231 22.4527C68.4341 22.5508 68.5058 22.6859 68.5247 22.8329C68.6111 22.7679 68.7136 22.7278 68.8211 22.7169C68.9286 22.706 69.037 22.7248 69.1347 22.7712C69.2323 22.8175 69.3153 22.8897 69.3748 22.98C69.4343 23.0702 69.468 23.175 69.4721 23.2829C69.4783 23.4274 69.431 23.5693 69.3399 23.6813C69.4805 23.6989 69.6105 23.7663 69.705 23.8718Z" stroke="#120071" stroke-width="0.769171" stroke-linejoin="round"/>
<path d="M55.8569 47.2687H52.3965" stroke="#120071" stroke-width="0.769171" stroke-linecap="round" stroke-linejoin="round"/>
<path d="M59.458 47.2687H71.1433C71.507 47.268 71.8556 47.1232 72.1128 46.8661C72.3699 46.6089 72.5147 46.2603 72.5154 45.8966V33.2954" stroke="#120071" stroke-width="0.769171" stroke-linecap="round" stroke-linejoin="round"/>
<path d="M72.5166 27.2402V26.4837C72.5162 26.1197 72.3715 25.7708 72.114 25.5134C71.8566 25.2561 71.5076 25.1114 71.1436 25.1112H69.4336" stroke="#120071" stroke-width="0.769171" stroke-linecap="round" stroke-linejoin="round"/>
<path d="M53.019 25.1112H45.5327C45.1688 25.1117 44.82 25.2564 44.5627 25.5137C44.3054 25.771 44.1606 26.1198 44.1602 26.4837V30.0019" stroke="#120071" stroke-width="0.769171" stroke-linecap="round" stroke-linejoin="round"/>
<path d="M63.6586 24.2172V23.2063H53.0205V26.1093H62.3054" stroke="#120071" stroke-width="0.769171" stroke-linecap="round" stroke-linejoin="round"/>
<path d="M59.2255 22.2414C59.2253 22.3717 59.1963 22.5004 59.1405 22.6182C59.0847 22.7359 59.0035 22.8399 58.9027 22.9225C58.802 23.0052 58.6842 23.0645 58.5578 23.0963C58.4314 23.128 58.2995 23.1313 58.1717 23.1061C58.008 23.0734 57.857 22.9949 57.7362 22.8798C57.6154 22.7646 57.5297 22.6175 57.4892 22.4556C57.4487 22.2937 57.455 22.1236 57.5074 21.9652C57.5598 21.8067 57.6561 21.6664 57.7852 21.5605C57.9142 21.4546 58.0706 21.3876 58.2363 21.3672C58.4019 21.3467 58.5699 21.3737 58.7208 21.4451C58.8717 21.5164 58.9993 21.6291 59.0886 21.7701C59.1779 21.9111 59.2254 22.0745 59.2255 22.2414Z" stroke="#120071" stroke-width="0.769171" stroke-linecap="round" stroke-linejoin="round"/>
<path d="M69.7301 29.4446V27.9639H68.4141" stroke="#120071" stroke-width="0.769171" stroke-linecap="round" stroke-linejoin="round"/>
<path d="M53.9107 30.7339H46.9326V27.9639H53.9107V30.7339Z" stroke="#120071" stroke-width="0.769171" stroke-linecap="round" stroke-linejoin="round"/>
<path d="M48.6709 33.5367H53.9109V35.8658H50.4593" stroke="#120071" stroke-width="0.769171" stroke-linecap="round" stroke-linejoin="round"/>
<path d="M46.9326 39.9578V38.6852H47.4151" stroke="#120071" stroke-width="0.769171" stroke-linecap="round" stroke-linejoin="round"/>
<path d="M49.2034 41.006H48.1553" stroke="#120071" stroke-width="0.769171" stroke-linecap="round" stroke-linejoin="round"/>
<path d="M52.7295 38.6852H53.9107V39.9994" stroke="#120071" stroke-width="0.769171" stroke-linecap="round" stroke-linejoin="round"/>
<path d="M49.8184 43.6091H51.5735" stroke="#120071" stroke-width="0.769171" stroke-linecap="round" stroke-linejoin="round"/>
<path d="M52.4636 44.4991H50.2764" stroke="#120071" stroke-width="0.769171" stroke-linecap="round" stroke-linejoin="round"/>
<path d="M57.5703 43.6091H69.7306V44.4908H59.2755" stroke="#120071" stroke-width="0.769171" stroke-linecap="round" stroke-linejoin="round"/>
<path d="M21.8722 23.0816C21.1043 23.3331 20.4464 23.8413 20.0089 24.5207C19.6947 24.5135 19.3874 24.4269 19.1157 24.2689C18.8439 24.1109 18.6166 23.8868 18.4549 23.6172C18.2931 23.3477 18.2023 23.0417 18.1907 22.7275C18.1792 22.4134 18.2473 22.1015 18.3888 21.8209C18.5304 21.5402 18.7406 21.2999 19 21.1224C19.2595 20.945 19.5596 20.836 19.8724 20.8058C20.1853 20.7756 20.5007 20.8251 20.7893 20.9497C21.0779 21.0742 21.3303 21.2698 21.5229 21.5182C21.6953 21.7356 21.8162 21.9891 21.8767 22.2599C21.9372 22.5306 21.9357 22.8115 21.8722 23.0816Z" stroke="#120071" stroke-width="0.769171" stroke-linecap="round" stroke-linejoin="round"/>
<path d="M27.8018 33.4534C25.2481 31.4396 23.1939 32.2057 22.9277 30.0268" stroke="#120071" stroke-width="0.769171" stroke-linecap="round" stroke-linejoin="round"/>
<path d="M25.1486 29.2462C24.4948 29.7068 23.7262 29.9775 22.9281 30.0281C22.9281 30.0281 22.8948 29.321 22.9031 29.138C23.8593 30.1113 24.4914 28.98 24.5497 26.6597C23.955 26.6114 23.3729 26.4623 22.8282 26.2188C22.7201 26.6846 22.4955 27.3247 22.3125 26.9591C21.9548 26.2438 21.3931 26.8308 21.9299 27.4578C22.0065 27.548 21.88 28.6306 21.3642 29.5956C20.9183 29.3365 20.5188 29.0047 20.1822 28.614C19.7536 28.0604 19.4988 27.3921 19.45 26.6936C19.4012 25.9952 19.5607 25.2979 19.9081 24.6901C20.2556 24.0823 20.7755 23.5911 21.4021 23.2787C22.0288 22.9664 22.7339 22.8469 23.4285 22.9353C24.123 23.0237 24.7758 23.3161 25.3041 23.7754C25.8325 24.2348 26.2128 24.8406 26.3969 25.5161C26.581 26.1916 26.5607 26.9065 26.3385 27.5705C26.1163 28.2344 25.7022 28.8176 25.1486 29.2462Z" stroke="#120071" stroke-width="0.769171" stroke-linecap="round" stroke-linejoin="round"/>
<path d="M22.9286 30.0268C22.7517 29.8386 22.6195 29.6131 22.5417 29.3668C22.4639 29.1206 22.4427 28.86 22.4794 28.6043C22.6047 28.7939 22.7465 28.9721 22.9037 29.1367" stroke="#120071" stroke-width="0.769171" stroke-linecap="round" stroke-linejoin="round"/>
<path d="M19.5176 31.208C21.0648 31.9816 22.6697 32.1641 24.0007 31.5823" stroke="#120071" stroke-width="0.769171" stroke-linecap="round" stroke-linejoin="round"/>
<path d="M25.6234 34.1023C26.3808 35.4415 25.6234 38.6685 25.4658 39.8414C25.5893 40.2148 25.757 40.5721 25.9649 40.9061" stroke="#120071" stroke-width="0.769171" stroke-linecap="round" stroke-linejoin="round"/>
<path d="M18.1463 36.6393C18.0131 36.2304 17.9184 35.8098 17.8635 35.3833L16.8154 37.1962" stroke="#120071" stroke-width="0.769171" stroke-linecap="round" stroke-linejoin="round"/>
<path d="M18.7611 40.9061C19.0671 40.5807 19.3376 40.2236 19.5679 39.8409C18.9845 38.8256 18.508 37.7525 18.146 36.6389C16.8751 37.2196 15.5446 37.66 14.1782 37.9523C13.4011 38.125 12.5885 38.033 11.8697 37.691C11.1509 37.3489 10.567 36.7764 10.2108 36.0645L6.78418 29.1949C7.25056 28.6375 7.83305 28.1887 8.49094 27.8797C9.14883 27.5708 9.86624 27.4093 10.593 27.4065L13.6042 33.4867C15.8847 32.8331 18.092 31.9468 20.1914 30.8419C20.6925 30.548 21.0972 30.1144 21.3559 29.5942" stroke="#120071" stroke-width="0.769171" stroke-linecap="round" stroke-linejoin="round"/>
<path d="M39.434 25.1112H32.0527" stroke="#120071" stroke-width="0.769171" stroke-linecap="round" stroke-linejoin="round"/>
<path d="M19.6477 25.1112H13.9287C13.5649 25.1117 13.2161 25.2564 12.9589 25.5137C12.7016 25.7711 12.557 26.1199 12.5566 26.4837V31.3328" stroke="#120071" stroke-width="0.769171" stroke-linecap="round" stroke-linejoin="round"/>
<path d="M27.7114 26.1093H26.4887M28.144 26.1093H32.0535V23.2063H24.5186" stroke="#120071" stroke-width="0.769171" stroke-linecap="round" stroke-linejoin="round"/>
<path d="M27.6189 22.2414C27.6189 22.4753 27.526 22.6995 27.3607 22.8649C27.1953 23.0302 26.971 23.1231 26.7372 23.1231C26.5033 23.1231 26.2791 23.0302 26.1137 22.8649C25.9484 22.6995 25.8555 22.4753 25.8555 22.2414C25.8555 22.0076 25.9484 21.7833 26.1137 21.6179C26.2791 21.4526 26.5033 21.3597 26.7372 21.3597C26.971 21.3597 27.1953 21.4526 27.3607 21.6179C27.526 21.7833 27.6189 22.0076 27.6189 22.2414Z" stroke="#120071" stroke-width="0.769171" stroke-linecap="round" stroke-linejoin="round"/>
<path d="M28.3756 34.851V40.9062H15.334V37.6787" stroke="#120071" stroke-width="0.769171" stroke-linecap="round" stroke-linejoin="round"/>
<path d="M15.334 32.9211V27.8641H19.7019" stroke="#120071" stroke-width="0.769171" stroke-linecap="round" stroke-linejoin="round"/>
<path d="M38.1402 30.5176H31.1621V27.8641H38.1402V30.5176Z" stroke="#120071" stroke-width="0.769171" stroke-linecap="round" stroke-linejoin="round"/>
<path d="M38.1403 44.4991H15.334V43.6091H38.1403V44.4991Z" stroke="#120071" stroke-width="0.769171" stroke-linecap="round" stroke-linejoin="round"/>
<path d="M38.1402 36.7724V40.9062H31.1621V39.8331" stroke="#120071" stroke-width="0.769171" stroke-linecap="round" stroke-linejoin="round"/>
<path d="M32.0195 32.7049H35.6874" stroke="#120071" stroke-width="0.769171" stroke-linecap="round" stroke-linejoin="round"/>
<path d="M81.3085 77.9603H6.68457" stroke="#120071" stroke-width="0.769171" stroke-linecap="round" stroke-linejoin="round"/>
<path d="M43.813 29.9186C43.0062 30.6839 41.7991 30.5841 40.378 30.0018C40.8522 29.877 40.7283 28.6376 40.7856 28.1053C40.1534 28.6792 39.5046 29.1284 39.28 28.7707C39.0721 28.3964 39.0554 27.5812 39.3882 25.3773C39.5961 25.4877 39.8128 25.5796 40.037 25.6518C39.9538 26.5003 40.2471 26.5511 40.4196 26.2507C40.7392 25.6952 41.3679 26.1509 40.7524 26.9994C41.0684 27.3233 42.3722 28.7068 42.5824 28.9371C42.9116 29.3546 43.3327 29.6905 43.813 29.9186Z" stroke="#120071" stroke-width="0.769171" stroke-linecap="round" stroke-linejoin="round"/>
<path d="M43.8135 29.9187C45.0678 30.2252 46.2091 30.8814 47.1049 31.8113C49.5631 34.1369 51.4168 38.0027 56.7058 42.7274C56.4485 43.4104 56.0447 44.0287 55.5228 44.5388C55.0009 45.049 54.3736 45.4386 53.685 45.6804C50.6077 42.7524 48.4782 40.4487 46.2424 36.9384" stroke="#120071" stroke-width="0.769171" stroke-linecap="round" stroke-linejoin="round"/>
<path d="M40.7859 28.1054C40.7609 28.3466 40.7609 28.671 40.7526 28.9871C40.2535 29.037 39.5132 29.062 39.3551 28.879L39.2803 28.7791C39.5049 29.1368 40.1537 28.6876 40.7859 28.1054Z" stroke="#120071" stroke-width="0.769171" stroke-linecap="round" stroke-linejoin="round"/>
<path d="M32.9512 34.4998V36.5627C33.1994 36.1985 33.4328 35.8592 33.6547 35.5444" stroke="#120071" stroke-width="0.769171" stroke-linecap="round" stroke-linejoin="round"/>
<path d="M38.606 36.082C37.6876 37.5709 36.5843 38.9375 35.3225 40.1491C34.066 41.3378 31.8775 40.9319 30.8977 39.5086C29.5217 37.4252 28.4099 35.1789 27.5879 32.8212C28.6819 31.9053 30.0463 31.3736 31.4716 31.3078C31.9838 32.8219 32.7202 34.2505 33.6562 35.5461C34.5143 34.3041 35.1553 33.3878 35.6802 32.7048C36.8535 31.158 37.4257 30.7706 38.5329 30.4593C39.0731 30.3074 39.7894 30.1528 40.3717 30.0018" stroke="#120071" stroke-width="0.769171" stroke-linecap="round" stroke-linejoin="round"/>
<path d="M45.1689 48.5747C45.1689 48.5747 46.2919 46.4951 46.3668 45.6221L46.2503 49.4813" stroke="#120071" stroke-width="0.769171" stroke-linecap="round" stroke-linejoin="round"/>
<path d="M38.3651 34.9258C38.3651 34.9258 39.372 39.7249 39.8457 40.4569C38.4317 49.6144 36.6853 68.1456 36.3525 71.3976C38.2389 72.2042 40.3402 72.3593 42.3246 71.8384C42.3246 71.8384 44.7763 52.8997 45.1703 48.5746L51.3253 53.7814C51.8488 54.2296 52.4651 54.5563 53.1299 54.738L62.1293 57.2247" stroke="#120071" stroke-width="0.769171" stroke-linecap="round" stroke-linejoin="round"/>
<path d="M66.8609 52.2425C65.2848 52.155 63.9714 60.2065 65.1697 61.8951C65.2426 62.0168 65.3543 62.1103 65.4868 62.1607C65.6194 62.2112 65.765 62.2155 65.9004 62.1731C65.9901 62.1451 66.0724 62.097 66.1412 62.033C67.8232 60.7122 68.8113 52.3493 66.8609 52.2425Z" stroke="#120071" stroke-width="0.769171" stroke-linecap="round" stroke-linejoin="round"/>
<path d="M37.2843 71.7636L37.153 72.8782C37.0917 73.4207 36.8899 73.9378 36.5674 74.3784C36.2449 74.8189 35.8129 75.1676 35.3142 75.3899C34.009 75.9741 32.7778 76.7113 31.6464 77.5859C31.6123 77.6131 31.5876 77.6502 31.5755 77.692C31.5635 77.7339 31.5648 77.7785 31.5792 77.8196C31.5937 77.8607 31.6205 77.8963 31.6561 77.9215C31.6916 77.9467 31.7341 77.9602 31.7777 77.9602C35.4955 77.9602 38.6144 77.9269 41.5844 77.9186C41.6169 76.9349 41.4674 75.9537 41.1435 75.0243C41.1027 74.8982 41.0913 74.7645 41.1103 74.6333C41.1825 74.0756 41.3432 72.5455 41.3931 72.0131" stroke="#120071" stroke-width="0.769171" stroke-linecap="round" stroke-linejoin="round"/>
<path d="M64.4492 51.785C64.2671 51.187 63.8481 50.8551 63.2886 51.1454C62.1118 51.7552 60.9473 54.8947 61.5554 56.5688C61.8347 57.3372 62.4454 57.5429 63.1849 56.7505" stroke="#120071" stroke-width="0.769171" stroke-linecap="round" stroke-linejoin="round"/>
<path d="M62.9434 51.4024C64.2287 51.7593 65.534 52.0398 66.8525 52.2426" stroke="#120071" stroke-width="0.769171" stroke-linecap="round" stroke-linejoin="round"/>
<path d="M61.4365 56.1009C61.9956 56.1889 62.5376 56.3631 63.0428 56.6175C63.573 57.0592 63.731 57.712 63.9329 58.4125C64.3492 59.8616 64.4368 61.7179 65.4008 62.1145" stroke="#120071" stroke-width="0.769171" stroke-linecap="round" stroke-linejoin="round"/>
<path d="M26.9453 28.1302C27.221 28.1437 27.4908 28.2149 27.7372 28.3393C27.9836 28.4636 28.2011 28.6384 28.3756 28.8522" stroke="#120071" stroke-width="0.769171" stroke-linecap="round" stroke-linejoin="round"/>
<path d="M28.8082 28.3965C28.6697 28.2426 28.5135 28.1058 28.3428 27.9889" stroke="#120071" stroke-width="0.769171" stroke-linecap="round" stroke-linejoin="round"/>
<path d="M26.8457 29.6774C27.0655 29.976 27.2498 30.2991 27.3947 30.6406" stroke="#120071" stroke-width="0.769171" stroke-linecap="round" stroke-linejoin="round"/>
<path d="M26.5801 28.8456C26.9045 28.7458 27.4618 28.9205 27.9859 29.4695" stroke="#120071" stroke-width="0.769171" stroke-linecap="round" stroke-linejoin="round"/>
<path d="M27.8934 32.5801C27.842 31.9099 27.6731 31.254 27.3943 30.6424C26.5126 30.5342 26.1142 29.424 26.3462 29.0225C26.3977 28.9357 26.4815 28.8728 26.5792 28.8474C26.5149 28.6791 26.509 28.4941 26.5625 28.322C26.6041 28.259 26.661 28.2075 26.7279 28.1726C26.7949 28.1377 26.8697 28.1204 26.9452 28.1224C26.9445 28.034 26.9615 27.9463 26.9951 27.8645C27.1312 27.5835 27.7437 27.59 28.3426 27.9893C27.4775 26.3594 27.6671 25.2207 27.8269 25.5608C28.369 26.5713 28.9659 27.5514 29.6149 28.4967C29.6398 28.2472 29.7068 27.8164 29.8894 27.7814C30.0978 27.7419 30.7129 30.2435 30.9707 31.3332" stroke="#120071" stroke-width="0.769171" stroke-linecap="round" stroke-linejoin="round"/>
<path d="M59.4588 46.7779C59.1106 46.6453 58.7716 46.4898 58.4439 46.3125C58.8148 46.6941 59.2063 47.0549 59.6168 47.3934C60.1601 47.7551 59.8922 48.0987 59.2175 47.7927C58.7976 47.5864 58.3919 47.3524 58.0031 47.0922C58.3192 47.4665 58.6029 47.8234 58.7351 47.9407C59.2202 48.3702 58.9124 48.6766 58.2942 48.2909C57.9318 48.052 57.5845 47.7909 57.2544 47.509C57.3516 47.7069 57.4659 47.896 57.5955 48.0747C58.0241 48.5448 57.7531 48.7313 57.1713 48.3159C56.051 47.4653 54.9896 46.5401 53.9941 45.5464C55.143 45.0558 56.0702 44.1583 56.5977 43.0259C57.0631 43.3905 57.5979 43.6566 58.1694 43.8079C59.9079 44.2483 59.7166 44.7478 57.6288 44.6314C58.2776 45.2855 59.0039 45.858 59.7915 46.3361C60.3335 46.6925 60.1588 47.0322 59.4588 46.7779Z" stroke="#120071" stroke-width="0.769171" stroke-linecap="round" stroke-linejoin="round"/>
<path d="M57.6533 45.8389C57.8446 45.9636 58.1191 46.1383 58.4435 46.313" stroke="#120071" stroke-width="0.769171" stroke-linecap="round" stroke-linejoin="round"/>
<path d="M57.6199 44.6322C57.4952 44.5009 57.3621 44.3661 57.2373 44.2163" stroke="#120071" stroke-width="0.769171" stroke-linecap="round" stroke-linejoin="round"/>
<path d="M57.0049 46.4119C57.1874 46.5433 57.5701 46.8112 58.0026 47.0857" stroke="#120071" stroke-width="0.769171" stroke-linecap="round" stroke-linejoin="round"/>
<path d="M56.5215 46.8528C56.6712 47.0025 56.9457 47.2437 57.2447 47.5016" stroke="#120071" stroke-width="0.769171" stroke-linecap="round" stroke-linejoin="round"/>
<path d="M39.3887 25.3773C39.4469 25.0446 39.5139 24.6037 39.6133 24.1878C39.7722 23.5228 40.4035 23.5141 40.3619 23.8884C40.7612 23.1647 41.3934 23.4309 41.2857 23.747C41.6512 23.0981 42.35 23.3643 42.1836 23.6971C42.5912 23.1314 43.2479 23.3726 43.0898 23.7386C43.5057 23.1896 44.2211 23.4558 43.764 24.2045C43.2282 25.0801 41.6079 27.5882 42.5032 28.853" stroke="#120071" stroke-width="0.769171" stroke-linecap="round" stroke-linejoin="round"/>
<path d="M76.625 31.8152L81.9898 36.3897L76.625 40.956" stroke="#120071" stroke-width="0.769171" stroke-linecap="round" stroke-linejoin="round"/>
<path d="M7.95681 31.9733L2.95801 36.2401L8.31449 40.8063" stroke="#120071" stroke-width="0.769171" stroke-linecap="round" stroke-linejoin="round"/>
<path d="M38.54 30.4594C38.54 30.4594 40.3201 37.0215 38.6153 36.0759" stroke="#120071" stroke-width="0.769171" stroke-linecap="round" stroke-linejoin="round"/>
<path d="M45.4453 30.5596C46.1327 31.2351 46.4019 33.5121 46.3209 34.9595C46.2071 36.5246 46.2237 38.0965 46.3708 39.6589C48.2144 40.4885 49.2388 42.3925 50.0221 44.0005C51.0702 46.1716 53.6996 48.5764 53.6996 48.5764L63.829 51.0622" stroke="#120071" stroke-width="0.769171" stroke-linecap="round" stroke-linejoin="round"/>
<path d="M39.6045 30.1931C39.9035 31.0473 40.1262 31.9264 40.2699 32.8199L44.9544 32.6952C44.791 31.7983 44.5631 30.9144 44.2723 30.0504" stroke="#120071" stroke-width="0.769171" stroke-linecap="round" stroke-linejoin="round"/>
<path d="M10.2691 49.5728L8.38965 51.4523" stroke="#120071" stroke-width="0.769171" stroke-linecap="round" stroke-linejoin="round"/>
<path d="M12.5566 37.9698V45.8966C12.5572 46.2603 12.702 46.609 12.9591 46.8661C13.2163 47.1233 13.565 47.2681 13.9287 47.2687H38.9218" stroke="#120071" stroke-width="0.769171" stroke-linecap="round" stroke-linejoin="round"/>
<path d="M14.9355 44.9067C15.397 45.3682 15.7113 45.9561 15.8387 46.5962C15.9661 47.2363 15.9007 47.8998 15.651 48.5028C15.4013 49.1057 14.9784 49.6211 14.4357 49.9837C13.8931 50.3463 13.2551 50.5399 12.6024 50.5399C11.9498 50.5399 11.3118 50.3463 10.7692 49.9837C10.2265 49.6211 9.80359 49.1057 9.55386 48.5028C9.30413 47.8998 9.23881 47.2363 9.36618 46.5962C9.49355 45.9561 9.80787 45.3682 10.2694 44.9067C10.8885 44.2886 11.7276 43.9414 12.6024 43.9414C13.4773 43.9414 14.3164 44.2886 14.9355 44.9067Z" stroke="#120071" stroke-width="0.769171" stroke-linecap="round" stroke-linejoin="round"/>
<path d="M36.4524 11.8366H32.8594" stroke="#120071" stroke-width="0.769171" stroke-linecap="round" stroke-linejoin="round"/>
<path d="M34.6602 13.633V10.04" stroke="#120071" stroke-width="0.769171" stroke-linecap="round" stroke-linejoin="round"/>
<path d="M54.0605 63.1884C54.0785 63.3942 54.0351 63.6004 53.9362 63.7816C53.8367 63.9624 53.686 64.1097 53.503 64.2051C53.32 64.3004 53.1129 64.3395 52.9078 64.3175C52.7025 64.2953 52.5084 64.2127 52.3502 64.08C52.1919 63.9473 52.0767 63.7707 52.019 63.5724C51.9615 63.3742 51.9638 63.1634 52.0258 62.9666C52.0877 62.7697 52.2065 62.5956 52.3671 62.466C52.5144 62.3475 52.6912 62.2712 52.8785 62.2454C53.0658 62.2195 53.2566 62.245 53.4305 62.3192C53.6044 62.3934 53.7549 62.5135 53.8659 62.6666C53.9768 62.8197 54.0441 63 54.0605 63.1884Z" stroke="#120071" stroke-width="0.769171" stroke-linecap="round" stroke-linejoin="round"/>
<path d="M84.7524 21.5515C84.3858 21.8092 83.9926 22.0268 83.5795 22.2003C83.646 22.1504 84.1202 21.5764 84.6775 20.8777C85.3429 20.0459 85.1591 19.6716 84.2366 20.5117C83.9095 20.8134 83.5591 21.0888 83.1885 21.3352C83.2301 21.277 83.8452 20.3121 84.2616 19.5218C84.7274 18.6235 84.3929 18.4072 83.7126 19.2723C83.6767 19.3161 82.4837 20.7332 82.1404 21.1111L82.3891 20.8287C82.4574 20.3624 82.5918 19.9084 82.7893 19.4807C83.1636 18.6051 82.8488 18.3525 82.2486 19.2894C82.2162 19.3397 81.3454 20.7477 81.1839 20.9364C81.0525 21.0883 80.8179 21.3357 80.6769 21.2866C80.1612 21.0953 79.5539 19.8642 79.1131 20.0805C78.8302 20.2118 79.3044 21.0121 79.5789 21.5861C79.7829 22.0156 79.4007 22.5374 78.9883 22.875C79.9489 23.5659 80.6861 24.5231 81.109 25.6283C82.8475 24.1726 83.2884 23.6582 84.6193 22.4424C84.769 22.3014 84.9437 22.136 85.135 21.9354C85.8504 21.1855 85.7173 20.8777 84.7524 21.5515Z" stroke="#120071" stroke-width="0.769171" stroke-linecap="round" stroke-linejoin="round"/>
<path d="M69.9797 35.2918L68.6571 35.5164C68.6155 35.716 68.5407 36.0904 68.4658 36.4796" stroke="#120071" stroke-width="0.769171" stroke-linecap="round" stroke-linejoin="round"/>
<path d="M65.8301 31.4243C66.1878 31.574 66.686 31.5394 67.3685 31.183C68.2161 30.7404 78.2478 22.7904 78.2478 22.7904C79.1379 22.1171 81.949 25.9426 81.0257 26.6168L68.4665 36.4813C68.193 37.9459 68.0566 39.4328 68.0589 40.9228" stroke="#120071" stroke-width="0.769171" stroke-linecap="round" stroke-linejoin="round"/>
<path d="M63.1011 32.0481C63.3411 31.825 63.5188 31.5432 63.6169 31.2306C63.715 30.918 63.7301 30.5852 63.6607 30.265C63.1327 30.4217 61.8613 30.5907 62.5106 27.8978C63.1235 25.3813 64.3222 26.7897 64.5144 27.7629C64.5551 27.9709 64.6369 28.0563 64.8979 27.7481C65.3628 27.1986 65.9884 28.0545 65.0559 28.7962C64.9246 28.9021 64.7617 30.9681 65.8212 31.423C64.6317 33.7529 63.7167 33.9692 63.1011 32.0481Z" stroke="#120071" stroke-width="0.769171" stroke-linecap="round" stroke-linejoin="round"/>
<path d="M63.6611 30.2645C63.789 30.2242 63.9558 30.1524 64.0582 30.1183L63.7014 30.5924" stroke="#120071" stroke-width="0.769171" stroke-linecap="round" stroke-linejoin="round"/>
<path d="M56.6895 37.9448C58.5939 34.9923 60.2991 33.2043 62.32 32.4969C62.6082 32.4015 62.8742 32.2489 63.1019 32.0481" stroke="#120071" stroke-width="0.769171" stroke-linecap="round" stroke-linejoin="round"/>
<path d="M61.0803 34.7345C60.5988 35.7659 60.1062 36.2068 61.28 39.6751C61.4551 40.1908 61.5046 40.3488 61.7541 41.006" stroke="#120071" stroke-width="0.769171" stroke-linecap="round" stroke-linejoin="round"/>
<path d="M63.9745 33.3287C63.4754 35.4997 63.6002 38.0447 64.1908 40.8562" stroke="#120071" stroke-width="0.769171" stroke-linecap="round" stroke-linejoin="round"/>
<path d="M81.707 20.8693C82.419 21.2499 82.9752 21.8678 83.2792 22.6157" stroke="#120071" stroke-width="0.769171" stroke-linecap="round" stroke-linejoin="round"/>
<path d="M81.5161 21.5515C81.9736 22.3583 81.9977 23.1149 81.3848 23.747" stroke="#120071" stroke-width="0.769171" stroke-linecap="round" stroke-linejoin="round"/>
<path d="M60.9221 38.5521C60.3717 39.4451 59.706 40.2618 58.9424 40.981" stroke="#120071" stroke-width="0.769171" stroke-linecap="round" stroke-linejoin="round"/>
<path d="M7.32896 28.6495C7.01462 27.879 6.64897 27.1304 6.23446 26.4088C5.80262 25.7544 5.30055 25.1491 4.73718 24.6038C3.90536 23.8035 3.98066 23.4891 5.07866 24.088C5.47969 24.3069 9.21412 26.8484 9.81128 27.474" stroke="#120071" stroke-width="0.769171" stroke-linecap="round" stroke-linejoin="round"/>
<path d="M7.81543 25.9513C8.37275 26.284 8.01419 25.1195 7.99843 24.6703C7.98092 24.1795 8.14597 23.6397 8.5807 24.9365C8.89865 25.8223 9.30832 26.6724 9.80304 27.4731" stroke="#120071" stroke-width="0.769171" stroke-linecap="round" stroke-linejoin="round"/>
<path d="M4.90481 24.7701C4.61149 24.5512 4.3059 24.3485 3.98981 24.1629C2.80775 23.501 2.76703 23.9134 3.24117 24.2711C3.64876 24.5775 4.33129 25.0591 4.67146 25.3857C5.2209 25.9111 6.59341 26.9495 6.85083 27.5563" stroke="#120071" stroke-width="0.769171" stroke-linecap="round" stroke-linejoin="round"/>
<path d="M3.17441 24.2212C2.40082 24.0049 2.34259 24.2282 2.45073 24.296C2.87802 24.5657 3.62141 24.923 4.03119 25.1611C4.26278 25.296 5.18698 25.8765 5.41157 26.0428" stroke="#120071" stroke-width="0.769171" stroke-linecap="round" stroke-linejoin="round"/>
<path d="M25.9307 36.5645L28.3675 38.0779" stroke="#120071" stroke-width="0.769171" stroke-linecap="round" stroke-linejoin="round"/>
<path d="M62.4697 27.9639H56.6895V41.006H69.7311V35.5164" stroke="#120071" stroke-width="0.769171" stroke-linecap="round" stroke-linejoin="round"/>
<path d="M29.6152 28.4962C29.7821 28.8067 29.9186 29.1327 30.0228 29.4694" stroke="#120071" stroke-width="0.769171" stroke-linecap="round" stroke-linejoin="round"/>
<path d="M39.2052 35.9739L40.5611 40.457L37.2842 71.7387" stroke="#120071" stroke-width="0.769171" stroke-linecap="round" stroke-linejoin="round" stroke-dasharray="1.14 1.9"/>
<path d="M45.9092 47.0524L52.6627 52.8997L61.3964 55.4034" stroke="#120071" stroke-width="0.769171" stroke-linecap="round" stroke-linejoin="round" stroke-dasharray="1.14 1.9"/>
</svg>
