<svg width="335" height="118" viewBox="0 0 335 118" fill="none" xmlns="http://www.w3.org/2000/svg">
<g clip-path="url(#clip0_82_6538)">
<rect width="335" height="118" rx="8" fill="#FFF7F8"/>
<path fill-rule="evenodd" clip-rule="evenodd" d="M335.196 15.4275C355.528 27.0489 388.464 22.0994 396.912 42.4464C406.546 65.6488 393.589 92.3276 374.427 109.913C354.445 128.252 325.581 138.509 297.521 133.661C270.722 129.032 246.401 110.49 239.539 86.6118C233.808 66.6653 260.797 53.602 269.01 34.4389C277.075 15.6206 264.427 -15.0028 285.708 -21.1157C306.986 -27.2275 316.258 4.60329 335.196 15.4275Z" fill="#FFEAEC"/>
<path fill-rule="evenodd" clip-rule="evenodd" d="M25.1957 106.007C45.5278 117.629 78.4642 112.679 86.9125 133.026C96.5464 156.229 83.5894 182.907 64.4272 200.493C44.4451 218.831 15.5814 229.088 -12.479 224.241C-39.2775 219.612 -63.5995 201.07 -70.4608 177.191C-76.1923 157.245 -49.2028 144.182 -40.9899 125.019C-32.9249 106.2 -45.5728 75.5769 -24.2917 69.464C-3.01435 63.3523 6.25835 95.183 25.1957 106.007Z" fill="#FFEAEC"/>
</g>
<defs>
<clipPath id="clip0_82_6538">
<rect width="335" height="118" rx="8" fill="white"/>
</clipPath>
</defs>
</svg>
